<svg xmlns="http://www.w3.org/2000/svg" viewBox="0 0 565.49 511.51"><defs><style>.cls-1,.cls-3{fill:#fff;}.cls-2{fill:#009cde;}.cls-2,.cls-3,.cls-4,.cls-5,.cls-6,.cls-7{fill-rule:evenodd;}.cls-4{fill:#1f140f;}.cls-5{fill:#a08a44;}.cls-6{fill:#00913d;}.cls-7{fill:#e0040b;}</style></defs><title>arangos</title><g id="Capa_2" data-name="Capa 2"><g id="Capa_1-2" data-name="Capa 1"><rect class="cls-1" width="565.49" height="511.51" rx="141.73" ry="141.73"/><g id="_Grupo_" data-name="&lt;Grupo&gt;"><path id="_Trazado_" data-name="&lt;Trazado&gt;" class="cls-2" d="M325.56,26.92S271.75,62.47,263.91,128.6C253,219.24,318.52,325.89,318.52,406.11c0,50.92-17.62,73.66-17.62,73.66s-16.81-.32-26.26-1.92S243.25,469,243.25,469l61.81-1-84.23-10.41,88.24-1-103-9.12L312,446.3,192.49,434.78l122-.64L181.28,423.09l134.83-.65-144.6-11.68,143.64-.32-156-12.18,157.26-.63L154.38,385.29l159.81-.64L144.93,371.52H312.59L140,359.51l169.74-.64-176.63-12,173.9-1-178.7-12.49,173.9-.64L124,320.12l175-.64L122.35,307l169.9-.64-169.9-12.49H290.49l-170.7-13.13H286.65L115.47,268.08l168-.64L115.47,254H278.8L118.51,241l156.13-.65L118.19,228l152.13-.64L123,214.27H268.07L123.63,200.66l140.92-.32L127.64,186.57l134.83-1L129.56,172.32l129.71-.8L135,158.87l123.3-.64L139,144.94l120.26-1.13-109.22-13,110.5-1.28L156.94,116.11l106-.64-99.44-13,103.6-1L173.27,89.05l97.69-1L188.81,75.44l89.67-1.6L203.22,61.67l84.71-1.28-66.14-13L298,46.77l-57.33-8.48,68.06-.64L259.59,32l55.88-.32-38-4.48s17-1.76,25.3-1.76C311.31,25.48,325.56,26.92,325.56,26.92Z"/><path id="_Trazado_2" data-name="&lt;Trazado&gt;" class="cls-2" d="M328.92,28.2S278.8,75.12,283.77,165.11c4.8,90,49.64,145.88,49.64,225.31,0,61.33-28.67,89.35-28.67,89.35s13.78-.32,23.86-2.56c10.09-2.4,27.7-8.81,27.7-8.81l-40.51-.32L380,456.71l-57.64.32,70.14-10.56-63.9-.17,78.79-11.85-76.86-.31,87.59-10.73-84.71-1,96.56-12-93.36-.32,103.77-12.18h-103l113.06-12.65-114-.32L456.71,371.2l-120.1.32,124.26-12.65-126.5-.32,133.07-12.33-135.95-.32,138.83-12.49-140.76-.32L473.2,319.8H325.56l152-13.13-156.45-.32,157.73-12.81H316.44l163.65-12.81-166.22.64,168.94-13.61H310.67l172.14-12.65-178.71-.8,177.27-13L301.22,241l178.55-13.3H298l180.47-13.45-183-.32,180.47-14.09-183.36.48,181.11-13.77-182.87.64L466.8,173l-178.55-1.44,177.91-13.29H287.29l174.54-13.29L287,143.81l165.74-14.25H290.49l154.69-13.77-154.37-.32,142-13-139.32-1.28L425,88.73l-128.26-.64L410.43,75.76,301.86,74.48,395.7,61l-86.95-.32,67.41-13.62H316.11l43.08-8.8L323,37.65l19.53-5-14.89-1,9.45-1.28a10.07,10.07,0,0,0-3.68-1.6C331.49,28.52,328.92,28.2,328.92,28.2Z"/></g><path id="_Trazado_3" data-name="&lt;Trazado&gt;" class="cls-3" d="M485.1,222.88c-1.71-5.21-8.76-2.44-11.45-2.28-6.62.38-18.11,0-18.11,0l-.76-2.71s8.3-19.29,7.15-24c-1.65-6.8-9.81-4.28-13.33-2.84C427.09,117.94,367.9,65.46,298.44,65.46S170.11,117.38,148.31,189.92c-3.83-1-8.62-1-9.84,4-.71,3,2.25,11.58,4.58,17.64q-.86,4.55-1.52,9.16c-3.9.07-10.41.13-14.78-.12-2.69-.16-9.74-2.93-11.45,2.28a11.36,11.36,0,0,0-.2,5c1,7.46,5,18.42,24.23,26.27,1,101.85,71.88,184.2,159.11,184.2,86.5,0,157.09-81.56,158.77-182.75,22.58-7.9,27-19.78,28.1-27.72A11.49,11.49,0,0,0,485.1,222.88Z"/><path id="_Trazado_4" data-name="&lt;Trazado&gt;" class="cls-3" d="M457.51,252.7c0,103.13-71.42,186.88-159.17,186.88-88.07,0-159.49-83.75-159.49-186.88,0-103.28,71.42-186.87,159.49-186.87C386.09,65.83,457.51,149.42,457.51,252.7Z"/><path id="_Trazado_5" data-name="&lt;Trazado&gt;" class="cls-4" d="M450,252.16c0,98.48-68.06,178.39-151.65,178.39-83.91,0-152-79.91-152-178.39,0-98.64,68.06-178.54,152-178.54C381.93,73.62,450,153.52,450,252.16Z"/><g id="_Grupo_2" data-name="&lt;Grupo&gt;"><path id="_Trazado_6" data-name="&lt;Trazado&gt;" class="cls-1" d="M253.67,125l0-.08-9.71,4,0,.06a31.14,31.14,0,0,1,.53,3.27,11.62,11.62,0,0,1-.06,2.9,7.09,7.09,0,0,1-1,2.59,9,9,0,0,1-2.3,2.39,7.38,7.38,0,0,1-8,1.06c-2.86-1.25-5.92-4-9.1-8.27-.59-.78-1.22-1.69-1.89-2.7a29.32,29.32,0,0,1-1.85-3.18,21.78,21.78,0,0,1-1.38-3.45,12.19,12.19,0,0,1-.56-3.46,7.63,7.63,0,0,1,.66-3.25,7,7,0,0,1,2.28-2.74,6.91,6.91,0,0,1,5.41-1.59,14.16,14.16,0,0,1,5.37,2.29l0,0L238.6,107l.05-.06-.06,0a28.22,28.22,0,0,0-6.6-3.84,12.29,12.29,0,0,0-5.69-.82,20.49,20.49,0,0,0-10.23,4.21,19.44,19.44,0,0,0-6.32,7.41,17.62,17.62,0,0,0-1.56,8.32,24.58,24.58,0,0,0,2.21,8.6A44.15,44.15,0,0,0,221.8,146a24.7,24.7,0,0,0,7.58,4.52,16.83,16.83,0,0,0,5.88,1,18,18,0,0,0,2.52-.17,19.44,19.44,0,0,0,8.89-4,19.78,19.78,0,0,0,7.39-9.67,17,17,0,0,0,.8-5.8A29.27,29.27,0,0,0,253.67,125Z"/><path id="_Trazado_compuesto_" data-name="&lt;Trazado compuesto&gt;" class="cls-1" d="M294.61,106.47c-.78-4.91-2.45-8.42-5-10.44s-6.35-2.63-11.37-1.83a18.19,18.19,0,0,0-7.63,3,14.62,14.62,0,0,0-5.06,6.41l0,.06,7.37,3.92,0-.07a13.34,13.34,0,0,1,2.45-3.79,7,7,0,0,1,4.08-1.88,5.24,5.24,0,0,1,3.13.37,3.08,3.08,0,0,1,1.65,2.51l.31,2a24.7,24.7,0,0,0-2.78.84,67,67,0,0,0-6.43,2.71,18.71,18.71,0,0,0-5.6,4.22,11.06,11.06,0,0,0-2.58,9.45,10.66,10.66,0,0,0,1.36,3.86,9.55,9.55,0,0,0,2.56,2.8,9.36,9.36,0,0,0,3.49,1.55,9.76,9.76,0,0,0,2.25.25,11.22,11.22,0,0,0,1.89-.16,18.25,18.25,0,0,0,5.28-1.61,21.32,21.32,0,0,0,4.48-3.07l.84,2.32,8.72-1.38Zm-17.12,12.07a8.36,8.36,0,0,1,2.34-2.15,17.43,17.43,0,0,1,3.09-1.53c1.1-.43,2-.78,2.84-1.08l1,6.07a26.61,26.61,0,0,1-2.83,2.62,7.37,7.37,0,0,1-3.45,1.65,3,3,0,0,1-2.42-.5,3.31,3.31,0,0,1-1.17-2.17A3.78,3.78,0,0,1,277.49,118.54Z"/><path id="_Trazado_7" data-name="&lt;Trazado&gt;" class="cls-1" d="M327.64,85.21c-2,1.19-3.53,3.63-4.49,7.24l-.9,3.34-4.58-1.22-2.17,8.13,4.64,1.25-7.2,26.86,0,.08,9.62,2.57,7.21-26.94,6.77,1.81,2.18-8.13-6.77-1.81.77-2.89c.33-1.22.91-1.88,1.71-1.94a8.92,8.92,0,0,1,2.93.35l2.71.72,2.18-8.13-6-1.61C332.55,83.91,329.66,84,327.64,85.21Z"/><path id="_Trazado_compuesto_2" data-name="&lt;Trazado compuesto&gt;" class="cls-1" d="M372.55,118.23a15.49,15.49,0,0,0-6.63-3.07,14.3,14.3,0,0,0-6.42.32,17.26,17.26,0,0,0-5.89,3.07,27.45,27.45,0,0,0-5,5.17,27.1,27.1,0,0,0-3.54,6.17,18.44,18.44,0,0,0-1.39,6.46,13.92,13.92,0,0,0,1.32,6.26,15,15,0,0,0,4.67,5.5,19.54,19.54,0,0,0,8.07,3.87,12.71,12.71,0,0,0,2.71.28c.51,0,1,0,1.56-.08a22.37,22.37,0,0,0,5-1.22l.07,0-3.07-8.1-.06,0a15.38,15.38,0,0,1-4.42.62,7,7,0,0,1-4.08-1.56,6.1,6.1,0,0,1-2.1-2.47,5.4,5.4,0,0,1-.36-2.63,8.21,8.21,0,0,1,.82-2.73c.43-.9.91-1.8,1.41-2.69L371.83,144l.06,0,2.86-3.78a16.27,16.27,0,0,0,2.89-5.88,19.34,19.34,0,0,0,.52-6.08A13.61,13.61,0,0,0,372.55,118.23Zm-13,7.44a15.63,15.63,0,0,1,1.83-1.5,6,6,0,0,1,2-.94,4.42,4.42,0,0,1,2.11,0,6.15,6.15,0,0,1,2.3,1.16,5.29,5.29,0,0,1,2.28,3.86,7.22,7.22,0,0,1-1.27,4.41Z"/><polygon id="_Trazado_8" data-name="&lt;Trazado&gt;" class="cls-1" points="390.5 114.91 380.4 107.28 380.37 107.25 367.7 111.92 374.54 117.08 390.5 114.91"/></g><path id="_Trazado_9" data-name="&lt;Trazado&gt;" class="cls-3" d="M392.5,249.82c0,64.06-42.28,116.1-94.16,116.1-52.2,0-94.48-52-94.48-116.1s42.28-116.09,94.48-116.09C350.22,133.73,392.5,185.77,392.5,249.82Z"/><path id="_Trazado_10" data-name="&lt;Trazado&gt;" class="cls-5" d="M389.13,249.82c0,61.81-40.83,111.94-90.79,111.94-50.28,0-91.12-50.13-91.12-111.94s40.84-111.93,91.12-111.93C348.3,137.89,389.13,188,389.13,249.82Z"/><path id="_Trazado_11" data-name="&lt;Trazado&gt;" class="cls-3" d="M311.31,144.77s-25.14,16.66-28.82,47.56c-5.13,42.6,25.46,92.56,25.46,130,0,23.86-8.17,34.43-8.17,34.43s-7.85-.16-12.33-.8c-4.32-.8-14.57-4.16-14.57-4.16l28.82-.48-39.39-4.81,41.31-.48-48.2-4.32,49.49-.64L249,335.81l57.17-.32-62.3-5.12,63.1-.32-67.74-5.61,67.26-.15-73-5.61,73.5-.32-75.75-5.77,74.79-.32-79.27-6.08h78.47l-80.71-5.6,79.26-.33-82.46-5.6,81.34-.32-83.75-5.93,81.51-.32L217,282.17l81.83-.32-82.63-5.77,79.59-.32-79.59-5.92H295l-79.91-6.09h78.15L213,257.83l78.62-.32L213,251.26h76.54L214.43,245l73-.16-73.18-5.93,71.26-.32-69-6.08h67.9l-67.58-6.41,66-.16-64.22-6.4,63.25-.48-62.29-6.25,60.85-.32-58.28-5.92,57.8-.32L224,200l56.36-.48-51.24-6.09,51.72-.63-48.52-6.25,49.64-.32-46.59-6.09,48.68-.48-44-5.76,45.8-.48-38.43-5.93,42-.8-35.23-5.6,39.71-.64-31.06-6.09,35.71-.32-26.9-4,31.86-.32-22.9-2.56,26.1-.16-17.77-2.08s8-.81,11.69-.81C304.58,144.13,311.31,144.77,311.31,144.77Z"/><path id="_Trazado_12" data-name="&lt;Trazado&gt;" class="cls-3" d="M312.91,145.42s-23.38,21.93-21.14,64.05C294.18,251.58,315,277.84,315,315c0,28.82-13.45,41.79-13.45,41.79a79.3,79.3,0,0,0,11.21-1.12c4.64-1.12,13-4.16,13-4.16l-18.89-.16,29.94-5.29-26.9.16,32.83-5-29.95-.16,37-5.45-36-.16,41-5L315,330.05l45.16-5.76-43.56-.17,48.53-5.6h-48.2l52.84-5.93-53.33-.16L372.8,306l-56.21.16,58.13-5.93-59.25-.16,62.3-5.6L314,294.34l65.18-5.93-66-.16L380.49,282H311.31l71.26-6.08-73.34-.17,73.82-6.08H307l76.7-5.93-77.82.32,79.1-6.4H304.26L385,251.58l-83.75-.32,83.11-5.92L299.94,245l83.59-6.25h-85l84.55-6.24-85.67-.16,84.39-6.57-85.83.16,84.71-6.4-85.51.32,82.3-6.73L294,212.51l83.11-6.24H293.54L375.2,200l-81.83-.48,77.51-6.72H295l72.38-6.41-72.22-.16,66.45-6.09-65.17-.64,61.49-5.76-60.05-.32L351,167.67,300.26,167l43.88-6.24-40.68-.16L335,154.22H307l20.17-4.16-17-.32,9.13-2.24-7.05-.48,4.49-.64a5.78,5.78,0,0,0-1.77-.64C314,145.58,312.91,145.42,312.91,145.42Z"/><g id="_Grupo_3" data-name="&lt;Grupo&gt;"><g id="_Grupo_4" data-name="&lt;Grupo&gt;"><path id="_Trazado_13" data-name="&lt;Trazado&gt;" class="cls-4" d="M193.61,246.94l-1.92-4.8,5.29-1.93,9.12,6.73C203.22,248.86,195.37,254.47,193.61,246.94Z"/><path id="_Trazado_14" data-name="&lt;Trazado&gt;" class="cls-4" d="M186.56,251.26c2.41-1.92,2.09-5,1-7.36l-1-.8c6.09-3.21,3.53,6.4,7.85,8A14.59,14.59,0,0,1,186.56,251.26Z"/><path id="_Trazado_15" data-name="&lt;Trazado&gt;" class="cls-4" d="M160,250c0-2.72-3-4.48-1.6-7.2,1-1.13,1.44-3.21,3.36-3.21,3,2.24,6.73,5.77,11,4.49-1.6,2.4-3.84,5-3,8.16-.48,1.45,2.24,2.41.64,3.37C165.91,256.87,162.39,252.86,160,250Z"/><path id="_Trazado_16" data-name="&lt;Trazado&gt;" class="cls-4" d="M171.67,252.39a6.16,6.16,0,0,1,2.73-7c2.4-3.2,6.24-1,9.6-2.08,1.93.64,1.77,3.2,2.41,5.12-1,5.76-5.61,6.41-9.93,5.13C175.36,254.47,172.47,254.79,171.67,252.39Z"/><path id="_Trazado_17" data-name="&lt;Trazado&gt;" class="cls-4" d="M198.9,239.41c1.6-1,3.52-3.2,6.08-3.36a32.75,32.75,0,0,0,8.49,4.32c-1,1.93-2.88,3.21-4.33,4.81C205.46,244.54,201.78,242,198.9,239.41Z"/><path id="_Trazado_18" data-name="&lt;Trazado&gt;" class="cls-4" d="M181.44,246.62c-.16-.32.32-.64.48-1,.48-.32,1,.16,1.44.32C182.88,246.62,182.08,247.9,181.44,246.62Z"/><path id="_Trazado_19" data-name="&lt;Trazado&gt;" class="cls-4" d="M206.58,235.09c.8-1.92,3.21-3.84,5.29-4.64,1.92,1.76,6.4-.16,6.4,2.4-1.12,1.92-2.4,4.8-4.48,5.92Z"/><path id="_Trazado_20" data-name="&lt;Trazado&gt;" class="cls-4" d="M148,248.7c3.53-1.6,6.25-5.6,7.53-9.29,1-.32,2.08.16,3.2-.32-1.92,2.24-2.88,6.09-2.08,8.65C153.9,248.86,150.7,248.86,148,248.7Z"/><path id="_Trazado_21" data-name="&lt;Trazado&gt;" class="cls-4" d="M188.17,240.85c5.44-4.16,1.12-11.85,8.33-15-.17,4.33-1.45,8.49-2.09,12.81C193.13,240.69,190.25,240.06,188.17,240.85Z"/><path id="_Trazado_22" data-name="&lt;Trazado&gt;" class="cls-4" d="M199.22,224.36c1.6-1.44,4-1.44,5.92-2.08-1.28,4-3,7.85-2.88,12.33l-5.6,3.68A64.21,64.21,0,0,1,199.22,224.36Z"/><path id="_Trazado_23" data-name="&lt;Trazado&gt;" class="cls-4" d="M175.68,238.61a9.85,9.85,0,0,1,.48-7.68c1.76-3.53,5.76-4.33,9.45-4.33a4.33,4.33,0,0,1,4.16,2.73c1.44,3.2-.32,5.76-1.12,8.48C185.28,240.21,178.72,243.58,175.68,238.61Z"/><path id="_Trazado_24" data-name="&lt;Trazado&gt;" class="cls-4" d="M174.71,242.3a1.1,1.1,0,0,1,0-1l1,.81Z"/><path id="_Trazado_25" data-name="&lt;Trazado&gt;" class="cls-4" d="M137.08,247.1c3.37-1.92,6.09-4.8,8.81-7.69,2.56.48,6.73-1,7.37,1-1.28,4-5,6.41-8.65,7.53A15.07,15.07,0,0,1,137.08,247.1Z"/><path id="_Trazado_26" data-name="&lt;Trazado&gt;" class="cls-4" d="M161.11,242.94c0-.48.48-.48.79-.48.81.48,1.13,1.6,0,1.92A1.67,1.67,0,0,1,161.11,242.94Z"/><path id="_Trazado_27" data-name="&lt;Trazado&gt;" class="cls-4" d="M163,238c-1.92-1.92-1.61-5.12-1.29-7.52a9.17,9.17,0,0,1,6.41-5.93c2.24.16,5,.48,6.41,2.72.32,4.33-2.73,8.33-1,12.65C170.87,244.38,165.59,240.85,163,238Z"/><path id="_Trazado_28" data-name="&lt;Trazado&gt;" class="cls-4" d="M203.86,233.17c-.16-4,2.24-7.53,3.2-11.21l4.49-.64c-.48,2.56-2.73,5-1.92,7.85C207.54,230.13,206.26,232.69,203.86,233.17Z"/><path id="_Trazado_29" data-name="&lt;Trazado&gt;" class="cls-4" d="M127.64,242.3a43.66,43.66,0,0,0,10.25-5c1.76.64,3.52,1.6,5.28,1.76-.16,2.72-3,2.89-4.32,5-1.61.64-3.21,2.24-5.29,1.76C131.8,244.06,129.4,244.06,127.64,242.3Z"/><path id="_Trazado_30" data-name="&lt;Trazado&gt;" class="cls-4" d="M213.31,229.17c3.2-3.21,6.89-6.41,9.93-9.93-.16,2.72-2.25,6.56-3.21,10.09C217.79,229.33,215.39,229.65,213.31,229.17Z"/><path id="_Trazado_31" data-name="&lt;Trazado&gt;" class="cls-4" d="M213.79,221.32l6.56-1.92c-2.4,3.2-5.76,5.92-8.8,8.48C211.55,225.48,213,223.4,213.79,221.32Z"/><path id="_Trazado_32" data-name="&lt;Trazado&gt;" class="cls-4" d="M155,237.49c-1-4-.64-8.16-3-11.53,2.56-1.12,5.92-.48,8.48,1.6-.64,3.21-1.92,6.09-.48,9.77A13,13,0,0,0,155,237.49Z"/><path id="_Trazado_33" data-name="&lt;Trazado&gt;" class="cls-4" d="M142.37,227.08l-.16-.64c2.72-.32,5.76-.8,7.84.16a18.72,18.72,0,0,1,2.73,10.89C143.17,242.14,146.21,231.09,142.37,227.08Z"/><path id="_Trazado_34" data-name="&lt;Trazado&gt;" class="cls-4" d="M186.09,229.65c0-.65,0-2.41,1-1.44,1.44.16.8,1.44.48,2.24C186.89,230.93,186.56,230,186.09,229.65Z"/><path id="_Trazado_35" data-name="&lt;Trazado&gt;" class="cls-4" d="M136.93,235.57c-1.13-3.36-1.44-7.2-3.53-10.09,2.72,1.12,7.21-1,7.85,3.36l2.4,8.81Z"/><path id="_Trazado_36" data-name="&lt;Trazado&gt;" class="cls-4" d="M125.56,240.06a11.45,11.45,0,0,1-2.89-5.29c4-.16,7-1.6,10.41,1.28a4.39,4.39,0,0,0,2.08.32l.16.64C132.28,238.29,129.4,240.37,125.56,240.06Z"/><path id="_Trazado_37" data-name="&lt;Trazado&gt;" class="cls-4" d="M166.71,227.4l.48-.64c1.12.16,1.12,1.76.8,2.41C167.19,229.17,166.71,228.37,166.71,227.4Z"/><path id="_Trazado_38" data-name="&lt;Trazado&gt;" class="cls-4" d="M166.87,222.28c.16-.64-.32-1.28-.64-1.92-2.4-.48-4.64,1.28-6.89,1.76,1.44.8,1.93,2.72,3.69,3.2C163.51,223.4,165.27,223.08,166.87,222.28Z"/><path id="_Trazado_39" data-name="&lt;Trazado&gt;" class="cls-4" d="M128.44,232.05l-1.76-5.93c1.6,0,3.36-.32,5,.32a36.8,36.8,0,0,1,2.88,8.33C132.44,234.45,130.52,233,128.44,232.05Z"/><path id="_Trazado_40" data-name="&lt;Trazado&gt;" class="cls-4" d="M165.11,217.8c-1.28-4.81-5.61-1.77-8.81-3.05-2.56-.64-5.28-1-7.53-2.08a12.27,12.27,0,0,0,3.53,7.85C156.62,221.16,161.42,219.4,165.11,217.8Z"/><path id="_Trazado_41" data-name="&lt;Trazado&gt;" class="cls-4" d="M120.75,231.57c.32-1-1.12-1.44-.48-2.4l5,3.36C123.64,233,121.55,233,120.75,231.57Z"/><path id="_Trazado_42" data-name="&lt;Trazado&gt;" class="cls-4" d="M175.68,224.2c1.44-4.64-1.6-9.13-2.24-13.61-1.45,2.08-2.41,6.08-4.81,8.17-.8,1,0,1.76-.16,2.72A10.62,10.62,0,0,1,175.68,224.2Z"/><path id="_Trazado_43" data-name="&lt;Trazado&gt;" class="cls-4" d="M118.83,224.84c2.4,1.44,6.73,0,6.73,4.33v1.44C123.15,229,119.63,227.88,118.83,224.84Z"/><path id="_Trazado_44" data-name="&lt;Trazado&gt;" class="cls-4" d="M160.78,213c-2.56-1.6-4-5.92-7.52-4.8L145.89,205c1,2.09.64,5.13,3,6.09C152.78,212.19,156.78,213.31,160.78,213Z"/><path id="_Trazado_45" data-name="&lt;Trazado&gt;" class="cls-4" d="M171.67,206.75c-1.28-3.37-4.48-5.13-7.36-6.89,1.76,5.77-3.85,13.29,2.72,17.62C169.91,215.55,171.19,210.43,171.67,206.75Z"/><path id="_Trazado_46" data-name="&lt;Trazado&gt;" class="cls-4" d="M161.9,210.75c.49-4,1.29-7.85.33-11.69a19.22,19.22,0,0,0-7.37-1.76l1.12,8.49C157.42,207.87,160.15,208.67,161.9,210.75Z"/><path id="_Trazado_47" data-name="&lt;Trazado&gt;" class="cls-4" d="M151.66,205.14c-3.21-2.88-6.73-6.08-9-10.08,0,2.24,1.6,7,4.32,8.64C148.61,204.18,150.05,205.14,151.66,205.14Z"/><path id="_Trazado_48" data-name="&lt;Trazado&gt;" class="cls-4" d="M152.94,197c-2.4-.8-5.45-1.28-6.73-1.6,2.4,3,4.49,6.4,7.53,8.8Z"/></g><path id="_Trazado_49" data-name="&lt;Trazado&gt;" class="cls-6" d="M193.29,248.22l-1.92-4.8,5.29-1.92,9.12,6.72C202.74,250,194.89,255.59,193.29,248.22Z"/><path id="_Trazado_50" data-name="&lt;Trazado&gt;" class="cls-6" d="M186.09,252.54c2.4-2.08,2.24-5,1.12-7.36l-1-.8c6.08-3.2,3.52,6.4,7.84,8C191.21,253.18,188.81,252.86,186.09,252.54Z"/><path id="_Trazado_51" data-name="&lt;Trazado&gt;" class="cls-7" d="M159.66,251.26c-1.6-2.4-2.4-4.64-1.6-7.2,1-1.28,1.44-3.37,3.36-3.37,2.89,2.25,6.73,5.93,11.05,4.49-1.76,2.56-3.84,5.12-3.2,8.17-.32,1.6,2.24,2.4.8,3.52C165.59,258.15,162.07,254.14,159.66,251.26Z"/><path id="_Trazado_52" data-name="&lt;Trazado&gt;" class="cls-7" d="M171.35,253.67a6,6,0,0,1,2.73-7c2.4-3.2,6.24-1.12,9.6-2.08,1.93.64,1.76,3.2,2.41,5.12C184,257.67,173.12,258,171.35,253.67Z"/><path id="_Trazado_53" data-name="&lt;Trazado&gt;" class="cls-6" d="M198.42,240.69c1.76-1,3.68-3.2,6.24-3.52a29,29,0,0,0,8.49,4.48c-1,1.93-2.88,3-4.33,4.65C205,245.82,201.46,243.1,198.42,240.69Z"/><path id="_Trazado_54" data-name="&lt;Trazado&gt;" class="cls-4" d="M181.12,247.9c-.32-.48.16-.64.48-1.12a1.33,1.33,0,0,1,1.28.48C182.56,247.9,181.76,249.18,181.12,247.9Z"/><path id="_Trazado_55" data-name="&lt;Trazado&gt;" class="cls-6" d="M206.1,236.37a10.36,10.36,0,0,1,5.45-4.64c1.92,1.76,6.4-.32,6.4,2.4-1.12,1.92-2.4,4.8-4.48,5.76Z"/><path id="_Trazado_56" data-name="&lt;Trazado&gt;" class="cls-6" d="M147.65,249.82c3.37-1.44,6.25-5.44,7.53-9.29,1-.16,1.92.16,3.2-.16-1.92,2.25-2.88,6.09-2.08,8.65A17.8,17.8,0,0,1,147.65,249.82Z"/><path id="_Trazado_57" data-name="&lt;Trazado&gt;" class="cls-6" d="M187.85,242c5.44-4,1.12-11.85,8.32-15.06-.16,4.49-1.44,8.65-2.08,13C192.81,242,189.93,241.33,187.85,242Z"/><path id="_Trazado_58" data-name="&lt;Trazado&gt;" class="cls-6" d="M198.9,225.48c1.6-1.28,4-1.28,5.92-1.92-1.44,3.84-3,7.85-3,12.17l-5.45,3.68A59.22,59.22,0,0,1,198.9,225.48Z"/><path id="_Trazado_59" data-name="&lt;Trazado&gt;" class="cls-7" d="M175.36,239.73a9.46,9.46,0,0,1,.48-7.52c1.76-3.53,5.76-4.33,9.44-4.49,1.61,0,3.69,1.28,4,2.89,1.44,3-.16,5.6-1,8.32C185,241.5,178.4,244.7,175.36,239.73Z"/><path id="_Trazado_60" data-name="&lt;Trazado&gt;" class="cls-4" d="M174.4,243.58c-.16-.32-.32-.8,0-1l1,.8Z"/><path id="_Trazado_61" data-name="&lt;Trazado&gt;" class="cls-6" d="M136.76,248.38a44.12,44.12,0,0,0,8.81-7.69c2.4.49,6.73-1,7.37,1-1.28,4-5,6.41-8.65,7.53A14.88,14.88,0,0,1,136.76,248.38Z"/><path id="_Trazado_62" data-name="&lt;Trazado&gt;" class="cls-4" d="M160.78,244.22c0-.48.49-.48.81-.48.64.48,1.12,1.6,0,1.92A1.69,1.69,0,0,1,160.78,244.22Z"/><path id="_Trazado_63" data-name="&lt;Trazado&gt;" class="cls-7" d="M162.71,239.25c-1.93-2.08-1.6-5.12-1.44-7.52a9.68,9.68,0,0,1,6.56-5.93c2.24.16,5,.48,6.41,2.72.32,4.33-2.73,8.33-1,12.66C170.55,245.66,165.27,242.14,162.71,239.25Z"/><path id="_Trazado_64" data-name="&lt;Trazado&gt;" class="cls-6" d="M203.54,234.45c-.16-4,2.24-7.53,3.2-11.21l4.49-.64c-.64,2.56-2.73,5-1.92,7.85C207.06,231.41,205.94,234,203.54,234.45Z"/><path id="_Trazado_65" data-name="&lt;Trazado&gt;" class="cls-6" d="M127.32,243.42a42.89,42.89,0,0,0,10.25-4.81c1.76.48,3.52,1.6,5.28,1.6-.16,2.89-3,3-4.32,5.13-1.77.64-3.21,2.24-5.29,1.6C131.48,245.34,129.08,245.34,127.32,243.42Z"/><path id="_Trazado_66" data-name="&lt;Trazado&gt;" class="cls-6" d="M213,230.45c3.2-3.21,6.88-6.41,9.93-10.09-.16,2.88-2.25,6.72-3.37,10.25C217.47,230.45,215.07,230.93,213,230.45Z"/><path id="_Trazado_67" data-name="&lt;Trazado&gt;" class="cls-6" d="M213.47,222.44l6.56-1.76a57.13,57.13,0,0,1-9,8.49C211.07,226.76,212.67,224.68,213.47,222.44Z"/><path id="_Trazado_68" data-name="&lt;Trazado&gt;" class="cls-6" d="M154.7,238.77c-1-4-.64-8.16-3-11.53,2.56-1.28,5.92-.48,8.49,1.6-.65,3.21-1.93,6.09-.49,9.61A17.64,17.64,0,0,0,154.7,238.77Z"/><path id="_Trazado_69" data-name="&lt;Trazado&gt;" class="cls-6" d="M141.89,228.37v-.65c2.72-.32,5.76-.8,7.85.16a18.2,18.2,0,0,1,2.72,10.89C142.85,243.42,145.89,232.21,141.89,228.37Z"/><path id="_Trazado_70" data-name="&lt;Trazado&gt;" class="cls-4" d="M185.77,230.93c0-.64,0-2.41,1-1.44,1.44.16.8,1.44.48,2.24C186.56,232.21,186.25,231.09,185.77,230.93Z"/><path id="_Trazado_71" data-name="&lt;Trazado&gt;" class="cls-6" d="M136.61,236.85c-1.12-3.36-1.45-7.36-3.53-10.09,2.72,1,7.21-1,7.85,3.37l2.4,8.8Z"/><path id="_Trazado_72" data-name="&lt;Trazado&gt;" class="cls-6" d="M125.23,241.18a12.5,12.5,0,0,1-3-5.29c4.17,0,7.21-1.6,10.57,1.44a3,3,0,0,0,2.08.16v.64C132,239.57,128.92,241.65,125.23,241.18Z"/><path id="_Trazado_73" data-name="&lt;Trazado&gt;" class="cls-4" d="M166.23,228.68l.64-.8c1.12.33,1.12,1.77.8,2.57C166.87,230.45,166.39,229.49,166.23,228.68Z"/><path id="_Trazado_74" data-name="&lt;Trazado&gt;" class="cls-6" d="M166.55,223.56c.16-.64-.48-1.28-.64-1.92-2.4-.32-4.64,1.28-6.89,1.92,1.44.8,1.92,2.56,3.69,3C163.19,224.84,165,224.52,166.55,223.56Z"/><path id="_Trazado_75" data-name="&lt;Trazado&gt;" class="cls-6" d="M128.12,233.17l-1.76-5.93c1.6.16,3.36-.16,5,.48a34.27,34.27,0,0,1,2.88,8.33C132,235.73,130.2,234.29,128.12,233.17Z"/><path id="_Trazado_76" data-name="&lt;Trazado&gt;" class="cls-6" d="M164.79,219.24c-1.44-5-5.61-1.92-9-3.05-2.4-.8-5.28-1.12-7.37-2.24a12.62,12.62,0,0,0,3.53,8C156.3,222.6,161.11,220.84,164.79,219.24Z"/><path id="_Trazado_77" data-name="&lt;Trazado&gt;" class="cls-6" d="M120.43,232.69c.32-1-1.12-1.44-.48-2.24l5,3.36C123.31,234.13,121.23,234.29,120.43,232.69Z"/><path id="_Trazado_78" data-name="&lt;Trazado&gt;" class="cls-6" d="M175.36,225.64c1.44-4.64-1.61-9.12-2.4-13.61-1.29,1.92-2.25,6.08-4.81,8-.64,1,0,1.92,0,2.88A9.93,9.93,0,0,1,175.36,225.64Z"/><path id="_Trazado_79" data-name="&lt;Trazado&gt;" class="cls-6" d="M118.51,226.12c2.4,1.44,6.72,0,6.72,4.33v1.44C122.83,230.29,119.31,229.17,118.51,226.12Z"/><path id="_Trazado_80" data-name="&lt;Trazado&gt;" class="cls-6" d="M160.46,214.43c-2.56-1.76-4-6.08-7.52-5l-7.53-3.2c1,2.08.64,5.12,3.2,6.08C152.46,213.63,156.46,214.75,160.46,214.43Z"/><path id="_Trazado_81" data-name="&lt;Trazado&gt;" class="cls-6" d="M171.35,208.19c-1.28-3.52-4.48-5.13-7.36-7.05,1.76,5.93-4,13.29,2.72,17.62C169.59,216.84,170.87,211.71,171.35,208.19Z"/><path id="_Trazado_82" data-name="&lt;Trazado&gt;" class="cls-6" d="M161.59,212c.48-3.84,1.28-7.85.31-11.69a22.41,22.41,0,0,0-7.36-1.6l1,8.33C157.1,209.31,159.82,210.11,161.59,212Z"/><path id="_Trazado_83" data-name="&lt;Trazado&gt;" class="cls-6" d="M151.34,206.43c-3.21-2.88-6.73-5.93-9-9.93,0,2.24,1.6,7.05,4.32,8.48A12,12,0,0,0,151.34,206.43Z"/><path id="_Trazado_84" data-name="&lt;Trazado&gt;" class="cls-6" d="M152.62,198.26a66.08,66.08,0,0,0-6.73-1.44c2.41,2.88,4.49,6.4,7.53,8.64Z"/></g><g id="_Grupo_5" data-name="&lt;Grupo&gt;"><g id="_Grupo_6" data-name="&lt;Grupo&gt;"><path id="_Trazado_85" data-name="&lt;Trazado&gt;" class="cls-4" d="M404.67,247.1l1.92-4.8-5.29-1.93-9.12,6.73C395.22,248.86,403.07,254.63,404.67,247.1Z"/><path id="_Trazado_86" data-name="&lt;Trazado&gt;" class="cls-4" d="M411.87,251.42c-2.4-1.92-2.24-5-1.12-7.36l1-.8c-6.08-3.2-3.52,6.4-7.84,8C406.75,252.22,409.15,251.9,411.87,251.42Z"/><path id="_Trazado_87" data-name="&lt;Trazado&gt;" class="cls-4" d="M438.3,250.14c0-2.72,3-4.48,1.6-7.2-1-1.13-1.44-3.21-3.37-3.37-2.88,2.41-6.72,5.93-11,4.65,1.77,2.4,3.85,5,3.21,8.17.32,1.44-2.24,2.4-.81,3.36C432.37,257,435.89,253,438.3,250.14Z"/><path id="_Trazado_88" data-name="&lt;Trazado&gt;" class="cls-4" d="M426.61,252.54a6.07,6.07,0,0,0-2.57-7c-2.56-3.2-6.4-1-9.76-2.08-1.92.64-1.77,3.2-2.41,5.12,1,5.77,5.61,6.41,9.93,5.13C422.92,254.47,425.8,255,426.61,252.54Z"/><path id="_Trazado_89" data-name="&lt;Trazado&gt;" class="cls-4" d="M399.55,239.57c-1.77-1-3.69-3.2-6.25-3.36a32.75,32.75,0,0,1-8.49,4.32c1,1.93,2.89,3.21,4.32,4.65C393,244.7,396.5,242.14,399.55,239.57Z"/><path id="_Trazado_90" data-name="&lt;Trazado&gt;" class="cls-4" d="M416.84,246.78c.32-.32-.16-.64-.48-1-.48-.32-1,0-1.29.32C415.4,246.78,416.2,248.06,416.84,246.78Z"/><path id="_Trazado_91" data-name="&lt;Trazado&gt;" class="cls-4" d="M391.86,235.25a11.11,11.11,0,0,0-5.45-4.64c-1.92,1.76-6.4-.16-6.4,2.4,1.12,1.92,2.4,4.8,4.48,5.92Z"/><path id="_Trazado_92" data-name="&lt;Trazado&gt;" class="cls-4" d="M450.31,248.86c-3.37-1.6-6.25-5.6-7.53-9.29-1-.32-1.92,0-3.2-.32,1.92,2.25,2.88,6.09,2.08,8.65C444.38,249,447.58,249,450.31,248.86Z"/><path id="_Trazado_93" data-name="&lt;Trazado&gt;" class="cls-4" d="M410.11,241c-5.44-4.17-1.12-12-8.32-15.06.15,4.33,1.43,8.49,2.08,12.81C405.15,240.85,408,240.21,410.11,241Z"/><path id="_Trazado_94" data-name="&lt;Trazado&gt;" class="cls-4" d="M399.06,224.52c-1.6-1.44-4-1.44-5.92-2.08,1.44,4,3,7.85,3,12.33l5.45,3.68A55.43,55.43,0,0,0,399.06,224.52Z"/><path id="_Trazado_95" data-name="&lt;Trazado&gt;" class="cls-4" d="M422.6,238.61a9.51,9.51,0,0,0-.48-7.52c-1.76-3.53-5.76-4.33-9.44-4.33a4,4,0,0,0-4,2.73c-1.44,3.2.16,5.76,1,8.48C413,240.37,419.72,243.58,422.6,238.61Z"/><path id="_Trazado_96" data-name="&lt;Trazado&gt;" class="cls-4" d="M423.56,242.46c.16-.32.32-.81,0-1l-1,.8Z"/><path id="_Trazado_97" data-name="&lt;Trazado&gt;" class="cls-4" d="M461.19,247.26c-3.36-1.92-6.08-4.8-8.8-7.69-2.4.49-6.73-1-7.37,1,1.44,4,5,6.41,8.65,7.53A14.83,14.83,0,0,0,461.19,247.26Z"/><path id="_Trazado_98" data-name="&lt;Trazado&gt;" class="cls-4" d="M437.34,243.1c-.16-.48-.65-.48-1-.48-.64.48-1.12,1.6,0,1.92A2.34,2.34,0,0,0,437.34,243.1Z"/><path id="_Trazado_99" data-name="&lt;Trazado&gt;" class="cls-4" d="M435.25,238.13c1.93-1.92,1.6-5.12,1.44-7.52a9.68,9.68,0,0,0-6.56-5.93c-2.25.16-5,.48-6.41,2.72-.32,4.33,2.73,8.33,1,12.66C427.41,244.54,432.69,241,435.25,238.13Z"/><path id="_Trazado_100" data-name="&lt;Trazado&gt;" class="cls-4" d="M394.42,233.33c.16-4-2.24-7.53-3.2-11.21l-4.49-.64c.64,2.56,2.72,5,1.93,7.85C390.9,230.29,392,232.85,394.42,233.33Z"/><path id="_Trazado_101" data-name="&lt;Trazado&gt;" class="cls-4" d="M470.64,242.46a50.49,50.49,0,0,1-10.25-5c-1.76.64-3.52,1.6-5.28,1.76.16,2.73,3,2.89,4.32,5,1.76.64,3.21,2.24,5.29,1.6C466.48,244.22,468.88,244.22,470.64,242.46Z"/><path id="_Trazado_102" data-name="&lt;Trazado&gt;" class="cls-4" d="M385,229.33c-3-3.21-6.88-6.41-9.93-10.09.16,2.88,2.25,6.72,3.37,10.25C380.49,229.49,382.89,229.81,385,229.33Z"/><path id="_Trazado_103" data-name="&lt;Trazado&gt;" class="cls-4" d="M384.49,221.48l-6.56-1.92a56.62,56.62,0,0,0,9,8.48C386.89,225.64,385.29,223.56,384.49,221.48Z"/><path id="_Trazado_104" data-name="&lt;Trazado&gt;" class="cls-4" d="M443.26,237.65c1-4,.64-8.16,3-11.53-2.56-1.12-5.92-.48-8.49,1.6.65,3.21,1.92,6.09.49,9.61A17.64,17.64,0,0,1,443.26,237.65Z"/><path id="_Trazado_105" data-name="&lt;Trazado&gt;" class="cls-4" d="M456.07,227.24v-.64c-2.72-.32-5.76-.8-7.85.16a18.47,18.47,0,0,0-2.72,10.89C455.11,242.3,452.07,231.09,456.07,227.24Z"/><path id="_Trazado_106" data-name="&lt;Trazado&gt;" class="cls-4" d="M412.19,229.81c0-.64,0-2.41-1-1.44-1.44.15-.64,1.44-.48,2.24C411.39,231.09,411.71,230.13,412.19,229.81Z"/><path id="_Trazado_107" data-name="&lt;Trazado&gt;" class="cls-4" d="M461.35,235.73c1.13-3.36,1.45-7.36,3.53-10.09-2.73,1-7.21-1-7.85,3.36l-2.4,8.81Z"/><path id="_Trazado_108" data-name="&lt;Trazado&gt;" class="cls-4" d="M472.73,240.21a15,15,0,0,0,3-5.28c-4.16-.16-7.21-1.6-10.57,1.28a4.39,4.39,0,0,1-2.08.32v.64C466,238.45,469,240.53,472.73,240.21Z"/><path id="_Trazado_109" data-name="&lt;Trazado&gt;" class="cls-4" d="M431.73,227.56l-.64-.64c-1.12.16-1.12,1.76-.8,2.41C431.09,229.33,431.57,228.52,431.73,227.56Z"/><path id="_Trazado_110" data-name="&lt;Trazado&gt;" class="cls-4" d="M431.41,222.44c-.16-.64.48-1.28.64-2.08,2.4-.32,4.64,1.44,6.89,1.92-1.45.8-1.92,2.72-3.69,3.2C434.77,223.56,433,223.24,431.41,222.44Z"/><path id="_Trazado_111" data-name="&lt;Trazado&gt;" class="cls-4" d="M469.84,232.21l1.77-5.93c-1.61,0-3.37-.32-5,.32a36.8,36.8,0,0,0-2.88,8.33C466,234.61,467.76,233.17,469.84,232.21Z"/><path id="_Trazado_112" data-name="&lt;Trazado&gt;" class="cls-4" d="M433.17,218c1.44-4.81,5.61-1.77,9-3.05,2.4-.64,5.28-1,7.36-2.08a12.25,12.25,0,0,1-3.52,7.85C441.66,221.32,436.85,219.56,433.17,218Z"/><path id="_Trazado_113" data-name="&lt;Trazado&gt;" class="cls-4" d="M477.53,231.73c-.32-1.12,1.12-1.44.48-2.4l-5,3.36C474.65,233.17,476.73,233.17,477.53,231.73Z"/><path id="_Trazado_114" data-name="&lt;Trazado&gt;" class="cls-4" d="M422.6,224.36c-1.44-4.64,1.61-9.13,2.4-13.61,1.29,2.08,2.25,6.09,4.81,8.17.64,1,0,1.76,0,2.72A10.64,10.64,0,0,0,422.6,224.36Z"/><path id="_Trazado_115" data-name="&lt;Trazado&gt;" class="cls-4" d="M479.45,225c-2.4,1.44-6.72,0-6.72,4.33v1.44C475.12,229.17,478.65,228,479.45,225Z"/><path id="_Trazado_116" data-name="&lt;Trazado&gt;" class="cls-4" d="M437.49,213.15c2.57-1.6,4-5.92,7.53-4.8l7.53-3.21c-1,1.93-.64,5.13-3.21,6.09C445.5,212.35,441.5,213.47,437.49,213.15Z"/><path id="_Trazado_117" data-name="&lt;Trazado&gt;" class="cls-4" d="M426.61,206.91c1.27-3.36,4.48-5.13,7.36-6.89-1.76,5.77,4,13.29-2.72,17.62C428.53,215.71,427.09,210.43,426.61,206.91Z"/><path id="_Trazado_118" data-name="&lt;Trazado&gt;" class="cls-4" d="M436.37,210.91c-.48-4-1.28-7.85-.32-11.69a19.22,19.22,0,0,1,7.37-1.76l-1,8.49C440.86,208,438.14,208.83,436.37,210.91Z"/><path id="_Trazado_119" data-name="&lt;Trazado&gt;" class="cls-4" d="M446.78,205.14c3.05-2.72,6.57-5.92,8.81-9.92.16,2.24-1.6,7-4.32,8.64C449.83,204.34,448.22,205.3,446.78,205.14Z"/><path id="_Trazado_120" data-name="&lt;Trazado&gt;" class="cls-4" d="M445.34,197.14c2.56-.8,5.45-1.28,6.73-1.6-2.41,3-4.49,6.4-7.37,8.8Z"/></g><path id="_Trazado_121" data-name="&lt;Trazado&gt;" class="cls-6" d="M405,248.38l1.92-4.8-5.28-1.93-9.13,6.73C395.54,250.14,403.39,255.75,405,248.38Z"/><path id="_Trazado_122" data-name="&lt;Trazado&gt;" class="cls-6" d="M412.19,252.7c-2.4-2.08-2.24-5-1-7.36l.8-.8c-5.92-3.21-3.52,6.4-7.84,8A19.19,19.19,0,0,0,412.19,252.7Z"/><path id="_Trazado_123" data-name="&lt;Trazado&gt;" class="cls-7" d="M438.61,251.42c1.61-2.4,2.41-4.64,1.61-7.2-1-1.28-1.44-3.37-3.37-3.37-2.88,2.25-6.72,5.93-11.05,4.49,1.77,2.56,4,5.12,3.21,8.17.32,1.6-2.25,2.4-.64,3.52C432.69,258.31,436.22,254.31,438.61,251.42Z"/><path id="_Trazado_124" data-name="&lt;Trazado&gt;" class="cls-7" d="M426.92,253.83a6.07,6.07,0,0,0-2.56-7.05c-2.56-3.2-6.4-1.12-9.76-2.24-1.92.8-1.77,3.36-2.24,5.28C414.28,257.83,425.17,258.15,426.92,253.83Z"/><path id="_Trazado_125" data-name="&lt;Trazado&gt;" class="cls-6" d="M399.86,240.85c-1.76-1-3.68-3.2-6.24-3.52a28.89,28.89,0,0,1-8.49,4.48c1,1.93,2.89,3.05,4.49,4.65C393.3,246,396.82,243.26,399.86,240.85Z"/><path id="_Trazado_126" data-name="&lt;Trazado&gt;" class="cls-4" d="M417.16,248.06c.32-.48-.16-.64-.32-1.12-.48-.16-1,.16-1.44.48C415.72,248.06,416.52,249.34,417.16,248.06Z"/><path id="_Trazado_127" data-name="&lt;Trazado&gt;" class="cls-6" d="M392.18,236.53a9.8,9.8,0,0,0-5.45-4.64c-1.92,1.76-6.4-.32-6.4,2.4,1.12,1.92,2.4,4.8,4.48,5.77Z"/><path id="_Trazado_128" data-name="&lt;Trazado&gt;" class="cls-6" d="M450.62,250c-3.36-1.44-6.24-5.44-7.36-9.29-1.12-.16-2.08.16-3.36-.16,1.92,2.25,2.88,6.09,2.08,8.65A17.77,17.77,0,0,0,450.62,250Z"/><path id="_Trazado_129" data-name="&lt;Trazado&gt;" class="cls-6" d="M410.43,242.14c-5.44-4-1.12-11.85-8.33-15.06.16,4.49,1.45,8.65,2.09,13C405.47,242.14,408.35,241.5,410.43,242.14Z"/><path id="_Trazado_130" data-name="&lt;Trazado&gt;" class="cls-6" d="M399.38,225.64c-1.6-1.28-4-1.28-5.76-1.92,1.28,3.84,2.88,7.85,2.88,12.17l5.44,3.68A56.8,56.8,0,0,0,399.38,225.64Z"/><path id="_Trazado_131" data-name="&lt;Trazado&gt;" class="cls-7" d="M423.08,239.89a11,11,0,0,0-.48-7.52c-1.92-3.53-5.92-4.33-9.45-4.49-1.76,0-3.84,1.29-4.16,2.89-1.44,3,.16,5.6,1,8.32C413.32,241.65,420,244.86,423.08,239.89Z"/><path id="_Trazado_132" data-name="&lt;Trazado&gt;" class="cls-4" d="M423.88,243.74c.16-.32.33-.8,0-1l-1,.8Z"/><path id="_Trazado_133" data-name="&lt;Trazado&gt;" class="cls-6" d="M461.52,248.38a38.82,38.82,0,0,1-8.81-7.53c-2.4.48-6.73-1-7.37,1,1.44,4,5,6.41,8.81,7.53A13,13,0,0,0,461.52,248.38Z"/><path id="_Trazado_134" data-name="&lt;Trazado&gt;" class="cls-4" d="M437.65,244.38c-.16-.48-.63-.48-1-.48-.64.48-1.12,1.6,0,1.92A2.29,2.29,0,0,0,437.65,244.38Z"/><path id="_Trazado_135" data-name="&lt;Trazado&gt;" class="cls-7" d="M435.57,239.25c1.92-1.92,1.61-5,1.45-7.36a9.4,9.4,0,0,0-6.57-5.93c-2.24,0-5,.48-6.24,2.72-.49,4.33,2.55,8.33.79,12.65C427.73,245.82,433,242.14,435.57,239.25Z"/><path id="_Trazado_136" data-name="&lt;Trazado&gt;" class="cls-6" d="M394.74,234.61c.16-4-2.24-7.53-3.2-11.21l-4.49-.64c.65,2.56,2.73,5,1.92,7.85C391.22,231.41,392.34,234.13,394.74,234.61Z"/><path id="_Trazado_137" data-name="&lt;Trazado&gt;" class="cls-6" d="M471,243.58a42.64,42.64,0,0,1-10.24-4.81c-1.77.48-3.53,1.44-5.29,1.6.16,2.89,3,3,4.32,5.13,1.77.64,3.21,2.24,5.29,1.6C466.8,245.5,469.2,245.34,471,243.58Z"/><path id="_Trazado_138" data-name="&lt;Trazado&gt;" class="cls-6" d="M385.29,230.61c-3-3.21-6.88-6.41-9.93-10.09.16,2.88,2.24,6.72,3.37,10.25C380.81,230.61,383.21,231.09,385.29,230.61Z"/><path id="_Trazado_139" data-name="&lt;Trazado&gt;" class="cls-6" d="M384.81,222.6l-6.56-1.76a57.13,57.13,0,0,0,9,8.49C387.21,226.92,385.61,224.84,384.81,222.6Z"/><path id="_Trazado_140" data-name="&lt;Trazado&gt;" class="cls-6" d="M443.58,238.77c1-3.84.64-8.16,3-11.37-2.4-1.28-5.92-.48-8.48,1.6.64,3.21,1.92,6.09.47,9.61A25.8,25.8,0,0,1,443.58,238.77Z"/><path id="_Trazado_141" data-name="&lt;Trazado&gt;" class="cls-6" d="M456.39,228.52v-.64c-2.56-.32-5.77-.8-7.85.16a18.2,18.2,0,0,0-2.72,10.89C455.43,243.58,452.39,232.37,456.39,228.52Z"/><path id="_Trazado_142" data-name="&lt;Trazado&gt;" class="cls-4" d="M412.51,231.09c0-.64,0-2.41-.95-1.6-1.45.32-.65,1.6-.49,2.4C411.87,232.37,412,231.25,412.51,231.09Z"/><path id="_Trazado_143" data-name="&lt;Trazado&gt;" class="cls-6" d="M461.68,237c1.28-3.36,1.44-7.36,3.52-10.09-2.56,1-7.21-1-7.85,3.37l-2.24,8.8Z"/><path id="_Trazado_144" data-name="&lt;Trazado&gt;" class="cls-6" d="M473,241.33a12.2,12.2,0,0,0,3-5.28c-4.16,0-7.2-1.6-10.56,1.44-.64,0-1.28.48-2.09.16v.64C466.32,239.73,469.36,241.81,473,241.33Z"/><path id="_Trazado_145" data-name="&lt;Trazado&gt;" class="cls-4" d="M432.05,228.84l-.64-.8c-1.12.33-1.12,1.77-.8,2.57C431.41,230.61,432.05,229.65,432.05,228.84Z"/><path id="_Trazado_146" data-name="&lt;Trazado&gt;" class="cls-6" d="M431.73,223.72c-.16-.64.48-1.28.64-1.92,2.4-.48,4.65,1.28,6.89,1.92-1.28.8-1.92,2.56-3.53,3C435.09,225,433.33,224.52,431.73,223.72Z"/><path id="_Trazado_147" data-name="&lt;Trazado&gt;" class="cls-6" d="M470.16,233.33l1.92-5.93c-1.76.16-3.52-.16-5.12.48a42.73,42.73,0,0,0-2.88,8.33C466.32,235.89,468.08,234.29,470.16,233.33Z"/><path id="_Trazado_148" data-name="&lt;Trazado&gt;" class="cls-6" d="M433.49,219.4c1.44-5,5.61-1.92,9-3,2.4-.81,5.29-1.13,7.37-2.25a11.87,11.87,0,0,1-3.53,8C442,222.76,437.34,221,433.49,219.4Z"/><path id="_Trazado_149" data-name="&lt;Trazado&gt;" class="cls-6" d="M477.85,232.85c-.16-1,1.12-1.44.48-2.24l-5,3.36C475.12,234.29,477.05,234.45,477.85,232.85Z"/><path id="_Trazado_150" data-name="&lt;Trazado&gt;" class="cls-6" d="M422.92,225.8c-1.44-4.64,1.6-9.13,2.41-13.77,1.28,2.08,2.4,6.08,4.8,8.17.8,1,0,1.92,0,2.88A10.17,10.17,0,0,0,422.92,225.8Z"/><path id="_Trazado_151" data-name="&lt;Trazado&gt;" class="cls-6" d="M479.77,226.28c-2.4,1.44-6.73-.16-6.73,4.33l.16,1.44C475.45,230.45,479,229.33,479.77,226.28Z"/><path id="_Trazado_152" data-name="&lt;Trazado&gt;" class="cls-6" d="M437.81,214.59c2.57-1.76,4.17-6.08,7.53-5l7.53-3.2c-1,2.08-.64,5.12-3.21,6.08C445.82,213.79,441.82,214.91,437.81,214.59Z"/><path id="_Trazado_153" data-name="&lt;Trazado&gt;" class="cls-6" d="M426.92,208.35c1.29-3.53,4.49-5.13,7.37-7-1.76,5.93,4,13.29-2.72,17.62C428.85,217,427.41,211.87,426.92,208.35Z"/><path id="_Trazado_154" data-name="&lt;Trazado&gt;" class="cls-6" d="M436.69,212.19c-.47-3.84-1.28-7.85-.16-11.69a20.74,20.74,0,0,1,7.21-1.6l-1,8.33C441.34,209.31,438.46,210.27,436.69,212.19Z"/><path id="_Trazado_155" data-name="&lt;Trazado&gt;" class="cls-6" d="M447.1,206.59c3-2.89,6.57-5.93,9-9.93,0,2.24-1.76,7-4.48,8.48C450.15,205.63,448.54,206.59,447.1,206.59Z"/><path id="_Trazado_156" data-name="&lt;Trazado&gt;" class="cls-6" d="M445.66,198.42c2.56-.8,5.61-1.12,6.73-1.44-2.4,2.88-4.49,6.4-7.37,8.65Z"/></g><g id="_Grupo_7" data-name="&lt;Grupo&gt;"><path id="_Trazado_compuesto_3" data-name="&lt;Trazado compuesto&gt;" class="cls-1" d="M226.91,330.67l-6.54-11.3,0-.05-52,12.95-.09,0,5.62,9.71,10.83-2.83,7.26,12.53L184,359.46l0,0,5.66,9.77,37.25-38.56Zm-14.78,1.14-13.18,13-4.76-8.21Z"/><path id="_Trazado_157" data-name="&lt;Trazado&gt;" class="cls-1" d="M233.1,375.39l7.77-7.51-.05-.05a14.66,14.66,0,0,0-4.88-3.45,10.42,10.42,0,0,0-5.65-.52l3-2.86-6.63-6.87,0-.05-27.07,26.15,7.11,7.36,0,.06L223,371.89a9.8,9.8,0,0,1,4.26-.21,7.08,7.08,0,0,1,4.47,2.06Z"/><path id="_Trazado_compuesto_4" data-name="&lt;Trazado compuesto&gt;" class="cls-1" d="M256.74,378.13a18.74,18.74,0,0,0-8.18-2.31,15.16,15.16,0,0,0-8.2,2.1l-.05,0,3.6,7.85.07,0a14.06,14.06,0,0,1,4.4-1.58,7.37,7.37,0,0,1,4.56,1,5.47,5.47,0,0,1,2.34,2.27,3.21,3.21,0,0,1-.21,3.11l-1,1.83a24.85,24.85,0,0,0-2.82-1.05,69.38,69.38,0,0,0-7-1.8,19.51,19.51,0,0,0-7.27-.05,11.49,11.49,0,0,0-8.06,6.18,11,11,0,0,0-1.3,4,9.69,9.69,0,0,0,.35,3.91,10,10,0,0,0,1.9,3.48,11.24,11.24,0,0,0,3.36,2.67,19,19,0,0,0,5.37,2,22.32,22.32,0,0,0,5.63.29l-.77,2.44,8,4.3.06,0,.74-1.37c.4-.06.64-.25.69-.55a13.08,13.08,0,0,1,1.19-2.8l8.38-15.6C265,394,265.78,390,265,386.78S261.38,380.62,256.74,378.13Zm-9.13,26.47a28.94,28.94,0,0,1-4,.38,7.6,7.6,0,0,1-3.89-.8,3.09,3.09,0,0,1-1.68-1.94,3.39,3.39,0,0,1,.39-2.52,3.93,3.93,0,0,1,2.36-2,8.19,8.19,0,0,1,2.4-.35c.29,0,.58,0,.87,0a18.75,18.75,0,0,1,3.51.68c1.18.34,2.17.64,3,.9Z"/><path id="_Trazado_158" data-name="&lt;Trazado&gt;" class="cls-1" d="M306.18,393.38a9.59,9.59,0,0,0-3.29-3,11.9,11.9,0,0,0-5-1.37,14.67,14.67,0,0,0-5.64.68,23.81,23.81,0,0,0-5,2.31l.21-3-9.48-.67h-.07l-2.65,37.47v.08l10.21.72h.08l1.85-26.28a11.55,11.55,0,0,1,3.39-2.14,8.8,8.8,0,0,1,4-.61,2.91,2.91,0,0,1,2.59,1.39,8.9,8.9,0,0,1,.44,1.94,14.23,14.23,0,0,1,0,2.89l-1.66,23.49v.07l10.21.72h.07l1.79-25.26a19.32,19.32,0,0,0-.3-5.14A11.81,11.81,0,0,0,306.18,393.38Z"/><path id="_Trazado_compuesto_5" data-name="&lt;Trazado compuesto&gt;" class="cls-1" d="M356.94,409.64a7.94,7.94,0,0,0-3.62-1.85,11.58,11.58,0,0,0-4.2-.07,42,42,0,0,0-4.46,1c-1.5.42-3,.88-4.47,1.37a29.11,29.11,0,0,1-4.21,1.09,2.64,2.64,0,0,1-1.47,0,1.11,1.11,0,0,1-.57-.62c-.1-.26,0-.56.36-.89a5.41,5.41,0,0,1,1.3-.93q.75-.39,1.5-.72c.5-.22.82-.35,1-.41a24.75,24.75,0,0,0,5.07-2.64,12.56,12.56,0,0,0,3.57-3.59,10.21,10.21,0,0,0,1.53-4.62,12.81,12.81,0,0,0-1-5.69,11.56,11.56,0,0,0-3.3-4.76,6.19,6.19,0,0,1,2-1.17l2.37-.91-2.59-6.72-.06,0a29.89,29.89,0,0,0-4.44,2.14,7.17,7.17,0,0,0-3,3.71,13.55,13.55,0,0,0-8.7.38,17.78,17.78,0,0,0-4.76,2.72,14.18,14.18,0,0,0-3.42,4,12.51,12.51,0,0,0-1.57,4.87,12.24,12.24,0,0,0,3.75,9.84A12.45,12.45,0,0,0,328,407.7a14.81,14.81,0,0,0-2.05,3.57,5.58,5.58,0,0,0,0,4.21c.79,2,2.58,3.3,5.32,3.72a6.57,6.57,0,0,0-2,7.94,6.72,6.72,0,0,0,3.38,3.9,11.4,11.4,0,0,0,4.83,1h.13a21.56,21.56,0,0,0,5.43-.77,47.69,47.69,0,0,0,4.75-1.5,22.57,22.57,0,0,0,9.69-6.81c2.55-3.18,3.28-6.24,2.17-9.12A10.49,10.49,0,0,0,356.94,409.64Zm-24.68-18.7a4.92,4.92,0,0,1,6.22,6.58,4.52,4.52,0,0,1-2.62,2.59,5.61,5.61,0,0,1-3.91.1,4.42,4.42,0,0,1-2.75-2.74,4.8,4.8,0,0,1,0-3.92A5.33,5.33,0,0,1,332.26,390.94Zm18.81,28.32a5.74,5.74,0,0,1-1.35,1.51,15.19,15.19,0,0,1-1.84,1.24,13.18,13.18,0,0,1-1.51.76,33,33,0,0,1-4,1.29,10.88,10.88,0,0,1-2.63.34,2.54,2.54,0,0,1-2.27-1.56,2.8,2.8,0,0,1,.46-2.62,6.75,6.75,0,0,1,2.86-2.08c1.51-.49,2.88-.87,4.05-1.13h0a26.06,26.06,0,0,1,3.07-.54l.56,0a4.46,4.46,0,0,1,1.83.29,1.66,1.66,0,0,1,.92.88A1.78,1.78,0,0,1,351.07,419.26Z"/><path id="_Trazado_compuesto_6" data-name="&lt;Trazado compuesto&gt;" class="cls-1" d="M386.26,366.72c-4-4.2-8.36-6.6-12.95-7.13A15.08,15.08,0,0,0,360.8,364a14.84,14.84,0,0,0-5,12.24c.31,4.61,2.49,9.07,6.5,13.27s8.36,6.6,12.94,7.12a15.23,15.23,0,0,0,1.89.12A16.31,16.31,0,0,0,392.76,380C392.45,375.38,390.26,370.91,386.26,366.72Zm-21.07,6.72a4.71,4.71,0,0,1,1.63-3.09,5.21,5.21,0,0,1,3.64-1.62A5.45,5.45,0,0,1,372,369c2,.62,4.32,2.26,6.82,4.87.71.76,1.48,1.64,2.27,2.64a12.35,12.35,0,0,1,1.84,3.12,6.78,6.78,0,0,1,.49,3.27,5,5,0,0,1-1.69,3.1,4.79,4.79,0,0,1-3.17,1.49,7.31,7.31,0,0,1-3.24-.69,12.38,12.38,0,0,1-3-2c-.94-.82-1.78-1.61-2.5-2.37s-1.47-1.63-2.25-2.61a12.41,12.41,0,0,1-1.82-3.1A7.29,7.29,0,0,1,365.19,373.44Z"/><path id="_Trazado_159" data-name="&lt;Trazado&gt;" class="cls-1" d="M418.47,347.34a9.88,9.88,0,0,0-4.77-7.64,12.42,12.42,0,0,0-8.16-2,11.59,11.59,0,0,0-3.72,1.25,23.47,23.47,0,0,0-3.26,2.14c-1,.83-2.06,1.66-3,2.47a20.83,20.83,0,0,1-3.24,2.21,2.67,2.67,0,0,1-2.74.2,2,2,0,0,1-1.18-2.22,7.15,7.15,0,0,1,1-2.6,5.74,5.74,0,0,1,3.06-2.4,22.27,22.27,0,0,1,3.92-1h.07L395,329v-.07h-.07a19.57,19.57,0,0,0-7.36,2.7,18,18,0,0,0-5.3,5.7,16.27,16.27,0,0,0-1.94,4.48,12.06,12.06,0,0,0-.31,4.6,10.4,10.4,0,0,0,5,7.65c3.06,1.9,6,2.35,8.61,1.33a29.73,29.73,0,0,0,7.14-4.14c1.22-.91,2.28-1.69,3.15-2.31a20,20,0,0,1,2.16-1.38,2.36,2.36,0,0,1,2.54,0,2.66,2.66,0,0,1,1,1.13,3.05,3.05,0,0,1,.28,1.4,4.75,4.75,0,0,1-.29,1.51A7.86,7.86,0,0,1,409,353a6.37,6.37,0,0,1-1.71,1.83,8.57,8.57,0,0,1-2.22,1.17,14.46,14.46,0,0,1-2.47.65,12.34,12.34,0,0,1-2.47.2h-.08l.79,8.86h.07a26.84,26.84,0,0,0,5.29-.83,14.61,14.61,0,0,0,4-1.8,19.08,19.08,0,0,0,5.52-5.73A15.76,15.76,0,0,0,418.47,347.34Z"/></g><g id="_Grupo_8" data-name="&lt;Grupo&gt;"><path id="_Trazado_compuesto_7" data-name="&lt;Trazado compuesto&gt;" class="cls-1" d="M408.15,438a8.77,8.77,0,1,0,8.77,8.77A8.77,8.77,0,0,0,408.15,438Zm0,16.26a7.5,7.5,0,1,1,7.5-7.49A7.49,7.49,0,0,1,408.15,454.3Z"/><g id="_Grupo_9" data-name="&lt;Grupo&gt;"><path id="_Trazado_compuesto_8" data-name="&lt;Trazado compuesto&gt;" class="cls-1" d="M413.6,451.41h-2.93l-3-4.47h-.61v2.74a5.16,5.16,0,0,0,0,.75.76.76,0,0,0,.39.58,2.16,2.16,0,0,0,.87.12v.28H403.6v-.28q1,0,1.2-.45a3.2,3.2,0,0,0,.09-1v-6.35c0-.4,0-.65,0-.75a.81.81,0,0,0-.4-.58,2.1,2.1,0,0,0-.87-.12v-.27h4.32a10.78,10.78,0,0,1,2,.13,2.8,2.8,0,0,1,1.72,1,2.53,2.53,0,0,1,.49,1.55,2.41,2.41,0,0,1-2.06,2.47l2.23,3.31a4.68,4.68,0,0,0,.62.8,1.09,1.09,0,0,0,.66.24Zm-3.7-7.08q0-2.19-2.1-2.19h-.74v4.29h.4a5.26,5.26,0,0,0,1.22-.11,1.52,1.52,0,0,0,.95-.74A2.55,2.55,0,0,0,409.9,444.33Z"/></g></g></g></g></svg>