<svg xmlns="http://www.w3.org/2000/svg" viewBox="0 0 565.49 511.51"><defs><style>.cls-1{fill:#1f140f;}.cls-2{fill:#e13032;}.cls-2,.cls-3{fill-rule:evenodd;}.cls-3,.cls-4{fill:#fff;}</style></defs><title>avalon</title><g id="Capa_2" data-name="Capa 2"><g id="Capa_1-2" data-name="Capa 1"><rect class="cls-1" width="565.49" height="511.51" rx="141.73" ry="141.73"/><path class="cls-2" d="M463.61,229.49h62.65c4.85,0,6.74,4,4.12,8.82l-25.15,47c-2.57,4.9-8.67,8.87-13.57,8.87h-62.6c-4.9,0-6.74-4-4.12-8.87l25.1-47c2.62-4.84,8.72-8.82,13.57-8.82Zm-5.29,38.91c-.63-7.75,23.7-6.1,29.85-6.1l-5.47,9.11c-5.28,0-24.38,1.55-24.38-3Zm-3.05-17.68,20.21-.49c4.65-.14,16.38-.43,16.38,3.54,0,5-6.69,3.1-14.06,3-3.78,0-10.22.34-14.58.68-8,.63-17.83,4.12-19.63,10.9-2.37,8.92,13.18,8.19,22.05,8.19,10.13,0,20.3-.24,30.48-.24,3.59-15.5,26.51-31.88-4.26-32-14.49,0-20.31,0-34.65,1Z"/><path class="cls-3" d="M206.64,252.9c1.31-6,13.57-5.33,29.51-5l-5.47,9.45c-13.52-.38-25.39,1.46-24-4.5Zm-64.3,8.77c5.14,0,14.39,1.31,17.79-1.12,6.34-4.5,29-23.89,32.75-23.89h42.69c2,0,4.27,1.12,4.27,3.06,0,5.08-22.73,3.34-28.64,3.68-7.95.39-17.78,4.46-19.67,10.85-2.67,9,14.29,8.34,23,8.34,10.13,0,19.43-.29,29.61-.29,3.3-14.2,25.59-31.69-2.42-31.69H189.25c-4.8,0-5.57.19-9.16,3-2.71,2.23-5.18,4.31-8,6.59-4.75,3.83-11.1,9.84-15.9,13l-4.7-21.95H134.83Z"/><path class="cls-3" d="M74.07,254.35c-.63-7.75,23.69-6.1,29.85-6.1l-5.48,9.1c-5.28,0-24.37,1.56-24.37-3Zm-3-17.69,20.2-.48c4.65-.15,16.38-.44,16.38,3.54,0,5-6.69,3.15-14,3.05-3.78-.05-10.23.34-14.59.63-8,.63-17.83,4.12-19.62,10.95-2.38,8.92,13.23,8.14,22,8.14,10.13,0,20.31-.19,30.48-.19,3.59-15.51,26.51-31.89-4.26-32-14.49,0-20.26-.1-34.65.92Z"/><path class="cls-3" d="M303.85,250.72c0-16.28,29.85-17.25,29.85-9.16,0,17.83-29.85,17.44-29.85,9.16Zm7.31,11.58a63.83,63.83,0,0,0,25-4.9c17.78-7.89,18.94-27.47-3.68-27.47-12.65,0-19.87.14-31.26,5.91-6.06,3.1-12.6,8.87-12.6,16.67,0,8,14.06,9.79,22.58,9.79Z"/><path class="cls-3" d="M364.17,262.3c15.12-28.64,8.44-25,25-25,15.07,0-.34,15.51-2.42,24.38h14.63c1.41-6.11,11-18.08,11-24.38,0-10.95-34.84-6.73-46-6.54L350.12,262.3Z"/><polygon class="cls-2" points="347.12 295.78 354.92 270.83 345.86 270.83 340 288.37 329.43 270.83 317.27 270.83 309.9 295.78 318.38 295.78 324.3 277.9 335.54 295.78 347.12 295.78"/><polygon class="cls-3" points="293.48 219.61 278.94 219.66 257.52 261.67 272.06 261.62 293.48 219.61"/><path class="cls-2" d="M399.5,270.2c-12.31,0-40.22-2.43-40.22,8.52,0,8.39,8.82,5.53,20.79,6,4.55.2,6.59.73,6.69,2.76,0,1.46-.25,3.3-6.35,3.3l-23.55.15-.63,4.84c6.59.05,15.46.24,24.13,0s16.72-.72,16.72-9.25c0-9.11-27.43-2.43-27.43-8.34,0-5.18,22.73-3.05,28.59-3.1Z"/><path class="cls-2" d="M279.42,285.41l8.58-7.9,3,7.9Zm-20.1,10.37h10.22l5.52-5.28h17l2,5.28h11l-9.79-24.95-10-.05Z"/><path class="cls-2" d="M263.58,270.83c-8.33,0-19.58-.73-26,1.4-16.72,5.48-17.35,23.94-1.07,23.94l19-.1,1.31-4.07c-12.35,0-21.9,1-21.85-6h14.54l8.86-.14,1.51-4.75h-23.8c4.07-7.66,14.78-5.91,26.12-6Z"/><path class="cls-2" d="M185.61,296.51c13.62,0,22.73.87,28.4-3.44,4.51-3.44,6.73-10.42,8-22.2l-7.85-.09L212.36,279c-4.8,14.11-3.34,12.46-25.49,12.55Z"/><path class="cls-3" d="M458.32,268.4c-.63-7.75,23.7-6.1,29.85-6.1l-5.47,9.11c-5.28,0-24.38,1.55-24.38-3Zm-3.05-17.68,20.21-.49c4.65-.14,16.38-.43,16.38,3.54,0,5-6.69,3.1-14.06,3-3.78,0-10.22.34-14.58.68-8,.63-17.83,4.12-19.63,10.9-2.37,8.92,13.18,8.19,22.05,8.19,10.13,0,20.3-.24,30.48-.24,3.59-15.5,26.51-31.88-4.26-32-14.49,0-20.31,0-34.65,1Z"/><path class="cls-4" d="M419.8,234.09a5.55,5.55,0,1,1,5.57-5.52A5.52,5.52,0,0,1,419.8,234.09Zm0-10.41a4.87,4.87,0,1,0,4.9,4.89A4.88,4.88,0,0,0,419.8,223.68Z"/><path class="cls-4" d="M417.28,231.72v-6.49h2.86a3.2,3.2,0,0,1,1.31.19,1.45,1.45,0,0,1,.73.58,1.9,1.9,0,0,1,.24,1,1.71,1.71,0,0,1-.44,1.16,2.3,2.3,0,0,1-1.35.59,1.35,1.35,0,0,1,.53.34,3,3,0,0,1,.68.82l1.11,1.79h-1.06l-.83-1.36c-.29-.38-.48-.67-.63-.87a1.83,1.83,0,0,0-.43-.43,2.92,2.92,0,0,0-.39-.2h-1.5v2.86Zm.83-3.63H420a4,4,0,0,0,.92-.1,1.46,1.46,0,0,0,.53-.39,1.22,1.22,0,0,0,.15-.58.89.89,0,0,0-.34-.77,1.41,1.41,0,0,0-1-.29h-2.08Z"/></g></g></svg>