<svg xmlns="http://www.w3.org/2000/svg" viewBox="0 0 565.49 511.51"><defs><style>.cls-1{fill:#fff;}.cls-2{fill:#0084be;}</style></defs><title>bancoalimentos</title><g id="Capa_2" data-name="Capa 2"><g id="Capa_1-2" data-name="Capa 1"><rect class="cls-1" width="565.49" height="511.51" rx="141.73" ry="141.73"/><path class="cls-2" d="M494.6,183.19c-19.26-36.76-50.91-64.4-89.09-77.83a6.1,6.1,0,0,0-2.76-.28,6,6,0,0,0-4.87,1.71l-54.52,54.52a6.05,6.05,0,0,0,4.27,10.31,6,6,0,0,0,4.28-1.79l52.16-52.15c32.76,12.27,61.06,37,78.38,68.38-22.95,41.8-61.28,68.54-108.3,75.42-62.24,9.1-135.51-17.32-212-75.31,37.87-28.57,75.31-49.66,111.18-62.56l-37.68,37.7a6,6,0,0,0,0,8.52,6,6,0,0,0,8.52,0l54.52-54.52a6.72,6.72,0,0,0-7.33-10.08c-44.44,12.14-91.51,37.05-139.08,73.3a756.93,756.93,0,0,1-71.68-65,6,6,0,1,0-8.65,8.41,793.8,793.8,0,0,0,70.34,64.4,756.17,756.17,0,0,0-70.34,63.91,6.06,6.06,0,0,0,.1,8.55,6,6,0,0,0,4.2,1.72,6.22,6.22,0,0,0,4.35-1.82A740.61,740.61,0,0,1,152,194c82.2,63.49,148.41,81.37,196.91,81.37a187.22,187.22,0,0,0,26.94-1.92c52-7.59,94.14-37.62,118.73-84.48a6.55,6.55,0,0,0,0-5.77Z"/><path class="cls-2" d="M430.79,165.56a10.26,10.26,0,1,0-10.27,10.24A10.28,10.28,0,0,0,430.79,165.56Z"/><path class="cls-2" d="M289.5,169.83a6,6,0,0,0,4.27,1.79,6.06,6.06,0,0,0,4.28-1.79l62.64-62.64a6,6,0,0,0-8.55-8.55L289.5,161.31A6,6,0,0,0,289.5,169.83Z"/><polygon class="cls-2" points="79.69 331.64 79.69 340.36 89.4 340.36 89.4 341.95 79.69 341.95 79.69 352.76 77.9 352.76 77.9 330.05 91.33 330.05 91.03 331.64 79.69 331.64"/><path class="cls-2" d="M101.17,353.09c-3.51,0-6.2-2-6.2-6.36V335.82h1.69v10.41c0,3.68,1.79,5.33,4.77,5.33a5.14,5.14,0,0,0,5.21-5.33V335.82h1.69v14.65c0,.8.4,1.09.89,1.09a3.59,3.59,0,0,0,1.66-.53v1.43a3.78,3.78,0,0,1-2.12.63c-1.62,0-2.12-1.53-2.12-2.85a6.49,6.49,0,0,1-5.47,2.85Z"/><path class="cls-2" d="M127.25,342.35c0-3.68-1.79-5.34-4.77-5.34a5.14,5.14,0,0,0-5.17,5.34v10.41h-1.72V335.82h1.16l.36,2.55a6.54,6.54,0,0,1,5.54-2.85c3.51,0,6.26,1.93,6.26,6.33v10.91h-1.66Z"/><path class="cls-2" d="M140.94,353.09c-3.71,0-6.73-2.65-6.73-8.95v-.36c0-5.34,3-8.26,6.73-8.26a6.34,6.34,0,0,1,5.41,2.65v-9.24H148v23.83h-1.13l-.37-2.55a6.17,6.17,0,0,1-5.6,2.88Zm.17-16.08h0c-2.88,0-5.2,2.09-5.2,6.83v.37c0,5.5,2.32,7.35,5.2,7.35s5.27-1.72,5.27-7.32v-.4c0-4.74-2.39-6.83-5.27-6.83Z"/><path class="cls-2" d="M167.49,351.56a3.59,3.59,0,0,0,1.66-.53v1.43a3.81,3.81,0,0,1-2.12.63c-1.69,0-2.12-1.46-2.12-3.28a6.65,6.65,0,0,1-6.2,3.28c-2.72,0-5.34-1-5.34-4.74,0-4.94,4.84-5.4,11.54-5.4v-2.12c0-2.89-1.26-3.82-4.41-3.82-2.72,0-4.81,1-4.81,3.45V341h-1.62a3.41,3.41,0,0,1-.07-.86c0-2.95,2.85-4.61,6.5-4.61,4.11,0,6.1,1.56,6.1,5v10c0,.8.4,1.09.89,1.09Zm-12.43-3.18h0c0,2.19,1.16,3.18,4,3.18a5.65,5.65,0,0,0,5.87-6v-1.13c-6,0-9.85.23-9.85,3.91Z"/><path class="cls-2" d="M180,353.09c-4.17,0-7.09-3.08-7.09-8.55V344c0-5.47,2.89-8.52,7.06-8.52,3.71,0,6.6,2.42,6.6,6.83h-1.63c0-3.61-2.25-5.34-5-5.34-3,0-5.37,2.22-5.37,6.83v.9c0,4.6,2.36,6.82,5.4,6.82,2.69,0,4.94-1.65,4.94-5.33h1.63c0,4.41-2.85,6.86-6.57,6.86Z"/><path class="cls-2" d="M193.81,330.72h-2v-1.79h2Zm-1.82,5.1h1.69v16.94H192Z"/><path class="cls-2" d="M199.51,344.54V344c0-5.47,3-8.52,7.16-8.52s7.13,3.05,7.13,8.52v.5c0,5.47-3,8.55-7.13,8.55s-7.16-3.08-7.16-8.55Zm12.63.2h0v-.9c0-4.61-2.42-6.83-5.47-6.83s-5.47,2.22-5.47,6.83v.9c0,4.6,2.42,6.82,5.47,6.82s5.47-2.22,5.47-6.82Zm-2.75-15.81h2.15v.1l-3.68,4.67h-1.65Z"/><path class="cls-2" d="M231.2,342.35c0-3.68-1.79-5.34-4.78-5.34a5.14,5.14,0,0,0-5.2,5.34v10.41h-1.66V335.82h1.1l.36,2.55a6.6,6.6,0,0,1,5.57-2.85c3.51,0,6.26,1.93,6.26,6.33v10.91H231.2Z"/><path class="cls-2" d="M248.8,347.12l-2.32,5.64h-1.83L254,330.05h1.66l9.41,22.71h-2l-2.35-5.64Zm11.33-1.62h0l-5.27-13h-.13l-5.24,13Z"/><path class="cls-2" d="M278.93,341.36c0-1.76-.83-4.35-4.11-4.35s-4.28,3.22-4.28,5v10.74h-1.69V335.82H270l.36,2.55a5,5,0,0,1,4.81-2.85c3.68,0,5.43,2.59,5.43,5.6a4.77,4.77,0,0,1-.06.77h-1.59Z"/><path class="cls-2" d="M290.76,353.09c-3.71,0-6.73-2.92-6.73-8.29v-.36c0-6.3,3-8.92,6.73-8.92a6.28,6.28,0,0,1,5.77,3.12l.62-2.82h.7v22.9h-1.69V350.4a6.26,6.26,0,0,1-5.4,2.69Zm.16-16.08h0c-2.88,0-5.2,1.86-5.2,7.36v.37c0,4.74,2.32,6.82,5.2,6.82s5.27-2.05,5.27-6.82v-.4c0-5.6-2.42-7.33-5.27-7.33Z"/><path class="cls-2" d="M310.41,353.09c-3.51,0-6.2-2-6.2-6.36V335.82h1.7v10.41c0,3.68,1.79,5.33,4.77,5.33a5.13,5.13,0,0,0,5.17-5.33V335.82h1.69v14.65c0,.8.4,1.09.89,1.09a3.59,3.59,0,0,0,1.66-.53v1.43a3.78,3.78,0,0,1-2.12.63c-1.62,0-2.12-1.53-2.12-2.85a6.44,6.44,0,0,1-5.44,2.85Z"/><path class="cls-2" d="M326.72,330.72h-2v-1.79h2Zm-1.82,5.1h1.69v16.94H324.9Z"/><path class="cls-2" d="M339.15,353.09c-3.71,0-6.73-2.65-6.73-8.95v-.36c0-5.34,3-8.26,6.73-8.26a6.35,6.35,0,0,1,5.4,2.65v-9.24h1.66v23.83h-1.13l-.36-2.55a6.1,6.1,0,0,1-5.57,2.88Zm.17-16.08h0c-2.89,0-5.21,2.09-5.21,6.83v.37c0,5.5,2.32,7.35,5.21,7.35s5.23-1.72,5.23-7.32v-.4c0-4.74-2.35-6.83-5.23-6.83Z"/><path class="cls-2" d="M354.63,330.72h-2v-1.79h2Zm-1.82,5.1h1.69v16.94h-1.69Z"/><path class="cls-2" d="M360.33,344.54V344c0-5.47,3-8.52,7.16-8.52s7.12,3.05,7.12,8.52v.5c0,5.47-2.95,8.55-7.12,8.55s-7.16-3.08-7.16-8.55Zm12.63.2h0v-.9c0-4.61-2.42-6.83-5.47-6.83s-5.47,2.22-5.47,6.83v.9c0,4.6,2.42,6.82,5.47,6.82s5.47-2.22,5.47-6.82Z"/><path class="cls-2" d="M386.38,353.09c-4.18,0-7.09-3.08-7.09-8.55V344c0-5.47,2.88-8.52,7.06-8.52,3.71,0,6.63,2.42,6.63,6.83h-1.66c0-3.61-2.25-5.34-5-5.34-3.05,0-5.37,2.22-5.37,6.83v.9c0,4.6,2.35,6.82,5.4,6.82,2.69,0,4.94-1.65,4.94-5.33H393c0,4.41-2.89,6.86-6.6,6.86Z"/><path class="cls-2" d="M404.41,353.09c-4.17,0-7.09-3.08-7.09-8.55V344c0-5.47,2.88-8.52,7.06-8.52,3.68,0,6.59,2.42,6.59,6.83v2.12H399v.27c0,4.6,2.35,6.82,5.4,6.82a4.69,4.69,0,0,0,4.94-5.07H411a6.23,6.23,0,0,1-6.56,6.6ZM399,343h10.31v-.6c0-3.61-2.25-5.34-5-5.34s-5.07,2-5.34,5.94Z"/><path class="cls-2" d="M417.17,348c0,2.29,2.12,3.54,5.5,3.54,3.12,0,4.81-1.39,4.81-3.31,0-5.2-11.47-1.69-11.47-8.12,0-2.55,2-4.61,6.57-4.61s6.19,2.55,6.19,4.54c0,.2,0,.47,0,.47h-1.66v-.43c0-.77-.3-3.09-4.8-3.09s-4.58,2.22-4.58,3.05c0,4.54,11.47,1.63,11.47,7.86,0,3.84-3,5.17-6.93,5.17-5.23,0-6.72-3-6.72-4.71a6.85,6.85,0,0,1,0-.83h1.66a1.87,1.87,0,0,0,0,.47Z"/><path class="cls-2" d="M447.4,351.56a3.59,3.59,0,0,0,1.66-.53v1.43a3.81,3.81,0,0,1-2.12.63c-1.69,0-2.12-1.46-2.12-3.28a6.62,6.62,0,0,1-6.2,3.28c-2.69,0-5.31-1-5.31-4.74,0-4.94,4.84-5.4,11.51-5.4v-2.12c0-2.89-1.26-3.82-4.41-3.82-2.72,0-4.84,1-4.84,3.45V341H434a5.76,5.76,0,0,1-.07-.86c0-2.95,2.85-4.61,6.5-4.61,4.11,0,6.1,1.56,6.1,5v10c0,.8.39,1.09.89,1.09ZM435,348.38h0c0,2.19,1.13,3.18,4,3.18a5.62,5.62,0,0,0,5.84-6v-1.13c-6,0-9.82.23-9.82,3.91Z"/><path class="cls-2" d="M465.5,342.35c0-3.68-1.79-5.34-4.78-5.34a5.14,5.14,0,0,0-5.2,5.34v10.41h-1.69V335.82H455l.36,2.55a6.6,6.6,0,0,1,5.57-2.85c3.51,0,6.26,1.93,6.26,6.33v10.91H465.5Z"/><path class="cls-2" d="M486.41,351.56a3.59,3.59,0,0,0,1.66-.53v1.43a3.81,3.81,0,0,1-2.12.63c-1.69,0-2.12-1.46-2.12-3.28a6.65,6.65,0,0,1-6.2,3.28c-2.72,0-5.34-1-5.34-4.74,0-4.94,4.84-5.4,11.54-5.4v-2.12c0-2.89-1.26-3.82-4.41-3.82-2.72,0-4.81,1-4.81,3.45V341H473a5.76,5.76,0,0,1-.07-.86c0-2.95,2.88-4.61,6.53-4.61,4.11,0,6.1,1.56,6.1,5v10c0,.8.39,1.09.89,1.09ZM474,348.38h0c0,2.19,1.12,3.18,3.94,3.18a5.65,5.65,0,0,0,5.87-6v-1.13c-6,0-9.81.23-9.81,3.91Z"/><path class="cls-2" d="M92.55,364.86a7.7,7.7,0,0,1,7.92,7.42c0,4.44-2.55,6.33-5.13,7v.23c2.58.53,5.83,2.39,5.83,7.49a8.22,8.22,0,0,1-8.35,8.05H77.57V364.86Zm1.39,8.68h0a3.17,3.17,0,0,0-3.34-3.48H84v7.06h6.6a3.46,3.46,0,0,0,3.34-3.58Zm.63,12.59h0v-.39a3.47,3.47,0,0,0-3.48-3.48H84v7.36h7.09a3.46,3.46,0,0,0,3.48-3.49Z"/><path class="cls-2" d="M115.49,376.52c-2.59,0-3.91,1.59-3.91,2.62v.33h-6.23a4.47,4.47,0,0,1-.07-.76c0-3.81,4-6.56,9.91-6.56h.93c6.49,0,9.68,2.82,9.68,7v10.41c0,1.13.66,1.59,1.29,1.59a4.76,4.76,0,0,0,1.79-.5v4a8.08,8.08,0,0,1-3.88.89c-3.35,0-4.94-1.49-5.2-3.77a9.51,9.51,0,0,1-7.56,3.77c-3.61,0-7.66-.89-7.66-6.56,0-6.46,5.9-7.55,14.92-7.55v-1.5c0-1.85-1-3.38-4-3.38Zm-4.28,12h0c0,1.95,1.16,2.65,3.32,2.65a5.16,5.16,0,0,0,5-4.94V385c-5.4,0-8.29.93-8.29,3.48Z"/><path class="cls-2" d="M137.56,375.89a8.65,8.65,0,0,1,7.16-3.74c4.34,0,7.89,2.32,7.89,7.22v15.71h-6.43V380.77c0-2.29-1.46-3.95-3.51-3.95a4.3,4.3,0,0,0-4.18,4.44v13.82h-6.43v-22.5h4.81Z"/><path class="cls-2" d="M168.09,391.11c2.65,0,4.34-1.63,4.34-5h6.1c0,6.53-4.67,9.38-9.75,9.38h-.69c-6.53,0-10.77-4-10.77-11v-1.3c0-7,4.54-11,10.77-11h.69c5.11,0,9.75,3.38,9.75,9.41h-6.4c0-2.92-1.29-5-4-5s-4.27,2.49-4.27,5.54V386c0,2.85,1.55,5.14,4.24,5.14Z"/><path class="cls-2" d="M194,395.51h-.73c-6.2,0-11-4-11-11v-1.3c0-7,4.8-11,11-11H194c6.2,0,11,4,11,11v1.3c0,7-4.81,11-11,11Zm-.36-19h0c-2.72,0-4.84,1.83-4.84,5.54v3.54c0,3.72,2.12,5.54,4.84,5.54s4.84-1.82,4.84-5.54v-3.54c0-3.71-2.13-5.54-4.84-5.54Z"/><path class="cls-2" d="M234.21,392.27a7.67,7.67,0,0,1-6.36,3.24c-5.14,0-9.35-3.64-9.35-11.56v-.5c0-7.52,3.88-11.3,8.69-11.3a7.78,7.78,0,0,1,6.29,3v-11.8h6.43v31.72h-5Zm-4.94-1.16h0c2.39,0,4.21-1.76,4.21-5.34v-3.65c0-3.58-1.82-5.3-4.21-5.3s-4.24,1.72-4.24,5.3v3.65c0,3.58,1.86,5.34,4.24,5.34Z"/><path class="cls-2" d="M256.45,395.51h-.73c-6.23,0-11-4-11-11v-1.3c0-7,4.84-11,11-11h.73c5.37,0,10.21,3.38,10.21,9.41v3.35H251.25V386c0,2.85,1.76,5.17,4.84,5.17,2.65,0,4.37-1.46,4.37-4.47h6.17c0,6.23-5,8.84-10.18,8.84Zm-5.2-14.11h8.88c0-2.79-1.12-4.88-4.34-4.88-2.65,0-4.34,2.12-4.54,4.88Z"/><path class="cls-2" d="M287,389.15l-2.12,5.93h-6.56l11-30.22h8.12l10.94,30.22h-7.13L299,389.15Zm1.86-5.17h8.35c-1.32-3.94-2.68-7.92-4-11.83H293Z"/><rect class="cls-2" x="311.37" y="363.36" width="6.43" height="31.72"/><path class="cls-2" d="M330.13,368.44H323.6v-5.08h6.53Zm-6.46,4.14h6.43v22.5h-6.43Z"/><path class="cls-2" d="M354.59,375.76a7.38,7.38,0,0,1,6.57-3.61c4,0,7.32,2.48,7.32,7.22v15.71h-6.39V380.63c0-2.45-1.16-3.81-3-3.81-2,0-3.65,1.79-3.65,4.31v13.95H349V380.63c0-2.45-1.19-3.81-3.05-3.81-2,0-3.61,1.79-3.61,4.31v13.95H335.9v-22.5h4.84c.27,1.09.5,2.19.7,3.31a7.55,7.55,0,0,1,6.63-3.74,7,7,0,0,1,6.52,3.61Z"/><path class="cls-2" d="M384.92,395.51h-.69c-6.27,0-11-4-11-11v-1.3c0-7,4.84-11,11-11h.69c5.37,0,10.24,3.38,10.24,9.41v3.35H379.72V386c0,2.85,1.79,5.17,4.87,5.17,2.62,0,4.34-1.46,4.34-4.47h6.17c0,6.23-5,8.84-10.18,8.84Zm-5.2-14.11h8.91c0-2.79-1.16-4.88-4.37-4.88-2.62,0-4.31,2.12-4.54,4.88Z"/><path class="cls-2" d="M405.47,375.89a8.59,8.59,0,0,1,7.16-3.74c4.31,0,7.89,2.32,7.89,7.22v15.71h-6.43V380.77c0-2.29-1.46-3.95-3.51-3.95a4.3,4.3,0,0,0-4.18,4.44v13.82H400v-22.5h4.77Z"/><path class="cls-2" d="M433.61,395.51c-4.31,0-6.83-1.62-6.83-6.29V377H424.3v-4.41H427l2.26-7.19h4v7.19h5.24V377h-5.24v11.13c0,2.62,1.26,3,2.52,3a9.19,9.19,0,0,0,2.72-.57v4.15a15.64,15.64,0,0,1-4.84.82Z"/><path class="cls-2" d="M453.3,395.51h-.7c-6.23,0-11-4-11-11v-1.3c0-7,4.8-11,11-11h.7c6.2,0,11,4,11,11v1.3c0,7-4.8,11-11,11Zm-.36-19h0c-2.72,0-4.84,1.83-4.84,5.54v3.54c0,3.72,2.12,5.54,4.84,5.54s4.83-1.82,4.83-5.54v-3.54c0-3.71-2.08-5.54-4.83-5.54Z"/><path class="cls-2" d="M473.15,388.22c0,2.22,2.42,2.89,4.78,2.89,1.92,0,4.54-.47,4.54-2.19,0-4.44-14.29-.43-14.29-9.65,0-4.77,4.68-7.12,9.78-7.12h.86c4.61,0,9.08,2.35,9.08,6.06a9.12,9.12,0,0,1-.06,1h-5.67c0-1.85-1.53-2.65-4-2.65s-4.08.77-4.08,2c0,4.11,14.35.1,14.35,9.45,0,5.73-4.81,7.55-10,7.55h-1.46c-5.5,0-9.44-2.68-9.44-6.72,0-.47,0-.7,0-.9h5.63Z"/><path class="cls-2" d="M202.86,428.33c-3.68,0-6.7-2.65-6.7-8.95V419c0-5.33,3-8.25,6.7-8.25a6.26,6.26,0,0,1,5.4,2.69v-9.28H210V428h-1.13l-.36-2.56a6.18,6.18,0,0,1-5.6,2.89Zm.16-16h0c-2.85,0-5.17,2.08-5.17,6.79v.37c0,5.5,2.32,7.35,5.17,7.35s5.27-1.72,5.27-7.32v-.4c0-4.77-2.38-6.79-5.27-6.79Z"/><path class="cls-2" d="M222.51,428.33c-4.17,0-7.09-3.08-7.09-8.55v-.5c0-5.44,2.88-8.52,7.06-8.52,3.71,0,6.63,2.45,6.63,6.83v2.12h-12V420c0,4.6,2.35,6.82,5.4,6.82a4.67,4.67,0,0,0,4.94-5.07h1.66a6.25,6.25,0,0,1-6.6,6.6Zm-5.37-10.14h10.31v-.6c0-3.61-2.25-5.3-5-5.3s-5.07,1.92-5.34,5.9Z"/><polygon class="cls-2" points="265 407.31 264.87 407.31 255.76 428 254.07 428 245.02 407.31 244.85 407.31 244.85 428 243.26 428 243.26 405.29 246.11 405.29 255 425.71 255.03 425.71 263.98 405.29 266.79 405.29 266.79 428 265 428 265 407.31"/><path class="cls-2" d="M280.05,428.33c-4.17,0-7.09-3.08-7.09-8.55v-.5c0-5.44,2.88-8.52,7.06-8.52,3.71,0,6.63,2.45,6.63,6.83v2.12h-12V420c0,4.6,2.35,6.82,5.4,6.82a4.67,4.67,0,0,0,4.94-5.07h1.66a6.25,6.25,0,0,1-6.6,6.6Zm-5.37-10.14H285v-.6c0-3.61-2.25-5.3-5-5.3s-5.07,1.92-5.34,5.9Z"/><path class="cls-2" d="M298.12,428.33c-3.68,0-6.7-2.65-6.7-8.95V419c0-5.33,3-8.25,6.7-8.25a6.22,6.22,0,0,1,5.4,2.69v-9.28h1.69V428h-1.13l-.36-2.56a6.18,6.18,0,0,1-5.6,2.89Zm.16-16h0c-2.85,0-5.17,2.08-5.17,6.79v.37c0,5.5,2.32,7.35,5.17,7.35s5.27-1.72,5.27-7.32v-.4c0-4.77-2.38-6.79-5.27-6.79Z"/><path class="cls-2" d="M317.77,428.33c-4.18,0-7.09-3.08-7.09-8.55v-.5c0-5.44,2.88-8.52,7.06-8.52,3.71,0,6.59,2.45,6.59,6.83v2.12h-12V420c0,4.6,2.35,6.82,5.4,6.82a4.67,4.67,0,0,0,4.94-5.07h1.62a6.22,6.22,0,0,1-6.56,6.6Zm-5.37-10.14h10.31v-.6c0-3.61-2.25-5.3-5-5.3s-5.07,1.92-5.34,5.9Z"/><rect class="cls-2" x="330.3" y="404.17" width="1.66" height="23.83"/><rect class="cls-2" x="339.15" y="404.17" width="1.69" height="23.83"/><path class="cls-2" d="M351.41,404.17h2.16v.1l-3.68,4.7h-1.66Zm-3.11,6.92H350V428H348.3Z"/><path class="cls-2" d="M368.15,417.59c0-3.65-1.79-5.3-4.74-5.3a5.11,5.11,0,0,0-5.2,5.3V428h-1.69V411.09h1.12l.37,2.52a6.6,6.6,0,0,1,5.53-2.85c3.52,0,6.27,2,6.27,6.33V428h-1.66Z"/></g></g></svg>