<svg xmlns="http://www.w3.org/2000/svg" viewBox="0 0 565.49 511.51"><defs><style>.cls-1{fill:#d32b20;}.cls-2,.cls-4{fill:#fff;}.cls-2,.cls-3{fill-rule:evenodd;}.cls-3,.cls-5{fill:#f0c813;}</style></defs><title>brasaroja</title><g id="Capa_2" data-name="Capa 2"><g id="Capa_1-2" data-name="Capa 1"><rect class="cls-1" width="565.49" height="511.51" rx="141.73" ry="141.73"/><rect class="cls-1" x="23.03" y="191.8" width="512.29" height="110.35"/><path class="cls-2" d="M205.52,244.33c1.89-7.62-4.79-10.75-11.55-10.75-4.2,0-6.43.73-10.47,2.57l-.42.24c-1.56-2.49-3.13-2.81-6.34-2.81a33.92,33.92,0,0,0-9.24,1.61,58.34,58.34,0,0,1-2.15,16.69l-2.47,10.27c-.82,3.13-2.55,9-3.38,12a15,15,0,0,0-.5,2.89v.24a3,3,0,0,0,1.65,2.65c2.73,1.68,10.4,1.84,13.77,1.84a59.44,59.44,0,0,0,9.08-.72c8.08-1.44,15.91-5.29,18.14-14.52,1.49-6.18-.65-9.47-5.94-11.72C200.49,252.52,204.36,249.15,205.52,244.33Zm-15,3.62a13.64,13.64,0,0,1-3,5.46,6.85,6.85,0,0,0-4,1.76,5.85,5.85,0,0,0-1.32,2.57A10,10,0,0,0,182,260a4.63,4.63,0,0,1,1.49,0c2.8.48,2.55,4.33,1.89,7.05a18.73,18.73,0,0,1-1.89,5.06c-1,1.77-2.47,3.13-4.62,3.13-4.7,0-2.14-7.22-1.41-10.27,1.58-6.34,3.39-12.68,4.87-19,.33-1.12.58-2.33.83-3.53l.33-.08a7.06,7.06,0,0,1,3.13-.64C190.67,241.69,191.41,244.42,190.51,248Z"/><path class="cls-2" d="M231.83,261.11a5.56,5.56,0,0,0-4.12-1.69c-6,0-8.42,6.67-9.49,11.08a33.56,33.56,0,0,0-.91,10.27,18.58,18.58,0,0,1-6.76,1c-6.1,0-8.17-2-6.68-8.18.74-3.05,1.81-5.38,2.55-8.43a55,55,0,0,0,1.82-14.44,28.8,28.8,0,0,1,7.26-1.29c5.93,0,7.66,1.77,6.35,7.47,2.22-3.21,5.77-7.31,10-7.31,3,0,4.2,2.33,3.54,5.14A17.56,17.56,0,0,1,231.83,261.11Z"/><path class="cls-2" d="M272.24,252.36c-5.45-2.48-8.17-2.89-14.77-2.89a35.79,35.79,0,0,0-6,.48c-9.9,1.85-17.16,8.27-19.72,18.78a23.06,23.06,0,0,0-.57,3.77v1.2c.24,4.74,2.88,8,9.07,8a19.24,19.24,0,0,0,11-3.14,1.64,1.64,0,0,1,.41-.24c.49,2.57,1.73,3.45,4.62,3.45a26.71,26.71,0,0,0,11.21-2.33c-1.73-3.92-1.15-7.13,0-11.79C268.69,262.64,269.93,257.33,272.24,252.36ZM254.5,265.12c-.49,1.77-1.48,5.06-3.29,7a4.27,4.27,0,0,1-2.89,1.36c-3.22,0-2.15-4.25-1.57-6.42.58-2.49,1.9-6.5,4.46-8.59a5.23,5.23,0,0,1,3.46-1.28,11.38,11.38,0,0,1,1.64.24C255.57,260.31,255.17,262.23,254.5,265.12Z"/><path class="cls-2" d="M345,252.36c-5.44-2.48-8.16-2.89-14.76-2.89a36,36,0,0,0-6,.48c-9.89,1.85-17.15,8.27-19.71,18.78a24.31,24.31,0,0,0-.58,3.77v1.2c.25,4.74,2.89,8,9.07,8a19.2,19.2,0,0,0,11-3.14,2,2,0,0,1,.42-.24c.49,2.57,1.73,3.45,4.61,3.45a26.75,26.75,0,0,0,11.22-2.33c-1.73-3.92-1.15-7.13,0-11.79C341.43,262.64,342.67,257.33,345,252.36Zm-17.73,12.76c-.5,1.77-1.48,5.06-3.3,7a4.23,4.23,0,0,1-2.88,1.36c-3.22,0-2.15-4.25-1.57-6.42.58-2.49,1.9-6.5,4.45-8.59a5.25,5.25,0,0,1,3.47-1.28,11.58,11.58,0,0,1,1.64.24C328.31,260.31,327.9,262.23,327.24,265.12Z"/><path class="cls-2" d="M497.66,252.36c-5.44-2.48-8.16-2.89-14.76-2.89a36,36,0,0,0-6,.48c-9.89,1.85-17.15,8.27-19.71,18.78a23.16,23.16,0,0,0-.58,3.77v1.2c.25,4.74,2.89,8,9.07,8a19.25,19.25,0,0,0,11-3.14,1.64,1.64,0,0,1,.41-.24c.49,2.57,1.73,3.45,4.61,3.45a26.75,26.75,0,0,0,11.22-2.33c-1.73-3.92-1.15-7.13,0-11.79C494.12,262.64,495.36,257.33,497.66,252.36Zm-17.73,12.76c-.5,1.77-1.48,5.06-3.29,7a4.29,4.29,0,0,1-2.89,1.36c-3.22,0-2.15-4.25-1.57-6.42.58-2.49,1.9-6.5,4.46-8.59a5.21,5.21,0,0,1,3.46-1.28,11.94,11.94,0,0,1,1.65.24C481,260.31,480.59,262.23,479.93,265.12Z"/><path class="cls-2" d="M284,281.81c-4.21,0-15.43.17-13.94-5.94.41-1.76,1.73-3.28,3-4.81a9.94,9.94,0,0,0,7.6,3.61c1.48,0,3.62-.08,4.12-2,.82-3.54-11.8-3.46-9.4-13.16,2-8.27,10.64-10,17.73-10,4,0,13.36.32,12,6-.33,1.61-1.64,3-3,4.25-2.06-1.6-4.11-3-7.17-3a2.86,2.86,0,0,0-3.05,2c-.91,3.77,12,3.13,9.57,12.76C299.45,279.24,290.62,281.81,284,281.81Z"/><path class="cls-2" d="M379.37,281.81c-8.83,0-9.74-19.74-9.32-26.88,4.45-.41,7.25-3.21,8.24-7.31.83-3.29.09-6.5-3.71-6.5a8,8,0,0,0-3.54,1.13,60.88,60.88,0,0,1-1.24,6.58c-1.24,5.29-3.05,10.51-4.37,15.73a154.09,154.09,0,0,0-2.8,16,19,19,0,0,1-6.28,1c-7.5,0-9.73-2.57-7.91-9.95,1-4.17,2.39-8.35,3.38-12.52.74-3,1.4-6.1,2.22-9.23a40,40,0,0,0,1.16-14.52,26.15,26.15,0,0,1,8.33-1.45c3.22,0,5,.08,6.6,2.49a28.26,28.26,0,0,1,11.55-2.57c7.33,0,14.35,3.77,12.37,11.87-1.16,4.9-4.62,7.55-9.24,10,1.15,6.9,3.38,15.57,7.34,21C388.43,279.48,383.73,281.81,379.37,281.81Z"/><path class="cls-2" d="M419.86,249.47a38.54,38.54,0,0,0-4.37.32c-9.32,1.29-17,6.82-19.46,17.18-2.89,11.55,4.78,14.84,15.42,14.84a33.45,33.45,0,0,0,4-.16c9.48-1.2,17-6.5,19.46-16.77a22.29,22.29,0,0,0,.66-4.33v-.73C435.45,252.12,428.93,249.47,419.86,249.47ZM419.28,266c-.5,2.17-1.4,6.34-3.79,7.87a3.45,3.45,0,0,1-2,.64c-4.28,0-2.72-5.05-2-8,.49-2.16,1.56-6.82,4-8.74a3.74,3.74,0,0,1,2.31-.81C421.84,256.93,419.94,263.19,419.28,266Z"/><path class="cls-2" d="M229.59,244.79H216c-3.6,0-4.78-1.86-4.12-5.22.88-4.16,1.54-5.08,2.43-9.24l1.32-6.08a67.47,67.47,0,0,0,1.47-9.8,24.51,24.51,0,0,1,4.57-.51c4.7,0,6.24,1.44,5.29,6.09-.59,2.57-1.62,5.37-2.36,8.66l-1.32,6.15c-.89,4.3-1.47,4.8,3.17,4.8a20.64,20.64,0,0,0,7.64-1.22,18.57,18.57,0,0,1-.29,2.08C233.26,242.86,232.38,244.79,229.59,244.79Z"/><path class="cls-2" d="M259.37,235.71a49.54,49.54,0,0,1,2.8-10c-3.68-1.64-5.45-1.93-9.85-1.93a21.06,21.06,0,0,0-3.68.36c-6.62,1.07-11.4,5.23-12.88,12.38-.14.65-.21,1.29-.29,1.93v1.22c.22,3.15,2.21,5.08,6.4,5.08a12.27,12.27,0,0,0,6.77-1.86,6.34,6.34,0,0,1,.59-.35c.44,1.64,1.24,2.28,3.15,2.28a17,17,0,0,0,7.37-1.57C258.57,240.64,258.71,238.78,259.37,235.71Zm-8.53-2a9.44,9.44,0,0,1-2.2,4.8,2.23,2.23,0,0,1-1.69.78c-2.14,0-1.48-2.79-1.18-4.29.37-1.65,1.18-4.44,2.87-5.73a3.39,3.39,0,0,1,2.13-.78,3,3,0,0,1,1.1.21C251.51,230.55,251.29,231.84,250.84,233.7Z"/><path class="cls-2" d="M452.57,268.09l-1.74,7.31c-2.38,9.78-8.9,21.5-20.86,21.5-6.92,0-6.1-3.29-4.7-9.07a6.61,6.61,0,0,0,3.38.88c4.12,0,5.86-3.29,6.85-6.66s1.89-7.38,2.8-10.83c1.65-6.82,3.55-13.89,3.05-20.47a32.79,32.79,0,0,1,8.25-1.28c5.94,0,7.17,2.57,5.77,8.19C454.55,261.18,453.48,264.56,452.57,268.09Z"/><path class="cls-3" d="M459.71,239.37s-.49,6.35-7.75,6.35-8-6.89-8.1-7c1.08,1.43,1.23,1.45,1.79,1.65-1.33-1.65-1.59-3.62-.58-4.36.12,1.39.3,1.65.86,2-.89-1.51-.38-2.78.61-3.95.39-.47.84-.91,1.27-1.35a2.27,2.27,0,0,0,.64-1.9,2.11,2.11,0,0,0-.08-.58,3.76,3.76,0,0,1,1.4,2.46,3.11,3.11,0,0,1,.37-1.43,11.08,11.08,0,0,0,1-2.59,3.76,3.76,0,0,0-1.07-3.77s-.09-.11-.18-.22a7.36,7.36,0,0,1,5,5,1.32,1.32,0,0,0,.09-.78c0-.25-.09-.51-.14-.76,2,2.34,3.17,4.89,2.42,8a4.59,4.59,0,0,0,.65-3.56,6.9,6.9,0,0,1,1.73,4,6,6,0,0,1-1.26,4.23A4.23,4.23,0,0,0,459.71,239.37Z"/><path class="cls-4" d="M503.54,256.32a.39.39,0,0,0-.32-.17,1.35,1.35,0,0,0,.82-.39.88.88,0,0,0,.33-.73,1,1,0,0,0-.66-1,2.35,2.35,0,0,0-.82-.08h-1.65v3.85h.66v-1.61h.41c.25,0,.41,0,.49.09l.09.08a2.78,2.78,0,0,1,.57.88l.41.56h.75l-.5-.72A2.17,2.17,0,0,0,503.54,256.32Zm-.82-.65h-.82v-1.2h1a1.75,1.75,0,0,1,.41.08q.24.12.24.24a.39.39,0,0,1,.17.32.43.43,0,0,1-.25.4.78.78,0,0,1-.57.16Z"/><path class="cls-4" d="M506.18,254.07a3.22,3.22,0,0,0-1.39-1.37,4.24,4.24,0,0,0-1.9-.48,3.84,3.84,0,0,0-1.82.48,3.3,3.3,0,0,0-1.4,1.37,3.34,3.34,0,0,0-.49,1.76,3.63,3.63,0,0,0,.49,1.85,3.31,3.31,0,0,0,1.4,1.37,3.62,3.62,0,0,0,1.82.48,4,4,0,0,0,1.9-.48,3.81,3.81,0,0,0,1.39-1.37,3.64,3.64,0,0,0,.5-1.85A3.35,3.35,0,0,0,506.18,254.07Zm-.57,3.29a2.57,2.57,0,0,1-1.16,1.12,2.68,2.68,0,0,1-1.56.4,2.88,2.88,0,0,1-1.57-.4,3.08,3.08,0,0,1-1.15-1.12,3.22,3.22,0,0,1-.42-1.53,2.84,2.84,0,0,1,.49-1.52,3.23,3.23,0,0,1,1.16-1.13,3.11,3.11,0,0,1,3.05,0,3.15,3.15,0,0,1,1.16,1.13,3.46,3.46,0,0,1,.41,1.52A3.21,3.21,0,0,1,505.61,257.36Z"/><polygon class="cls-4" points="103.13 216.03 103.13 216.02 103.06 215.96 103.06 215.96 103.05 215.96 103.08 215.98 103.13 216.03"/><path class="cls-4" d="M113.33,207.24h.12a.9.9,0,0,0-.53-.15c0,.1.08.22.19.33s.21.25-.07.36a2.91,2.91,0,0,1,.53,0C113.15,207.62,113.3,207.44,113.33,207.24Z"/><path class="cls-4" d="M113.57,207.77h0l.17.05.32-.05A4.28,4.28,0,0,0,113.57,207.77Z"/><path class="cls-4" d="M113.64,205.56a.48.48,0,0,0,.17.22s0-.1-.11-.25-.21-.46-.32-.72a7,7,0,0,1-.26-.77,3.12,3.12,0,0,1-.1-.37s0,.18,0,.36l.08.34a2.91,2.91,0,0,1,.32.77A3.63,3.63,0,0,0,113.64,205.56Z"/><path class="cls-4" d="M104,216.86Z"/><path class="cls-4" d="M103.88,216.81a.28.28,0,0,0,0,.09l0,.09.13-.09s0,0,0,0h0l-.13-.12h0Z"/><path class="cls-4" d="M103.89,216.74c.27.24-.27-.26,0,0Z"/><path class="cls-4" d="M103.89,216.74c-.09-.09-.28-.27-.64-.59l.64.59Z"/><path class="cls-4" d="M135.09,257.81l0,0C135.13,257.8,135.12,257.78,135.09,257.81Z"/><path class="cls-4" d="M141.79,264.68a2.57,2.57,0,0,0-.5-.53A1.5,1.5,0,0,0,141.79,264.68Z"/><path class="cls-4" d="M137.75,260.44l0,0S137.75,260.41,137.75,260.44Z"/><path class="cls-4" d="M141.29,264.15c-.23-.43,0-.78-.79-1l0,.13c-.18-.34-.69-.64-1-.95a.68.68,0,0,0,0,.19c.15.16.34.38.62.72S140.88,263.84,141.29,264.15Z"/><path class="cls-4" d="M119,203l.32.13Z"/><path class="cls-4" d="M133.11,231.43a3.63,3.63,0,0,0,.3.35A1.51,1.51,0,0,0,133.11,231.43Z"/><path class="cls-4" d="M113.15,204.37a.23.23,0,0,0-.12-.06s0,0,0,0l.14.15Z"/><path class="cls-4" d="M103.71,216.55l-.16-.16-.28-.24,0-.05.06.06Z"/><path class="cls-4" d="M116.34,202.43l.39.24.27.11Z"/><path class="cls-4" d="M133.89,206.44H134c-.09-.07-.25-.22-.41-.34A.93.93,0,0,1,133.89,206.44Z"/><path class="cls-4" d="M113.22,215.53c.08,0,0,.26.09.17l.15-.21,0,.09c.2,0,0-.19.19-.24-.07-.12-.09-.08,0-.24C113.55,215.29,113.39,215.37,113.22,215.53Z"/><path class="cls-4" d="M117.06,214c.21,0,.19-.19.37-.27-.1,0-.16.13-.28.1l0-.08Z"/><path class="cls-4" d="M134.29,258.86,134,259c.59.62,0-.11.29.06a2.63,2.63,0,0,0,.56.55C134.13,258.94,135,259.39,134.29,258.86Z"/><path class="cls-4" d="M117.49,213.81l0,.19s0,0,.08,0S117.53,213.86,117.49,213.81Z"/><path class="cls-4" d="M121.26,242.42l.27-.78c.18-.53.34-1,.41-1.33-.1.34-.39,1-.62,1.56-.06.15-.11.3-.16.43s-.07.29-.09.39,0,.35,0,.33A3.58,3.58,0,0,0,121.26,242.42Z"/><path class="cls-4" d="M121.94,240.31c0-.11,0-.19.06-.25S122,240.2,121.94,240.31Z"/><path class="cls-4" d="M131.12,256l-1.51-.83a13.1,13.1,0,0,0,1.56.95Z"/><path class="cls-4" d="M132,257.13l-.88-.66.4.81C132.56,258.09,131.71,257.2,132,257.13Z"/><path class="cls-4" d="M121.54,203.67h.61C122,203.68,121.11,203.42,121.54,203.67Z"/><path class="cls-4" d="M118.49,202.44l-.26-.14c.1,0-.46-.46.27-.15C118,201.83,117.27,202,118.49,202.44Z"/><path class="cls-4" d="M103.25,216.15,103,216h0Z"/><path class="cls-4" d="M133.44,206c-.31-.22-.58-.36-.36-.18A1.14,1.14,0,0,1,133.44,206Z"/><path class="cls-4" d="M99.21,253.4c0-.15.05-.29.08-.4A.75.75,0,0,0,99.21,253.4Z"/><path class="cls-4" d="M152,281.35a2.09,2.09,0,0,0-.66-1c.51.86.72,2,1.14,2.55A5.25,5.25,0,0,0,152,281.35Z"/><path class="cls-4" d="M149.05,274.1l-.2-.1.34.73A1.89,1.89,0,0,0,149.05,274.1Z"/><path class="cls-4" d="M132.25,205.53a.85.85,0,0,1,.13.12c.54.24.27,0,0-.18s-.56-.41,0-.28l-.47-.14-.46-.1.45.33Z"/><path class="cls-4" d="M127.22,204.72c.32,0,.84.29,1.28.17C128.66,204.74,127.56,204.62,127.22,204.72Z"/><path class="cls-4" d="M123.64,204.75a2.19,2.19,0,0,0,1.7-.1,1.23,1.23,0,0,1,.46-.18,3.72,3.72,0,0,1,1.18,0c-1.12-.23.75-.14,1.16-.15-.87-.19-2.16.24-2.56-.09-1,0-.93.18-.85.31S124.84,204.83,123.64,204.75Z"/><path class="cls-4" d="M123.76,204.23l-.29-.09-.29-.11-.18.06.38.09Z"/><path class="cls-4" d="M128.67,222.8a.6.6,0,0,0,.06-.11l-.07,0Z"/><path class="cls-4" d="M128.31,219.69a.56.56,0,0,0,0-.12C128.27,219.64,128.29,219.68,128.31,219.69Z"/><path class="cls-4" d="M128.37,225.68s0,0,0,0S128.34,225.67,128.37,225.68Z"/><path class="cls-4" d="M128.42,225.7c-.06,0,0,.07,0,0Z"/><path class="cls-4" d="M118.05,213.74c0-.23,0,0-.17-.08l-.07.14A.61.61,0,0,0,118.05,213.74Z"/><path class="cls-4" d="M96,265.13a4.17,4.17,0,0,1,.41-.85c0-.82-.53,1.52-.4.37-.11.33-.16.6-.22.85l.42-.38C96.33,264.44,96,265.52,96,265.13Z"/><path class="cls-4" d="M126.15,232.88h0Z"/><path class="cls-4" d="M95.76,265.53l0,0v-.05Z"/><path class="cls-4" d="M105.13,232.85c0-.06.05-.14.09-.27Z"/><polygon class="cls-4" points="126.09 232.86 126.1 232.86 126.1 232.86 126.09 232.86"/><path class="cls-4" d="M148.08,275.34c.09.29.19.58.19.58l-.21-.3.23.7c.69,1,.88,1,1.21,1.16-.7-.88-.88-1.53-1.65-2.71Z"/><path class="cls-4" d="M142.1,267.23c.53.51.05.19.44.66l.49.39C142.77,267.79,142.3,267.23,142.1,267.23Z"/><path class="cls-4" d="M137.44,262.47c.08.42.68.71,1.13,1.29C138.16,263.3,137.73,262.53,137.44,262.47Z"/><path class="cls-4" d="M126,251.54l-.06-.07S126,251.53,126,251.54Z"/><path class="cls-4" d="M125.33,234.29h0a.05.05,0,0,1,0,0Z"/><path class="cls-4" d="M136.93,261.61c-.45-.67,0,.41-.75-.38a11.38,11.38,0,0,0,1,1.36c0-.17,0-.46-.67-1.06Z"/><polygon class="cls-4" points="126.1 232.86 126.1 232.86 126.1 232.86 126.1 232.86"/><path class="cls-4" d="M123.85,249.16l-.24-.33h0A3.6,3.6,0,0,0,123.85,249.16Z"/><path class="cls-4" d="M106.77,211.61c0,.07-.24.15-.33.07a1,1,0,0,0,.14.08C106.62,211.7,107,211.71,106.77,211.61Z"/><path class="cls-4" d="M106.66,210.79c-.14-.29-.27-.59-.27-.59l-.08.07s.15.29.32.56a1.57,1.57,0,0,0,.12.19l0,0h0l0,0,0,.05A1.79,1.79,0,0,1,106.66,210.79Z"/><path class="cls-4" d="M126.38,232.37l.13.11c.16-.09-.22,0-.13-.21-.1.09-.24.1-.28.23S126.34,232.52,126.38,232.37Z"/><path class="cls-4" d="M126.87,231.87l-.2-.1c-.09.14.08,0,.1.09s-.09.08-.06.13C126.75,231.81,126.88,232.05,126.87,231.87Z"/><path class="cls-4" d="M127.76,227.75c0,.15-.14.48,0,.5S127.79,227.88,127.76,227.75Z"/><path class="cls-4" d="M126.84,231.31v-.22l-.29,0C126.53,231.39,126.67,231.2,126.84,231.31Z"/><path class="cls-4" d="M128.41,223.07a1.67,1.67,0,0,0-.15-.4c0,.06-.07.12.05.13A.22.22,0,0,0,128.41,223.07Z"/><path class="cls-4" d="M106.62,211.18l.09.1v0l-.09-.08,0,0,0-.08-.08-.13-.07-.14s0,.07.08.16,0,.11.08.17Z"/><path class="cls-4" d="M128.55,221.8s-.05-.16-.12-.12S128.46,221.82,128.55,221.8Z"/><path class="cls-4" d="M126.92,230.72a1.13,1.13,0,0,0,.16.41h0Z"/><path class="cls-4" d="M132.89,244.31c-.15.09-.38.06-.33.2a3.63,3.63,0,0,0-1,.28,4.44,4.44,0,0,0,.74-.14A1.79,1.79,0,0,0,132.89,244.31Z"/><path class="cls-4" d="M128.52,231.94a.84.84,0,0,0,0-.56l-.09,0C128.51,231.62,128.37,231.79,128.52,231.94Z"/><path class="cls-4" d="M126.27,232.58c-.2,0-.09.16-.19.26C126.13,232.74,126.37,232.67,126.27,232.58Z"/><path class="cls-4" d="M128,232.86c0,.07-.19.19,0,.28C127.85,233,128.16,233,128,232.86Z"/><path class="cls-4" d="M134.8,241.67c.08-.15,0-.74-.1-.56C134.76,241.39,134.67,241.74,134.8,241.67Z"/><path class="cls-4" d="M127.89,231.93a1.42,1.42,0,0,1,0,.35c.14-.09.28-.26.43-.18-.08-.14-.2-.33-.37-.26.12.06.07.14,0,.23S127.89,232,127.89,231.93Z"/><path class="cls-4" d="M127.08,236.45s.08-.08.06-.12Z"/><path class="cls-4" d="M103,215.94h0C103.14,216,103.08,216,103,215.94Z"/><path class="cls-4" d="M125.6,233.82a1.62,1.62,0,0,0,.23-.41Z"/><path class="cls-4" d="M150.69,277.87c-.45-1.22-.19,0-.57-.55l.45.88c.19.92-.51-.45-.38.17.5,1.12.59.21,1.13,1.65C151.48,279.83,150.31,277.77,150.69,277.87Z"/><path class="cls-4" d="M131.4,253.71l.2.32a14.67,14.67,0,0,0,2,1.44A16.2,16.2,0,0,0,131.4,253.71Z"/><polygon class="cls-4" points="151.8 282.46 151.81 282.33 151.19 281.13 151.8 282.46"/><path class="cls-4" d="M137.48,259.37c.27.16.88,1,1.1.92C138.14,260.19,137.82,259.38,137.48,259.37Z"/><path class="cls-4" d="M135.31,257.84c-.45-.59-1.2-1.42-1-1.5-.52-.26-1.19-.55-.8,0,.16-.08.52.26.89.68a2.9,2.9,0,0,1-.52-.27C134.69,257.33,134.72,257.39,135.31,257.84Z"/><polygon class="cls-4" points="151.72 281.84 151.9 281.91 151.38 281.18 151.72 281.84"/><path class="cls-4" d="M152.59,284.49l.14.63C153.06,285.45,152.77,285,152.59,284.49Z"/><path class="cls-4" d="M152.59,284.49l-.1-.45A1.42,1.42,0,0,0,152.59,284.49Z"/><path class="cls-4" d="M106.37,209.66c-.11-.27-.2-.58-.2-.58a7.82,7.82,0,0,0,.28.85c.15.39.33.75.33.75l-.18-.5S106.48,209.93,106.37,209.66Z"/><path class="cls-4" d="M112.63,206.25c-.17,0-.08.08.12.21C112.59,206.33,112.64,206.3,112.63,206.25Z"/><path class="cls-4" d="M113.88,206.92a.26.26,0,0,1,.22.21.42.42,0,0,1-.09.39c.27.13.44-.06.33-.33a3.13,3.13,0,0,0-.43-.6.85.85,0,0,1,0,.17A.52.52,0,0,1,113.88,206.92Z"/><path class="cls-4" d="M113.07,206.23c-.08-.15-.22-.31-.28-.25l.28.35Z"/><path class="cls-4" d="M141.49,263.54c.34.21-.45-.93-.72-.94Z"/><path class="cls-4" d="M112.51,206.73c-.16-.11-.09-.16-.19-.23s0-.09-.75-.06c.19.14.42.48.07.56h.23a.44.44,0,0,0,.17,0l.16,0a1,1,0,0,0,.2-.14c.08-.09.1-.11.38.07a.64.64,0,0,0-.1-.27,1.08,1.08,0,0,0-.23-.26C112.3,206.36,112.73,206.73,112.51,206.73Z"/><path class="cls-4" d="M134.31,212.8c0,.07,0,0,0,.07a.14.14,0,0,1,.08.07.11.11,0,0,0,.05,0,1.9,1.9,0,0,0,.09-.29c0-.17,0-.24-.11-.18A3.49,3.49,0,0,0,134.31,212.8Z"/><path class="cls-4" d="M113.52,204.5c.14.43.2.62.29.83a8,8,0,0,0,.39.82C114.33,205.8,113.73,205.28,113.52,204.5Z"/><path class="cls-4" d="M134.7,211.52l.12-.09.24-.48-.18.29C134.8,211.38,134.7,211.52,134.7,211.52Z"/><path class="cls-4" d="M150.17,277c-.29-.61-.89-1.91-.93-1.61l.08.24c-.12,0-.34-.31-.47-.45-.45-.81,0-.47-.06-.67-.75-1.35-.44.1-1.16-1.11l0-.2c-.43-.54-1.06-1.37-1.37-1.39-.11-.66-1-1.25-1.26-1.88.2-.22.57.26.94.87a5.52,5.52,0,0,0,1.13,1.59c-.32-.67.49.19.76.4l-.23-.3-.53-.62-.76-.9c0-.2-.18-.93-.62-1.15l.1.16c-.62-.71-.67-.36-1.08-1.05,0-.14.19,0,.26,0-.4-.62-.47-.42-.83-.77-.42-.61.43.14.09-.38-.72-.52-.81-1.09-1.3-1.66-.06.45-2.31-1.93-1.48-.53l-.67-.6c-.33-.29-.69-.58-.69-.58-.24-.52,1.19.59,1.08,0l.93,1.08c.08-.22-.46-.74-1.06-1.32a5.28,5.28,0,0,1-1.44-1.71A10,10,0,0,1,138.3,261l-.1.44c-.46-.59-.48-.91-.45-1a10.52,10.52,0,0,1-.89-.87,1.38,1.38,0,0,1,.47.28c-.25-.54-.43-.6-.65-.66a5.25,5.25,0,0,1-.94-.81l.4.19c-.22-.18-.5-.39-.57-.36a4.56,4.56,0,0,0-.43-.36,2.65,2.65,0,0,0,.52,1,44.86,44.86,0,0,1-3-3.41c.12,0,.67.29.54.15-.51-.55-1.22-1-1.29-.8-.13-.11-.23-.19-.31-.27a1.13,1.13,0,0,0-.34-.6,1.31,1.31,0,0,0-.28-.38c-.4.05-1.33-1-1.64-1.14a9.2,9.2,0,0,0,.83.8,2.71,2.71,0,0,1-1.35-.89c.94.62-.63-1,.64,0-.58-1.07-.65-.22-1.44-1.17l-.46-.65c.24-.07,1,.81.92.62l-.41-.36c.49.27,2,1.77,3.07,2.48l-1.8-1.85a30,30,0,0,1-3.69-3.54l-.42-.46-.38-.47-.38-.46-.33-.45c-.24-.29-.38-.57-.58-.84s-.31-.52-.39-.75l0,.08s-.07,0-.16,0l0-.11a.59.59,0,0,1-.11-.19l-.09-.21c0-.12.1-.26.16-.42a4.9,4.9,0,0,1,.22-.51,11.85,11.85,0,0,1,.71-1.23c-.38.52-.36.5-.55.5-.15-.2-.21-.31.24-1.13.15.05-.08.58.31,0-.21.31-.19,0,0-.43a2.42,2.42,0,0,0,.12-.23,9.75,9.75,0,0,0,.13,2.5,5.39,5.39,0,0,0,.33.48,5.71,5.71,0,0,0,.38.45s.07.28.16.56a5.31,5.31,0,0,0,.22.54,5.69,5.69,0,0,0,2.65,2.1,8.55,8.55,0,0,0,2.89.56,7.5,7.5,0,0,0,3-.38,5.45,5.45,0,0,0,2.58-2c.39-.56.52-.72.64-.79a.67.67,0,0,0,.4-.32,5.59,5.59,0,0,0,.5-1.77,5.68,5.68,0,0,0,0-1.36,16,16,0,0,0-.55-2.89c.18.32.63.88.38-.25a1.84,1.84,0,0,1-.55-1l.24.32a2.68,2.68,0,0,0-.42-1.08,5.67,5.67,0,0,0-.47-.68c-.1-.12-.22-.26-.36-.4l-.18-.18-.13-.15a37.12,37.12,0,0,1-3.71-3.94,1.63,1.63,0,0,1-.11-.35.13.13,0,0,1,0-.14s.07,0,.14,0l.21.14c.06,0,.13.08.12,0,.16.55.29.73.37.78s.15,0,.26.08a3.8,3.8,0,0,1-.5-.8c-.08-.16-.05-.16-.05-.22a.18.18,0,0,1,.12-.12c0-.12,0-.22,0-.31s.05-.28.06-.41,0-.27.05-.42.06-.32.09-.52c-.06.4-.32.68-.29.29.08-.15.17-.36.27-.6l.38-.71c.27-.45.56-.78.67-.66a24.16,24.16,0,0,1,4.48-5c1-.85,1.59-1.36,3.41-2.79l.32-.26c.08-.08.14-.17.22-.25l.43-.51a2.13,2.13,0,0,0,.46-1,1.8,1.8,0,0,0,0-.61,2,2,0,0,0-.25-.57,2.69,2.69,0,0,0-.84-.84c-.28-.14-.39-.16-.39-.14a1.35,1.35,0,0,0,.22.16c.24.15.46.37.18.21l-.49-.24-.38-.16c-.21-.1-.36-.15-.49-.22a2.2,2.2,0,0,0-.48-.18,3.66,3.66,0,0,0-.86-.16h.72a11.13,11.13,0,0,0-1.72-.3l-1.18,0c-.78,0-1.54.08-2.26.11.12-.09-.17-.15-.34-.19s-.06,0-.05,0,0,0,.09,0l.33,0c-.89,0-.31-.86-.46-.69a2.21,2.21,0,0,0-.25.4,1.06,1.06,0,0,0-.09.4c-.07.07-.5,0-.5.06a1.11,1.11,0,0,1-.21-.35v0c.09-.05.13-.08.17-.08l.1,0h.31c.35-.33,0-.21.59-.52l0,0-.2.11a1.19,1.19,0,0,1-.26.12l.18-.16a2.39,2.39,0,0,0-.22.16s-.14,0-.16-.09,0-.18.17-.29l0-.06s0-.12,0-.18l0-.26c0-.17,0-.33,0-.47s0-.23,0-.23c.32,0,.35-1,.41-1.82l.08.27a1.42,1.42,0,0,1,.07.26,7.19,7.19,0,0,0,0-1.32,7.69,7.69,0,0,0-.19-1.08,1.55,1.55,0,0,1,.35.84c0,.24,0,.41.16.55s0-.09,0-.21a2.41,2.41,0,0,0-.06-.49,4.11,4.11,0,0,0-.18-.72c-.15.05-.63-.71-.31.25a5.22,5.22,0,0,0-1.29-1.32,8.26,8.26,0,0,0-2.43-1.24c-.49-.29-.19-.27.2-.2s.88.24.7,0A4.64,4.64,0,0,0,129,205a7.76,7.76,0,0,1-1.82.18c-1.74-.18-1.61.14-3.24,0,.52-.12-1.1-.31-1.32-.57l.63-.06c-.47,0-.89-.2-.73-.3,0,.07-.11.09-.31.08a7.13,7.13,0,0,1-.8-.15c-.64-.16-1.4-.43-1.94-.62l.09.27a17.74,17.74,0,0,1-2.87-1.18,3.79,3.79,0,0,0-1.22-.38c-.27,0-.5,0-1.11,0a2.35,2.35,0,0,1-.63-.31c-.09-.09,0-.23.2-.35a5.18,5.18,0,0,1,1,.23,4.47,4.47,0,0,1,1,.41c1.75.64,3.18.9,4.72,1.6.43-.11.16-.19-.3-.31a5.2,5.2,0,0,1-1.49-.58s.09,0,.15,0a1,1,0,0,1-.18-.1c.6.21,1.55.54,1.79.35a2.44,2.44,0,0,0-.93-.13,1.74,1.74,0,0,1-1-.43,8.92,8.92,0,0,1-2-1.3,5.09,5.09,0,0,0-1-.06l-.78-.1a4,4,0,0,0-.71-.06h-.26a2,2,0,0,0-.34.06,2.13,2.13,0,0,0-.87.43,2.65,2.65,0,0,1,.32-.28,2.56,2.56,0,0,1,.71-.33l.32-.08.27-.05h.21a2.58,2.58,0,0,0-1.51.22,2.09,2.09,0,0,0-1,1.08,1.72,1.72,0,0,0-.1.66,1.46,1.46,0,0,0,0,.35c.1.27.18.51.55,1.59-.19-.66.47.54.07-.71.17.31.38.76.6,1.22l.27.57a3.45,3.45,0,0,1,.15.4c.12.13.13,0,.26.07a1.59,1.59,0,0,0-.16-.43l-.11-.19-.13-.21a2.31,2.31,0,0,1-.38-1.14s-.14-.16-.27-.34a2.85,2.85,0,0,1-.24-.39,2,2,0,0,1,.1-.82.83.83,0,0,1,.31-.43c.17-.08,0,.22,0,.62a1.15,1.15,0,0,1,.18-.56.81.81,0,0,1,.48-.31c.1.09,0,.15-.09.23a.94.94,0,0,0-.39.47c-.17.43-.09.89.14,1,0,0,0-.17-.09-.34a1.89,1.89,0,0,1,0-.37c.16-.14.18.27.36.76s.43,1.13.61,1.52c.29.93.62,1.6.33,1.56,0,0-.14-.25-.3-.49l-.29-.45a2,2,0,0,0,.41.8,1.21,1.21,0,0,1,.23.52.41.41,0,0,1-.2.43h-.23l.11,0a.89.89,0,0,1-.43,0,7.21,7.21,0,0,1-.89.09,3.16,3.16,0,0,1-.9-.09l0,.2.08-.1a7.86,7.86,0,0,1,.79.16c.22.06.36.13.17.2a2.18,2.18,0,0,1-1.9-.64.7.7,0,0,1,.37-.06,3.43,3.43,0,0,1,.48.08,2.62,2.62,0,0,0,.86.1,1.55,1.55,0,0,0-.77-.22l-.69-.1a7.23,7.23,0,0,1-1-.26,2.67,2.67,0,0,1,1.08.05l.27,0a.53.53,0,0,0,.2,0,.18.18,0,0,0,.18-.1l-.19,0-.29,0-.56,0a5.64,5.64,0,0,1-1.31-.23c.18-.11,1.32.11,1.28-.09l-.72-.24c1.8.34-.23-.44,1.18-.25-.63-.25-1,.08-1.87-.33.23.2.93.61,0,.52l-.5-.16c-.25-.09-.49-.18-.56-.19-.45-.17.25-.12.41-.15s.48,0,.17-.19l-.8-.12a3.14,3.14,0,0,0-.61,0,2.07,2.07,0,0,0-.71.18,2.21,2.21,0,0,0-.54.3l-.19.17c.06,0,.23-.14.45-.25a2.4,2.4,0,0,1,.67-.2c.35,0,.51,0,0,.16a2,2,0,0,0-.88.46,1.58,1.58,0,0,0-.29.36,1.74,1.74,0,0,0-.11.18l-.06.16a1.7,1.7,0,0,0,0,1,7.06,7.06,0,0,0,.55,1.21,6.27,6.27,0,0,1,.35,1.39,1.9,1.9,0,0,0,.22.3l.19.24.4.57a6.48,6.48,0,0,1-.64.42l-.35.25-.54.35c.82-.59-.17-.28-.78-.16,1-.52.91-.78.75-.93-.62.33-.9.8-.54.74-1.11.38-.63.52-1.65.77-.37.13-.33,0-.21-.12s.24-.28.12-.28a2.52,2.52,0,0,0-.4.21,2.11,2.11,0,0,0-.24.18.44.44,0,0,0-.12.22c0,.13-.11.24-.73.62,0-.08.15-.16,0-.14a3.06,3.06,0,0,0-1,.92,1.41,1.41,0,0,0-.32.72,2,2,0,0,0-.57.68,3.49,3.49,0,0,0-.3.95c-.1.62,0,1.07-.21,1a2.59,2.59,0,0,0,.16.72,1.81,1.81,0,0,0,.12.28c.06.08.05,0,0-.21-.08-.33,0-.94,0-.7A9,9,0,0,0,101,220c.15.24.28.49.41.69l.31.44a4,4,0,0,1-.93-1.21,1.43,1.43,0,0,0,0,.27l0,.27a3.54,3.54,0,0,0,.51.72,2.26,2.26,0,0,0,.42.41,2.1,2.1,0,0,0,.65.35,3.61,3.61,0,0,1,.63.28c.13.07.26.17.43.28l.26.2.11.09.08.07a1.59,1.59,0,0,1-.2-.07l-.2-.09a.22.22,0,0,0-.17,0c-.06,0,0,.12-.35,0l.6.38a.63.63,0,0,0,.24.11s0,0,0,0,0,0,0-.12l.09.07a1.11,1.11,0,0,1,.22.18c.06.07,0,.17,0,.24s0,.23,0,.31a4,4,0,0,0-.07.87,16,16,0,0,1-1,2.33c-.17,1.17-.45,2.25-.7,3.36-.12.55-.26,1.1-.36,1.67a12.73,12.73,0,0,0-.22,1.78l0-.18c-.3,1.89.46-.78.2,1.19-.29-.31-.38,1.14-.63,1.76-.46,2.39-.21,4.15-.66,6.33-.08,0-.14-.18-.1-.6-.28,1.67-.35,3-.52,4.52l0-.07c-.5,2.41-.43,4.56-.7,7,0-.21-.12-.28-.13-.43a18.47,18.47,0,0,0-.64,4c-.66,1.36-.12,1-.92,2.73-.09.09,0-.2,0-.32-.35.87-.51,1.51-.82,2.4-.44,2-.2,2.67-1.17,4.91-.46,0,.42-1.44.1-1.6a4.1,4.1,0,0,1-.49,1.49c0-.43-.07-.12-.12-.43a8.36,8.36,0,0,0-.35,2.05c.07.06.18-.09.34-.53,0,.62-.87,2.22-1.25,3.35.16-.35.72-1.43.73-.94a11.92,11.92,0,0,0-.85,3.16c-.8,1.26.12-1.13-.29-1-.2.18-.67.61-.53,0-.6,1.16-.77,2.12-1.23,3.2l-.07-.06a28.64,28.64,0,0,1-2,4.33l.44-.59a8,8,0,0,0-.57,1.46c-.11-.11-.75.76-.64.32a2.86,2.86,0,0,1-.31,1.09h2.49a5.7,5.7,0,0,0,1-1.87c.6-.85,0,.27,0,.5.39-.27.26-.81.54-1,0,0,0,0,0,.14.73-1.4,1.26-2.19,2-3.66-.29-.28.57-1.51.75-2.23,0,.26.52-.78.77-1.18l.09-.92c.12-.89.64-1.05,1-2.14l-.17.23a17.38,17.38,0,0,1,1.68-3.44c.94-3.7,1.84-6.48,2.68-9.38a38.67,38.67,0,0,0,1.1-4.54,53.42,53.42,0,0,0,.67-5.35c-.07-.52-.23.36-.37-.06,0-.8.07-1,.14-1.71-.16.63,0,.54-.13.45v1.12s0-.07-.1,0a8.54,8.54,0,0,1,0,1.31c0-.7-.3-.92-.09-1.86a1.53,1.53,0,0,1,0,.45,11.54,11.54,0,0,1,.11-1.4c.13-.71,0-.55.16-.62l.38-2.2c0,.49-.1,1-.14,1.58.13-.2.22.77.23.27l0-1.43.1.23c.24-1-.13-.68.07-1.73-.16-.12-.17.13-.2-.69a17,17,0,0,1-.1,1.76,6.78,6.78,0,0,1,.31-2.82c.24.27-.07,1.48.13,2l.27-.78-.2-.07.17-1.12,0,.06a.66.66,0,0,1,0-.57c0-.05.11-.15.1,0l0-.83c.17.5.14-.7.38-.56a25.36,25.36,0,0,0,.28-2.91c0-.39,0-.78.12-1.2a6.42,6.42,0,0,1,.36-1.44c-.19.35-.26-.8-.07-1.49.14-.39.21-.48.26-.21l.06-.94c.62-1.06.61-2.23,1.17-3.81l.09.11a9,9,0,0,1,.11-1c0-.16.08-.33.14-.51l0-.14.12-.3c.08-.18.15-.38.23-.58l.06.17,0,.17c.12-.26.21-.48.28-.67a1.22,1.22,0,0,0,.09-.27,1.48,1.48,0,0,0,0-.21,1.42,1.42,0,0,0-.15-.59.22.22,0,0,0-.05-.08l0,0c-.07-.42.38-.45.4-.86-.24-.19,0-.09.08-.39,0,.17.19.13.28.06a.43.43,0,0,1,0-.25c.12,0,.53-.21.43-.44.18-.11.06.09.09.15s0-.19.1-.19,0,0,0,0a2.9,2.9,0,0,1,.49-.58c-.25-.18.06-.3,0-.47.06.09.18-.08.28-.12l-.1-.25c-.06-.23.24-.11.27-.33h-.07c0-.17.39-.38.61-.4a2.17,2.17,0,0,1,1-1.38,6.37,6.37,0,0,0,1.43-1c0-.13-.15-.07-.18-.22a1,1,0,0,1,.21-.21c-.14,0-.06.08-.1,0l-.1.2s0,0,0,0-.06.15-.13.2c0-.14-.08-.32.11-.37,0,0,0,.05,0,.09s.06-.16.18-.18.06-.08.14,0l.19-.08.2-.08c0-.32.35-.27.42-.28.08.18-.18.19-.14.4l.2,0-.09-.13.19-.08v0c0-.06,0-.13,0-.11s.06,0,.05,0l.06-.15c0,.18.14,0,.22.14.43-.16.37-.52.84-.49-.1,0,0-.31.11-.34s.12,0,.11.12l.1-.16c.31.18.41-.07.72-.09l0,.08a.43.43,0,0,1,.31-.27l0,.17c.23,0,0-.38.27-.35,0-.17-.22-.21-.29-.36.11.15.35.1.26,0,.19-.14.15,0,.18,0l.1-.14c.16,0,.11.21.09.32.08-.22.28-.13.45-.14l0,.09.22,0a.47.47,0,0,1,.5-.17l-.08.25c.15.09,0-.09.07-.14.19-.14.26,0,.39.12.29-.29.67.3.92-.06l0,.13c.37-.3.8.1,1.12-.29.44.49.33-.42.74,0v-.07a10.71,10.71,0,0,1,1.07.22c.36.08.68.2,1,.29.63.24,1.23.44,1.79.66l-.06.08a6.74,6.74,0,0,1,1.88,1.92c.06.1.1.2.16.3l0,0h0a6.52,6.52,0,0,1,.73,2.36c.11.17.31,0,.44.18s0,.24-.09.25-.18,0-.23-.08c.05.22-.08.53.08.73l.14-.18c.07.07,0,.21,0,.28s-.25.09-.29,0c.41.43-.16.35,0,.71a.93.93,0,0,1,.46.35c.13.17.24.38.35.55l-.09.16c0-.22-.24,0-.21-.28-.11.22,0,.44-.05.66a.15.15,0,0,1,.22.07c-.06.13-.23.13-.26.28l-.09-.16c-.13.09,0,.19,0,.29s-.19.24-.34.18c.16.22,0,.28.13.52.18-.21.17.08.29.07v-.26c-.15.35,0-.13-.25-.13.13-.16.35.29.36,0,.07.37-.05.42.09.81,0-.22.14.07.24,0,0,.28-.1.06-.26.12s-.16.18,0,.34c-.11.23-.17-.06-.28,0-.15-.11.32-.63-.21-.65,0-.12-.16-.3-.12-.47-.1.14-.3.34-.21.54l.29.06c0,.14.17.21.12.31-.07-.07-.21,0-.21.13s0-.08.09,0c0,.21.18.28.18.55a2.08,2.08,0,0,1,.38-.41c.19.1,0,.15,0,.28s0,0-.07,0l.07.14c-.14.26-.28-.09-.43.11s0,.23-.07.33h.06s0,0,0,0h0c0,.15-.05.3.09.37-.07,0,0,.13,0,.19s.17.33-.11.39h0c-.07.17-.18.29-.25.23l-.13.27-.19-.08c0,.27.1.27.25.5a.8.8,0,0,0-.14.65.2.2,0,0,0,0,.1l.11-.09c-.07.21,0,.21,0,.34,0,0,0,0,0,0a.05.05,0,0,0,0,0l0,.05h0s0,0,0,.07,0,0,0-.07h-.07c-.25.1,0,.29-.09.44,0,0,0-.06,0-.07s-.4.13-.25.22c0,0,0,.06,0,.11l-.06.06.06-.06c0,.06.09.13.05.12l-.12.23a.17.17,0,0,0,0,.17h-.09c0,.09-.07.08-.09.06-.38.22,0,.52-.4.77.11.11.22,0,.29,0a1.19,1.19,0,0,1,.13.44c-.23.08-.58.47-.8.29-.13.26.19,0,.22.15l0,0a.53.53,0,0,1,.3-.14c.15,0,.09.29,0,.35l-.17-.13c0,.28.28.34.41.58-.16.17-.29,0-.48-.05l0,.15h0l-.09.05-.06,0s0,0,0,.06a1.33,1.33,0,0,0-.27.22l0,.08,0,.07a.1.1,0,0,1,0-.07s0,.09,0,.13l0,0h-.06v0c0,.09-.06.19-.09.29l0,.07a.92.92,0,0,1,.06-.35v-.05h0v0l0,.13-.26.62-.12.33a1.68,1.68,0,0,1-.32.33c-.51.85-.94,1.48-.94,1.24l-.8,1.42-.16-.27a6.14,6.14,0,0,0-.59,2.32,2.52,2.52,0,0,0-.26.48c-.18.48-.4,1-.6,1.55a9.64,9.64,0,0,0-.46,1.39,3.91,3.91,0,0,0-.18.65s.29-.66.29-.64a3.66,3.66,0,0,0-.18.71,2.54,2.54,0,0,0,0,.44c0,.24.06.42.06.86,0-.1,0-.15,0-.12a3,3,0,0,0,0,.39,1.86,1.86,0,0,0-.05-.27c0,.08,0,.2,0,.34v-.06c0,.15,0,.3.09.48,0,0-.08-.23-.1-.42l-.06.17a1.7,1.7,0,0,0,.13.71,1.74,1.74,0,0,0,.29.54c.12.16.25.32.37.5a4.48,4.48,0,0,1,.38.58,2.21,2.21,0,0,1-.22-.29c.13.25.23.62.36.91s.27.52.43.55a1.17,1.17,0,0,0,.39.37h0c.23.15.46.27.44.33l.46.56.48.54a3.89,3.89,0,0,0,.68.66l.09.25c.39.35.34.4.28.37,1,1.55,2.15,1.8,3.35,3.37.39.12-.14-.48-.12-.59a16.45,16.45,0,0,1,1.69,1.09c.46.76,2.23,2.73,1.67,2.69,1.13,1.12-.2-.5.46,0l.12.13a4.15,4.15,0,0,1-.72-1.1c0-.22,1.11.71,1.38,1h-.41c1.13.95,1.2.45,2.06.89.76.9.1.6.1.94l.93.82-.15.14A8.54,8.54,0,0,1,138,262.3c-.7-.44,1,1.31,0,.7.38.48.79.35.8.76.45.17-.29-.48-.46-.74.07-.4,1,.88,1.6,1.36-.08.15-.48-.23,0,.47a1.62,1.62,0,0,1,.86.87c.16-.14.68.7,1,1.08-.34-.44-.75-1.13-.37-1a5.91,5.91,0,0,1,1.23,1.29l-.35-.58c.78.47.72,1.23,1.53,2.07-.41-.3-.6-.54-1-.78a22.47,22.47,0,0,1,1.78,1.72l.34,1c.21,0,.63.9.8.79.56,1.08-.74-.68-1-.68.78,1.31,1,.82,1.55,2.19l-.44-.3c.13.21.36.49.54.74s.31.48.28.53-.09-.23-.24-.49c.5,0,1.4,1.77,1.68,1.41l-.33-.59a7.92,7.92,0,0,1,1.46,2.14c.16.61-.46-.25-.72-.52.43.87.78.49,1.29,1.54C149.71,276.7,149.9,276.74,150.17,277Zm-15.81-60,.9.05.82.06c.55,0,1.09.1,1.62.17l.48.07.12,0a.05.05,0,0,1,0,.09l-.09.08c-.22.17-1.4,1.16-2.23,1.9s-1.74,1.64-2.56,2.52a19.22,19.22,0,0,0-3.52,5.11c0-.19-.18-.43-.16-.62.08.05,0,.13,0,.21a12.36,12.36,0,0,1,.77-1.88l-.24-.22.21-.15a4.09,4.09,0,0,0,.14-2c0-.21.2-.11.29-.21.06-.48-.24-.6-.31-1,.08.06.32.17.33,0-.08,0-.2-.06-.15-.18l.08.06c.12-.11,0-.22.05-.46a1.58,1.58,0,0,0-.59-1.11c0-.36.31,0,.35-.07-.06.27.08.18.18.22-.1-.13-.16-.29,0-.38a.77.77,0,0,0-.19-.46c.08.09,0,.19-.12.11s-.11-.55.14-.58c-.12-.43-.24-.91-.39-1.38h.57C132.11,216.93,133.24,217,134.36,217Zm-4.49,10.18-.12.27a.83.83,0,0,1-.1-.34Zm-23.17-5.12a.83.83,0,0,0-.08-.12l-.12-.15.2,0,0,.1A.31.31,0,0,1,106.7,222.07Zm22.19-7.3-.2-.1c.15,0-.06-.26.17-.12-.1-.09.31-.66.12-.67,0,0-.09.14-.19.27l-.19.26c-.06,0-.15-.14-.17-.1,0-.18,0-.39-.06-.45.09-.14.24,0,.31.14.22-.16-.17-.42.14-.45-.23-.17-.07.12-.26.07l-.14-.21.07.19c-.2-.08-.39,0-.48-.26h-.18l-.19,0c.11-.18-.13-.14-.21-.26l.15-.06a.5.5,0,0,1-.23-.3c.19-.09.11.13.25,0l-.13-.17c-.07.09-.23.09-.16.24a.89.89,0,0,1-.84-.07c-.07-.28.29,0,.32-.26-.39-.32-.77.17-1,.05s-.33,0-.65-.16c.15-.09-.17-.21-.19-.35l.19-.09c-.12,0-.2-.07-.14-.16,0,.18-.49,0-.74,0V212a1.65,1.65,0,0,1-.63,0c-.29,0-.26.14-.5.27a.53.53,0,0,1,0-.49c.06.09.2.07.31.14.38,0,.75-.34,1.09-.14.27-.31-.25,0-.4-.2,0,0,0,0,0,0l0,0c.15,0,.38,0,.47-.19-.24,0-.26.32-.5.1-.23.06-.33-.27-.45-.32-.17.11-.23.4-.55.29l.18-.19c-.37-.06-.22.28-.56.22.11.05-.15.2.08.23a.59.59,0,0,1-.55,0c-.05,0,0,.07,0,.14.18.17.33-.11.46.13l.18-.21c.17.11.16.3,0,.37,0,0,.1,0,.13,0,0,.35-.2-.16-.3.13h.13c0,.23-.33.15-.49.11s-.34-.18-.33-.34l.26,0c-.12-.15-.33,0-.48,0a.13.13,0,0,0,0-.06.09.09,0,0,1,0,.05.13.13,0,0,1-.08-.07c-.13,0-.32.06-.44,0V212l0-.08c.12,0,.27.11.17.21-.27.08-.31-.19-.37-.33s.27,0,.41,0c-.07-.23-.27-.05-.55-.2.13-.24.33,0,.41-.2-.23-.06-.3.11-.54,0,0-.11.27-.11.26-.26l-.15-.07c.39,0-.06-.3.25-.35-.14-.11-.21.19-.42,0,.06.1.22.3,0,.39l-.22-.07c-.09-.12.24-.26.09-.36l-.24.08c0,.07.12.11,0,.21-.13-.08-.22.28-.37.39a.29.29,0,0,1-.27-.1c-.3.22-.7.25-1,.48.18-.17,0-.25-.16-.34.22-.05.2-.28.17-.42-.14,0-.21.28-.12.35-.25-.07-.15.17-.37,0s0-.23,0-.31c-.26,0,0,.28-.31.27,0,0,0,0,0-.08a.27.27,0,0,0-.3.23c-.21-.26-.43.12-.46-.17-.33.16.09.14,0,.25s-.39.12-.49.1c.08,0,.14-.12.24-.1l-.13-.17c-.48,0-.15.5-.61.46.18-.17,0-.17.09-.34,0,.07-.4.12-.15.2a1.5,1.5,0,0,1-.4,0,.89.89,0,0,0-.27.38,1.1,1.1,0,0,1-.56-.05c-.38.32-.9.3-1.26.68h0c-.36.16.28.15-.07.33-.08-.23-.29,0-.47-.06-.5.16-.62.61-1.07.75a.11.11,0,0,1,0-.16,3.44,3.44,0,0,0-.77.55v0c-.52.17-.69.66-1,1.06,0-.05,0-.12,0-.17-.22.15-.54.43-.49.71-.39.07-.08.2-.52.34-.05,0,0-.06,0-.08-.2.09-.26.22-.41.35-.15.43,0,.7-.32,1-.29-.18.1-.29-.1-.46,0,.12,0,.22-.16.29-.06-.14,0-.07-.12-.18s0,.54,0,.52.1,0,.14,0c.11.21-.26.4-.32.64,0-.06.24-.22.32-.06-.24.22,0,.48,0,.73-.29.16-.13-.32-.35-.41s-.33,0-.34-.16c-.19.19-.12.46-.2.68l-.05,0c-.15.29-.08.73-.33.89l.14-.08c0,.07-.09.19,0,.34-.09-.07-.28.07-.32-.05.24.29-.18.73.05,1-.12,0-.22-.09-.28-.15.13-.16.22-.19.15-.35-.08.15-.22.21-.28.15.11.23,0,.55.13.75-.08-.08-.19-.15-.3-.24-.06.06,0,.2.14.36a.22.22,0,0,1-.22-.06.38.38,0,0,0,0,.1h0c-.12-.1-.26-.19-.37-.27-.38-.21-.58-.31-.47-.15l-.28-.16-.2-.12-.22-.14a.58.58,0,0,1-.19-.15c0-.06,0,0,0-.1l-.32-.16-.31-.17c-.31-.27-.27-.38-.16-.38a1.65,1.65,0,0,1,.49.09,2.17,2.17,0,0,1-1.22-1.54l.08.08.1.09a.49.49,0,0,0,0-.11,2.09,2.09,0,0,0,0-.21,2.07,2.07,0,0,0,0-.28.81.81,0,0,1,.07-.71l.12-.22a2.09,2.09,0,0,0,.2-.22l.11-.11,0-.05,0,0h0l-.7-.66c-.13-.12-.06-.05,0,0h0l0,0,0,.05h0l.08.07,0,0,.07.06.25.22,0,0,.11.11.1.09h0l0,0,.07,0a.24.24,0,0,0,0,.07v.11h0l-.09-.08-.09-.08.25.23s.09.09.08.07h0l0,0c0-.05-.09-.1-.08-.14s.12-.12.2-.19l.25-.18a2.05,2.05,0,0,1,.42-.21L105,216h.14l.35,0a8.88,8.88,0,0,1,2.23-1l.14,0,.25-.09.56-.21,1.13-.43c.75-.29,1.48-.57,2.12-.88-.27-.44-.56-.88-.86-1.29a1.47,1.47,0,0,1,0-.16v-.17c-.34-.52-.64-1-.9-1.52l-.25-.49a5,5,0,0,0,1.22.35l.26,0h.29a4.22,4.22,0,0,0,.63,0l1.24-.12a7.26,7.26,0,0,0,2.1-.34h-.18a2.48,2.48,0,0,0,.85-.67,1.88,1.88,0,0,0,.39-1,3.13,3.13,0,0,0-.08-1,5.57,5.57,0,0,0-.53-1.23l-.31-.62c.81.41,1.62.83,2.48,1.22a19.48,19.48,0,0,0,3.3,1.18,15.85,15.85,0,0,0,1.76.31l.88.1.85,0,.83,0h.71c.48,0,.94,0,1.38.07a9.06,9.06,0,0,1,2.37.46l-.06.11a2.8,2.8,0,0,1,.61.37,1.09,1.09,0,0,1,.29.35,1.59,1.59,0,0,1,.06,1.07,6.22,6.22,0,0,1-.25.83l-.09.23-.05.12s-.08.16-.12.23l-.56,1C129.79,213.42,129.34,214.1,128.89,214.77Zm.26,13.41c.11,0,.08.14.21,0-.08.05-.14,0-.14-.11s.17-.22.28-.19,0,.07-.05.1.06,0,.12-.05l0,.07c-.05,0-.08.06,0,0,0,.13-.09.24-.13.37a.25.25,0,0,1-.15,0C129.1,228.37,129,228.33,129.15,228.18Zm-1.13,0c.13-.2.09-.35.22-.52a.43.43,0,0,1-.16,0,.24.24,0,0,1,.23-.14c.2.16-.32.56-.16.5C128.17,228.29,128.09,228.19,128,228.19Zm-.5,1.65c0,.08,0,.13,0,0Zm-1.27,3.06Zm-.32,6.78c0,.09,0,.22.1,0,0,0,0-.17,0-.34s0-.34,0-.34c.35-1.4.35.23.68-.9.39-.74.13-1.11.43-1.69l-.1.1c0-.13.08-.23.1-.3h0a5.81,5.81,0,0,0,.38-1.8c.08,0,.15-.32.2-.59.08,0,.18-.13.09-.19l-.07.07a.28.28,0,0,1,0-.09h0a.43.43,0,0,0,0-.11c0-.08,0-.16,0-.26v-.06s0-.11,0-.16V233a.82.82,0,0,0-.06-.19c.15,0,.12-.09.06-.15s0-.15,0-.23l.07.11a.21.21,0,0,0,0-.16.16.16,0,0,0,0-.1.59.59,0,0,0-.35.08c.23-.26.27-.52.6-.68.07,0,.13.18.15.15a.23.23,0,0,0-.11-.34.14.14,0,0,1,0-.07c.07,0,.16,0,.19-.06a.16.16,0,0,0,.09-.06c-.2-.13,0-.34-.08-.43a.6.6,0,0,0-.08.2c-.11-.16-.24-.31-.09-.35.06.25.3-.12.25.19.36-.11-.16-.18,0-.36l.16-.1c.16.07,0,.26.07.24l0-.1c.08.14-.14.48-.05.77l.27-.43c0-.64.5-1.3.3-1.91v0l-.1-.05h.05l-.09-.14a.73.73,0,0,0,.33-.28c-.1.69,0,.84.05,1a.82.82,0,0,1,.14.25c0,.06,0,.13,0,.23s0,.29,0,.49,0,.19,0,.3a2.79,2.79,0,0,0,.12.34c.08.23.18.53.24.65.12.31.21.57.14.61-.48-.82-.38-.29-.58-.56a19.25,19.25,0,0,0,1.2,2.28,11.81,11.81,0,0,0,.74,1,6.92,6.92,0,0,0,.79.82l-.29-.5-.2-.34-.09-.16c.4.35.89,1,1.22,1.37-.22-.07.11.57-.22.31.31.22.56.4.76.57l.36.28a.86.86,0,0,1,.18.4,4.9,4.9,0,0,0,.35,1.34,2.51,2.51,0,0,1,.75,1.54,6.53,6.53,0,0,1,0,2.57l-.22.34-.17.2a.39.39,0,0,1-.08.09c.27-.43.18-.47.13-.52s-.08-.12.13-.7c-.43.94-.83,1.75-1.64,2.08.2,0,.25.16-.08.36-.57.15-.67-.05-1.33,0a1.64,1.64,0,0,0,.32-.09l.3-.11c-.42-.08-.75.14-1.27.15a2,2,0,0,0-.66-.24c-.27-.09-.47-.18-.36-.26a2.63,2.63,0,0,1-1.08-.11,7.46,7.46,0,0,1-1-.38c.67.65-.34.07-.34.22,0,0,.23.15.48.28a5.49,5.49,0,0,0,.54.21,1.91,1.91,0,0,1-.52-.31s.09,0,.23.08.81.22.79.05c.35.18.07.23-.17.26s-.4.07.28.24a3.76,3.76,0,0,1-1.65-.64,5.07,5.07,0,0,1-1.23-1.26c.53.86-.27-.08-.09.45-.33-.6-.29-.71-.24-.69s.18.12.21-.1c-.24-.68-.1-1-.39-1.62,0-1.23.22.17.33-.45.11.23.08,1,.27,1.68s.55,1.07.75.78a3.49,3.49,0,0,0,1.39.9,3,3,0,0,1-.67-.66l-.55-.8-.37.11c-.22-.54-.49-.63-.54-1.12.15.24.22-.23.17-.78,0,.16,0,.38-.09.32,0-.51-.11-.82-.17-1.16a4.63,4.63,0,0,1,0-1.4A18.56,18.56,0,0,0,126,241C125.69,240.77,125.91,240.3,125.93,239.68Zm1.53-6.16.05,0h0l0,0Zm-5.33,7.86a4,4,0,0,1-.35.89c-.06.06-.08,0-.14,0,.57-1.2.79-1.75,1.17-2.71,0,0,0-.06,0-.08s-.06.1-.06.07a.48.48,0,0,1-.22.13,1.42,1.42,0,0,0,.08-.18,1.83,1.83,0,0,1,.3-.52.69.69,0,0,1,.28-.23,1.11,1.11,0,0,1,0,.13,3.79,3.79,0,0,0-.35.6,5.1,5.1,0,0,0,.35-.6.63.63,0,0,1,0,.21c0,.13-.12.28-.2.51C122.67,240.53,121.84,241.68,122.13,241.38Zm3.68,9.74-.1-.16C126,251.22,126.25,251.34,125.81,251.12Zm10.61,8h0l.16.06Z"/><path class="cls-4" d="M105.3,220.28l-.26-.16a3.08,3.08,0,0,0-.41-.24,3.16,3.16,0,0,1-.8-.57c.18.32.7.56,1.07.91l-.24-.07a4.87,4.87,0,0,0,.47.18l.35.13.28.12-.32-.2Z"/><path class="cls-4" d="M127.08,236.25c.09,0,.16-.39,0,0Z"/><path class="cls-4" d="M104.13,219.18c-.08-.06-.2-.18-.2-.27-.2-.08-.2.05-.18.19l.19,0Z"/><path class="cls-4" d="M123.54,211.92l.08.05h0Z"/><polygon class="cls-4" points="119.63 211 119.67 211.01 119.85 210.94 119.63 211"/><polygon class="cls-4" points="119.95 211 119.72 211.15 119.96 211.07 119.95 211"/><path class="cls-4" d="M122.59,212.21a.63.63,0,0,0-.35-.1C122.29,212.32,122.45,212.12,122.59,212.21Z"/><polygon class="cls-4" points="119.96 211.23 120.16 211.15 119.86 211.22 119.96 211.23"/><path class="cls-4" d="M122.36,212l.43.07-.12-.07C122.6,212.09,122.44,211.86,122.36,212Z"/><path class="cls-4" d="M108.67,217c0-.07.12-.06.18-.1-.07-.25-.2.26-.21,0a.32.32,0,0,0-.06.18l.22,0C108.83,216.87,108.69,217.06,108.67,217Z"/><path class="cls-4" d="M110.41,215.1l.07,0S110.41,215.08,110.41,215.1Z"/><path class="cls-4" d="M108.56,217h0Z"/><path class="cls-4" d="M103.35,218a.15.15,0,0,1,0-.07v-.06a.56.56,0,0,0,0-.13.65.65,0,0,1,0-.13c-.23-.22,0,.11-.23.32,0,0,.18.22.19.22A.81.81,0,0,0,103.35,218Z"/><path class="cls-4" d="M121.67,211c-.07-.08,0-.1,0-.16a.35.35,0,0,0-.45,0c0,.09.09.32,0,.42.27-.06.44-.41.55-.12l.25-.33C121.79,210.78,121.82,211.08,121.67,211Z"/><path class="cls-4" d="M122.67,212l0-.06h0l0,.05Z"/><path class="cls-4" d="M121.69,211.83l0,.06.07,0a.19.19,0,0,0-.09-.09Z"/><path class="cls-4" d="M121.8,211.47l0,0c0-.09,0-.11-.11-.17-.12.13,0,.35-.17.48a.24.24,0,0,1,.14,0C121.62,211.69,121.71,211.57,121.8,211.47Z"/><path class="cls-4" d="M119,211l.06.1c.08,0,.25.07.22-.07A.21.21,0,0,1,119,211Z"/><polygon class="cls-4" points="127.78 213.12 127.81 213.06 127.8 212.92 127.78 213.12"/><path class="cls-4" d="M127.25,212.46l0-.06h-.08S127.26,212.42,127.25,212.46Z"/><path class="cls-4" d="M128,213.21c.11.1.1,0,.22,0C128.1,213.11,128,213.08,128,213.21Z"/><path class="cls-4" d="M127.11,212.4l.08,0C127.13,212.37,127.08,212.36,127.11,212.4Z"/><path class="cls-4" d="M127.06,212.21l-.2,0,.06.27C127.14,212.51,126.78,212.3,127.06,212.21Z"/><path class="cls-4" d="M121.84,211.77c0,.25.22,0,.3,0l-.13-.13C122,211.73,121.92,211.74,121.84,211.77Z"/><path class="cls-4" d="M132.8,244.91a1.31,1.31,0,0,0,.44-.12h-.19Z"/><path class="cls-4" d="M129.3,231.17l-.12-.32c0-.11,0-.22,0-.32,0,.1,0,.19,0,.28a1.55,1.55,0,0,0,.07.23c.06.14.1.26.15.36a3,3,0,0,0,.17.39c0-.06-.08-.2-.12-.3S129.34,231.27,129.3,231.17Z"/><path class="cls-4" d="M127.82,232.22h0S127.85,232.23,127.82,232.22Z"/><path class="cls-4" d="M122.3,211.32c.09,0,.19,0,.19-.08l-.25,0Z"/><path class="cls-4" d="M125.77,211.78c-.49-.07-.06.41-.59.29.42.31.42-.33.8,0-.15-.22.19,0,.28-.06C126.13,211.84,125.76,212,125.77,211.78Z"/><path class="cls-4" d="M124.1,211.11c-.12-.08-.31.22,0,.21l-.06,0S123.93,211.1,124.1,211.11Z"/><path class="cls-4" d="M122.06,211c.07-.07.17,0,.23,0S122.1,210.91,122.06,211Z"/><path class="cls-4" d="M124.81,211.48l.19-.09C124.93,211.43,124.73,211.35,124.81,211.48Z"/><path class="cls-4" d="M125.94,212.23c.06,0,.08.23.21.14S126,212.18,125.94,212.23Z"/><polygon class="cls-4" points="125.22 211.56 125.16 211.63 125.33 211.7 125.22 211.56"/><path class="cls-5" d="M66.27,258.73c-.14.17-1.29,1.38-1,1.95C65.6,260,67.23,257.48,66.27,258.73Z"/><path class="cls-5" d="M65.76,257.63c.09,0,.21-.44,0-.36S65.58,257.71,65.76,257.63Z"/><path class="cls-5" d="M66.79,259.81c-.08-.05-.31.09-.18.25S66.93,260,66.79,259.81Z"/><path class="cls-5" d="M66.37,261c.09,0,.2-.42,0-.34S66.19,261.07,66.37,261Z"/><path class="cls-5" d="M65.34,261.8c-1.09.57,0,1.09,0,0Z"/><path class="cls-5" d="M67.93,258s-.26.89-.26.94c.92-1.31,1.84-1.91,2.43-3.18-.3.34-1.31,1.16-1.38,1.28s.11.38-.13.67A1.58,1.58,0,0,0,67.93,258Z"/><path class="cls-5" d="M158.54,237.82c-.06-.09-.48-.16-.37,0S158.64,238,158.54,237.82Z"/><path class="cls-5" d="M68,257.27c0-.73,1.29-1.08,1.81-1.76-.6-.46-2.7,1.89-2.85,2.56C67.39,257.16,67.64,257.61,68,257.27Z"/><path class="cls-5" d="M67.13,259.66c.09,0,.2-.42,0-.35S67,259.73,67.13,259.66Z"/><path class="cls-5" d="M68.13,255l-.14-.11c.09-.12.75-.92.49-.82C68.05,254.26,67.29,255.83,68.13,255Z"/><path class="cls-5" d="M70.85,251.47c-.29.84-1.13,1-1.16,1.55C70.38,252.4,71.28,252.23,70.85,251.47Z"/><path class="cls-5" d="M93.3,236.69c-.1,0-.41.3-.21.3S93.49,236.7,93.3,236.69Z"/><path class="cls-5" d="M97.16,235.67c-.11,0-.43.25-.23.27S97.35,235.69,97.16,235.67Z"/><path class="cls-5" d="M157.67,237.38c-.35-.17-.83-.42-1-.26C157.07,237.22,157.52,237.53,157.67,237.38Z"/><path class="cls-5" d="M93.89,236.41c0-.09-.33-.06-.3.14S93.92,236.61,93.89,236.41Z"/><path class="cls-5" d="M145.6,234.3c-1-.19-2.62-1-3.17-.65C143.07,234.05,146.37,234.66,145.6,234.3Z"/><path class="cls-5" d="M155.86,236.6c-.06-.07-.5-.1-.38,0S156,236.75,155.86,236.6Z"/><path class="cls-5" d="M63.68,261.85a7.25,7.25,0,0,0-1,2,13.72,13.72,0,0,1,2.38-2.93C64.81,260.52,64.21,261.1,63.68,261.85Z"/><path class="cls-5" d="M71.21,255a4.55,4.55,0,0,1-.07-.45c-.43.09-.44,1.44.21.56C71.36,255.11,71.21,255,71.21,255Z"/><path class="cls-5" d="M95,236.5c-.31-.25,1.51-1,.31-.85,0,.24-.67.42-1.15.63l.15.3C94.65,236.46,94.77,236.56,95,236.5Z"/><path class="cls-5" d="M93.83,237c.1,0,.4-.29.21-.29S93.64,237,93.83,237Z"/><path class="cls-5" d="M70.93,254c-.28.26-1,0-1.11.71.32.31.76,0,1.18-.26a4.17,4.17,0,0,1,1.64-2c.78-.58,1.45-1.1,1.26-1.65a6.62,6.62,0,0,1-1.57,1.46,8.26,8.26,0,0,0-1.25,1.09C71,253.41,71.18,253.78,70.93,254Z"/><path class="cls-5" d="M81,243.38c-.68.51-1.58,1.07-1.32,1.43C80.18,244,81.05,244,81,243.38Z"/><path class="cls-5" d="M73.63,252.2c.1,0,.28-.37.1-.33S73.44,252.25,73.63,252.2Z"/><path class="cls-5" d="M71.49,254.45c.2-.26.78-.86,1.21-1.33s.77-.78.34-.61C72.19,253.55,71.42,253.68,71.49,254.45Z"/><path class="cls-5" d="M85.81,240.66c-.11,0-.37.33-.18.31S86,240.65,85.81,240.66Z"/><path class="cls-5" d="M81.21,243.18c.26-.2.4-.13.63-.26C82.41,242.22,81.07,242.73,81.21,243.18Z"/><path class="cls-5" d="M91.25,237.71c-.11,0-.4.29-.21.3S91.44,237.71,91.25,237.71Z"/><path class="cls-5" d="M89.4,238.44c-1.3,1-2.78,1.29-3.42,1.91,1.59-.25,2-.89,3.4-1.33C89.24,238.83,89.32,238.64,89.4,238.44Z"/><path class="cls-5" d="M91.92,237.57c-.11,0-.4.29-.21.29S92.11,237.57,91.92,237.57Z"/><path class="cls-5" d="M76.43,247l.77-.59c.51-1.09,2.65-1,2.09-2-.93.94-1.6,1.05-2.47,2.1-.38.29-1,.7-.87.94Z"/><path class="cls-5" d="M92.56,248.86c.88-.47.14-.46-.33,0-.85.71-1.89.87-2.12,1.31S87.88,251,87.7,252c.3-.18.61-.41.93-.64l1-.64a13.21,13.21,0,0,1,2.06-1.13C91.62,249.35,92.2,249.1,92.56,248.86Z"/><path class="cls-5" d="M78.25,259.85c-.09,0-.21.35,0,.31S78.42,259.8,78.25,259.85Z"/><path class="cls-5" d="M94.89,247.39c-1.11,0-.42.91,0,0Z"/><path class="cls-5" d="M97.1,246.45a1.85,1.85,0,0,0,0-.23C95.7,246.7,96.33,247.14,97.1,246.45Z"/><path class="cls-5" d="M78.79,259.24c-.09,0-.2.36,0,.31S79,259.19,78.79,259.24Z"/><path class="cls-5" d="M85.84,253.18c-1.7.84-1.12,1.63,0,0Z"/><path class="cls-5" d="M87.37,252c-1.37.58-.93,1.51,0,0Z"/><path class="cls-5" d="M93.9,247.88c-1.12,0-.41.92,0,0Z"/><path class="cls-5" d="M140.23,239.07c.09.49.15,1,.2,1.46v.06c0,.13,0,.27,0,.43,1.75.16,3.24,1.1,4.83.94a17.19,17.19,0,0,0,5.39,1.91,5,5,0,0,0,.72.47c1,.6.77.07,1.41.37.17.09.14.4.61.66s1.3.17,1.76.9c.14-.16.2-.45.51-.32-.16.25,0,.48.24.7.4-.55,1.82,1.25,2.55.72-.17.24,0,.46.21.71.16-.49.38.1.57.16s.45,0,.71.1c.35-1.48.62-2.8.82-4.07a.33.33,0,0,0-.34.08c0-.33-1.34-.64-.8-1a7.93,7.93,0,0,1,1.18.65c0-.14,0-.28.07-.42-.24-.17,0-.36,0-.54s-.78-.47-.64-.71c-1-.71-3.6-1.39-3.43-2.13.86.38,1.45,1.28,2,.84.28.19,0,.39.38.58s.59.15.73,0c.24.28.74.57,1.05.85.07-.58.13-1.15.18-1.74a5.46,5.46,0,0,0-.6-.13c-.18-.87-1.89-.85-2-1.61-1-.59-1,.18-2-.41,0-.46-1.84-.72-1.92-1.15a1.75,1.75,0,0,1-.82.22c.09-.22.3-.28.52-.34-.88-.58-.47.41-1.34-.17-.33-.31-.4-.65-1-.94a3.64,3.64,0,0,1-1.93-.39c-.65-.19-2-1.11-1.85-.55.42.22,1.67.28,1.49.61a6.25,6.25,0,0,1-2.22-.47c.06-.26.23-.54-.45-.66-.11.41-1.06.23-2.16-.07l-1.66-.47a7.79,7.79,0,0,0-1.34-.14.64.64,0,0,0-.15-.71c-.47-.09-2.59-.57-1.63-.15.84.17,2,.24,1.46.8-1.36-.27-2.5-.6-3.53-.84l.34.38a8.42,8.42,0,0,1,.68,1,6,6,0,0,1,.53,1.16,3.4,3.4,0,0,1,1.14.4c0,.18-.64.13-1,0,0,.05,0,.1.05.16a2.88,2.88,0,0,1,.35.85A4.15,4.15,0,0,1,140.23,239.07Zm20.89,2.55-.19.29-1.12-.57C159.8,240.76,160.6,241.4,161.12,241.62Zm-2.76-2.17c.11.15-.31.09-.37,0S158.31,239.37,158.36,239.45Zm-18.17-4.69c-.15-.12.27-.17.35-.1S140.26,234.82,140.19,234.76Zm2.58,6.64c-.11-.12.26-.15.33-.08S142.83,241.47,142.77,241.4Zm.21-1.7a3,3,0,0,0,1.36.57C144.12,240.75,142.73,240.17,143,239.7Zm4,2.74c.12-.16.31,0,.27.08S146.91,242.53,147,242.44Zm.14-1.19a3,3,0,0,0-.68.16c-.49-.12-1.9-.65-1.79-1a18.53,18.53,0,0,1,3.1.9C147.59,241.75,147.41,241.28,147.09,241.25Zm1.79,1c-.39-.23.36-.19-.13-.43.09-.35,1,.32,1.42.39C150.09,242.68,149.09,242,148.88,242.25Zm2.17-2.8c-.11-.14.3-.12.35,0S151.11,239.52,151.05,239.45Zm6.58,7.68c-.09-.15.3-.09.34,0S157.68,247.2,157.63,247.13Zm2.94-4.07c-.33.44-2.06-.68-1.84-1.12A5.87,5.87,0,0,1,160.57,243.06Zm-1.18,3.44c-.48.3-.52-.52-1.29-.66C158.8,245.42,158.62,246.14,159.39,246.5Zm-2.76-7.16c-.1.14-.41-.07-.65-.13C156.07,239.06,156.39,239.25,156.63,239.34Zm-1.1.06c.11.14-.31.11-.37,0S155.47,239.33,155.53,239.4Zm-.74.07c.55.71,1,.14,1.79.61,0,.28-.53.23-1,.07S154.57,239.74,154.79,239.47Zm-.29-.11c-.48.14-1.57-.48-2.17-.5C152.63,238.48,154,238.77,154.5,239.36Zm1.41,1.33c.66.34,2.29.77,2.29,1.55a18.11,18.11,0,0,0-2.87-1.51,21.2,21.2,0,0,1-3.5-1.52A12.2,12.2,0,0,1,155.91,240.69Zm-4-4c-.13.16-.34,0-.3-.12S152,236.59,151.91,236.68Zm1.67,6.51c.74,1.09,3.44,1.63,4.69,2.92-.7.49-.8-.37-1.29-.65-1.51-.85-3.49-1.5-5.26-2.45l-.14.3C151.13,242.39,152.85,243.57,153.58,243.19Zm-2-5c.12.14-.29.12-.35,0S151.53,238.13,151.59,238.2Zm-1.23-1.95c-.13.16-.34,0-.3-.12S150.39,236.16,150.36,236.25Zm-.44,1.11.58.23-.13.31-.58-.23Zm-1.26-.23c.17,0,.38.18.24.25C148.18,237.74,147.72,236.88,148.66,237.13Zm-1.38.13c.53.13.62.3,1.43.59s2.57.66,2.48,1.29c0-.25-.83-.29-1.43-.57-.39-.22-1.35-1-1.53-.33C148,237.9,147.08,237.7,147.28,237.26Zm-.13-.57c.13.13-.29.14-.36.07S147.08,236.62,147.15,236.69Zm0,1.05c-.15.17-.65,0-.59-.18S146.77,237.65,147.11,237.74Zm-.56-1.23c.12.13-.29.14-.36.08S146.48,236.44,146.55,236.51Zm-1.92-1.26.92.27c-.14.27.26.45.09.72-.55-.1-.57-.32-.24-.24C145.64,235.65,144,235.69,144.63,235.25Zm-1,.06c.35,0,.64-.1.51.5-.22-.13-.71-.13-.91-.26C143.37,235.64,144.16,235.31,143.63,235.31Zm-1.27-.13c-.06.15-.42,0-.67,0C141.74,235.06,142.1,235.17,142.36,235.18Zm4.32,1.9c-1.51.43-2.79-1.08-4.59-.92,0-.24-.72-.29-1.18-.4C143.07,235.06,144.34,236.89,146.68,237.08Z"/><path class="cls-5" d="M145.42,244.11c.09,0,0-.27-.21-.23S145.25,244.15,145.42,244.11Z"/><path class="cls-5" d="M153.71,249.35a11.94,11.94,0,0,1,4.28,2.16c.26.18.46.52.8.71a1.36,1.36,0,0,0,.21.1l.28-1.13c-.45-.08-1.31-.53-.82-.81,0,.53.57.16.55.15.21.13.05.6.32.45l.11-.45a1.16,1.16,0,0,1,0-.18,1.77,1.77,0,0,0-.4-.38c-1.29-.73-1.3-.85-2.12-1.27-.61-.33-.88-.09-1.66-.45-.6-.29-.87-.75-1.62-1a10.2,10.2,0,0,1-1.38-.62l-1.58-.68a36.54,36.54,0,0,0-3.4-1.37c-.74-.29-1.64-.12-2.23-.36-.16-.05-.48-.83-1.21-.7-.43-.11-.35.35-.91.09,1.38,0-1.61-.78-2.06-.79s-.36.15-.59.21c0,.23-.09.46-.15.68l.2,0c0,.21-.19.24-.31.33l-.09.28c.66.09.69-.4,1.4-.17-.08.2-.4.13-.4.41a24.8,24.8,0,0,1,4.44,1.12c.51,0,.84-.27,1.65.22.68.22-.06.69.8.86s1.91.68,2.46.43c.44.44-.5.25,0,.56.23-.37.87.28,1,.39.33-.26-.46-.77.48-.35.77.35-.84.13,0,.58a5.4,5.4,0,0,1,1.19,0C152.53,248.8,153.67,249,153.71,249.35Zm3.51.44c.07.15-.29.08-.34,0S157.19,249.71,157.22,249.79Zm-1.36-.88.48.24-.18.3-.48-.25Zm-14.78-5.72c-.11-.12.25-.15.31-.08S141.14,243.26,141.08,243.19Zm.79.24c-.11-.12.25-.15.31-.08S141.93,243.49,141.87,243.43Zm.54,1c.1-.17.29,0,.26.08A.14.14,0,0,1,142.41,244.47Zm0-.89c-.11-.12.25-.15.31-.08S142.46,243.65,142.4,243.58Zm6.58,2a.15.15,0,0,1-.26-.11A.15.15,0,0,1,149,245.58Zm-1.79-.72c-.09-.13.27-.12.33-.05S147.25,244.93,147.19,244.86Zm.49,1.66c.32-.51.83-.14,1.38.19C148.75,246.85,148.15,246.61,147.68,246.52Zm2.17-.23c-.84.37.31-.37.41-.21S149.9,246.27,149.85,246.29Zm2.37,1.34c-.08-.14.27-.1.32,0S152.26,247.7,152.22,247.63Z"/><path class="cls-5" d="M138.66,232.74a3.46,3.46,0,0,1-1.07-.17l.12.12,0,.06A5.38,5.38,0,0,0,138.66,232.74Z"/><path class="cls-5" d="M63.35,264.9c.46-.78,1.32-1.6,1.1-2.19C64.15,263.38,63.11,264.52,63.35,264.9Z"/><path class="cls-5" d="M96.09,237.91c-1.09-.28-2.73.72-3.62,1.3.76.45,1.44-.65,2.12-.09a23.91,23.91,0,0,0-2.53,1.25c-1.06.48-.66.13-1,.71-.82-.24-1.69.66-2,.86-.09.05-.47-.07-.72,0a1.07,1.07,0,0,1-.43.47l-2.23,1.18c-.28.15-.21.36-.43.47-.58.31-1.07.61-1.58.93l-1.5,1.18c-.66.52-1.69.72-2,1.51-.06-.34-1-.53-.46-1,.21.22.31.14.74-.12s1.34-.78,1.86-1.19a7.59,7.59,0,0,1,.53-.84,1.5,1.5,0,0,0,.63-.22c.22-.15.25-.37.43-.47.47-.25,1.4-.47,1.82-.72a8.92,8.92,0,0,0,2.22-1.78c.78-.12,2-.73,2.87-.77-.36-.64,1.62-.52,1.81-1.28-.36.15-.7.29-.74,0-1.1.85-2.36,1-3.5,1.59-.63.37-1.08.84-1.79,1.31a2,2,0,0,0-.65.19c-.36.23-.49.53-.69.65s-.51-.09-.75.06a2.63,2.63,0,0,1-.71.63,24,24,0,0,0-4.81,3.1c-.35.34-.18.68-.77,1-.11-.17.18-.62-.36-.38-.85.87-2.17,1.92-3.3,2.94.86.26,1.23-.67,1.75-1.36.43,0,1.23-.74,1,.06.49-.37.29-.58.45-.87.69,0,1.82-1.08,2.21-.38-.57,0-1.65,1.19-2.18,1.29-.55,1.33-2.09,1.89-3,2.73l-1.41,1.32-1.19,1.31c-.73.8-1.33,1.77-2.12,2.62a20.54,20.54,0,0,0-3.32,4c-.34.28-.61-.32-1,.12.2.18.63.26.43.62-.38.74-.67.31-1,.81.55.31-.32.73-.66,1.37s-.2.66-.46,1.14c.17-.32-.71,1-.46.78-.2.17-.23-.24-.48.1s-.63,1.9-1.4,1.69c.92-1.27.91-1.58,1.71-2.56-.75-.51-2.3,2.89-2.5,3.21.25-.31.52-.45.79-.31.19.48-.62.89-.68,1.36,0,.23.38,0,.2.41,0,0-.3-.16-.33-.14s-.1.85-.51,1.11c-.58.2,0-1.32-.53-.55-.15.32-.07,1.52-.77,1.67.2.17-.09.69,0,1a13,13,0,0,0-2.23,4.4,4.16,4.16,0,0,0-.32,1.5c.06.18-.3.33-.27.25a4.22,4.22,0,0,0-.31,1.5c.07.16-.26.34-.24.25a16,16,0,0,1-.37,1.58h.9a.84.84,0,0,1,.26-.15l-.08.15h6.46a3.38,3.38,0,0,0,.2-1.52c.3,0,.42-.27.62-.69.78-1.63.94-3.12,1.46-4.14s.83-1.77,1.28-2.71A17.45,17.45,0,0,1,68,270.45c.41-.59,1.06-1.06,1.3-1.5.06-.1-.36-.13-.18-.4,0,0,.3.18.32.16.23-.3.36-1,.54-1.27s.35-.26.57-.63c.55-.85,1.18-2,1.46-2.35s.94-.68,1.28-1.15.48-1,.84-1.44c.21-.27.38-.21.68-.53,1-1,2-2.15,2.87-3.19a10.26,10.26,0,0,1,3-2.4c-.27-.64.91-1.12,1.32-1.45s.32-.54.49-.69c1.34-1,2.88-1.35,3.14-2.41,1.12,0,2-1.35,3.11-2a23.93,23.93,0,0,0,2.51-1.35c.45-.26.32-1.24,1-1,.13.35-.8.7-.67,1,1.09-.75,2-1.68,3.49-1.89.36-1,.09.16,1.27-.63.6-.41.56-.18,1-.35,0-.06,0-.13,0-.19.09-1,.19-2,.39-3.24a2.68,2.68,0,0,1,.32-.9c0-.4,0-.82.07-1.26l0-.47a7,7,0,0,0-1.29.5c.13-.4.69-.72,1.32-1,0-.29,0-.6.07-.92a6.4,6.4,0,0,1-1.26.75c-.68.27-2.14.71-2.28.37.34-.14.49-.27.49-.41.84.27,1.53-.4,3.09-1,0-.2,0-.39.07-.58-.64.19-1.27.38-1.9.55A1.24,1.24,0,0,1,96.09,237.91ZM81.3,245.29c1.1-.15-1.47,1.53,0,0Zm-22,28.76c.09,1-.17-.93,0,0Zm0,1.92c.18.11,0,.31-.09.28A.15.15,0,0,1,59.31,276Zm-.46-1.42c.15-.12.13.27.07.34S58.76,274.61,58.85,274.55Zm-.29,3.68c-.14.12-.16-.27-.08-.34S58.63,278.16,58.56,278.23Zm-.1-2.54c.31.13-.36,2.15-1.12,2.18C57.66,276.93,58.3,275.62,58.46,275.69ZM58,279.92c-.14.12-.15-.26-.08-.33S58.06,279.86,58,279.92Zm-.49-1.37c-.15.12-.16-.27-.08-.34S57.57,278.48,57.5,278.55Zm-.77,2.29c-.65,1.66-.54-1.26,0,0Zm-.16-.66c.24-.84.5-1.58,1-1.3C57.34,279.71,57.08,280.44,56.57,280.18Zm1.85,1.37c-.12.13-.18-.26-.11-.32S58.48,281.48,58.42,281.55Zm.25-1.69a12,12,0,0,0-.79,2.47c-.76-.46,0-1.25.37-2,.11-.29.3-2.57,1.19-2.42C59.19,278.59,58.94,279.19,58.67,279.86Zm1.11-8.21c0-.28,0-.57.25-.55S60,271.72,59.78,271.65Zm.57,4.65c-.14.12-.16-.27-.08-.33S60.42,276.24,60.35,276.3Zm.1-3.09c0-.28,0-.57.25-.55S60.63,273.26,60.45,273.21Zm.38-.82c-.5-.25.32-1.61.79-1.29C61.38,271.78,61,271.56,60.83,272.39Zm.75-1.63c-.17-.08,0-.39.08-.62C61.81,270.22,61.63,270.53,61.58,270.76Zm1-.88c-.51.73-.39.2-.79,0,.78-.9.83-1.8,1.6-2.57C63.84,267.94,62.39,268.82,62.57,269.88Zm1.12-3.1.46-.77.32.16C64.22,266.71,64,267,63.69,266.78Zm.92-1.55.47.25C64.87,266.35,63.93,265.86,64.61,265.23Zm1.31,8.55c-.14.1-.13-.27,0-.32S66,273.73,65.92,273.78Zm-.69-8.9c-.1-.09.13-.68.41-1.16s.73-.82.87-.52C66.44,264,65.67,264.07,65.23,264.88Zm1.3-2c-.17.07-.06-.29,0-.34S66.63,262.82,66.53,262.87Zm8.9-11.13.26.23-.46.42-.26-.23Zm-8.28,11.49c-.17.08-.07-.29,0-.33S67.24,263.19,67.15,263.23Zm1.41-1.93-.3-.19.36-.48.3.19Zm.8,6.77c-.15.08-.1-.28,0-.32S69.44,268,69.36,268.07Zm.26-8.21c-.17.07-.06-.3,0-.34S69.71,259.82,69.62,259.86Zm.5-.38c-.17.07-.06-.3,0-.34S70.21,259.44,70.12,259.48Zm-2.9,2.75c-.55-.37,1.48-2.9,2.39-3.84.35-.31,1-.77,1-.37C69.19,259,68.2,261.31,67.22,262.23Zm3.31-3.55c-.12-.25.2-.19.41-.45C71.07,258.42,70.68,258.78,70.53,258.68Zm.46-.78c-.12-.16.12-.28.2-.22S71.07,258,71,257.9Zm-.28-.21c0-.89,1.36-.78,0,0Zm1.15-1c-.77-.73,1.2-1.51,1.68-1.35C72.78,256,72.32,255.6,71.86,256.67Zm1.54-2.25c0,.19.73-.61.41-.45.23-.11.28-.11.13.12C74,254.07,73.39,255.06,73.4,254.42Zm1,7c-.17.06,0-.28,0-.3S74.54,261.42,74.44,261.44ZM74,255.32c-.36-.36.62-1.34.93-.77A2.53,2.53,0,0,0,74,255.32Zm1.54,4.88c-.18.2-.32,0-.46,0,.18-.16.12-.24,0-.32.18-.15.33-.1.51-.31l.29.22C75.69,259.9,75.43,260,75.56,260.2Zm.06-6.26c.18-.05,0,.29-.09.32S75.52,254,75.62,253.94Zm-1.2.15c-.08-.27,0-.59-.09-.87.59-.4-.06.43.62.14.42-.52,1-1.31,1.61-1C75.32,253,75.51,253.55,74.42,254.09Zm2.18-1.29c-.11-.22.44-.6.76-.93C77.46,252.1,76.9,252.48,76.6,252.8Zm1.1-1c-.18.05,0-.29.1-.32S77.8,251.76,77.7,251.78Zm-1-.07a3.27,3.27,0,0,1,1.24-.9C78.23,251,76.79,252.39,76.75,251.71Zm1.93-1.07c-.18.05,0-.3.11-.33S78.78,250.62,78.68,250.64Zm.33-.53c-.18,0,0-.31.1-.33S79.1,250.08,79,250.11Zm.39.82c-.17,0,0-.3.1-.32S79.5,250.92,79.4,250.93Zm.08-1.21c-.1-.17.17-.25.24-.18S79.55,249.79,79.48,249.72Zm.49-1.25c-1.16.32,1-1.26,0,0Zm2-1c.18,0,0,.31-.13.32S81.82,247.45,81.92,247.43Zm-1,5c-.58.44-.5-.47.06-.77C81,251.89,80.76,252.2,80.88,252.43Zm1.24-1.22c-.19,0,0-.29.11-.31S82.22,251.2,82.12,251.21Zm-1-2.78,1.71-1.28C82.91,247.69,81.72,249,81.17,248.43Zm2-2.83c.18,0,0,.31-.14.32S83.09,245.62,83.19,245.6Zm-.1,7.06c-.12-.13.18-.31.33-.48C83.53,252.31,83.23,252.49,83.09,252.66Zm.63-5.93c-.22.32-.42.54-.25.18S84,246.37,83.72,246.73Zm.59-.24c-.18,0,0-.3.14-.31S84.41,246.48,84.31,246.49Zm.12-1.32c-.19,0,0-.29.16-.3S84.53,245.16,84.43,245.17Zm1.64-1.43c.19,0-.06.3-.16.31S86,243.75,86.07,243.74Zm-.11.89c-.2,0,.06-.3.15-.3S86.05,244.62,86,244.63Zm-.37,1c-.14-.35,1.21-.8,1.25-.37C86.14,246,86,245.47,85.59,245.67Zm1.31-1.83c-.19,0,.06-.3.16-.3S87,243.83,86.9,243.84Zm.42-.47c-.18,0,.07-.3.17-.3S87.43,243.36,87.32,243.37Zm.47.12c-.06-.19.21-.24.26-.16S87.85,243.57,87.79,243.49Zm.79-.49c-.19,0,.06-.3.17-.3S88.68,243,88.58,243Zm.88-.34c-.65.89.31-.87,0,0Zm.67,2.63c-.09-.15.23-.3.41-.46C90.62,245,90.31,245.14,90.13,245.29Zm7.23-3.48c0,.22-.47.36-.55.22C97,241.82,97.21,241.65,97.36,241.81Zm-.87-2.41c0,.2-.25.2-.29.11S96.45,239.32,96.49,239.4Zm-.36,5.65c.05.19-.21.21-.26.13S96.08,245,96.13,245.05Zm-1.95-6.69c.29-.14.32.07.45.16C94.35,238.66,94.31,238.44,94.18,238.36Zm-1.58,2.32c.19,0-.09.29-.19.28S92.5,240.68,92.6,240.68Zm-.76,1.14c-.32-.25.22-.47.65-.71,0,.15-.19.29-.1.44Zm.63,2.75c-.62.22.1-.9.62-.69C93.16,244.12,92.33,244.33,92.47,244.57ZM95,243c0-.2.22-.22.27-.14S95,243,95,243Zm.56-2.77a13.39,13.39,0,0,0-2.57,1.08C93.1,240.75,95.05,239.56,95.51,240.19Z"/><path class="cls-5" d="M97.84,235.59c0-.21.29-.23.61-.23C98.64,234.52,96.51,235.9,97.84,235.59Z"/><path class="cls-5" d="M74.64,253.89c.1,0,.27-.37.09-.32S74.46,253.93,74.64,253.89Z"/><path class="cls-5" d="M59.31,268.79c-.06.24-.25.56-.09.64C59.28,269.19,59.47,268.87,59.31,268.79Z"/><path class="cls-5" d="M68,280.15c-.07.06,0,.4.09.3S68.14,280.06,68,280.15Z"/><path class="cls-5" d="M60.33,264.75c-.24.61-1.27,1.71-1,2C59.8,265.91,60.79,265.3,60.33,264.75Z"/><path class="cls-5" d="M65.34,281.29c0-.2.16-.5,0-.55C65.31,281,65.17,281.24,65.34,281.29Z"/><path class="cls-5" d="M59.64,267.88c-.25.45-.38.85-.07.34.3.09.6-.88.93-.94C60.36,267,59.94,267.45,59.64,267.88Z"/><path class="cls-5" d="M61.29,265.58c-.17.31-.48.31-.32.55C61.13,266.2,61.44,265.75,61.29,265.58Z"/><path class="cls-5" d="M60.5,269.64c.13-.34.39-.77.22-.9C60.6,269.07,60.33,269.51,60.5,269.64Z"/><path class="cls-5" d="M71.4,272.36c-.09,0-.13.38,0,.3S71.55,272.29,71.4,272.36Z"/><path class="cls-5" d="M76.62,261.66c-.11.19-.36.41-.22.51C76.51,262,76.75,261.77,76.62,261.66Z"/><path class="cls-5" d="M73.8,265.28c.15.09.46-.26.31-.44S73.85,265,73.8,265.28Z"/><path class="cls-5" d="M77.3,261.17c-.14-.11-.49.22-.36.4C77.13,261.33,77.43,261.41,77.3,261.17Z"/><path class="cls-5" d="M77.89,260.25c-.32.35-.36.6-.26.82C77.94,260.73,78,260.47,77.89,260.25Z"/><path class="cls-5" d="M95.77,248.3c-.34-.12-.92.17-1.41.31.54.37-1.62.3-1.22,1.11-2,.41-3.8,2.41-5.75,3.16.08.19-.06.39-.2.59a21.69,21.69,0,0,0-3.4,2.29,28.68,28.68,0,0,0-2.47,2.45c.19-.18.47,0,.26.23-.22-.43-.66.15-1,.2a43.55,43.55,0,0,1-3.31,3.7,16.63,16.63,0,0,0-1.89,2.12c-.61.75-1.21,1.51-1.78,2.27a29.91,29.91,0,0,0-1.55,2.76c-.34.51-1.11,1.88-1.21,2s-.37.23-.44.38c-.15.4.27.89-.28,1.3-.1-.86-.86.75-.54,1.2-.27.37-.83.57-.94.75,0-.08.27.26.23.37a3.5,3.5,0,0,0-.61.89c-.36.92-.73,1.47-1.14,2.37.5,0,.58.3.27.91-.2-.1-.24-.57-.52-.16-.23.82-.58,1.82-.91,2.92h1.11c.4-.52.29-1.44.84-2.6a21.91,21.91,0,0,1,1.54-3c-.19-.11-.5-.14-.4-.43.9-1.23.52-.49.75-1.65a.67.67,0,0,1,.4.44c0-.7.76-1.48.85-1.87.31-1.12-.42-.72.47-1.21.22-.12.34-.35.56-.59.71-.82.14-.59.49-1.2.8-1.33,1.9-1.9,1.64-2.66.64.16,1.85-1.83,2-2.43a3,3,0,0,0,1.09-1.09,15.64,15.64,0,0,1,1.18-1.44c.84-.87,1.84-1.93,2.76-2.81.76-.6,1.34-1.52,2-2.08.33-.27.62.07.71-.41-.49.42-.46-.37-.18-.55a2.76,2.76,0,0,0,1.45-.65c.5-.32,1-.73,1.57-1.16-.09-.37.6-1.15,1.05-.8a2,2,0,0,0-.4.73c1-.37.43-1.33,1-1.22.14.13-.14.44.22.27A7,7,0,0,1,90,252.68c.12-.07.27.12.56-.15.12-.12,0-.37.24-.55,0,0,.17.28.21.27.45,0,.79-.7,1-.83a18.28,18.28,0,0,1,4.35-2.1c.28-.25-.3-.58.13-.82a1.54,1.54,0,0,0,.3,0c0-.35.07-.71.12-1.07C96.32,247.74,95.82,248,95.77,248.3ZM67,280.93c-.13.1-.16-.24-.09-.29S67.06,280.88,67,280.93Zm5.2-9.91c-.15.08-.11-.26,0-.3S72.27,271,72.19,271Zm1.57-3.59c-.17.06-.09-.27,0-.31S73.84,267.39,73.76,267.43Zm2.78-2.9c.15-.2.3,0,.45,0C76.83,264.72,76.69,264.56,76.54,264.53Zm6-6.69c-.18,0,0-.28.06-.3S82.59,257.83,82.5,257.84Zm5.44-4.72c-.16,0,0-.29.1-.3S88,253.11,87.94,253.12Zm.43-.33c-.17,0,0-.29.1-.3S88.46,252.78,88.37,252.79Zm1-.93a5.62,5.62,0,0,1,.69-.43C90.66,251.42,88.83,252.53,89.35,251.86Zm4.35-2.29c-.17,0,0-.29.13-.29S93.78,249.57,93.7,249.57Z"/><path class="cls-5" d="M76.07,262.27c-1.07.67-1.12,1.52-1.95,2.26.46.38.66-.77,1.4-1-.24-.09,0-.37.25-.64S76.32,262.37,76.07,262.27Z"/><path class="cls-5" d="M73.49,265.4c-.41.47-.57.84-.34,1.05C73.4,266.05,74.1,265.46,73.49,265.4Z"/></g></g></svg>