<svg xmlns="http://www.w3.org/2000/svg" viewBox="0 0 565.49 511.51"><defs><style>.cls-1{fill:#fff;}.cls-2{fill:#020101;}.cls-3{fill:#dc2d2b;}</style></defs><title>celio</title><g id="Capa_2" data-name="Capa 2"><g id="Capa_1-2" data-name="Capa 1"><rect class="cls-1" width="565.49" height="511.51" rx="141.73" ry="141.73"/><path class="cls-2" d="M436.06,250.44a37.78,37.78,0,1,1-37.78-37.78A37.77,37.77,0,0,1,436.06,250.44Zm-37.78-23a23,23,0,1,0,23,23A23,23,0,0,0,398.28,227.47Zm-291.43,36a23,23,0,1,1,.78-24.74h16.18a37.77,37.77,0,1,0-.42,24.74Zm171.5-76h-16v100h16Zm49.08,28.22h-16v71.82h16Zm0-28.32h-16v16h16ZM228.7,255.73a38.41,38.41,0,0,0,.38-5.29,37.76,37.76,0,1,0-2.2,12.72H210.42A23,23,0,0,1,169,255.73Zm-37.4-28.26a23,23,0,0,1,21.43,14.71H169.87A23,23,0,0,1,191.3,227.47Z"/><polygon class="cls-3" points="518.67 212.36 515.18 201.77 495.37 208.3 495.37 187.31 484.23 187.31 484.23 208.27 464.52 201.77 461.03 212.36 480.77 218.87 468.57 235.67 477.58 242.22 489.82 225.38 502.05 242.22 511.07 235.67 498.88 218.88 518.67 212.36"/></g></g></svg>