<svg xmlns="http://www.w3.org/2000/svg" xmlns:xlink="http://www.w3.org/1999/xlink" viewBox="0 0 565.49 511.51"><defs><style>.cls-1{fill:#008b8b;}.cls-2,.cls-4{fill:#f7b800;}.cls-2{fill-rule:evenodd;}.cls-3{fill:url(#linear-gradient);}.cls-5{fill:url(#linear-gradient-2);}.cls-6{fill:url(#linear-gradient-3);}.cls-7{fill:url(#linear-gradient-4);}.cls-8{fill:url(#linear-gradient-5);}</style><linearGradient id="linear-gradient" x1="277.64" y1="272.04" x2="377.76" y2="272.04" gradientUnits="userSpaceOnUse"><stop offset="0" stop-color="#e8eaea"/><stop offset="0.03" stop-color="#eaeceb"/><stop offset="0.18" stop-color="#f1f1ef"/><stop offset="0.61" stop-color="#f3f2f0"/></linearGradient><linearGradient id="linear-gradient-2" x1="199.19" y1="271.99" x2="261.9" y2="271.99" xlink:href="#linear-gradient"/><linearGradient id="linear-gradient-3" x1="454.01" y1="272.03" x2="484.14" y2="272.03" xlink:href="#linear-gradient"/><linearGradient id="linear-gradient-4" x1="387.01" y1="210.44" x2="440.93" y2="210.44" xlink:href="#linear-gradient"/><linearGradient id="linear-gradient-5" x1="70.01" y1="268" x2="186.53" y2="268" xlink:href="#linear-gradient"/></defs><title>cruji</title><g id="Capa_2" data-name="Capa 2"><g id="Capa_1-2" data-name="Capa 1"><rect class="cls-1" width="565.49" height="511.51" rx="141.73" ry="141.73"/><path class="cls-2" d="M380.71,156.8a4.17,4.17,0,0,1,3.27,1.48,4.76,4.76,0,0,1,1.31,3.16,4.53,4.53,0,0,1-1.42,3.3,4.35,4.35,0,0,1-3.16,1.42H368.22a2.24,2.24,0,0,0-1.48.51,1.78,1.78,0,0,0-.62,1.45,2,2,0,0,0,.62,1.56,2.12,2.12,0,0,0,1.48.55h8.21a9.31,9.31,0,0,1,4.17.94,10.76,10.76,0,0,1,3.34,2.51,12.76,12.76,0,0,1,2.22,3.3,9.34,9.34,0,0,1,.8,3.92,10.46,10.46,0,0,1-.84,4.5,10.61,10.61,0,0,1-2.43,3.56,11.19,11.19,0,0,1-3.56,2.28,11.85,11.85,0,0,1-4.57.84H362.2a4.6,4.6,0,0,1-3.27-1.31,4.31,4.31,0,0,1-1.38-3.26,4.91,4.91,0,0,1,1.31-3.31,4.34,4.34,0,0,1,3.19-1.56h13.36c1.31,0,2-.58,2-1.74a1.73,1.73,0,0,0-2-2h-8a9.46,9.46,0,0,1-4.11-.91,10.36,10.36,0,0,1-3.34-2.5,12.78,12.78,0,0,1-2.21-3.49A10.35,10.35,0,0,1,357,168a10.87,10.87,0,0,1,.84-4.21,11.25,11.25,0,0,1,2.28-3.56,11,11,0,0,1,3.42-2.43,10.62,10.62,0,0,1,4.28-1Zm-45.16,9.58a7.76,7.76,0,0,0-3.12.62,8.4,8.4,0,0,0-2.57,1.7,8,8,0,0,0-2.44,5.81,7.72,7.72,0,0,0,.66,3.16,8.23,8.23,0,0,0,1.78,2.61,8.46,8.46,0,0,0,2.57,1.78,7.46,7.46,0,0,0,3.12.65,7.67,7.67,0,0,0,3.16-.65,8,8,0,0,0,2.58-1.78,8.64,8.64,0,0,0,1.74-2.61,7.72,7.72,0,0,0,.66-3.16,8.4,8.4,0,0,0-2.4-5.66A8.15,8.15,0,0,0,335.55,166.38Zm0-9.51a16.86,16.86,0,0,1,6.76,1.38A18,18,0,0,1,347.9,162a18.59,18.59,0,0,1,3.81,5.59,17.49,17.49,0,0,1,0,13.69,18.24,18.24,0,0,1-3.73,5.55,17.45,17.45,0,0,1-5.56,3.78,17.21,17.21,0,0,1-6.9,1.38,17.85,17.85,0,0,1-6.82-1.31,17,17,0,0,1-5.59-3.67A17.29,17.29,0,0,1,318,174.51a17.11,17.11,0,0,1,1.35-6.79,17.39,17.39,0,0,1,3.7-5.52,18.05,18.05,0,0,1,5.59-3.77A18.71,18.71,0,0,1,335.55,156.87Zm-39.13,9.51a7.91,7.91,0,0,0-3.16.65,8.5,8.5,0,0,0-4.39,4.39,7.72,7.72,0,0,0-.65,3.09,7.87,7.87,0,0,0,.65,3.16,8.21,8.21,0,0,0,1.78,2.58,9,9,0,0,0,2.61,1.74,7.91,7.91,0,0,0,3.16.65,7.43,7.43,0,0,0,3.05-.65,8.68,8.68,0,0,0,4.36-4.36,7.62,7.62,0,0,0,.65-3.12,8,8,0,0,0-.65-3.23,8.21,8.21,0,0,0-1.78-2.58,8.45,8.45,0,0,0-2.58-1.7A7.56,7.56,0,0,0,296.42,166.38Zm12.85-20.55a4.66,4.66,0,0,1,3.31,1.35,4.53,4.53,0,0,1,1.41,3.44v23.89a16.54,16.54,0,0,1-1.41,6.75,18.06,18.06,0,0,1-3.85,5.59,18.66,18.66,0,0,1-5.63,3.81,16.2,16.2,0,0,1-6.68,1.42,16.69,16.69,0,0,1-6.68-1.38,18.32,18.32,0,0,1-5.62-3.77,18.51,18.51,0,0,1-3.89-5.6,16.76,16.76,0,0,1,0-13.57,18,18,0,0,1,3.84-5.59,18.66,18.66,0,0,1,5.63-3.81,16.38,16.38,0,0,1,6.75-1.42,16.91,16.91,0,0,1,8.06,2v-8.35a4.23,4.23,0,0,1,.4-1.81,5.48,5.48,0,0,1,1.05-1.53,4.8,4.8,0,0,1,1.53-1A4.51,4.51,0,0,1,309.27,145.83Zm-51,36.81a8.16,8.16,0,0,0,5.74-2.32,8.44,8.44,0,0,0,1.74-2.58,7.87,7.87,0,0,0,.65-3.23,7.55,7.55,0,0,0-.65-3.09,8.4,8.4,0,0,0-1.78-2.61,8.57,8.57,0,0,0-2.61-1.78,7.68,7.68,0,0,0-3.09-.65,7.46,7.46,0,0,0-3.05.65,8.77,8.77,0,0,0-2.57,1.78,8.4,8.4,0,0,0-1.78,2.61,7.56,7.56,0,0,0-.66,3.09,7.43,7.43,0,0,0,.69,3.16,8.66,8.66,0,0,0,1.82,2.58,9.16,9.16,0,0,0,2.58,1.74A7.23,7.23,0,0,0,258.23,182.64ZM260.34,157a16.78,16.78,0,0,1,6.13,1.89,17.31,17.31,0,0,1,4.94,3.88,18.51,18.51,0,0,1,3.27,5.38,17,17,0,0,1,1.2,6.35v12.85a4.43,4.43,0,0,1-1.46,3.34,4.6,4.6,0,0,1-3.26,1.38,4.66,4.66,0,0,1-4.07-2.32,3.58,3.58,0,0,0-.65.32l-.58.33a19.76,19.76,0,0,1-3.56,1.23,17.74,17.74,0,0,1-4,.44,16.78,16.78,0,0,1-9.73-2.94,18.07,18.07,0,0,1-6.39-7.59,19.2,19.2,0,0,1-1.13-3.41,16.67,16.67,0,0,1,0-7.26,19.2,19.2,0,0,1,1.13-3.41,17.77,17.77,0,0,1,6.39-7.63,17,17,0,0,1,9.73-2.9h1.05A6.75,6.75,0,0,1,260.34,157ZM225.27,145.9a4.41,4.41,0,0,1,3.3,1.38,5.22,5.22,0,0,1,1.49,3.42v28.67a3.49,3.49,0,0,0,.95,2.47,3.11,3.11,0,0,0,2.39,1,4.71,4.71,0,0,1,3.31,1.31,4.46,4.46,0,0,1,.29,6.35,5,5,0,0,1-3.09,1.63h-1a11.2,11.2,0,0,1-4.79-1.05,13.19,13.19,0,0,1-3.95-2.8,12.79,12.79,0,0,1-2.69-4.06,12.46,12.46,0,0,1-1-4.87v-29a5.19,5.19,0,0,1,1.52-3.13A4.72,4.72,0,0,1,225.27,145.9Zm-19.46,24.54a7.61,7.61,0,0,0-10.34-3.15,7.61,7.61,0,0,0-2.87,3.15Zm-6.6-13.5a16,16,0,0,1,6.68,1.45,19.19,19.19,0,0,1,9.51,9.48,15.67,15.67,0,0,1,1.45,6.64,3.55,3.55,0,0,1-1.42,3,5.29,5.29,0,0,1-3.52,1H192.6q2.4,4.14,6.61,4.14a7.36,7.36,0,0,0,2-.22,8.55,8.55,0,0,0,1.41-.5,10.81,10.81,0,0,1,1.24-.51,4.09,4.09,0,0,1,1.41-.22,4.9,4.9,0,0,1,4.32,2.87,4.57,4.57,0,0,1,.37,2.57,4.62,4.62,0,0,1-1.27,2.55,11.34,11.34,0,0,1-4.36,2.21,23,23,0,0,1-5.08.69,14.75,14.75,0,0,1-6.68-1.27,18.28,18.28,0,0,1-9.48-9.55,16.88,16.88,0,0,1-1.41-6.75,16.23,16.23,0,0,1,1.41-6.61,18.83,18.83,0,0,1,3.82-5.62,18.52,18.52,0,0,1,5.59-3.89A16.09,16.09,0,0,1,199.21,156.94Zm-26.87-11.18a5.09,5.09,0,0,1,3.45,1.38,4.45,4.45,0,0,1,1.56,3.48v36.6A4.26,4.26,0,0,1,177,189a5,5,0,0,1-1.12,1.56,5.75,5.75,0,0,1-1.63,1.09,4.55,4.55,0,0,1-1.86.4,4.47,4.47,0,0,1-3.19-1.42,4.61,4.61,0,0,1-1.45-3.44V175.31H151.87v11.91a4.85,4.85,0,0,1-4.86,4.86,5,5,0,0,1-3.67-1.38,4.93,4.93,0,0,1-1.49-3.48v-36.6a4.38,4.38,0,0,1,1.56-3.55,5.45,5.45,0,0,1,3.6-1.31,4.61,4.61,0,0,1,3.44,1.45,4.72,4.72,0,0,1,1.42,3.41v14.81H167.7V150.62a4.67,4.67,0,0,1,1.45-3.41A4.43,4.43,0,0,1,172.34,145.76Z"/><path class="cls-3" d="M363,214h-.65a14.74,14.74,0,0,0-14.72,14.73l.1,50.51a19.84,19.84,0,0,1-6,14.81c-4.05,4-8.46,6-13.49,6a19.13,19.13,0,0,1-14.2-5.82,20,20,0,0,1-6.23-15l-.11-50.51A14.75,14.75,0,0,0,293,214h-.64a14.74,14.74,0,0,0-14.72,14.73v54.37a47,47,0,0,0,13.95,33.38c9,9.08,21.38,13.68,36.69,13.68,14.54,0,26.43-4.52,35.36-13.45A47.63,47.63,0,0,0,377.76,283V228.69A14.74,14.74,0,0,0,363,214"/><path class="cls-4" d="M416.3,214h-.64a14.73,14.73,0,0,0-14.72,14.72v1.24l.07,30,0,54.94a19.86,19.86,0,0,1-6,14.81c-3.84,3.8-8,5.77-12.69,6a14.74,14.74,0,0,0-14,14.7V351A14.74,14.74,0,0,0,383,365.75h1.44c13.22-.57,24.11-5.06,32.44-13.38a48,48,0,0,0,10.94-16.79,49.7,49.7,0,0,0,3.17-16.9v-90A14.73,14.73,0,0,0,416.3,214"/><path class="cls-5" d="M213.91,330h.64a14.73,14.73,0,0,0,14.72-14.72v-1.25l-.06-30,0-19.21a19.81,19.81,0,0,1,6-14.8c3.83-3.81,8-5.77,12.69-6a14.74,14.74,0,0,0,14-14.7v-.64A14.73,14.73,0,0,0,247.18,214h-1.44c-13.21.57-24.11,5.05-32.43,13.38a48,48,0,0,0-10.95,16.79A50.18,50.18,0,0,0,199.19,261V315.3A14.73,14.73,0,0,0,213.91,330"/><path class="cls-6" d="M469.34,214h-.53a14.82,14.82,0,0,0-14.8,14.8v86.51a14.82,14.82,0,0,0,14.8,14.8h.53a14.82,14.82,0,0,0,14.8-14.8V228.77a14.82,14.82,0,0,0-14.8-14.8"/><path class="cls-7" d="M438.52,205.37a14.26,14.26,0,0,0-6.75-5.42,14.37,14.37,0,0,0,.7-16.9,8.44,8.44,0,0,0-1.08-1.42c-24.52-24.5-12.74-6.63-18.84-2.56L397.72,189a14.35,14.35,0,0,0,2,25l-6,4a14.25,14.25,0,0,0-6.16,9.44A19.62,19.62,0,0,0,387,232a19.86,19.86,0,0,0,18.54,19.81,1.38,1.38,0,0,0,1.09,0c1.71-.85-.68-7.49,3-9.94l17-11.35,7.87-5.24a14.36,14.36,0,0,0,4-19.92"/><path class="cls-8" d="M135.24,232.54h.36a34,34,0,0,1,7.52.87,32.13,32.13,0,0,1,15.77,9c.27.3.61.7,1,1.18a15.31,15.31,0,0,0,8.18,5,15,15,0,0,0,18-11.24,14.91,14.91,0,0,0-3.76-13.8l-.43-.44a61.87,61.87,0,0,0-30.53-17.31,72,72,0,0,0-15.54-1.8h-.7c-17.83,0-33.23,6.23-45.76,18.5C76.69,235,70.17,250.06,70,267.35s6.09,32.48,18.56,45.18a62.86,62.86,0,0,0,30.94,17.65,69.43,69.43,0,0,0,15.19,1.75h.72c18,0,33.51-6.35,46.18-18.86l.14-.15a14.81,14.81,0,0,0,3.86-13.62,15,15,0,0,0-9.4-10.87l-.1,0a14,14,0,0,0-1.89-.57,15.06,15.06,0,0,0-14.64,4.64c-.26.29-.47.51-.61.64-6.92,6.81-14.66,10.12-23.66,10.12H135a32.39,32.39,0,0,1-7.19-.82l-.11,0a33,33,0,0,1-16.26-9.5c-6.75-6.9-10-15.15-9.89-25.24s3.48-18.39,10.34-25.16,14.42-9.93,23.39-9.93"/></g></g></svg>