<svg xmlns="http://www.w3.org/2000/svg" viewBox="0 0 565.49 511.51"><defs><style>.cls-1{fill:#fff;}.cls-2{fill:#2e2d2e;}.cls-3{fill:#7db747;}</style></defs><title>kipling</title><g id="Capa_2" data-name="Capa 2"><g id="Capa_1-2" data-name="Capa 1"><rect class="cls-1" width="565.49" height="511.51" rx="141.73" ry="141.73"/><rect class="cls-2" x="165.26" y="190.06" width="18.23" height="87.49"/><rect class="cls-2" x="316.07" y="190.06" width="18.24" height="87.49"/><polygon class="cls-2" points="85.65 131.67 85.65 276.27 103.88 276.27 103.88 235.76 104.29 235.76 136.69 276.27 160.38 276.27 121.5 226.45 151.27 188.78 139.32 188.78 104.29 233.73 103.88 233.73 103.88 131.67 85.65 131.67"/><path class="cls-2" d="M227.42,269.79h-13V195.25h5.06c30.58,0,33.41,25.12,33.41,41.32,0,19.65-7.69,33.22-25.51,33.22m-1.82-81H196.23V316.37h18.23V276.26h17.82c25.31,0,41.92-15,41.92-43.74,0-25.11-20.25-43.74-48.6-43.74"/><path class="cls-2" d="M298.29,131.67V267.16c0,1.61.41,2.62,2.64,2.62h12.15v6.49H292.22c-10.33,0-12.15-5.47-12.15-12V131.67Z"/><path class="cls-2" d="M343.36,276.26V201.94c0-9.31,5.67-13.16,13.57-13.16,6.67,0,10.32,3,14,8.1,18,26.12,31.19,47.39,32.4,47.39.82,0,1.43-.2,1.43-2V188.78h8.49v80.81c0,5.66-.2,8.91-5.67,8.91s-7.08-4.05-10.52-9.32l-7.1-10.53c-30.78-46.79-34.42-54.49-36.65-54.49-1,0-1.41.82-1.41,2.64v69.46Z"/><path class="cls-2" d="M490.78,210.25C484.9,201.74,479.44,193,468.5,193c-19.65,0-24.3,23.08-24.3,40.1,0,16.4,5.67,38.88,25.11,38.88,6.67,0,15.4-7.29,15.4-19V232.92H501.5v83.45H484.71V271.2c-5.27,4.05-13.38,7.3-20.46,7.3-27.15,0-41.32-20.87-41.32-45,0-27.54,15.39-47,43.14-47,14.38,0,25.11,7.7,32.2,18.65Z"/><path class="cls-2" d="M187.32,161.39a12,12,0,1,1-23.9,0,12,12,0,1,1,23.9,0"/><path class="cls-2" d="M338.72,161.39a12,12,0,0,1-23.9,0,12,12,0,0,1,23.9,0"/><rect class="cls-2" x="85.66" y="340.59" width="415.84" height="4.25"/><path class="cls-2" d="M161.94,370.29h4.47v40.39h17.2V415H161.94Z"/><path class="cls-2" d="M191.46,368.32a3.35,3.35,0,0,1,2.48,1,3.39,3.39,0,0,1,1,2.49,3.5,3.5,0,0,1-7,0,3.39,3.39,0,0,1,1-2.49A3.33,3.33,0,0,1,191.46,368.32Zm-2.11,13.61h4.25V415h-4.25Z"/><path class="cls-2" d="M200.92,381.93h4.53l11.1,24.1,11-24.1h4.56L216.94,415h-.79Z"/><path class="cls-2" d="M263.49,404l3.59,1.89A19.67,19.67,0,0,1,263,411.5a16,16,0,0,1-5.2,3.23,18.16,18.16,0,0,1-6.54,1.11q-8.08,0-12.66-5.3a17.88,17.88,0,0,1-4.56-12,17.65,17.65,0,0,1,3.87-11.21A15.79,15.79,0,0,1,251,381.08a16.33,16.33,0,0,1,13.5,6.41,17.93,17.93,0,0,1,3.65,11.31H238.42a13.47,13.47,0,0,0,3.68,9.44,11.71,11.71,0,0,0,8.79,3.68,14.29,14.29,0,0,0,4.92-.87,13.07,13.07,0,0,0,4.06-2.34A19.82,19.82,0,0,0,263.49,404Zm0-8.9a14.23,14.23,0,0,0-2.48-5.44,11.71,11.71,0,0,0-4.31-3.28,13.17,13.17,0,0,0-5.62-1.25,12.1,12.1,0,0,0-8.37,3.13,14.17,14.17,0,0,0-3.87,6.84Z"/><path class="cls-3" d="M280.77,408.31a3.72,3.72,0,1,1-2.65,1.09A3.59,3.59,0,0,1,280.77,408.31Z"/><path class="cls-2" d="M294,370.29h4.46v40.39h17.2V415H294Z"/><path class="cls-2" d="M323.55,368.32a3.37,3.37,0,0,1,2.48,1,3.43,3.43,0,0,1,1,2.49,3.52,3.52,0,0,1-3.51,3.49,3.32,3.32,0,0,1-2.45-1,3.36,3.36,0,0,1-1-2.46,3.39,3.39,0,0,1,1-2.49A3.32,3.32,0,0,1,323.55,368.32Zm-2.11,13.61h4.25V415h-4.25Z"/><path class="cls-2" d="M363,381.93h4.25v26.35q0,7-1.21,10.18a13.24,13.24,0,0,1-5.81,7,19.08,19.08,0,0,1-9.94,2.46,22.56,22.56,0,0,1-7.64-1.21,15.11,15.11,0,0,1-5.51-3.23,19,19,0,0,1-3.92-5.92h4.62a12.27,12.27,0,0,0,4.86,4.86,15.73,15.73,0,0,0,7.4,1.58,15.23,15.23,0,0,0,7.34-1.62,9.92,9.92,0,0,0,4.28-4.08q1.28-2.44,1.28-7.92v-1.7a16.23,16.23,0,0,1-5.87,4.67,17.47,17.47,0,0,1-15.94-.64,16.09,16.09,0,0,1-6.21-6.09,16.68,16.68,0,0,1-2.19-8.42,17.2,17.2,0,0,1,17.1-17.14,15.89,15.89,0,0,1,6.92,1.53,19.2,19.2,0,0,1,6.19,5.06Zm-12.55,3.25a13.43,13.43,0,0,0-6.72,1.75,12.6,12.6,0,0,0-4.86,4.83,13.18,13.18,0,0,0-1.76,6.67,12,12,0,0,0,3.64,9,14.39,14.39,0,0,0,18.89,0,12.45,12.45,0,0,0,3.57-9.27,13.46,13.46,0,0,0-1.64-6.67,12,12,0,0,0-4.65-4.64A13,13,0,0,0,350.49,385.18Z"/><path class="cls-2" d="M373.84,369.17h4.25v18.69a18.08,18.08,0,0,1,5.69-5.09,13.73,13.73,0,0,1,6.71-1.69,11.76,11.76,0,0,1,6.58,1.88,11.25,11.25,0,0,1,4.24,5.06q1.37,3.18,1.37,10v17h-4.26V399.22a40.89,40.89,0,0,0-.45-7.63,8.75,8.75,0,0,0-2.87-4.94,8.54,8.54,0,0,0-5.46-1.65,10.48,10.48,0,0,0-6.91,2.55,12,12,0,0,0-4,6.32,44.05,44.05,0,0,0-.61,9V415h-4.25Z"/><path class="cls-2" d="M414.22,369.65h4.25v12.28h6.75v3.68h-6.75V415h-4.25V385.61h-5.81v-3.68h5.81Z"/></g></g></svg>