<svg xmlns="http://www.w3.org/2000/svg" viewBox="0 0 565.49 511.51"><defs><style>.cls-1{fill:#e0040b;}.cls-2{fill:#fff;}</style></defs><title>mariae</title><g id="Capa_2" data-name="Capa 2"><g id="Capa_1-2" data-name="Capa 1"><rect class="cls-1" width="565.49" height="511.51" rx="141.73" ry="141.73"/><g id="_Grupo_" data-name="&lt;Grupo&gt;"><polygon id="_Trazado_" data-name="&lt;Trazado&gt;" class="cls-2" points="173.86 333.37 190.63 333.37 190.63 328.07 168.26 328.07 168.26 359.75 173.86 359.75 173.86 346.54 187.8 346.54 187.8 341.29 173.86 341.29 173.86 333.37"/><path id="_Trazado_compuesto_" data-name="&lt;Trazado compuesto&gt;" class="cls-2" d="M224.8,327.17l-13.36,32.58h6l1.44-3.66h11.78l1.49,3.66h6Zm-4.07,24.34,4.07-11,4.07,11Z"/><path id="_Trazado_2" data-name="&lt;Trazado&gt;" class="cls-2" d="M267.45,350.52a4,4,0,0,1-4.21,3.94H259v5.29h4.22s9.82,0,9.82-9.23V328h-5.61Z"/><path id="_Trazado_compuesto_2" data-name="&lt;Trazado compuesto&gt;" class="cls-2" d="M316.76,359.75h6l-13.41-32.58L296,359.75h6l1.43-3.66h11.79Zm-11.45-8.24,4.07-11,4.08,11Z"/><path id="_Trazado_3" data-name="&lt;Trazado&gt;" class="cls-2" d="M365.5,350.88a8.92,8.92,0,0,0-5.46-8.51,13.31,13.31,0,0,0-5-1c-2.49,0-4.89-1.4-4.89-4,0-2.94,2.26-4.38,4.89-4.38s4.69,1.17,4.79,3.79h5.56c-.1-5.38-4.56-9.09-10.35-9.09-5.41,0-10.49,3.67-10.49,9.68a8.45,8.45,0,0,0,5.46,8.1,13.53,13.53,0,0,0,5,1c2.25.1,4.89,1.77,4.89,4.44,0,2.49-2.3,4-4.89,4s-4.79-1.32-4.89-3.94h-5.6c.1,5.93,4.69,9.1,10.49,9.23C360.47,360.2,365.5,357,365.5,350.88Z"/><path id="_Trazado_4" data-name="&lt;Trazado&gt;" class="cls-2" d="M401.18,341.54a4.44,4.44,0,1,0,4.69,4.43A4.57,4.57,0,0,0,401.18,341.54Z"/><path id="_Trazado_5" data-name="&lt;Trazado&gt;" class="cls-2" d="M135,350.4a4.44,4.44,0,1,0-4.7-4.43A4.56,4.56,0,0,0,135,350.4Z"/><path id="_Trazado_compuesto_3" data-name="&lt;Trazado compuesto&gt;" class="cls-2" d="M251.08,288.43a7.33,7.33,0,0,0,.11.75,8.49,8.49,0,0,0,3,5.07,12.35,12.35,0,0,0,4.71,2.43,7.74,7.74,0,0,0,4.21.06c1.19-.36,1.69-1,1.49-1.93a31.6,31.6,0,0,1-.61-9.34c.24-3.2.54-6.52.88-10s.56-7.06.69-10.83a48.09,48.09,0,0,0-1.18-11.94A17.49,17.49,0,0,0,257.45,242a15.86,15.86,0,0,0-5.45-2.49,13.16,13.16,0,0,0-5.75-.17,34.3,34.3,0,0,0-7,2.23,40.86,40.86,0,0,0-7.09,3.94,36.23,36.23,0,0,0-6.18,5.41,22.62,22.62,0,0,0-4.25,6.74,2.75,2.75,0,0,0,.9,3.11,9.59,9.59,0,0,0,3.83,2.34,10.65,10.65,0,0,0,4.63.55,3.65,3.65,0,0,0,3.21-2.27,41.49,41.49,0,0,1,7.45-11.82q4.16-4.41,7.61-5.07a2.41,2.41,0,0,1,2.81,1.41,14,14,0,0,1,1.28,4.89,49.69,49.69,0,0,1,.2,7.21q-.15,4.08-.52,8.37c-48,.64-34.76,34.1-15.26,30.5a17.3,17.3,0,0,0,7.84-3.47,25.48,25.48,0,0,0,5.34-6C251,287.81,251.06,288.13,251.08,288.43Zm-4-2.93q-3.54,4.74-7.29,5.47c-9.31,2.56-19.68-14,12.82-19.65a8.1,8.1,0,0,0-.13.9c0,.25,0,.51-.05.78A33.41,33.41,0,0,1,247.12,285.5Z"/><path id="_Trazado_6" data-name="&lt;Trazado&gt;" class="cls-2" d="M283.3,289.82a39.34,39.34,0,0,1-.07-4.33,85.63,85.63,0,0,1,4.14-16.74,72.43,72.43,0,0,1,5.38-11.66,35.89,35.89,0,0,1,5-6.85c1.51-1.51,2.47-2.26,2.9-2.29s12.29,5.49,12.9-3.78c-1.19-5.1-4.09-7.94-9.14-7.34q-3.3.19-8.37,5.18t-11.23,15.44c0-1.68.07-3.34.11-4.95s0-3.23-.1-4.84a2.92,2.92,0,0,0-2.61-3.08,9.74,9.74,0,0,0-5.24.82,15.62,15.62,0,0,0-5.06,3.42,6.27,6.27,0,0,0-2.08,5q.81,12.57,2.16,21.62t1.78,15.68a5.27,5.27,0,0,0,1.72,3.49,9.13,9.13,0,0,0,3.46,2.22,5.28,5.28,0,0,0,3.32.2q1.47-.44,1.32-2.64C283.49,292.81,283.39,291.3,283.3,289.82Z"/><path id="_Trazado_7" data-name="&lt;Trazado&gt;" class="cls-2" d="M331.22,270.68c.64-3.59,1.21-7.1,1.7-10.5a68.77,68.77,0,0,0,.76-10,11.57,11.57,0,0,0-2-6,20.28,20.28,0,0,0-4.48-5.18,7.63,7.63,0,0,0-4.59-1.92c-1.42,0-2.2,1.18-2.34,3.55q0,15.6-.65,26.95a125.9,125.9,0,0,0,.22,19.69,11.92,11.92,0,0,0,1.65,4.4,18,18,0,0,0,3,4.1,4.06,4.06,0,0,0,2.93,1.46c.89-.05,1.34-1.16,1.34-3.31a90.79,90.79,0,0,1,.74-12.05C330,278,330.58,274.3,331.22,270.68Z"/><path id="_Trazado_8" data-name="&lt;Trazado&gt;" class="cls-2" d="M326.23,230.58a7.91,7.91,0,1,0-8.35-7.9A8.16,8.16,0,0,0,326.23,230.58Z"/><path id="_Trazado_compuesto_4" data-name="&lt;Trazado compuesto&gt;" class="cls-2" d="M383.93,296.74c1.19-.36,1.69-1,1.49-1.93a31.94,31.94,0,0,1-.61-9.34c.25-3.2.54-6.52.88-10s.57-7.06.69-10.83a48.53,48.53,0,0,0-1.17-11.94,17.43,17.43,0,0,0-2.59-6.18,17.21,17.21,0,0,0-4.36-4.51,15.9,15.9,0,0,0-5.44-2.49,13.17,13.17,0,0,0-5.75-.17,34.19,34.19,0,0,0-7,2.23,41.6,41.6,0,0,0-7.09,3.94,35.78,35.78,0,0,0-6.17,5.41,22.45,22.45,0,0,0-4.26,6.74,2.76,2.76,0,0,0,.9,3.11,9.59,9.59,0,0,0,3.83,2.34,10.68,10.68,0,0,0,4.64.55,3.64,3.64,0,0,0,3.2-2.27,41.71,41.71,0,0,1,7.45-11.82q4.17-4.41,7.61-5.07a2.4,2.4,0,0,1,2.81,1.41,14,14,0,0,1,1.28,4.89,48.31,48.31,0,0,1,.2,7.21q-.15,4.08-.51,8.37c-48,.64-34.77,34.1-15.27,30.5a17.39,17.39,0,0,0,7.85-3.47,25.71,25.71,0,0,0,5.34-6,9.61,9.61,0,0,0,0,1,4.16,4.16,0,0,0,.11.75,8.44,8.44,0,0,0,3,5.07,12.28,12.28,0,0,0,4.71,2.43A7.7,7.7,0,0,0,383.93,296.74Zm-10.6-24.52c0,.25,0,.51-.05.78a33.4,33.4,0,0,1-5.34,12.5q-3.54,4.74-7.3,5.47c-9.31,2.56-19.68-14,12.82-19.65A8.1,8.1,0,0,0,373.33,272.22Z"/><path id="_Trazado_9" data-name="&lt;Trazado&gt;" class="cls-2" d="M212.35,309.86a6.76,6.76,0,0,0,2.23.44,3.29,3.29,0,0,0,2-.58,3.74,3.74,0,0,0,1.4-2.85v-.25l-8.08-13.7C195.81,266.25,195,226.4,195,226.1c.1-1,.22-2.07.34-3.08.62-5.18,1.16-9.66-1.33-11.78-1.54-1.32-4-1.47-7.58-.46-5.88,1.68-12.81,15.59-20.14,30.33-6.6,13.27-13.43,27-18.82,30.37-.8.27-1,0-1.17-.13-4.39-4.61,10-49,20.08-75.91,5.1-11.26,6.37-18.85,3.78-22.57a5.65,5.65,0,0,0-5.3-2.29c-10.41.71-18,15.43-18.27,16-13.61,23.46-32.82,56-42.34,71.08,11.19-23.55,39.8-85.09,44.56-108.26,1.82-8.88.85-14.79-2.9-17.56-6.36-4.71-18.13,1.6-18.58,1.86C78.06,157,48.65,208.46,35.51,237.05l-.62,1.34c-2.44,5.14-1,11,1.57,13.92a4.92,4.92,0,0,0,4.8,1.91h.13c1,0,1.07,0,6.26-13.38,3.62-9.34,8.13-21,11.64-27.7,16.7-35.3,51-62.87,64-67.14,3.42-1.14,6-1,7.56.43,3.46,3.06,1.87,11.1,1.84,11.39.7,22.16-36.48,98.45-36.83,99.16-4.45,7.8-26.36,46.94-20.84,51.74a4.6,4.6,0,0,0,3.79,1.12c5.31-.74,11.16-9.67,11.4-10.05l16.69-25.35,42.59-71c-22.16,61-18.36,81.43-18.13,82.49,1.4,3.11,3.41,4.95,6,5.46,5.36,1.07,11.07-4.19,11.34-4.44,15.82-16,26.25-35.55,29.81-42.76,2.67,23.09,8.69,40.88,17.91,52.92C203.13,306,209.72,309,212.35,309.86Z"/><path id="_Trazado_10" data-name="&lt;Trazado&gt;" class="cls-2" d="M490.77,251.6c-.95-.36-3.42-.71-5.78,3.63a51.49,51.49,0,0,0-2.65,5c-4.69,9.62-12.52,25.73-35.54,29.19-.88.14-21.42,3.15-29.05-15.39-.14-.37-13.2-37.17,48.45-63.73l.37-.24c2.2-2,2.91-4.47,1.91-6.55s-3.67-3.31-6.81-2.8c-8.41,3.15-18.46.42-22-6-4-7.37,1.24-17.2,14.5-27a3.48,3.48,0,0,0,1.18-2.86l-.21-.57c-1.17-1.77-3.92-2-7.73-.75-9.63,3.25-22.72,15.14-21.62,31.22,0,.12-.62,11.1,13.46,15.8-10,5.54-40.81,25.54-37.86,60.93a32.92,32.92,0,0,0,11.49,20.86c6.39,5.24,14.81,7.87,25.05,7.87a67.12,67.12,0,0,0,7.35-.42c.35,0,35.6-3,47.84-42.28C493.74,254.87,492.71,252.32,490.77,251.6Z"/><path id="_Trazado_11" data-name="&lt;Trazado&gt;" class="cls-2" d="M500.12,130.23c-2.71-1.73-6.69-.33-7-.22-41.52,9.94-66.94,36.9-69.3,42a3.1,3.1,0,0,0-.21,2.66A3,3,0,0,0,426,176l.77.2.54-.58a101.77,101.77,0,0,1,63.54-31.48l.28,0c3.83.27,6.78-.62,8.75-2.63a9.73,9.73,0,0,0,2.5-7.15A5.05,5.05,0,0,0,500.12,130.23Z"/><path id="_Trazado_compuesto_5" data-name="&lt;Trazado compuesto&gt;" class="cls-2" d="M515.11,137a2.92,2.92,0,0,0,1.59-.9,2.2,2.2,0,0,0,.51-1.48,2.23,2.23,0,0,0-.42-1.39,2.56,2.56,0,0,0-1.2-.84,4.18,4.18,0,0,0-1-.21,8.3,8.3,0,0,0-1.25-.08h-2.69v8.38h1.62v-3.25h1.11l2.42,3.25h1.94L515.11,137ZM514,135.9c-.25,0-.57,0-.94,0h-.8v-2.56h1.16a7.16,7.16,0,0,1,.87,0,2.13,2.13,0,0,1,.58.15,1,1,0,0,1,.5.41,1.09,1.09,0,0,1,.15.6,1.29,1.29,0,0,1-.18.69,1.31,1.31,0,0,1-.68.49A5.72,5.72,0,0,1,514,135.9Z"/><path id="_Trazado_compuesto_6" data-name="&lt;Trazado compuesto&gt;" class="cls-2" d="M514.21,128.41a7.88,7.88,0,1,0,8.33,7.86A8.13,8.13,0,0,0,514.21,128.41Zm0,14a6.17,6.17,0,1,1,6.5-6.17A6.36,6.36,0,0,1,514.21,142.44Z"/></g></g></g></svg>