<svg xmlns="http://www.w3.org/2000/svg" viewBox="0 0 565.49 511.51"><defs><style>.cls-1{fill:#fff;}.cls-2{fill:#1f140f;}</style></defs><title>pilatos</title><g id="Capa_2" data-name="Capa 2"><g id="Capa_1-2" data-name="Capa 1"><rect class="cls-1" width="565.49" height="511.51" rx="141.73" ry="141.73"/><path class="cls-2" d="M47.84,217.9H85.39q12.27,0,18.38,5.84t6.11,16.65q0,11.09-6.66,17.34T82.89,264H70.52v27.11H47.84Zm22.68,31.22H76c4.34,0,7.4-.76,9.15-2.28A7.35,7.35,0,0,0,87.83,241a8.15,8.15,0,0,0-2.29-5.85q-2.28-2.4-8.6-2.4H70.52Z"/><path class="cls-2" d="M116.69,219.16h22.68v73.19H116.69Z"/><path class="cls-2" d="M155.61,219.16h22.61v55.17h35.33v18H155.61Z"/><path class="cls-2" d="M268.78,280.26H243.09l-3.6,12.09h-23.1l27.52-73.19h24.77l27.46,73.19H272.45Zm-4.71-15.81L256,238.14l-8,26.31Z"/><path class="cls-2" d="M291.17,219.16h68.77v18.1H336.86v55.09H314.25V237.26H291.17Z"/><path class="cls-2" d="M363.81,255.81q0-17.94,10-27.92t27.83-10q18.28,0,28.17,9.81t9.89,27.5q0,12.84-4.32,21a30.79,30.79,0,0,1-12.49,12.79q-8.16,4.56-20.35,4.57-12.39,0-20.51-3.95a30.82,30.82,0,0,1-13.16-12.49Q363.81,268.65,363.81,255.81Zm22.61.11q0,11.1,4.13,15.94t11.23,4.84q7.31,0,11.3-4.74t4-17q0-10.35-4.18-15.11t-11.33-4.77a13.78,13.78,0,0,0-11,4.84Q386.42,244.74,386.42,255.92Z"/><path class="cls-2" d="M447.88,268.17l21.5-1.35a16.45,16.45,0,0,0,2.85,8q3.5,4.43,10,4.43,4.83,0,7.46-2.27a6.56,6.56,0,0,0,.14-10.38q-2.49-2.25-11.57-4.24Q463.37,259,457,253.44a17.86,17.86,0,0,1-6.39-14.13,19.15,19.15,0,0,1,3.27-10.65,21.66,21.66,0,0,1,9.83-7.89q6.57-2.88,18-2.87,14,0,21.39,5.22t8.77,16.6L490.57,241c-.57-3.32-1.76-5.72-3.57-7.23s-4.3-2.26-7.49-2.26c-2.62,0-4.6.56-5.92,1.68a5.11,5.11,0,0,0-2,4.07,4.1,4.1,0,0,0,1.62,3.15q1.59,1.46,7.57,2.7,14.82,3.19,21.23,6.47a22.34,22.34,0,0,1,9.34,8.12,20.68,20.68,0,0,1,2.92,10.85,23.19,23.19,0,0,1-3.9,13,24.3,24.3,0,0,1-10.88,9q-7,3.07-17.62,3.08-18.67,0-25.86-7.19A28.39,28.39,0,0,1,447.88,268.17Z"/></g></g></svg>