<svg xmlns="http://www.w3.org/2000/svg" viewBox="0 0 565.49 511.51"><defs><style>.cls-1{fill:#fff;}.cls-2{fill:#00a6b1;}.cls-3{fill:#1f140f;}</style></defs><title>spirito</title><g id="Capa_2" data-name="Capa 2"><g id="Capa_1-2" data-name="Capa 1"><rect class="cls-1" width="565.49" height="511.51" rx="141.73" ry="141.73"/><path class="cls-2" d="M66.88,235.61C55,231,46.11,226.88,46.11,216.82c0-8.58,6.89-18.14,18.21-18.14,0,0,22.29-.47,22.29,14.93v3.28h0l0,0,6.09,0V194.46l-6.09,0s0,0,0,0l0,5.45c-5.16-4.37-13.09-7.32-22-7.32-17.63,0-29.1,10.63-29.1,25.1,0,16.22,12.33,22.25,28.52,28.41,10.75,4.15,19.66,8.44,19.66,18.18a19.77,19.77,0,0,1-20.23,20.05c-1.91,0-22.07-.44-22.07-15.11V266h0v0l-6.06,0V288.4l6.06,0V283c5.16,4.36,13.13,7.28,22,7.28h0c17.74,0,30.9-10.2,30.9-26.79,0-15.94-11.9-21.82-27.41-27.84Z"/><path class="cls-2" d="M496.63,192.59c-27.84,0-48,21.38-48,49,0,27.26,19.91,48.75,47.46,48.75s48-21.34,48-49C544.08,214.12,524,192.59,496.63,192.59ZM496.34,284c-21.67,0-36.86-20.45-36.86-42.7,0-22.07,15.19-42.37,36.86-42.37,21.49,0,36.71,20.45,36.71,42.66S517.83,284,496.34,284Z"/><path class="cls-2" d="M185.74,194.32v6.09h3.79c3.57.22,8.91,1.48,9,6.85v68.48c0,5.23-5.16,6.57-8.69,6.86h-4.08v6h36.17v-6h-3.64c-3.75-.29-9.12-1.66-9.12-7h0V207.37h0c0-5.44,5.66-6.74,9.41-7h3.35v-6.09Z"/><path class="cls-2" d="M297.71,275.64h0l-15.87-28.13C293.75,243.65,302,234.6,302,221.72c0-16.94-13.45-27.4-34.26-27.4H231.94v6.09h3.31c3.39.25,8.23,1.48,8.73,6.13v70.11c-.61,4.47-5.3,5.66-8.65,6h-3.39v6h35.12v-6h-3.68c-3.35-.29-8-1.48-8.65-6V250.1h0v-5.95h0V200.41H267.2c14.61,0,24.09,9.67,24.09,21.57,0,12.47-10.74,22.46-25.09,22.46h-2.89v5.92c.79,0,1.55,0,2.31,0,1.87,0,3.75-.14,5.44-.29l23.23,38.55h18.64v-6h-.58c-2.3-.11-11.25-.87-14.64-7Z"/><path class="cls-2" d="M317.11,194.32v6.09h3.79c3.39.22,8.44,1.37,9,6.13v69.93c-.51,4.61-5.3,5.84-8.69,6.13h-4.08v6h36.14v-6h-3.61c-3.75-.29-9.12-1.66-9.12-7h0V207.37h0c0-5.44,5.66-6.74,9.45-7h3.28v-6.09Z"/><path class="cls-2" d="M362.55,194.32v19.15h6.78v-6.53h0c0-5.37,5.51-6.71,9.26-7h17.75v75.66h0c0,5.3-5.16,6.67-8.73,7h-4v6h36.28v-6h-3.75c-3.39-.26-8.08-1.37-9-5.45V200H424.9c3.68.25,9,1.51,9.31,6.56v6.93H441V194.32Z"/><polygon class="cls-2" points="186.14 183.53 221.98 183.53 221.98 181.77 221.98 178.05 221.98 175.56 186.14 175.56 186.14 183.53"/><path class="cls-2" d="M142.18,194.32H105.9l0,6.06h0v0h3.28c3.54.25,8.73,1.59,8.77,6.93v69.13c-.54,4.61-5.3,5.84-8.69,6.13h-3.39l0,6h35.56v-6h-3.61c-3.75-.29-9.12-1.66-9.12-7h0V254.4h0v-5.92h0V200.41h13.63a23.8,23.8,0,0,1,24,23.73c0,13.05-9.05,24.63-23.66,24.63-1.91,0-3.68,0-5.33-.07v6c1.55,0,3.17,0,4.76,0,20.91,0,35-11.32,35-30.68,0-18.22-15-29.68-34.84-29.68Z"/><path class="cls-3" d="M79.22,282.09h0c6-3.68,8.87-10.42,8.87-17.81,0-13.63-13.53-18.86-22.47-22.29-17.78-6.78-25.71-11.9-25.71-24.3,0-9,5.41-16.16,14.5-19.15a19,19,0,0,0-12.7,18.28c0,13.81,13.09,18.86,23.59,22.9,17,6.6,24.59,11.61,24.59,23.73a20.57,20.57,0,0,1-10.67,18.64Z"/><path class="cls-3" d="M453,241.63h0a45.53,45.53,0,0,1,10.39-28.52,52.39,52.39,0,0,0,.9,57.95A44.87,44.87,0,0,1,453,241.63Z"/><path class="cls-3" d="M529,270.05h0a51.8,51.8,0,0,0,8.44-28.42,52.81,52.81,0,0,0-9.74-30.47,44,44,0,0,1,1.3,58.89Z"/><polygon class="cls-3" points="204.57 283.93 204.57 283.93 202.47 283.93 202.47 199.08 204.57 199.08 204.57 283.93"/><polygon class="cls-3" points="250.58 283.93 250.58 283.93 248.49 283.93 248.49 199.08 250.58 199.08 250.58 283.93"/><path class="cls-3" d="M291,206h0c4.36,3.93,6.6,9.19,6.6,15.68a21,21,0,0,1-5.05,14c2.42-4,3.1-9,3.1-13.7,0-5.7-1.26-11.54-4.65-15.94Z"/><path class="cls-3" d="M296.59,284.29h0L273.84,246.1l.54-.11c.36-.1.76-.18,1.15-.29l.26,0,23,38.62Z"/><polygon class="cls-3" points="336.05 283.93 336.05 283.93 333.95 283.93 333.95 199.08 336.05 199.08 336.05 283.93"/><polygon class="cls-3" points="402.72 283.93 402.72 283.93 400.63 283.93 400.63 199.08 402.72 199.08 402.72 283.93"/><polygon class="cls-3" points="190.86 178.52 190.86 178.52 217.22 178.52 217.22 180.61 190.86 180.61 190.86 178.52"/><polygon class="cls-3" points="124.29 283.93 124.29 283.93 122.2 283.93 122.2 199.08 124.29 199.08 124.29 283.93"/><path class="cls-3" d="M166.16,241.74h0c3.32-4.91,4.51-11.29,4.51-17.6,0-5.91-1.26-12.08-4.76-16.91A23.36,23.36,0,0,1,172.62,224c0,7.24-2.17,13.19-6.46,17.74Z"/></g></g></svg>