<svg xmlns="http://www.w3.org/2000/svg" xmlns:xlink="http://www.w3.org/1999/xlink" viewBox="0 0 565.49 511.51"><defs><style>.cls-1{isolation:isolate;}.cls-2{fill:#fff;}.cls-3{fill:#1a5632;}.cls-4{fill:url(#linear-gradient);}.cls-5{fill:#00953b;}.cls-6{fill:url(#linear-gradient-2);}.cls-7{fill:#fefefe;}.cls-13,.cls-8{opacity:0.9;}.cls-10,.cls-13,.cls-14,.cls-15,.cls-8,.cls-9{mix-blend-mode:multiply;}.cls-8{fill:url(#linear-gradient-3);}.cls-9{fill:url(#linear-gradient-4);}.cls-10{fill:url(#linear-gradient-5);}.cls-11{fill:url(#linear-gradient-6);}.cls-12{fill:url(#linear-gradient-7);}.cls-13{fill:url(#linear-gradient-8);}.cls-14{fill:url(#linear-gradient-9);}.cls-15{fill:url(#linear-gradient-10);}</style><linearGradient id="linear-gradient" x1="-2199.89" y1="573.17" x2="-2123.17" y2="559.64" gradientTransform="translate(2272.5 -254.82)" gradientUnits="userSpaceOnUse"><stop offset="0.2" stop-color="#00953b"/><stop offset="0.25" stop-color="#1da252"/><stop offset="0.31" stop-color="#3ab069"/><stop offset="0.38" stop-color="#4eb979"/><stop offset="0.44" stop-color="#5bbf83"/><stop offset="0.5" stop-color="#5fc186"/><stop offset="0.54" stop-color="#5bbf83"/><stop offset="0.58" stop-color="#4eb979"/><stop offset="0.62" stop-color="#3ab069"/><stop offset="0.67" stop-color="#1da252"/><stop offset="0.7" stop-color="#00953b"/></linearGradient><linearGradient id="linear-gradient-2" x1="-2158.97" y1="588.02" x2="-2122.51" y2="578.25" gradientTransform="translate(2272.5 -254.82)" gradientUnits="userSpaceOnUse"><stop offset="0.4" stop-color="#00953b"/><stop offset="0.8" stop-color="#5fc186"/><stop offset="0.84" stop-color="#56bd7f"/><stop offset="0.89" stop-color="#3eb26c"/><stop offset="0.96" stop-color="#169f4d"/><stop offset="1" stop-color="#00953b"/></linearGradient><linearGradient id="linear-gradient-3" x1="5770.51" y1="572.63" x2="5701.2" y2="560.41" gradientTransform="matrix(-1, 0, 0, 1, 5846.21, -254.82)" gradientUnits="userSpaceOnUse"><stop offset="0" stop-color="#1a5632"/><stop offset="0.03" stop-color="#346949"/><stop offset="0.1" stop-color="#699079"/><stop offset="0.17" stop-color="#97b2a2"/><stop offset="0.24" stop-color="#bdcec3"/><stop offset="0.3" stop-color="#dae3de"/><stop offset="0.37" stop-color="#eef3f0"/><stop offset="0.44" stop-color="#fbfcfb"/><stop offset="0.5" stop-color="#fff"/><stop offset="0.67" stop-color="#fff"/><stop offset="0.7" stop-color="#fff"/><stop offset="0.73" stop-color="#ecf1ee"/><stop offset="0.8" stop-color="#bccec3"/><stop offset="0.9" stop-color="#6f957e"/><stop offset="1" stop-color="#1a5632"/></linearGradient><linearGradient id="linear-gradient-4" x1="-2155.75" y1="587.15" x2="-2106.35" y2="573.92" gradientTransform="translate(2272.5 -254.82)" gradientUnits="userSpaceOnUse"><stop offset="0" stop-color="#336645"/><stop offset="0.01" stop-color="#396b4b"/><stop offset="0.19" stop-color="#7f9f8a"/><stop offset="0.34" stop-color="#b6c8bc"/><stop offset="0.48" stop-color="#dee6e1"/><stop offset="0.58" stop-color="#f6f8f7"/><stop offset="0.65" stop-color="#fff"/></linearGradient><linearGradient id="linear-gradient-5" x1="-2166.8" y1="551.98" x2="-2003.94" y2="508.34" gradientTransform="translate(2272.5 -254.82)" gradientUnits="userSpaceOnUse"><stop offset="0" stop-color="#497657"/><stop offset="0.02" stop-color="#6a8f75"/><stop offset="0.06" stop-color="#97b19f"/><stop offset="0.1" stop-color="#bdcdc2"/><stop offset="0.14" stop-color="#dae3dd"/><stop offset="0.18" stop-color="#eef2f0"/><stop offset="0.21" stop-color="#fbfcfb"/><stop offset="0.25" stop-color="#fff"/></linearGradient><linearGradient id="linear-gradient-6" x1="7970.99" y1="573.17" x2="8047.71" y2="559.64" gradientTransform="matrix(-1, 0, 0, 1, 8475.28, -254.82)" xlink:href="#linear-gradient"/><linearGradient id="linear-gradient-7" x1="8011.91" y1="588.02" x2="8048.37" y2="578.25" gradientTransform="matrix(-1, 0, 0, 1, 8475.28, -254.82)" xlink:href="#linear-gradient-2"/><linearGradient id="linear-gradient-8" x1="-4400.37" y1="572.63" x2="-4469.68" y2="560.4" gradientTransform="translate(4901.58 -254.82)" xlink:href="#linear-gradient-3"/><linearGradient id="linear-gradient-9" x1="8015.13" y1="587.15" x2="8064.52" y2="573.92" gradientTransform="matrix(-1, 0, 0, 1, 8475.28, -254.82)" xlink:href="#linear-gradient-4"/><linearGradient id="linear-gradient-10" x1="8004.07" y1="551.98" x2="8166.94" y2="508.34" gradientTransform="matrix(-1, 0, 0, 1, 8475.28, -254.82)" xlink:href="#linear-gradient-5"/></defs><title>tortas</title><g class="cls-1"><g id="Capa_2" data-name="Capa 2"><g id="Capa_1-2" data-name="Capa 1"><rect class="cls-2" width="565.49" height="511.51" rx="141.73" ry="141.73"/><path class="cls-3" d="M435.27,217.82c-92.73-22.76-146.71-15.65-146.87-15.62s-54.13-7.14-146.88,15.62c-5.3,1.31-5.63,5.64-5.66,7.86,0,0,19.27,116.47,20.54,120.36,2.4,12.71,12.5,18.8,27,18.64H393.33c14.57.16,24.66-5.93,27.05-18.64,1.28-3.89,20.55-120.36,20.55-120.36C440.9,223.46,440.58,219.13,435.27,217.82Z"/><g id="Degradado_bandera" data-name="Degradado bandera"><path class="cls-4" d="M154.53,334.58a7.08,7.08,0,0,0-.37-1.83c-1.78-8.28-11.22-61.34-11.22-61.34l-39.15,6s-22.74,3.8-36,2.85c0,0,2.91,8,5.11,15.84,1,3.42,3.11,11.29,4.37,18.53a120.57,120.57,0,0,1,1.56,28.81c-.28,4.1-.38,5.45-.51,7.16,0,0,25.19.66,39.5-1.47,31.18-4.67,36.21-10.47,36.71-13.7a3.64,3.64,0,0,0,0-.81Z"/><path class="cls-5" d="M288.5,222h0c-55,1-133.39,6.85-184.53,24.5-7.07,2.45-10.73,5.93-10.42,12.79a18.74,18.74,0,0,0,.19,2.11s9.6,30.72,12.28,52.46l1.14,14.91s2-8.55,40.93-15.51c16.18-2.88,44.64-7,71.41-9.62,27.1-2.65,55.32-3.47,69-3.72h0Z"/><path class="cls-6" d="M148.08,313.27c-35.11,6.29-40.19,13.85-40.85,15.28-.06,1.43,1.1,3.5,5.43,4,7.51.88,20.49-1.25,22.17-1.53,16.64-2.82,19.65,2.74,19.65,2.74-.95-4.27-2.71-14.8-3.71-21C149.84,313,148.94,313.13,148.08,313.27Z"/><path class="cls-7" d="M288.49,222c-55,1-133.39,6.85-184.53,24.5C96.63,249,93,252.67,93.57,260c1.63-2.11,3.06-4.88,10.32-7.77,54.63-19.56,130.86-24.4,184.6-25.23h0v-5ZM98.55,278.25C91,279.31,77.09,281,67.77,280.31l2.26,6.4c5.92-.47,21.4-1.5,30.07-2.39C99.58,282.2,99.05,280.19,98.55,278.25ZM152,331.82l-.06.07c-2.32,2.12-7.38,4.74-12.1,6.05-26.67,7.42-50.31,5.28-61,5.37-.3,4.26-.37,5.6-.53,7.34,0,0,25.19.66,39.5-1.47,31.18-4.67,36.21-10.47,36.71-13.7a4.08,4.08,0,0,0,0-1.59C154.28,333,152.18,331.93,152,331.82Zm67-34.17c-26.82,2.68-55.36,6.36-71.81,9.29-15.58,2.78-25.79,5.9-32.53,8.9a23.06,23.06,0,0,0-8,5.57l.45,7.37s2-8.55,40.93-15.51c16.18-2.88,44.64-7,71.41-9.62,27.1-2.65,55.32-3.47,69-3.72h0v-6.26h0C275.93,293.88,247.55,294.8,219.06,297.65Z"/><path class="cls-8" d="M98.55,278.25c2.81,10.58,6.07,24.31,7.46,35.62l1.14,14.91a1.33,1.33,0,0,1,.08-.21c0,1.42,1.11,3.48,5.43,4,7.51.88,20.49-1.25,22.17-1.53,15.27-2.58,19.07,1.88,19.58,2.62a6.48,6.48,0,0,1,.14.94v.09a5.44,5.44,0,0,1,0,.81c-.51,3.23-5.54,9-36.7,13.7-14.32,2.13-39.51,1.47-39.51,1.47.15-1.71.23-3.06.5-7.16a118.79,118.79,0,0,0-1.55-28.81c-1.26-7.24-3.41-15.11-4.38-18.53-2.19-7.86-5.08-15.84-5.08-15.84C77.1,281,91,279.31,98.55,278.25Z"/><path class="cls-9" d="M148.08,313.27c-35.11,6.29-40.19,13.83-40.85,15.28-.06,1.43,1.1,3.5,5.43,4,7.51.88,20.49-1.25,22.17-1.53,16.64-2.82,19.65,2.74,19.65,2.74-.95-4.27-2.71-14.8-3.71-21C149.84,313,148.94,313.13,148.08,313.27Z"/><path class="cls-10" d="M288.49,222c-55,1-133.39,6.85-184.53,24.5-7.07,2.45-10.73,5.93-10.42,12.79a18.74,18.74,0,0,0,.19,2.11s9.6,30.72,12.28,52.46l1.14,14.91s2-8.55,40.93-15.51c16.18-2.88,44.64-7,71.41-9.62,27.1-2.65,55.32-3.47,69-3.72Z"/></g><g id="Degradado_bandera-2" data-name="Degradado bandera"><path class="cls-11" d="M422.37,334.67a3.64,3.64,0,0,0,0,.81c.5,3.23,5.54,9,36.69,13.7,14.32,2.13,39.51,1.47,39.51,1.47-.15-1.71-.23-3.06-.5-7.16a119.49,119.49,0,0,1,1.56-28.81c1.25-7.24,3.41-15.11,4.38-18.53,2.19-7.86,5.08-15.84,5.08-15.84-13.26.95-36-2.85-36-2.85l-39.16-6s-9.44,53.06-11.21,61.34a6.4,6.4,0,0,0-.39,1.83Z"/><path class="cls-5" d="M288.4,222h0c55,1,133.39,6.85,184.53,24.5,7.06,2.45,10.73,5.93,10.43,12.79a16.78,16.78,0,0,1-.2,2.11s-9.61,30.72-12.28,52.46l-1.13,14.91s-2-8.55-40.93-15.51c-16.19-2.88-44.64-7-71.41-9.62-27.09-2.65-55.34-3.47-69-3.72h0Z"/><path class="cls-12" d="M428.83,313.27c35.11,6.29,40.19,13.85,40.85,15.28,0,1.43-1.09,3.5-5.43,4-7.5.88-20.5-1.25-22.17-1.53-16.65-2.82-19.66,2.74-19.66,2.74,1-4.27,2.72-14.8,3.72-21C427.07,313,428,313.13,428.83,313.27Z"/><path class="cls-7" d="M288.4,222v5h0c53.73.83,130,5.67,184.61,25.23,7.25,2.89,8.69,5.66,10.31,7.77.63-7.36-3.07-11-10.39-13.52C421.8,228.86,343.39,223,288.41,222Zm188.4,62.31c8.67.89,24.15,1.92,30.07,2.39l2.25-6.4c-9.3.67-23.24-1-30.75-2.06C477.84,280.19,477.32,282.2,476.8,284.32Zm-54.37,49.57a4.08,4.08,0,0,0,0,1.59c.5,3.23,5.54,9,36.69,13.7,14.32,2.13,39.51,1.47,39.51,1.47-.15-1.74-.23-3.08-.53-7.34-10.74-.09-34.35,2.05-61.05-5.37-4.73-1.31-9.77-3.93-12.09-6.05l-.06-.07C424.72,331.93,422.63,333,422.43,333.89Zm-134-40.22h0v6.26h0c13.67.25,41.92,1.07,69,3.72,26.77,2.6,55.22,6.74,71.41,9.62,38.92,7,40.93,15.51,40.93,15.51l.45-7.37a23.11,23.11,0,0,0-8-5.57c-6.74-3-17-6.12-32.52-8.9-16.46-2.93-45-6.61-71.83-9.29C329.36,294.8,301,293.88,288.41,293.67Z"/><path class="cls-13" d="M478.36,278.25c-2.81,10.58-6.08,24.31-7.47,35.62l-1.13,14.91a1.33,1.33,0,0,0-.08-.21c0,1.42-1.12,3.48-5.43,4-7.5.88-20.5-1.25-22.17-1.53-15.28-2.58-19.07,1.88-19.6,2.62a8.06,8.06,0,0,0-.12.94v.09a7.24,7.24,0,0,0,0,.81c.51,3.23,5.53,9,36.71,13.7,14.31,2.13,39.51,1.47,39.51,1.47-.15-1.71-.23-3.06-.53-7.16a120.91,120.91,0,0,1,1.58-28.81c1.26-7.24,3.4-15.11,4.36-18.53,2.21-7.86,5.1-15.84,5.1-15.84C499.8,281,485.86,279.31,478.36,278.25Z"/><path class="cls-14" d="M428.83,313.27c35.11,6.29,40.19,13.83,40.85,15.28,0,1.43-1.09,3.5-5.43,4-7.5.88-20.5-1.25-22.17-1.53-16.65-2.82-19.66,2.74-19.66,2.74,1-4.27,2.72-14.8,3.72-21C427.07,313,428,313.13,428.83,313.27Z"/><path class="cls-15" d="M288.41,222c55,1,133.39,6.85,184.53,24.5,7.06,2.45,10.73,5.93,10.43,12.79a16.78,16.78,0,0,1-.2,2.11s-9.61,30.72-12.28,52.46l-1.13,14.91s-2-8.55-40.93-15.51c-16.19-2.88-44.64-7-71.41-9.62-27.09-2.65-55.34-3.47-69-3.72Z"/></g><path class="cls-3" d="M430.9,185.66c-9-31-61.21-51.06-136.11-52.22l-6.39,0h0l-6.4,0c-74.9,1.16-127.06,21.18-136.12,52.22-2.12,7.23-1.3,14.31-.24,20.29l19,106.83,0,.31.05.21c2.83,12,13,20.41,24.76,20.41H387.32c11.74,0,21.93-8.38,24.75-20.41l.05-.21,0-.31,19-106.83C432.21,200,433,192.89,430.9,185.66Z"/><path class="cls-7" d="M424.51,187.74c-8.06-27.61-59-46.15-129.82-47.25l-4.49,0h-3.63l-4.47,0c-70.82,1.1-121.76,19.64-129.83,47.25-1.32,4.57-1.35,9.62-.05,16.92l19,106.73,0,.11v.1c2.09,8.89,9.59,15.06,18.27,15.06H387.32c8.67,0,16.18-6.17,18.26-15.06l0-.1v-.11l19-106.73C425.87,197.36,425.85,192.31,424.51,187.74Z"/><path class="cls-5" d="M421.06,188.85c-7.48-25.6-58.28-43.5-126.43-44.56-.78,0-2.51,0-6.21,0h0c-3.73,0-5.46,0-6.23,0-68.14,1.06-118.95,19-126.42,44.56-1.14,3.94-1.14,8.47,0,15.11l19,106.73a15.35,15.35,0,0,0,14.75,12.18h98.9v-.06l0,.06h98.9a15.33,15.33,0,0,0,14.74-12.18L421,204C422.2,197.32,422.21,192.79,421.06,188.85Z"/><path class="cls-7" d="M195.68,356.78c0-2.63,1.35-5.3,2.5-7.55.23-.48.7-1.11,1.31-1.11s.91.63,1.11,1.22a21.27,21.27,0,0,1,1.17,6.87c0,2.26-1.27,3.31-3.37,3.31A2.45,2.45,0,0,1,195.68,356.78Zm7.13-13a3,3,0,0,1-2.9,3,2.7,2.7,0,0,1-2.65-3,2.88,2.88,0,0,1,2.9-2.83A2.6,2.6,0,0,1,202.81,343.76Z"/><path class="cls-7" d="M208.64,354.13c-.07,0-.37,0-.77,0s-.9.06-1.41.06c-.91,0-1.72-.39-1.72-1.52,0-1.53,1.37-.87,2-2.43a60.56,60.56,0,0,0,1.37-10.42c0-1.08-1.74-.6-1.74-2s1.78-1.75,6.39-1.75c3,0,3.53.59,3.53,1.55,0,2.29-2.2-.32-2.55,3.89l-.57,7.5a3.87,3.87,0,0,0,0,1.48c.27.67,1.5.58,2,.58,3.07,0,2.54-3.12,4.32-3.12,1,0,1.44.71,1.44,1.77,0,1.35-.85,4.7-2.49,4.7a2.69,2.69,0,0,1-.87-.13,4,4,0,0,0-1-.13Z"/><path class="cls-7" d="M235.31,342c-.09,1.52-.54,3.84-.73,6.58a5.3,5.3,0,0,0,0,1.64c.09.32.26.28.53.32a.58.58,0,0,1,.6.63c0,1.67-3.54,3.13-4.86,3.13-2.17,0-1.13-2.16-1.89-2.16s-1.82,2.27-4.34,2.27c-2.21,0-3.13-2.05-3-4.12.2-4.59,2.91-8.88,6.65-9.24,1.7-.17,2.37,1.06,3.07,1.06a2.42,2.42,0,0,0,.94-.43,4.34,4.34,0,0,1,2-.65C235,341.05,235.36,341.32,235.31,342Zm-4.92,2.71c0-.33-.1-.85-.49-.82-1.29.1-2.91,3.9-2.89,5.54,0,.39.08,1.05.56,1C228.87,350.34,230.44,346,230.39,344.73Z"/><path class="cls-7" d="M252.91,341.69c.45,0,.63-1.58.63-1.92s-.15-.56-.45-.56-.35.05-.52.05c-.48,0-.73-.27-.73-.79,0-1.13,1.1-1.56,2-1.86a17,17,0,0,1,3.95-.75,1,1,0,0,1,1.12,1.19l-.1,1.11-.58,4.42-.46,3.47-.32,3.55c0,.71,0,.85.71.92a.7.7,0,0,1,.71.73c.09,1.61-4,3.05-5.1,3.07s-1.26-.64-1.41-1.65c0-.26-.13-.66-.46-.66-.49,0-1.92,2.42-4.41,2.42s-3-1.79-3-4c0-3.68,2.17-9.4,6.4-9.52C252.06,340.9,252.57,341.69,252.91,341.69Zm.15,3c0-.37-.08-.92-.64-.92-1.43,0-2.6,4.35-2.57,5.77,0,.42.12.8.55.77C251.84,350.3,253.09,346,253.06,344.69Z"/><path class="cls-7" d="M274.08,348.37a5.59,5.59,0,0,0-.16,1.17.66.66,0,0,0,.75.76c.56,0,.85,0,.85.68,0,2-4,3.32-5.52,3.32s-.84-2.27-1.67-2.27c-.54,0-2.6,2.36-5.13,2.27-1.36,0-2.11-1-2.16-2.63a49.2,49.2,0,0,1,.71-5.29c.07-.66.24-1.25-.56-1.34-.48-.05-1-.13-1-.79,0-1,1.36-1.77,2.09-2.12a9.07,9.07,0,0,1,3.89-1.06c.94,0,1.25.52,1.25,1.45a43.78,43.78,0,0,1-.71,4.74c0,.37-.64,2.88.4,2.88.78,0,1.32-1,1.6-1.63,1-2.4.53-5.62,1.62-6.56a6,6,0,0,1,3.3-.9c.74,0,1.42.23,1.42,1.1,0,.33-.11,1-.14,1.27Z"/><path class="cls-7" d="M283.12,349.45c0,.29,0,.89.42.89s.48-.08.73-.08c.42,0,.53.43.53.79,0,2.13-4,3.25-5.52,3.25-1.32,0-2.12-.64-2-2.48.34-4.13,1.1-8.83,1.4-11.82.05-.4,0-.6-.45-.6-.19,0-.39,0-.59,0a.65.65,0,0,1-.74-.73c0-1.27,1.1-1.69,2.08-2a14,14,0,0,1,4-.82c.85,0,1.39.22,1.39,1.22Z"/><path class="cls-7" d="M296.8,349.69c.63,0,.94.87.94,1.41,0,.93-1.08,1.64-1.75,2a9,9,0,0,1-4.69,1.3c-3,0-5.28-1.39-5.28-4.8a8.81,8.81,0,0,1,8.45-8.7c2,0,4,1,4.08,3.39a3.1,3.1,0,0,1-2.84,3.15,1.72,1.72,0,0,1-1.79-1.55c0-.7.41-1.28.41-1.71a.45.45,0,0,0-.43-.45c-1.51,0-2,4.13-1.93,5.28,0,.82.15,2.09,1.19,2.09a4.93,4.93,0,0,0,2.46-.89A2.46,2.46,0,0,1,296.8,349.69Z"/><path class="cls-7" d="M312.46,344c0,3.08-3.28,5.48-6,5.48-.34,0-.94,0-.94.54,0,.74.88,1.14,1.48,1.14,1.74,0,3.08-1.44,3.86-1.44a1.1,1.1,0,0,1,1,1.06c0,1.36-1.63,2.21-2.63,2.68a9.37,9.37,0,0,1-4.19,1c-3,0-5.53-1.32-5.4-4.74a9.35,9.35,0,0,1,9.33-8.76C310.84,340.93,312.46,341.7,312.46,344Zm-7,2.67c0,.31.1.72.43.72.69,0,1.87-1.89,1.8-3.11,0-.34-.16-.8-.55-.8C306.14,343.45,305.45,345.84,305.45,346.64Z"/><path class="cls-7" d="M327.54,347.57c-.15,1.08-.73,3.68,1,3.68,2,0,2.93-3.1,2.93-4.84s-1.31-2.84-1.31-3.89,1.22-1.45,2.12-1.45c1.65,0,2.1,1.29,2.1,2.84,0,5.08-2.52,10.52-8,10.52-2.21,0-4.53-1.18-4.53-3.81,0-1.67.72-4.62.72-5.4,0-.45-.18-.64-.63-.68s-.87,0-.87-.69c0-2,4-2.8,5.43-2.8,1,0,1.65.37,1.65,1.51A40.21,40.21,0,0,1,327.54,347.57Z"/><path class="cls-7" d="M337.09,346.87a10.86,10.86,0,0,0,.21-1.4c0-.34-.11-.5-.53-.5s-.95,0-.95-.91,1.12-1.58,1.91-1.93a12,12,0,0,1,4.23-1.08c.75,0,1.09.42,1.09,1.17a29.94,29.94,0,0,1-.43,3.64c0,.28-.47,3.21-.6,4.21,0,.49.27.49.66.49s.81,0,.81.63c0,1.94-3.84,3.11-5.21,3.11a1.8,1.8,0,0,1-2-1.66,7.12,7.12,0,0,1,.15-1.44Zm-.15-8.27c0-2,3.47-3.09,5-3.09.87,0,2,.36,2,1.45,0,1.87-3.42,3.15-4.88,3C338.28,340,336.94,339.73,336.94,338.6Z"/><path class="cls-7" d="M353.15,341.69c.47,0,.63-1.58.63-1.92s-.14-.56-.46-.56-.34.05-.5.05c-.48,0-.72-.27-.72-.79,0-1.13,1.08-1.56,1.95-1.86a17.18,17.18,0,0,1,4-.75,1,1,0,0,1,1.12,1.19l-.1,1.11-.6,4.42-.45,3.47-.31,3.55c0,.71.05.85.7.92a.7.7,0,0,1,.71.73c.09,1.61-4.05,3.05-5.09,3.07-1.19,0-1.27-.64-1.42-1.65,0-.26-.12-.66-.46-.66-.49,0-1.91,2.42-4.4,2.42s-3-1.79-3-4c0-3.68,2.19-9.4,6.4-9.52C352.31,340.9,352.82,341.69,353.15,341.69Zm.16,3c0-.37-.08-.92-.62-.92-1.45,0-2.61,4.35-2.59,5.77,0,.42.13.8.56.77C352.1,350.3,353.32,346,353.31,344.69Z"/><path class="cls-7" d="M374,342c-.1,1.52-.54,3.84-.73,6.58a4.75,4.75,0,0,0,0,1.64c.09.32.26.28.52.32a.59.59,0,0,1,.61.63c0,1.67-3.54,3.13-4.87,3.13-2.16,0-1.12-2.16-1.88-2.16s-1.83,2.27-4.32,2.27c-2.24,0-3.16-2.05-3.07-4.12.2-4.59,2.91-8.88,6.65-9.24,1.7-.17,2.37,1.06,3.08,1.06a2.16,2.16,0,0,0,.92-.43,4.45,4.45,0,0,1,2.07-.65C373.65,341.05,374,341.32,374,342ZM369,344.73c0-.33-.1-.85-.49-.82-1.29.1-2.92,3.9-2.89,5.54,0,.39.07,1.05.56,1C367.52,350.34,369.09,346,369,344.73Z"/><path class="cls-7" d="M381.71,351.67a2.94,2.94,0,0,1-2.88,3,2.68,2.68,0,0,1-2.65-3,2.89,2.89,0,0,1,2.91-2.83A2.59,2.59,0,0,1,381.71,351.67Zm1.52-13c0,2.61-1.35,5.3-2.49,7.53-.25.48-.7,1.1-1.31,1.1s-.92-.62-1.11-1.18a21.06,21.06,0,0,1-1.16-6.88c0-2.27,1.26-3.33,3.37-3.33A2.45,2.45,0,0,1,383.23,338.63Z"/><path class="cls-3" d="M376.56,218.29a17.49,17.49,0,0,0-2.09-2.57,12.1,12.1,0,0,0,3-8,14.43,14.43,0,0,0-2.31-7.63,18.49,18.49,0,0,0-5.28-5.43,25,25,0,0,0-7.52-3.36,34.35,34.35,0,0,0-9.06-1.11,26.94,26.94,0,0,0-11.78,2.41,22.92,22.92,0,0,0-4.63,3,17.79,17.79,0,0,0-5-3.18c-4-1.71-8.37-2.26-13.53-2.27a32.71,32.71,0,0,0-13,2.31,24.6,24.6,0,0,0-4.61,2.56,7.58,7.58,0,0,0-.85-.85,10.83,10.83,0,0,0-4.86-2.62V191a32.25,32.25,0,0,0-.43-5.78,12.43,12.43,0,0,0-3.46-6.52,12,12,0,0,0-8.39-3.54,11.55,11.55,0,0,0-6.06,1.69l-.08,0-.06,0a12.61,12.61,0,0,0-4.22,4.46A14,14,0,0,0,270.7,187c-.12,1.42-.15,3-.15,4.86V192a19.21,19.21,0,0,0-8.23-1.86,15.09,15.09,0,0,0-7.61,1.9,11.6,11.6,0,0,0-1.47-.85,12,12,0,0,0-5.09-1.05A11.87,11.87,0,0,0,243,191.3a11.23,11.23,0,0,0-4.5,4.06,26.4,26.4,0,0,0-5.39-3.07,28.26,28.26,0,0,0-7.31-1.87,11.54,11.54,0,0,0,.44-3.3,12.47,12.47,0,0,0-3.76-9.07,12.88,12.88,0,0,0-9.11-3.29H177.13a13,13,0,0,0-8.88,3.14,12.86,12.86,0,0,0-.15,18.3,12.73,12.73,0,0,0,9,3.23h5.41v35.64A15.66,15.66,0,0,0,186,245.56a12.09,12.09,0,0,0,9.26,4.19h.28a12,12,0,0,0,9-4.17,9.93,9.93,0,0,0,.81-1.06,25.72,25.72,0,0,0,5.35,3.1,28.8,28.8,0,0,0,11.19,2.13h0a29.44,29.44,0,0,0,11.18-2.09,26.11,26.11,0,0,0,5.41-3.09,11.57,11.57,0,0,0,.82,1.06,11.73,11.73,0,0,0,8.65,4.12h.28a11.79,11.79,0,0,0,8.92-4,14.83,14.83,0,0,0,3.39-10.07v-9.22c0-3.16.1-5.75.28-7.75a19.67,19.67,0,0,1,.75-4.22,7.17,7.17,0,0,1,1.14.31c.83.29,1.55.52,2.22.69a10.31,10.31,0,0,0,2.72.4,9.34,9.34,0,0,0,2.9-.42v12.17a41.32,41.32,0,0,0,1,10.12,15.51,15.51,0,0,0,6.28,9.07c3.47,2.32,7.25,2.9,11.26,2.92s7.61-.44,11-2.18c.26-.12.54-.3.82-.46a1.64,1.64,0,0,0,.22.12,20.94,20.94,0,0,0,10.34,2.52,26.48,26.48,0,0,0,10.63-2.11,29.52,29.52,0,0,0,3.13-1.57.07.07,0,0,0,0,.06,11.37,11.37,0,0,0,8,3.62h.13a11.84,11.84,0,0,0,7.4-2.77l.73.36a30,30,0,0,0,12.45,2.41,33.48,33.48,0,0,0,12.57-2.16,20.31,20.31,0,0,0,9.48-7.62,21.75,21.75,0,0,0,3.34-12A17,17,0,0,0,376.56,218.29Zm-152.64,7.55c-.78.83-.63.8-2.06.95a2.29,2.29,0,0,1-1.45-.38,3.71,3.71,0,0,1-1.09-1.69,13.72,13.72,0,0,1-.72-4.74,13.51,13.51,0,0,1,.75-4.86,3.1,3.1,0,0,1,1.06-1.62,2.13,2.13,0,0,1,1.45-.4c1.43.12,1.31.12,2.08,1,.56.73,1.29,2.45,1.31,5.93S224.52,225.05,223.92,225.84Z"/><path class="cls-3" d="M387.82,284.09a15.64,15.64,0,0,0-2.1-2.59,12.09,12.09,0,0,0,3-8,14.24,14.24,0,0,0-2.29-7.63,18.43,18.43,0,0,0-5.31-5.42,24.42,24.42,0,0,0-7.49-3.36,34.06,34.06,0,0,0-9.07-1.11,26.61,26.61,0,0,0-11.75,2.41,20.74,20.74,0,0,0-4.66,3,17,17,0,0,0-5-3.19c-4-1.7-8.37-2.27-13.55-2.29a32.7,32.7,0,0,0-13,2.32,24.23,24.23,0,0,0-4.62,2.57,9.76,9.76,0,0,0-.84-.86v0a10.49,10.49,0,0,0-4.87-2.62v-.5a30.76,30.76,0,0,0-.42-5.79,12.26,12.26,0,0,0-3.47-6.48A11.83,11.83,0,0,0,294,241a11.36,11.36,0,0,0-6.07,1.67l-.07,0-.08,0a12,12,0,0,0-4.19,4.46,13.86,13.86,0,0,0-1.68,5.6c-.12,1.44-.16,3-.16,4.88v.13a19.26,19.26,0,0,0-8.23-1.86,15.16,15.16,0,0,0-7.59,1.91,8.9,8.9,0,0,0-1.49-.85,12.1,12.1,0,0,0-5.07-1.06,11.64,11.64,0,0,0-5.16,1.14,11.46,11.46,0,0,0-4.54,4.05,26,26,0,0,0-5.38-3.06,27.52,27.52,0,0,0-7.29-1.86,11.55,11.55,0,0,0,.41-3.31,12.4,12.4,0,0,0-3.75-9.07,12.88,12.88,0,0,0-9.1-3.28H188.39a12.94,12.94,0,0,0-8.88,3.13,12.32,12.32,0,0,0-3.91,9.22,12.47,12.47,0,0,0,3.75,9.08,12.72,12.72,0,0,0,9,3.25h5.4v35.62a15.65,15.65,0,0,0,3.46,10.5,12.22,12.22,0,0,0,9.28,4.2h.27a12.13,12.13,0,0,0,9-4.18c.29-.36.55-.71.81-1.08a25.71,25.71,0,0,0,5.34,3.1,28.48,28.48,0,0,0,11.2,2.16h0a29,29,0,0,0,11.15-2.11,25.74,25.74,0,0,0,5.45-3.1,10.42,10.42,0,0,0,.79,1.06,11.79,11.79,0,0,0,8.67,4.15h.29a11.75,11.75,0,0,0,8.91-4,14.72,14.72,0,0,0,3.38-10.05v-9.22c0-3.15.12-5.74.28-7.77a20.78,20.78,0,0,1,.76-4.2,10.25,10.25,0,0,1,1.17.33c.8.26,1.52.5,2.2.68a10.58,10.58,0,0,0,2.7.41,9.51,9.51,0,0,0,2.89-.43v12.17a41.93,41.93,0,0,0,1,10.12,15.42,15.42,0,0,0,6.26,9.06c3.5,2.33,7.24,2.89,11.27,2.94s7.61-.46,11-2.19c.28-.14.55-.29.83-.46l.22.12a21.19,21.19,0,0,0,10.34,2.53,26.7,26.7,0,0,0,10.64-2.11,29.24,29.24,0,0,0,3.1-1.59l.05,0a11.46,11.46,0,0,0,8,3.65h.15a11.8,11.8,0,0,0,7.38-2.78l.73.36a30.2,30.2,0,0,0,12.45,2.42,33,33,0,0,0,12.55-2.19,20.14,20.14,0,0,0,9.5-7.61,21.71,21.71,0,0,0,3.35-12A17,17,0,0,0,387.82,284.09Zm-152.65,7.52c-.77.84-.63.81-2,.95a2.12,2.12,0,0,1-1.45-.37,3.54,3.54,0,0,1-1.1-1.71,16,16,0,0,1,0-9.58,3.29,3.29,0,0,1,1.06-1.64,2.34,2.34,0,0,1,1.46-.39c1.42.13,1.3.13,2.07,1,.58.74,1.29,2.43,1.29,5.91S235.77,290.84,235.17,291.61Z"/><path class="cls-3" d="M411.62,212a11.59,11.59,0,0,0-4.44-5.66,11.08,11.08,0,0,0-6.19-1.88h-.34a10.46,10.46,0,0,0-7.72,3.58,12.74,12.74,0,0,0-1.35,1.84,11.37,11.37,0,0,0-9.62-5.42h-.49c-6.08.19-11,5.47-11,12a21.61,21.61,0,0,0,1.4,6.66l.05.15,0,.06,6.38,17.81a11.18,11.18,0,0,0-2.29,1.58,11.34,11.34,0,0,0-3.62,8.3h0v.47a11.63,11.63,0,0,0,3.78,8.47,12.85,12.85,0,0,0,8.44,3.09h.53a14.79,14.79,0,0,0,11-4.73,26,26,0,0,0,5.16-9.73l9.94-26.77,0-.11a17.35,17.35,0,0,0,1.09-5.44v-.1A12.42,12.42,0,0,0,411.62,212Z"/><path class="cls-2" d="M405,213.13a4.86,4.86,0,0,0-4.09-2c-2.81,0-4.31,2.27-4.87,4.71l-4.65,15.58L387,215.22a5.21,5.21,0,0,0-5.16-4.07,5.11,5.11,0,0,0-5,5.3,16.6,16.6,0,0,0,1.08,4.56l0,.08,8.47,23.65a2.87,2.87,0,0,1-.86,1.65,1.87,1.87,0,0,1-1.16.23h-.88a4.87,4.87,0,0,0-3.33,1.14,4.48,4.48,0,0,0-1.39,3.46,4.81,4.81,0,0,0,1.54,3.62,6.7,6.7,0,0,0,4.63,1.51H385a8.53,8.53,0,0,0,6.61-2.69c1.65-1.77,2.75-4.27,3.78-7.45l10-26.76a11,11,0,0,0,.7-3.27A5.63,5.63,0,0,0,405,213.13Z"/><path class="cls-2" d="M371.18,222.31v0a13.45,13.45,0,0,0-4.81-4.26,33.3,33.3,0,0,0-8.07-3c-2.72-.71-4.87-1.3-6.4-1.77a10.41,10.41,0,0,1-3.6-1.78,3,3,0,0,1-1.23-2.5,3.26,3.26,0,0,1,1.71-2.8,7.81,7.81,0,0,1,4.49-1.2,8.06,8.06,0,0,1,4.15.91,8.75,8.75,0,0,1,2.68,2.48,18.72,18.72,0,0,0,2.66,3,4.4,4.4,0,0,0,3,1.08,5,5,0,0,0,3.74-1.34,4.77,4.77,0,0,0,1.33-3.41,7.17,7.17,0,0,0-1.21-3.8,12.07,12.07,0,0,0-3.43-3.45,18,18,0,0,0-5.54-2.43,27.55,27.55,0,0,0-7.39-.9,20.91,20.91,0,0,0-9,1.78,13.42,13.42,0,0,0-5.72,4.88,12,12,0,0,0-2,6.17,19.28,19.28,0,0,0-1.41-5.51,10.72,10.72,0,0,0-5.79-5.65c-2.73-1.17-6.39-1.74-11-1.74h-1c-.43,0-.77.05-1.13.07s-.81,0-1.2.07c-.55,0-1.07.11-1.57.18-.34.06-.69.08-1.05.17-.55.09-1.08.22-1.58.34-.24.07-.53.12-.82.21a18,18,0,0,0-2.14.75,14.46,14.46,0,0,0-6.29,4.66,10.13,10.13,0,0,0-2,5.92A4.47,4.47,0,0,0,301,212.8a4.86,4.86,0,0,0,3.34,1.29,3.56,3.56,0,0,0,2.86-.9,33.07,33.07,0,0,0,2.06-3.12,9.58,9.58,0,0,1,3.31-3.38,10.29,10.29,0,0,1,1-.46,4.17,4.17,0,0,0,.42-.12c.27-.07.54-.15.83-.21l.53-.09,1-.13.58,0c.49,0,1-.07,1.5-.07,3.06,0,4.95.69,5.8,1.87s1.4,3.13,1.56,5.81c-2.06.64-4,1.17-5.77,1.63-.47.11-1,.22-1.47.36l-.1,0-1.39.31-1,.24c-.28.06-.55.1-.82.18-.63.15-1.28.29-2,.44-2.63.57-4.28.92-5,1.1a13.81,13.81,0,0,0-7.7,4.41,11.94,11.94,0,0,0-2.84,8,13.23,13.23,0,0,0,.4,3.17,3.24,3.24,0,0,0-1.55-.39,11.7,11.7,0,0,0-2.54.36,12.64,12.64,0,0,1-2.39.34,2.76,2.76,0,0,1-2.16-.74,3.8,3.8,0,0,1-.81-2,35.28,35.28,0,0,1-.16-3.93V206.91H290a10.75,10.75,0,0,0,5-.92,3.65,3.65,0,0,0,1.92-3.51,4.21,4.21,0,0,0-1.31-3.17,5.21,5.21,0,0,0-3.69-1.22h-3.42V191a29.15,29.15,0,0,0-.28-4.41,5.39,5.39,0,0,0-1.5-2.78,5.45,5.45,0,0,0-3.89-1.7,5.21,5.21,0,0,0-2.78.76,5.6,5.6,0,0,0-1.92,2,6.67,6.67,0,0,0-.8,2.79c-.1,1-.14,2.42-.14,4.23v6.18h-.74a5.69,5.69,0,0,0-3.89,1.22,4.11,4.11,0,0,0-1.16,1.69,7,7,0,0,0-2.45-2.11,13.23,13.23,0,0,0-6.58-1.78,8.17,8.17,0,0,0-5.55,1.83A17.31,17.31,0,0,0,253.5,203a9.08,9.08,0,0,0-1.25-4,4.55,4.55,0,0,0-4.1-1.9,4.71,4.71,0,0,0-4.16,2,10.33,10.33,0,0,0-1.36,5.82v9.14a25.22,25.22,0,0,0-.91-3.37,20.9,20.9,0,0,0-4.29-7.29,19.4,19.4,0,0,0-6.77-4.7,22.69,22.69,0,0,0-8.8-1.64c-.72,0-1.41,0-2.07.08l-.6.07c-.52.06-1,.11-1.54.21l-.51.08c-.63.13-1.24.27-1.85.45l-.08,0a18.44,18.44,0,0,0-2.05.72c-.63.26-1.23.55-1.81.84l-.56.33c-.27.17-.59.32-.88.51l-.17.13a14.17,14.17,0,0,0-1.19.89,6.31,6.31,0,0,0-.57.44,14.63,14.63,0,0,0-1.56,1.49,20.89,20.89,0,0,0-4.28,7.27,23.49,23.49,0,0,0-.81,2.82v-21h12c.46,0,.88,0,1.28-.07l0-.44h0l0,.44.39-.07.46-.07a.66.66,0,0,0,.2-.07,5.71,5.71,0,0,0,.91-.3c.08,0,.24-.1.37-.17a4.28,4.28,0,0,0,1-.72,5.1,5.1,0,0,0,1.61-3.9,5.18,5.18,0,0,0-1.57-3.91,4.72,4.72,0,0,0-.81-.6.56.56,0,0,0-.19-.1,4.49,4.49,0,0,0-.92-.4.7.7,0,0,0-.19,0,2.15,2.15,0,0,0-.45-.14,3.06,3.06,0,0,1-.44-.09,3.18,3.18,0,0,1-.4,0,10,10,0,0,0-1.29-.08H177.13a6.45,6.45,0,0,0-4.55,1.45,5.1,5.1,0,0,0-1.63,4,5.17,5.17,0,0,0,1.57,3.9,6.49,6.49,0,0,0,4.61,1.47h12v42.58a8.61,8.61,0,0,0,1.7,5.78,5.62,5.62,0,0,0,4.41,2,5.52,5.52,0,0,0,4.39-1.93c1.14-1.31,1.68-3.28,1.68-5.81v-8.66a23.17,23.17,0,0,0,.79,2.77,20.11,20.11,0,0,0,4.31,7.26c.5.55,1,1,1.57,1.52a6.87,6.87,0,0,0,.59.46c.36.29.74.6,1.15.88l.17.12c.29.2.61.38.91.55s.34.22.56.34c.57.3,1.15.6,1.77.87a20.35,20.35,0,0,0,2.08.71l0,0a15.75,15.75,0,0,0,1.84.43,3.55,3.55,0,0,0,.5.09c.52.1,1,.17,1.57.23l.58.06c.69,0,1.39.08,2.11.08a22.88,22.88,0,0,0,8.8-1.62,19.22,19.22,0,0,0,6.72-4.67,21.42,21.42,0,0,0,4.33-7.31,26,26,0,0,0,.92-3.44v9.91a7.86,7.86,0,0,0,1.56,5.29,5.14,5.14,0,0,0,4,1.84h0a5.38,5.38,0,0,0,4.12-1.81,7.81,7.81,0,0,0,1.6-5.32v-9.22c0-3.3.09-6.1.3-8.39a27.87,27.87,0,0,1,1.07-5.85,7.82,7.82,0,0,1,2.16-3.59,5.16,5.16,0,0,1,3.49-1.17,12.46,12.46,0,0,1,3.78.73,12.26,12.26,0,0,0,2.9.76,4.32,4.32,0,0,0,3.14-1.43,4.73,4.73,0,0,0,1.29-2.25,2.75,2.75,0,0,0,.37.39,5.14,5.14,0,0,0,3.73,1.25h1v20.73a35.13,35.13,0,0,0,.8,8.31,8.47,8.47,0,0,0,3.5,5.05c1.79,1.24,4.35,1.8,7.67,1.81,3.49,0,6.2-.46,8.12-1.46a4.93,4.93,0,0,0,2.95-3.75,12.37,12.37,0,0,0,4.06,3.48,14.83,14.83,0,0,0,7.29,1.73c.67,0,1.3,0,1.94-.08l.54,0c.49-.06,1-.13,1.48-.22.13,0,.26,0,.42-.07.52-.1,1.07-.24,1.58-.39a.25.25,0,0,0,.11-.05,16,16,0,0,0,2-.73,32.19,32.19,0,0,0,7.09-4.42,22.29,22.29,0,0,0,3.16,4.3,5,5,0,0,0,3.46,1.71,5.41,5.41,0,0,0,3.71-1.49,4.54,4.54,0,0,0,1.65-3.43,5,5,0,0,0-.11-1,15.56,15.56,0,0,0,5.63,4.06,24.17,24.17,0,0,0,9.84,1.84,27.15,27.15,0,0,0,10.18-1.7,13.4,13.4,0,0,0,6.44-5.1,14.54,14.54,0,0,0,2.17-8A9.79,9.79,0,0,0,371.18,222.31Zm-45.45-1.48v.94c0,3.8-.48,6.5-1.34,8a9,9,0,0,1-3.71,3.53,11.64,11.64,0,0,1-1.49.66l-.53.18a7.5,7.5,0,0,1-1.06.27c-.27.06-.52.11-.76.14l-.4,0a9.71,9.71,0,0,1-1.29.1,6.09,6.09,0,0,1-4.45-1.65,5.24,5.24,0,0,1-1.69-4,4.31,4.31,0,0,1,1.39-3.43,7.3,7.3,0,0,1,3.06-1.73l.63-.17.19-.06c.22,0,.49-.11.75-.18l.09,0,.91-.22a1.76,1.76,0,0,0,.33-.07c.34-.08.71-.15,1.1-.26a.71.71,0,0,0,.25-.06c.56-.11,1.16-.27,1.83-.41A61.53,61.53,0,0,0,325.73,220.83Zm11.08-8.17a9.4,9.4,0,0,0,1.9,4.15A14.75,14.75,0,0,0,344.3,221a56.34,56.34,0,0,0,8.85,3,25.27,25.27,0,0,1,6.78,2.49,4.22,4.22,0,0,1,1.9,3.9,3.81,3.81,0,0,1-1.84,3,8.07,8.07,0,0,1-4.92,1.4,11,11,0,0,1-5.92-1.37,11.74,11.74,0,0,1-3.7-4.27,9.66,9.66,0,0,0-1.78-2.48,3.86,3.86,0,0,0-2.79-1h0a4.44,4.44,0,0,0-3.39,1.43,4.88,4.88,0,0,0-.68.89c0-.31,0-.63,0-1,0-2.19,0-4.21.05-6s0-4,0-6.58C336.85,213.85,336.82,213.25,336.81,212.66ZM221.86,233.74a8.72,8.72,0,0,1-5.24-1.62c-.34-.28-.67-.58-1-.89,0,0-.08-.11-.14-.18a7.57,7.57,0,0,1-.69-.81,3.07,3.07,0,0,1-.24-.35,7.11,7.11,0,0,1-.51-.83,2,2,0,0,1-.21-.37,13.44,13.44,0,0,1-.61-1.34A20.58,20.58,0,0,1,212,220a20.78,20.78,0,0,1,1.24-7.5,10.89,10.89,0,0,1,.61-1.33,3.24,3.24,0,0,1,.2-.36,7.71,7.71,0,0,1,.53-.85c.09-.13.16-.23.25-.34a9.93,9.93,0,0,1,.72-.86.92.92,0,0,0,.11-.11,6.43,6.43,0,0,1,1-.88,9.13,9.13,0,0,1,12.43,2c1.8,2.41,2.72,5.8,2.72,10.26s-.92,7.73-2.72,10.14A8.55,8.55,0,0,1,221.86,233.74Z"/><path class="cls-2" d="M382.44,288.09a13.77,13.77,0,0,0-4.82-4.22,33.35,33.35,0,0,0-8.06-3c-2.73-.71-4.88-1.31-6.43-1.79a11.15,11.15,0,0,1-3.58-1.75,3.11,3.11,0,0,1-1.23-2.51A3.38,3.38,0,0,1,360,272a8,8,0,0,1,4.51-1.19,8.09,8.09,0,0,1,4.17.91,9.06,9.06,0,0,1,2.67,2.47,17.55,17.55,0,0,0,2.66,3,4.51,4.51,0,0,0,3,1.07,5,5,0,0,0,3.73-1.33,4.72,4.72,0,0,0,1.32-3.42,7,7,0,0,0-1.19-3.79,11.78,11.78,0,0,0-3.42-3.45,18.63,18.63,0,0,0-5.52-2.45,28.81,28.81,0,0,0-7.42-.89,20.76,20.76,0,0,0-9,1.79,13.26,13.26,0,0,0-5.71,4.88,11.78,11.78,0,0,0-2,6.22,20.76,20.76,0,0,0-1.43-5.57,10.79,10.79,0,0,0-5.79-5.65q-4.06-1.76-11-1.75h-1a25.69,25.69,0,0,0-9.5,1.79,14.63,14.63,0,0,0-6.26,4.67,10.05,10.05,0,0,0-2,5.92,4.37,4.37,0,0,0,1.42,3.38,4.74,4.74,0,0,0,3.33,1.29,3.57,3.57,0,0,0,2.87-.89c.43-.54,1.1-1.57,2.06-3.13a9.49,9.49,0,0,1,3.32-3.37,10.53,10.53,0,0,1,4.84-1.1c.3,0,.62,0,.94,0,3.07,0,5,.69,5.82,1.86a11.34,11.34,0,0,1,1.56,5.83c-2.09.61-4,1.15-5.79,1.62-.82.19-1.69.39-2.64.64l-4.11.91c-2.65.55-4.3.92-5,1.09a13.79,13.79,0,0,0-7.7,4.4,12,12,0,0,0-2.83,8,12.88,12.88,0,0,0,.39,3.18,3.32,3.32,0,0,0-1.54-.39,11.27,11.27,0,0,0-2.54.38,11.39,11.39,0,0,1-2.41.3,2.66,2.66,0,0,1-2.14-.72,3.77,3.77,0,0,1-.81-2,32.87,32.87,0,0,1-.16-3.93V272.7h1.52a10.63,10.63,0,0,0,5-.93,3.69,3.69,0,0,0,1.91-3.5,4.1,4.1,0,0,0-1.33-3.16,5,5,0,0,0-3.66-1.24h-3.42v-7.09a25,25,0,0,0-.3-4.39,5.13,5.13,0,0,0-1.5-2.8,5.48,5.48,0,0,0-3.87-1.68,5.27,5.27,0,0,0-2.79.76,5.57,5.57,0,0,0-1.92,2,7.18,7.18,0,0,0-.8,2.78c-.1,1-.13,2.44-.13,4.22v6.2h-.74a5.57,5.57,0,0,0-3.91,1.23,3.89,3.89,0,0,0-1.13,1.69,7.24,7.24,0,0,0-2.45-2.11,13.48,13.48,0,0,0-6.61-1.79,8.18,8.18,0,0,0-5.54,1.84,17.25,17.25,0,0,0-3.26,4.09,8.82,8.82,0,0,0-1.25-4,4.57,4.57,0,0,0-4.1-1.94,4.76,4.76,0,0,0-4.17,2,10.45,10.45,0,0,0-1.36,5.83v9.11a24.53,24.53,0,0,0-.9-3.37,20.9,20.9,0,0,0-4.31-7.26,18.92,18.92,0,0,0-6.77-4.7,22.59,22.59,0,0,0-8.78-1.65,23.57,23.57,0,0,0-6.58.89,19.33,19.33,0,0,0-2.14.75,18.91,18.91,0,0,0-6.73,4.62,20.38,20.38,0,0,0-4.28,7.27,23.33,23.33,0,0,0-.81,2.81v-21h12a9.38,9.38,0,0,0,2.13-.21,5,5,0,0,0,4.13-5.16,5.2,5.2,0,0,0-1.58-3.9,5.33,5.33,0,0,0-2.55-1.29,10,10,0,0,0-2.13-.21H188.39a6.47,6.47,0,0,0-4.56,1.46,5,5,0,0,0-1.63,3.94,5.21,5.21,0,0,0,1.56,3.92,6.58,6.58,0,0,0,4.63,1.45h12v42.58c0,2.52.54,4.46,1.71,5.78a5.91,5.91,0,0,0,8.78,0c1.15-1.31,1.69-3.28,1.69-5.81V292.2a26,26,0,0,0,.79,2.76,19.92,19.92,0,0,0,4.32,7.25,18.24,18.24,0,0,0,3.47,3A20.62,20.62,0,0,0,224.4,307a18.64,18.64,0,0,0,2.14.75A24.51,24.51,0,0,0,241.9,307a18.93,18.93,0,0,0,6.73-4.66A21.17,21.17,0,0,0,253,295a23.75,23.75,0,0,0,.92-3.41v9.88a8,8,0,0,0,1.55,5.29,5.19,5.19,0,0,0,4,1.85h0a5.24,5.24,0,0,0,4.08-1.82,7.68,7.68,0,0,0,1.61-5.32v-9.22q0-5,.3-8.37a27.82,27.82,0,0,1,1.1-5.87,7.78,7.78,0,0,1,2.13-3.58,5.13,5.13,0,0,1,3.49-1.17A11.74,11.74,0,0,1,276,274a12,12,0,0,0,2.9.76,4.33,4.33,0,0,0,3.13-1.42,4.54,4.54,0,0,0,1.29-2.25c.12.13.25.28.38.4a5.14,5.14,0,0,0,3.73,1.24h1v20.73a35,35,0,0,0,.8,8.3,8.46,8.46,0,0,0,3.5,5.06c1.8,1.23,4.35,1.81,7.66,1.81,3.49,0,6.2-.46,8.12-1.47a5,5,0,0,0,3-3.75,12,12,0,0,0,4.06,3.47,14.66,14.66,0,0,0,7.26,1.75,19.51,19.51,0,0,0,8.15-1.6,32.35,32.35,0,0,0,7.06-4.43,23,23,0,0,0,3.17,4.31,5,5,0,0,0,3.48,1.72,5.39,5.39,0,0,0,3.69-1.5,4.56,4.56,0,0,0,1.65-3.42,5.28,5.28,0,0,0-.11-1,15.31,15.31,0,0,0,5.62,4.06,23.75,23.75,0,0,0,9.85,1.86,27,27,0,0,0,10.18-1.72,13.34,13.34,0,0,0,6.42-5.08,14.4,14.4,0,0,0,2.2-8.07A9.85,9.85,0,0,0,382.44,288.09ZM337,286.61v.95c0,3.79-.47,6.49-1.36,8a9,9,0,0,1-3.7,3.52,11.58,11.58,0,0,1-3.35,1.2,13.21,13.21,0,0,1-2.19.19,6.1,6.1,0,0,1-4.44-1.63,5.27,5.27,0,0,1-1.67-3.95,4.24,4.24,0,0,1,1.38-3.43,7.55,7.55,0,0,1,3.07-1.74c.83-.24,2.16-.56,4-1l2.08-.46A63.92,63.92,0,0,0,337,286.61Zm11.07-8.23A9.53,9.53,0,0,0,350,282.6a15.26,15.26,0,0,0,5.59,4.22,55.54,55.54,0,0,0,8.86,3,25.2,25.2,0,0,1,6.77,2.52,4.16,4.16,0,0,1,1.91,3.87,3.8,3.8,0,0,1-1.83,3,8.31,8.31,0,0,1-4.94,1.42,10.84,10.84,0,0,1-5.9-1.41,11.44,11.44,0,0,1-3.73-4.26,9.68,9.68,0,0,0-1.76-2.47,3.93,3.93,0,0,0-2.79-1h0a4.39,4.39,0,0,0-3.39,1.42,4.55,4.55,0,0,0-.69.91c0-.33,0-.64,0-1,0-2.21.05-4.23.06-6s0-4,0-6.57C348.09,279.61,348.07,279,348.05,278.38Zm-105,7.37c0,4.37-.93,7.75-2.73,10.16a9.13,9.13,0,0,1-12.48,2,7.53,7.53,0,0,1-.95-.83,11.18,11.18,0,0,1-2.46-3.92,23,23,0,0,1,0-14.88,10.9,10.9,0,0,1,2.43-3.87,5.9,5.9,0,0,1,1-.85,9.07,9.07,0,0,1,12.41,2C242.16,277.92,243.09,281.31,243.09,285.75Z"/><path class="cls-3" d="M247.33,372.05h-.72s-.1,0-.11.07a.15.15,0,0,0,0,.11v5.6a3.9,3.9,0,0,0-3.49-2c-3.05,0-4.5,2.46-4.52,5.55,0,2.88,1.32,5.52,4.37,5.53h0a4,4,0,0,0,3.61-2.05v1.65a.15.15,0,0,0,0,.11.16.16,0,0,0,.11.05h.72a.17.17,0,0,0,.16-.16V372.23a.16.16,0,0,0-.05-.11A.13.13,0,0,0,247.33,372.05Zm-.89,9.34c0,2.33-1.1,4.53-3.47,4.53s-3.47-2.15-3.48-4.53,1-4.56,3.48-4.57,3.45,2.22,3.47,4.57Zm7.55-5.55c-3,0-4.46,2.76-4.49,5.59v.23c0,2.85,1.57,5.25,4.49,5.26h0a4.17,4.17,0,0,0,4.35-3.86.25.25,0,0,0,0-.13.17.17,0,0,0-.13-.07h-.72a.16.16,0,0,0-.15.14,3.27,3.27,0,0,1-3.34,2.92c-2.26,0-3.42-2-3.44-4.27h7.73a.17.17,0,0,0,.16-.17c0-.13,0-.27,0-.39C258.44,378.27,257,375.84,254,375.84Zm-3.43,4.81c.21-1.94,1.43-3.83,3.43-3.83s3.3,1.78,3.4,3.83Zm13.84.1c-1.6-.39-3.13-.65-3.11-2.1s1.33-1.81,2.66-1.83c1.58,0,2.68.7,2.72,2.46a.17.17,0,0,0,.16.16h.72c.06,0,.1,0,.12-.05a.17.17,0,0,0,0-.11c0-2.44-1.66-3.44-3.76-3.44-1.68,0-3.7.62-3.7,2.81s1.82,2.72,3.5,3.07,3.23.62,3.21,2.2-1.68,2-2.94,2a2.87,2.87,0,0,1-3.07-2.83c0-.1-.08-.16-.16-.16h-.73s-.09,0-.1,0a.17.17,0,0,0,0,.14,3.75,3.75,0,0,0,4.08,3.81h0c1.72,0,4-.65,4-3S266.33,381.09,264.4,380.75Zm13.93-8.7h-.72a.14.14,0,0,0-.12.07.2.2,0,0,0,0,.11v5.6a3.91,3.91,0,0,0-3.5-2c-3,0-4.51,2.46-4.52,5.55,0,2.88,1.34,5.52,4.39,5.53h0a4,4,0,0,0,3.61-2.05v1.65a.2.2,0,0,0,0,.11.18.18,0,0,0,.12.05h.72a.12.12,0,0,0,.1-.05.14.14,0,0,0,.06-.11V372.23a.16.16,0,0,0-.05-.11A.12.12,0,0,0,278.33,372.05Zm-.9,9.34c0,2.33-1.09,4.53-3.45,4.53s-3.47-2.15-3.47-4.53,1-4.56,3.45-4.57,3.45,2.22,3.47,4.57Zm7.56-5.55c-3,0-4.46,2.76-4.48,5.59v.23c0,2.85,1.56,5.25,4.48,5.26h0a4.14,4.14,0,0,0,4.33-3.86.12.12,0,0,0,0-.13.14.14,0,0,0-.11-.07h-.72a.15.15,0,0,0-.15.14,3.27,3.27,0,0,1-3.34,2.92c-2.25,0-3.4-2-3.44-4.27h7.73a.18.18,0,0,0,.15-.17c0-.13,0-.27,0-.39C289.44,378.27,288,375.84,285,375.84Zm-3.42,4.81c.21-1.94,1.43-3.83,3.42-3.83s3.3,1.78,3.4,3.83Zm20.87-8.11h-.67l-.12.08a4.91,4.91,0,0,1-3.48,2.51.16.16,0,0,0-.14.18V376a.17.17,0,0,0,.05.12.24.24,0,0,0,.15,0,5.57,5.57,0,0,0,3.32-1.49v11.91a.25.25,0,0,0,0,.11.17.17,0,0,0,.12.05h.73a.16.16,0,0,0,.1-.05.18.18,0,0,0,0-.11v-13.8a.15.15,0,0,0,0-.12A.11.11,0,0,0,302.44,372.54Zm10.05-.24a4.86,4.86,0,0,0,0,9.7,4,4,0,0,0,3.68-2.25c-.12,2.51-.8,6.17-3.94,6.17a3.14,3.14,0,0,1-3.13-2.83.16.16,0,0,0-.15-.15h-.72a.13.13,0,0,0-.11.06s-.07.09,0,.13a4,4,0,0,0,4.14,3.79h0c4.2,0,5-4.58,5-8C317.21,373.36,314.56,372.31,312.49,372.3Zm0,8.7a3.72,3.72,0,0,1-3.56-3.89,3.56,3.56,0,1,1,3.56,3.89Zm13.28-2a3,3,0,0,0,1.94-3c0-2.72-2.14-3.62-4.2-3.63s-4.21.91-4.21,3.63a3,3,0,0,0,1.94,3,3.48,3.48,0,0,0-2.44,3.59c0,3,2.14,4.36,4.71,4.37s4.68-1.4,4.7-4.37A3.48,3.48,0,0,0,325.77,379Zm-5.43-3c0-2,1.46-2.61,3.17-2.62s3.15.64,3.16,2.62-1.5,2.57-3.16,2.57S320.34,377.77,320.34,375.93Zm3.17,10c-2,0-3.65-1-3.67-3.37s1.63-3,3.67-3.05,3.65.86,3.66,3.05S325.48,385.92,323.51,385.92Zm11.23-8.68A4.24,4.24,0,0,0,331,379.6c.1-2.68.78-6.29,3.93-6.29a3.1,3.1,0,0,1,3.12,2.83.18.18,0,0,0,.17.14h.72c.05,0,.09,0,.11-.06a.15.15,0,0,0,.05-.13,4,4,0,0,0-4.17-3.79c-4.2,0-5,4.6-5,8s1,6.61,4.83,6.62a4.85,4.85,0,0,0,0-9.68Zm0,8.68a3.86,3.86,0,0,1,0-7.7,3.72,3.72,0,0,1,3.52,3.89A3.64,3.64,0,0,1,334.74,385.92Z"/><path class="cls-3" d="M231.73,380.47a1.3,1.3,0,1,1-2.59,0,1.3,1.3,0,1,1,2.59,0Z"/><path class="cls-3" d="M348.59,380.47a1.3,1.3,0,1,1-1.3-1.36A1.34,1.34,0,0,1,348.59,380.47Z"/></g></g></g></svg>