<svg xmlns="http://www.w3.org/2000/svg" viewBox="0 0 565.49 511.51"><defs><style>.cls-1{fill:#fff;}.cls-2,.cls-3{fill:#1f140f;}.cls-2{fill-rule:evenodd;}</style></defs><title>trucos</title><g id="Capa_2" data-name="Capa 2"><g id="Capa_1-2" data-name="Capa 1"><rect class="cls-1" width="565.49" height="511.51" rx="141.73" ry="141.73"/><path class="cls-2" d="M150.89,132.24a5.87,5.87,0,0,1,6.4,4.4c.67,4.23-8.48,9-9.81,12.46,9,0,19,1.05,30,1.75,9,.57,21.67.18,26.31,5.47,1.18,1.38,2.77,5.4,2.33,7.4-.77,3.6-7.32,3.39-11.47,3-13.7-1.18-31.25-1.52-44.17-1.83-4.14-.07-11.49-1.23-15.52,0-3.38,1-9.39,10.14-11.82,13.15-10.58,13-23.09,29.26-26.1,47.47-3.88,23.67,14.76,39.29,35,40.9,28.75,2.28,46.29-13.06,65.81-22.1-3.16-6.41,4.84-13.53,9.17-17.51s9.35-7.78,14.51-6.37c5.48,4.11-.49,10.35-3.76,12.8a74.23,74.23,0,0,1,10.11,6.1c2.72,1.95,7.12,4.72,7.06,8.78-.1,7.09-12.63,7.7-12.84,14.13-.24,6.94,13.43,9,20.55,6.47,4.94-1.77,9.63-5.22,14.17-8.07,4.34-2.71,8.89-7.33,14.19-5.71,0,4.95-5.45,8-9.49,11.12-7.25,5.66-16,12.48-25.67,16.11-5.21,2-14,5-19.55,3-4.8-1.74-14.15-8.56-13.78-14.2.48-7.57,14.21-9.09,15.89-15.82-3-4.34-9.48-5.12-13.82-8.11-22.21,14.79-50.9,44.09-88.44,38.88-22.16-3.06-43.56-15.51-41.37-43.59,1.28-16.56,8.89-31.6,17.63-42.46,9.19-11.34,17.7-23,27.42-33.3-20.41.94-43.41,1.67-62.41,3.22-6.1.48-13.89,2.28-18.87-1.73.92-2.45,1.77-4.89,2.7-7.42,1.59-4.26,3.9-10,8.48-11.44,5-1.59,13.92-.43,20.9-.3,17.14.33,35.57-.8,54-.54,3.47.06,7.57.87,9.77.37,3.71-.86,9.5-10.29,12.18-12.8,1.64-1.5,3.53-1.83,4.4-3.69m163.37,42.17c-6.19,1-6.27,6.3-6.42,12.67-.17,8.06-3.76,30.92,6.08,29.91,5.54-.55,7.27-19.67,8.5-25.71.64-3.36,1.85-7.68,1.48-10.35-.72-5.37-6.38-7.06-9.64-6.52m215.75-46a20.24,20.24,0,1,0-20.29,20.18A20.23,20.23,0,0,0,530,128.38m-20.2-15.72a15.68,15.68,0,1,1-15.73,15.64,15.68,15.68,0,0,1,15.73-15.64m-5.27,26.12,0-8.72h.87a6.7,6.7,0,0,1,2.12.25,2.8,2.8,0,0,1,1.27.86,28.63,28.63,0,0,1,2.24,3.07l3,4.56,5,0-2.53-4.09a22.87,22.87,0,0,0-2.4-3.4,9.54,9.54,0,0,0-2.25-1.75,6.78,6.78,0,0,0,4.14-1.94,5.57,5.57,0,0,0,1.39-3.88,6.06,6.06,0,0,0-.9-3.3,4.85,4.85,0,0,0-2.44-2,15.25,15.25,0,0,0-4.87-.57l-8.91,0-.05,20.92Zm0-17.38h3.3c1.73,0,2.75,0,3.1.07a2.38,2.38,0,0,1,2.15,2.54,2.74,2.74,0,0,1-.43,1.58,2.24,2.24,0,0,1-1.19.88,16.32,16.32,0,0,1-3.79.25h-3.16ZM460.22,249s-.09,1.42-3,2.47c0,0-4.95,1.82-12.06,5v.05c-4.91,2.11-19.69,9.77-22.39,11.19q-2.22,1.29-4.4,2.65a13.47,13.47,0,0,0-1.41,1.14c-4.42,4-7.74,13.28-11.85,19.6-13.12,20.19-28.23,44.13-47.34,57.57-4.1-.09-2.53-3-5.21,0-1.19-2.1-3.16-3.47-4.59-5.26-.6-20.62,12.82-36.09,23.68-47.1,10.59-10.79,22.64-19.21,33.51-26.81,13.23-26.49,27.42-55.75,36.23-85.73,3-10,6.21-21,4.69-30.76-9.06.77-16.65,6.23-22.3,11.71-9,8.8-16.82,21.47-23,34-6.35,12.78-12,28.32-11.91,43.87,4.21-6.06,7.53-13,17.06-13.7-1.11,5.85-6.2,9.8-9.89,14.42-6.66,8.31-11.65,19.84-26.22,20.22-4.38-5.75-3.6-14.4-3.24-21,3.07-51.94,32.84-92.72,74.32-109.19,14-2.73,21.95,7.31,22.23,18.39.43,17-8.93,38.35-15.23,56.94-6,17.84-14.54,33.56-21.66,45.66-.7,1.18-2.87,5.07-3.54,6.18l1.45-.68c9-4.65,21.67-10.36,32.29-11.87C456.41,247.93,459.63,247.44,460.22,249Zm-66.62,41.5c-1-.3-26.44,27-29.71,32.93,0,0-1.47,2.51-1,3.13C362.92,326.59,367.46,329.06,393.6,290.53Z"/><path class="cls-2" d="M180.63,350.25a1.85,1.85,0,0,1,2,1.37c.21,1.32-2.66,2.83-3.08,3.91,2.82,0,6,.32,9.44.53,2.81.17,6.81,0,8.28,1.69a3.75,3.75,0,0,1,.74,2.31c-.25,1.13-2.3,1.07-3.61,1-4.31-.37-9.83-.45-13.9-.54-1.3,0-3.62-.38-4.88,0-1.06.32-2.95,3.19-3.71,4.13-3.32,4.08-7.24,9.18-8.17,14.89-1.21,7.42,4.67,12.3,11,12.78,9.05.7,14.55-4.12,20.69-7-1-2,1.5-4.24,2.86-5.5s2.94-2.44,4.57-2c1.72,1.29-.15,3.25-1.17,4a24.67,24.67,0,0,1,3.18,1.9c.86.61,2.24,1.48,2.23,2.75,0,2.22-4,2.42-4,4.44s4.23,2.81,6.47,2a24.73,24.73,0,0,0,4.45-2.54c1.37-.85,2.8-2.31,4.46-1.8,0,1.55-1.7,2.5-3,3.49a32.2,32.2,0,0,1-8.06,5.07c-1.63.63-4.41,1.58-6.15,1-1.51-.55-4.46-2.68-4.35-4.44.15-2.38,4.47-2.86,5-5-.94-1.35-3-1.6-4.35-2.53-7,4.64-16,13.85-27.79,12.25-7-.94-13.72-4.83-13.06-13.63a24.84,24.84,0,0,1,5.52-13.31c2.88-3.56,5.55-7.23,8.6-10.45-6.42.3-13.66.56-19.63,1.05-1.92.16-4.37.72-5.94-.53.29-.76.55-1.53.84-2.33.5-1.33,1.22-3.12,2.66-3.58s4.38-.15,6.58-.11c5.39.09,11.19-.28,17-.22a18.84,18.84,0,0,0,3.07.11c1.17-.27,3-3.23,3.82-4C179.76,350.93,180.36,350.83,180.63,350.25Z"/><path class="cls-2" d="M347,359.22a2.63,2.63,0,0,1,3.19,1.81,12.54,12.54,0,0,1-.21,3.26c-.23,1.92-.29,7.94-2,8.25-3.06.56-2.51-6.67-2.65-9.19C345.16,361.36,345.06,359.7,347,359.22Z"/><path class="cls-2" d="M367.46,381.94c1.86,1.75,5.21,2.69,4.87,6.13-.23,2.38-2.1,4.74-3.93,6.44a11.7,11.7,0,0,1-7.1,3.28c-3.2.23-8.15-1.2-6.8-4.86a4,4,0,0,1,3-2.22c2.51-.08,3.37,2.36,4.46,4.23a4.32,4.32,0,0,0,5.2-4.65c-.21-3.28-3.72-3.38-5.73-5-1.84.78-3.24,2.49-5.31,3.38-.48.21-1.67.44-1.91-.31-.36-1.13,1.78-2,2.44-2.44,1.14-.72,1.89-1.3,2.87-1.9-.74-1.69,1.17-2.93,3-4.22s3.78-2.9,5.52-2.22S369.13,381.33,367.46,381.94Z"/><path class="cls-2" d="M327.77,379.93c2.82,1.6,6.15,4.36,10.72,3.91.92-.09,1.94-.85,2.86-.1-.05,1.66-1.75,2.23-3.08,2.64a40.49,40.49,0,0,1-4.76.95,15.49,15.49,0,0,1-2.77,5,19.42,19.42,0,0,1-14.42,5.7c-3.25-.21-5.72-1.79-5.95-5.18-.48-7.4,7.8-10.35,13.59-11.92a2.93,2.93,0,0,1,1.69-.22c.55,2.15-2.47,2.24-3.82,2.86a12.45,12.45,0,0,0-4.24,2.85,3.42,3.42,0,0,0-.85,3.17c.74,2.2,4.4,3.95,6.79,3.69,3.7-.39,6.23-3.65,7.74-5.8-2.64-.24-5.15-.29-6.57-1.91C325.69,383.64,326.83,381.87,327.77,379.93Z"/><path class="cls-2" d="M254,390.07c-.58,1.93-3.21,3.14-5.62,4.45s-4.54,2.86-6.9,3.16c-3.93.52-4.86-2.6-5.94-5.29-3.53,2-5.62,5.22-10,5.72a7.34,7.34,0,0,1-3.4-.43c-2.38-1.21-4.18-6.17-2.54-9a14.08,14.08,0,0,1,2-2c.63-.63,1.33-1.4,2-2,1.54-1.39,2.72-3,4.13-3.9a1.82,1.82,0,0,1,2.56,1.48c0,1.12-1.42,2.21-2.34,3.27a19.81,19.81,0,0,0-2.44,3.06c-1.57,3.07.63,5.16,4.35,4.34,4.24-.94,6.17-4.18,9-6.76.7-.65,1.42-1.21,2.13-1.91s1.28-1.59,2-1.9c.91-.38,2.34-.23,2.65.42.57,1.25-1,2.89-1.81,3.8s-2.26,2.2-2.23,3.6S243.61,393,245,393c1.78.11,3.55-1.09,4.78-1.91S252.62,388.74,254,390.07Z"/><path class="cls-2" d="M271.65,380.89c1.07-.14,3-.22,3.51.31a2.53,2.53,0,0,1-.32,3.06c-1.14.73-2.9-.24-3.61-.31-3.6-.38-9.11.7-9.33,4.43-.19,2.9,1.94,4.68,4.66,4.76,4.48.13,8.68-2.57,11.78-4.22,1.55-.84,2.93-.66,3.07.1.2,1-3.47,3-4.14,3.37-1.58,1-3.37,1.9-4.88,2.65-3.42,1.69-7.34,3.31-11.67,2.85-3.93-.41-6.21-5.6-4-9.4C259.05,384.4,266.37,381.51,271.65,380.89Z"/><path class="cls-2" d="M302.2,384.37c-1.29.53-2.53-.43-3.6-.53-3.29-.31-9,1-9.23,4.44a4.61,4.61,0,0,0,2.54,4.43c2.83,1.25,7.49-.42,10.29-1.79,1-.47,2.36-1.23,3.4-1.8s3.25-1.39,3.39,0c.1.9-3.27,2.63-3.81,3-3.82,2.34-9.1,5.34-14.32,5.8-4.09.36-6.81-1.24-7.33-4.86a7.17,7.17,0,0,1,2-6.23c3.17-3.26,8.8-5.05,13.37-5.91.67-.13,3.18-.39,3.82.41A2.38,2.38,0,0,1,302.2,384.37Z"/><path class="cls-2" d="M315.89,424.83c1.2-.53,2.2-1.26,3.4-1.79,1-3.24,4.58-7.33,8.27-7.82,1.53-.2,3.46.53,2.65,2.95-1,3-5.15,4.22-7.74,5.6.19,5.16,6.48.52,7.74-.84.66-2.23,2.84-4,5-5.49s4.54-2.83,7.21-2.86c1,.65,1.93,2.55.11,2.86.12.77.76,1.2.74,1.91,0,1.2-2.1,2.67-2.44,3.79-1.13,3.79,3.7,1.37,4.57.11.62-2,2.64-5.75,4.56-6.23.83-.22,1.93,0,2,.84s-1.56,2.18-2.12,2.85c-.83,1-1.74,1.81-1.7,3.06,1-.25,1.53-1.32,2.23-2.11a27,27,0,0,1,4.66-4.22c.55-.39,1.91-1.87,2.88-1.59.61.19,1.14,1.72.95,2.75s-1.57,2.08-2.34,3.06-1.85,2-1.59,3.49c2.37-.11,4.1-2.29,5.84-4,.82-.81,1.63-1.76,2.44-2.64a19.39,19.39,0,0,0,2.44-2.53c.63-1.15.66-3.07,2.86-2.11.46.44.05.83.11,1.37.13,1.27.95,2.56,1,4,0,3.24-2.59,4.93-4.67,6.45,3.24.2,4.47-2.16,6.36-3,.22,1.84-1.12,2.6-2.76,3.91-1.35,1.07-3.1,2.46-5.3,2.22a4.83,4.83,0,0,1-4-4.23c-.83.62-1.76,1.55-2.87,2.54-.87.76-3.74,3.33-4.67.95-1.1-2.82,2.23-5.52,2.86-7.51a17.59,17.59,0,0,0-3.81,3.7c-.82,1-2.49,3.92-3.61,3.91-1.33,0-1.53-2.18-1.69-3.27-1.25.67-3.94,4.84-6.27,4.54s-1.16-4.11-.53-5.6a34.94,34.94,0,0,0-2.54,2.75c-.82.82-2.09,2.3-3.19,2.22-1.56-.12-2.2-2.49-2.65-4.12-1.89,1.3-4.2,5.38-8.27,4.54-1.82-.37-2.88-2.69-2.65-4.65-.8.35-1.59.75-2.33,1.16a12.24,12.24,0,0,0-2.23,1.27c-.72.65-1.25,2.15-1.91,3.17-2.12,3.26-4.56,7.13-7.65,9.3-.66,0-.41-.48-.84,0a6.73,6.73,0,0,0-.74-.85c-.11-3.32,2.06-5.82,3.81-7.6a37.48,37.48,0,0,1,5.42-4.34,85.46,85.46,0,0,0,5.82-13.84,11.82,11.82,0,0,0,.75-4.95,6.05,6.05,0,0,0-3.6,1.89,20.3,20.3,0,0,0-3.71,5.49,16.09,16.09,0,0,0-1.91,7.08c.67-1,1.21-2.1,2.75-2.22-.18.95-1,1.59-1.59,2.33-1.08,1.35-1.88,3.21-4.24,3.27-.71-.92-.59-2.32-.53-3.38.47-8.38,5.28-15,12-17.64a2.9,2.9,0,0,1,3.61,3c.08,2.74-1.43,6.19-2.44,9.19a41.61,41.61,0,0,1-3.82,7.92Zm6.8-2.54h0c2.1-1,4.55-2.21,4.76-4.75a6.81,6.81,0,0,0-4.76,4.75ZM341,418.07h-.32c-2.22,1.69-7.08,2.7-8,5.6a2.24,2.24,0,0,0,.32,2.11c3.82-1.41,5.61-4.83,8-7.71Zm20.15,4.86h0c1.5-.05,1.51,1.39,2.44,1.9,2.56-.52,2.75-3.88,2-6.55C364.25,419.92,362.51,421.22,361.19,422.93Z"/><path class="cls-3" d="M389.59,366.67a9.4,9.4,0,1,1-9.4-9.36,9.38,9.38,0,0,1,9.4,9.36Zm-9.4-7.25h0a7.26,7.26,0,1,0,7.29,7.25A7.28,7.28,0,0,0,380.19,359.42Z"/><path class="cls-3" d="M375.81,371.51v-9.68H380a7.25,7.25,0,0,1,2.27.26,2.24,2.24,0,0,1,1.13.94,2.78,2.78,0,0,1,.42,1.52,2.52,2.52,0,0,1-.64,1.79,3.11,3.11,0,0,1-1.92.91,4.46,4.46,0,0,1,1.05.8,11.39,11.39,0,0,1,1.11,1.57l1.19,1.89h-2.34l-1.42-2.1a12.15,12.15,0,0,0-1-1.42,1.25,1.25,0,0,0-.59-.4,3,3,0,0,0-1-.12h-.4v4Zm2-5.57h1.46a6.74,6.74,0,0,0,1.76-.13,1,1,0,0,0,.55-.41,1.2,1.2,0,0,0,.2-.72,1.13,1.13,0,0,0-.26-.79,1.19,1.19,0,0,0-.74-.39q-.24,0-1.44,0h-1.53Z"/></g></g></svg>