<?xml version="1.0" encoding="utf-8"?>
<!-- Generator: Adobe Illustrator 22.0.1, SVG Export Plug-In . SVG Version: 6.00 Build 0)  -->
<svg version="1.1" id="Capa_1" xmlns="http://www.w3.org/2000/svg" xmlns:xlink="http://www.w3.org/1999/xlink" x="0px" y="0px"
	 viewBox="0 0 1919.6 1534.8" style="enable-background:new 0 0 1919.6 1534.8;" xml:space="preserve">
<style type="text/css">
	.st0{clip-path:url(#SVGID_2_);fill:url(#SVGID_3_);}
	.st1{clip-path:url(#SVGID_5_);}
	.st2{fill:url(#SVGID_6_);}
	.st3{fill:url(#SVGID_7_);}
	.st4{fill:url(#SVGID_8_);}
	.st5{fill:url(#SVGID_9_);}
	.st6{clip-path:url(#SVGID_11_);}
	.st7{fill:url(#SVGID_12_);}
	.st8{clip-path:url(#SVGID_14_);}
	.st9{fill:url(#SVGID_15_);}
	.st10{fill:url(#SVGID_16_);}
	.st11{fill:url(#SVGID_17_);}
	.st12{fill:url(#SVGID_18_);}
	.st13{fill:url(#SVGID_19_);}
</style>
<g>
	<g>
		<defs>
			<rect id="SVGID_1_" x="-0.9" y="103.8" width="1921.5" height="1171.6"/>
		</defs>
		<clipPath id="SVGID_2_">
			<use xlink:href="#SVGID_1_"  style="overflow:visible;"/>
		</clipPath>
		
			<linearGradient id="SVGID_3_" gradientUnits="userSpaceOnUse" x1="-21.8" y1="835.3394" x2="2140.3" y2="835.3394" gradientTransform="matrix(1 0 0 -1 0 1533.8898)">
			<stop  offset="0" style="stop-color:#413D3E"/>
			<stop  offset="0.2319" style="stop-color:#3C393A"/>
			<stop  offset="0.4965" style="stop-color:#2F2C2C"/>
			<stop  offset="0.776" style="stop-color:#181617"/>
			<stop  offset="1" style="stop-color:#000000"/>
		</linearGradient>
		<polygon class="st0" points="-21.8,583.4 -21.8,1019.6 297.5,1122.1 731.1,1088 1059.2,972.5 1577.3,807.8 2140.3,868.2 
			2140.3,412.9 1907.8,282.2 1628.1,275 1389.6,293.1 1179.9,353.1 1032.4,416 905.6,439.6 674.1,555.5 232.2,619.7 		"/>
	</g>
	<g>
		<defs>
			<rect id="SVGID_4_" x="-0.9" y="103.8" width="1921.5" height="1171.6"/>
		</defs>
		<clipPath id="SVGID_5_">
			<use xlink:href="#SVGID_4_"  style="overflow:visible;"/>
		</clipPath>
		<g class="st1">
			
				<linearGradient id="SVGID_6_" gradientUnits="userSpaceOnUse" x1="-153.0999" y1="1253.5165" x2="827.1" y2="1253.5165" gradientTransform="matrix(1 0 0 -1 0 1533.8898)">
				<stop  offset="0" style="stop-color:#DFEC51"/>
				<stop  offset="1" style="stop-color:#73AA0A"/>
			</linearGradient>
			<path class="st2" d="M-70.6-31c0,0,158.6,645.3,897.7,497.1c0,0-281.8,161.1-522.8,118.5C63.3,542-153.1,232.7-153.1,232.7
				L-70.6-31z"/>
			
				<linearGradient id="SVGID_7_" gradientUnits="userSpaceOnUse" x1="1405.8" y1="1213.2366" x2="2205" y2="1213.2366" gradientTransform="matrix(1 0 0 -1 0 1533.8898)">
				<stop  offset="0" style="stop-color:#DFEC51"/>
				<stop  offset="1" style="stop-color:#73AA0A"/>
			</linearGradient>
			<path class="st3" d="M2148.2,478.1l56.8-186.4c0,0-590-266-799.2-32.7l306.4-11.2c0,0,279,9,447.3,193.1"/>
			
				<linearGradient id="SVGID_8_" gradientUnits="userSpaceOnUse" x1="-388.4799" y1="897.3914" x2="1931.218" y2="897.3914" gradientTransform="matrix(0.976 0.2178 0.2178 -0.976 25.1146 1138.7487)">
				<stop  offset="0" style="stop-color:#413D3E"/>
				<stop  offset="0.2319" style="stop-color:#3C393A"/>
				<stop  offset="0.4965" style="stop-color:#2F2C2C"/>
				<stop  offset="0.776" style="stop-color:#181617"/>
				<stop  offset="1" style="stop-color:#000000"/>
			</linearGradient>
			<path class="st4" d="M1424.3,213.2c-300.1,101-610.3,307.3-916.2,338.3c-130.3-3.3-234.1-19.4-317-43.2
				c-52.4-21.7-104.6-51.8-156.4-91.6c-54.4-41.8-94.1-71.1-122.1-90.4c-54-83.6-45.9-158.4-45.9-158.4L-219,449
				C39.4,853.7,683.8,557.1,683.8,557.1S1712.3,61.2,2159.6,440.8C2159.6,440.8,1881,59.6,1424.3,213.2z"/>
			
				<linearGradient id="SVGID_9_" gradientUnits="userSpaceOnUse" x1="-184.2" y1="1180.7299" x2="557.2" y2="1180.7299" gradientTransform="matrix(1 0 0 -1 0 1533.8898)">
				<stop  offset="0" style="stop-color:#DFEC51"/>
				<stop  offset="1" style="stop-color:#73AA0A"/>
			</linearGradient>
			<path class="st5" d="M-125.6,145.8c0,0,225.8,422.4,682.8,399.2c0,0-478.4,100.3-741.4-210L-125.6,145.8z"/>
		</g>
	</g>
	<g>
		<defs>
			<rect id="SVGID_10_" x="-0.9" y="103.8" width="1921.5" height="1171.6"/>
		</defs>
		<clipPath id="SVGID_11_">
			<use xlink:href="#SVGID_10_"  style="overflow:visible;"/>
		</clipPath>
		<g class="st6">
			
				<linearGradient id="SVGID_12_" gradientUnits="userSpaceOnUse" x1="815.0422" y1="658.3335" x2="2204.8999" y2="658.3335" gradientTransform="matrix(1 0 0 -1 0 1533.8898)">
				<stop  offset="0" style="stop-color:#DFEC51"/>
				<stop  offset="1" style="stop-color:#73AA0A"/>
			</linearGradient>
			<path class="st7" d="M1393,733.1c-0.4,0.1-1,0.4-1.7,0.7c-10.1,4.8-20,10-29.5,15.7c-121,66-546.8,305.2-546.8,305.2l534-222
				l363.2-2.4c0,0,279,9,447.3,193.1l45.4-149.1C2205,874.3,1684.6,599,1393,733.1z"/>
		</g>
	</g>
	<g>
		<defs>
			<rect id="SVGID_13_" x="-0.9" y="103.8" width="1921.5" height="1171.6"/>
		</defs>
		<clipPath id="SVGID_14_">
			<use xlink:href="#SVGID_13_"  style="overflow:visible;"/>
		</clipPath>
		<g class="st8">
			
				<linearGradient id="SVGID_15_" gradientUnits="userSpaceOnUse" x1="-261.5947" y1="329.3094" x2="2058.103" y2="329.3094" gradientTransform="matrix(0.976 0.2178 0.2178 -0.976 25.1146 1138.7487)">
				<stop  offset="0" style="stop-color:#413D3E"/>
				<stop  offset="0.2319" style="stop-color:#3C393A"/>
				<stop  offset="0.4965" style="stop-color:#2F2C2C"/>
				<stop  offset="0.776" style="stop-color:#181617"/>
				<stop  offset="1" style="stop-color:#000000"/>
			</linearGradient>
			<path class="st9" d="M1424.3,795.8c-301,101.2-610.6,307.3-916.2,338.2c-130.3-3.3-234.1-19.4-317-43.2
				c-52.4-21.7-104.6-51.8-156.4-91.6c-54.4-41.8-94.1-71.1-122.1-90.4c-54-83.6-45.9-158.4-45.9-158.4l-85.7,281.2
				c258.4,404.8,893.1,100.1,893.1,100.1s1038.2-487.9,1485.5-108.3C2159.6,1023.4,1881,642.2,1424.3,795.8z"/>
			
				<linearGradient id="SVGID_16_" gradientUnits="userSpaceOnUse" x1="-184.2" y1="598.1459" x2="557.2" y2="598.1459" gradientTransform="matrix(1 0 0 -1 0 1533.8898)">
				<stop  offset="0" style="stop-color:#DFEC51"/>
				<stop  offset="1" style="stop-color:#73AA0A"/>
			</linearGradient>
			<path class="st10" d="M-125.6,728.4c0,0,225.8,422.4,682.8,399.2c0,0-478.4,100.3-741.4-210L-125.6,728.4z"/>
		</g>
	</g>
</g>
<linearGradient id="SVGID_17_" gradientUnits="userSpaceOnUse" x1="616.769" y1="-275.8101" x2="851.2357" y2="-275.8101">
	<stop  offset="0" style="stop-color:#DFEC51"/>
	<stop  offset="1" style="stop-color:#73AA0A"/>
</linearGradient>
<circle class="st11" cx="734" cy="-275.8" r="117.2"/>
<linearGradient id="SVGID_18_" gradientUnits="userSpaceOnUse" x1="915.7139" y1="-275.8101" x2="1150.1805" y2="-275.8101">
	<stop  offset="0" style="stop-color:#413D3E"/>
	<stop  offset="0.2319" style="stop-color:#3C393A"/>
	<stop  offset="0.4965" style="stop-color:#2F2C2C"/>
	<stop  offset="0.776" style="stop-color:#181617"/>
	<stop  offset="1" style="stop-color:#000000"/>
</linearGradient>
<circle class="st12" cx="1032.9" cy="-275.8" r="117.2"/>
<linearGradient id="SVGID_19_" gradientUnits="userSpaceOnUse" x1="-57.6041" y1="815.9255" x2="834.7156" y2="1015.0517">
	<stop  offset="0" style="stop-color:#DFEC51"/>
	<stop  offset="1" style="stop-color:#73AA0A"/>
</linearGradient>
<path class="st13" d="M827.4,1047.9l-1.1,0.6C87.6,1196.4,0,557.8,0,557.8l-0.9,342.7c0,0,64.3,224.2,305.2,266.8
	c241,42.6,522.4-118.8,522.4-118.8c0,0,0,0,0,0L827.4,1047.9z"/>
</svg>
