<svg xmlns="http://www.w3.org/2000/svg" xmlns:xlink="http://www.w3.org/1999/xlink" viewBox="0 0 2424.04 1738.26"><defs><style>.cls-1{fill:none;}.cls-2{clip-path:url(#clip-path);}.cls-3{fill:url(#Degradado_sin_nombre_4);}.cls-4{fill:url(#Degradado_sin_nombre_15);}.cls-5{fill:url(#Degradado_sin_nombre_15-2);}.cls-6{fill:url(#Degradado_sin_nombre_4-2);}.cls-7{fill:url(#Degradado_sin_nombre_15-3);}.cls-8{fill:url(#Degradado_sin_nombre_15-4);}.cls-9{fill:url(#Degradado_sin_nombre_15-5);}.cls-10{fill:url(#Degradado_sin_nombre_4-3);}.cls-11{fill:url(#Degradado_sin_nombre_15-6);}</style><clipPath id="clip-path"><rect class="cls-1" x="218.07" y="184.15" width="1921.45" height="1600.23"/></clipPath><linearGradient id="Degradado_sin_nombre_4" x1="197.19" y1="996.43" x2="2359.27" y2="996.43" gradientUnits="userSpaceOnUse"><stop offset="0" stop-color="#413d3e"/><stop offset="0.23" stop-color="#3c393a"/><stop offset="0.5" stop-color="#2f2c2c"/><stop offset="0.78" stop-color="#181617"/><stop offset="1"/></linearGradient><linearGradient id="Degradado_sin_nombre_15" x1="65.89" y1="425.3" x2="1046.06" y2="425.3" gradientUnits="userSpaceOnUse"><stop offset="0" stop-color="#dfec51"/><stop offset="1" stop-color="#73aa0a"/></linearGradient><linearGradient id="Degradado_sin_nombre_15-2" x1="1624.89" y1="480.25" x2="2424.04" y2="480.25" xlink:href="#Degradado_sin_nombre_15"/><linearGradient id="Degradado_sin_nombre_4-2" x1="-68.23" y1="102.67" x2="2250.86" y2="102.67" gradientTransform="translate(151.67 289.07) rotate(12.58)" xlink:href="#Degradado_sin_nombre_4"/><linearGradient id="Degradado_sin_nombre_15-3" x1="34.72" y1="524.63" x2="776.14" y2="524.63" xlink:href="#Degradado_sin_nombre_15"/><linearGradient id="Degradado_sin_nombre_15-4" x1="1035.65" y1="1237.87" x2="2424.04" y2="1237.87" xlink:href="#Degradado_sin_nombre_15"/><linearGradient id="Degradado_sin_nombre_15-5" x1="65.89" y1="1221.06" x2="1046.06" y2="1221.06" xlink:href="#Degradado_sin_nombre_15"/><linearGradient id="Degradado_sin_nombre_4-3" x1="105.05" y1="878.36" x2="2424.14" y2="878.36" gradientTransform="translate(151.67 289.07) rotate(12.58)" xlink:href="#Degradado_sin_nombre_4"/><linearGradient id="Degradado_sin_nombre_15-6" x1="34.72" y1="1320.39" x2="776.14" y2="1320.39" xlink:href="#Degradado_sin_nombre_15"/></defs><title>bgServices</title><g id="Capa_2" data-name="Capa 2"><g id="DESIGNED_BY_FREEPIK" data-name="DESIGNED BY FREEPIK"><g class="cls-2"><polygon class="cls-3" points="197.19 839.2 197.19 1434.95 516.53 1574.96 950.09 1528.25 1278.23 1370.6 1796.26 1145.62 2359.27 1228.15 2359.27 606.24 2126.81 427.8 1847.12 417.89 1608.62 442.67 1398.87 524.54 1251.39 610.48 1124.61 642.75 893.08 801.06 451.18 888.77 197.19 839.2"/><path class="cls-4" d="M148.39,0S307,881.39,1046.06,678.88c0,0-281.82,220.13-522.77,161.92S65.89,360.2,65.89,360.2Z"/><path class="cls-5" d="M2367.23,695.34,2424,440.71s-589.95-363.28-799.15-44.65l306.36-15.32s279,12.27,447.34,263.67"/><path class="cls-6" d="M1643.3,333.53C1343.21,471.38,1033,753.23,727.07,795.46c-130.26-4.49-234.13-26.45-317-59-52.43-29.73-104.58-70.72-156.37-125.07-54.36-57.06-94.09-97.06-122.12-123.55C77.65,373.65,85.69,271.49,85.69,271.49L0,655.54c258.36,552.87,902.83,147.62,902.83,147.62S1931.27,125.84,2378.59,644.41C2378.59,644.41,2100,123.76,1643.3,333.53Z"/><path class="cls-7" d="M93.35,241.44s225.77,577,682.79,545.27c0,0-478.41,137-741.42-286.79Z"/><path class="cls-8" d="M1612,1043.64c-.39.23-1,.58-1.66,1a299.23,299.23,0,0,0-29.54,21.48c-121,90.09-545.18,416.24-545.18,416.24l532.43-302.65,363.17-3.26s279,12.26,447.34,263.67l45.45-203.7S1903.63,860.45,1612,1043.64Z"/><path class="cls-9" d="M148.39,795.76S307,1677.14,1046.06,1474.64c0,0-281.82,220.13-522.77,161.92S65.89,1156,65.89,1156Z"/><path class="cls-10" d="M1643.3,1129.29C1343.21,1267.13,1033,1549,727.07,1591.22c-130.26-4.5-234.13-26.46-317-59-52.43-29.72-104.58-70.72-156.37-125.07-54.36-57-94.09-97.06-122.12-123.54-53.95-114.17-45.91-216.33-45.91-216.33L0,1451.29C258.36,2004.17,893.08,1588,893.08,1588s1038.19-666.43,1485.51-147.85C2378.59,1440.17,2100,919.52,1643.3,1129.29Z"/><path class="cls-11" d="M93.35,1037.19s225.77,577,682.79,545.27c0,0-478.41,137-741.42-286.79Z"/></g></g></g></svg>