<?xml version="1.0" encoding="utf-8"?>
<!-- Generator: Adobe Illustrator 22.0.1, SVG Export Plug-In . SVG Version: 6.00 Build 0)  -->
<svg version="1.1" id="Capa_1" xmlns="http://www.w3.org/2000/svg" xmlns:xlink="http://www.w3.org/1999/xlink" x="0px" y="0px"
	 viewBox="0 0 450 65.5" style="enable-background:new 0 0 450 65.5;" xml:space="preserve">
<style type="text/css">
	.st0{fill:#FFFFFF;}
	.st1{fill:url(#SVGID_1_);}
	.st2{fill:url(#SVGID_2_);}
	.st3{fill:url(#SVGID_3_);}
	.st4{fill:url(#SVGID_4_);}
	.st5{fill:url(#SVGID_5_);}
	.st6{fill:url(#SVGID_6_);}
	.st7{fill:#A8AAAB;}
</style>
<title>logo</title>
<g id="Capa_2_1_">
	<g id="Pieces">
		<path class="st0" d="M85.9,19.5v26.9h-3.8V19.5H85.9z"/>
		<path class="st0" d="M92.1,19.7c2.4-0.4,4.8-0.6,7.3-0.6c5,0,8.5,1.2,10.8,3.4s3.8,5.3,3.8,9.6s-1.4,8-3.9,10.4s-6.6,3.9-11.8,3.9
			c-2.1,0-4.1-0.1-6.2-0.3V19.7z M95.4,43.5c1.2,0.2,2.3,0.2,3.5,0.2c7.4,0,11.4-4.1,11.4-11.4c0-6.3-3.5-10.4-10.8-10.4
			c-1.3,0-2.7,0.1-4,0.4L95.4,43.5z"/>
		<path class="st0" d="M132.2,33.7h-10.4v9.4h11.8v3.3h-15.1V19.5h14.6v2.8h-11.3v8.5h10.4V33.7z"/>
		<path class="st0" d="M137.8,46.4V19.5h3.9l8.6,13.5c1.8,2.8,3.4,5.7,4.8,8.7l0.1-0.1c-0.3-3.6-0.4-6.9-0.4-11.1v-11h3.3v26.9h-3.5
			l-8.5-13.8c-1.8-2.9-3.5-5.9-5-9h-0.2c0.2,3.4,0.2,6.6,0.2,11v11.7L137.8,46.4z"/>
		<path class="st0" d="M169.4,22.4H161v-2.8h19.8v2.8h-8v24.1h-3.3L169.4,22.4z"/>
		<path class="st0" d="M187.4,19.5v26.9h-3.3V19.5H187.4z"/>
		<path class="st0" d="M193.5,19.7c2.4-0.4,4.9-0.6,7.4-0.6c5,0,8.5,1.2,10.9,3.4s3.8,5.3,3.8,9.6s-1.4,8-3.9,10.4
			s-6.6,3.9-11.9,3.9c-2.1,0-4.2-0.1-6.3-0.3V19.7z M196.8,43.5c1.2,0.2,2.4,0.2,3.6,0.2c7.4,0,11.5-4.1,11.5-11.4
			c0-6.3-3.6-10.4-10.9-10.4c-1.4,0-2.8,0.1-4.1,0.4L196.8,43.5z"/>
		<path class="st0" d="M223.8,37.9l-2.8,8.5h-3.6l9.1-26.9h4.2l9.2,26.9h-3.7l-2.9-8.5H223.8z M232.6,35.1l-2.6-7.8
			c-0.6-1.8-1-3.5-1.4-5h-0.1c-0.4,1.4-0.8,3.3-1.4,4.9l-2.6,7.8L232.6,35.1z"/>
		<path class="st0" d="M244,19.7c2.4-0.4,4.9-0.6,7.3-0.6c5,0,8.5,1.2,10.8,3.4s3.8,5.3,3.8,9.6s-1.4,8-3.9,10.4s-6.6,3.9-11.8,3.9
			c-2.1,0-4.2-0.1-6.2-0.3L244,19.7z M247.3,43.5c1.2,0.2,2.3,0.2,3.5,0.2c7.4,0,11.5-4.1,11.5-11.4c0-6.3-3.6-10.4-10.9-10.4
			c-1.4,0-2.7,0.1-4.1,0.4L247.3,43.5z"/>
		<path class="st0" d="M297.6,45.3c-2.2,0.9-4.7,1.4-7.1,1.3c-7.6,0-13.3-4.8-13.3-13.6c0-8.4,5.7-14.1,14-14.1
			c2.2-0.1,4.4,0.3,6.4,1.2l-0.8,2.9c-1.7-0.8-3.6-1.2-5.4-1.1c-6.3,0-10.5,4-10.5,11.1c0,6.6,3.8,10.8,10.3,10.8
			c1.9,0,3.9-0.4,5.7-1.1L297.6,45.3z"/>
		<path class="st0" d="M302,19.7c2.2-0.4,4.4-0.6,6.6-0.6c3.7,0,6.1,0.7,7.8,2.2c1.4,1.3,2.1,3.2,2.1,5.1c0,3.2-2.1,6-5.1,6.8v0.1
			c2.4,0.7,3.3,2.7,4,5.5c0.5,2.5,1.2,5,2.1,7.5h-3.6c-0.8-2.1-1.4-4.3-1.8-6.5c-0.8-3.7-2.2-5.3-5.4-5.3h-3.4v11.8H302V19.7z
			 M305.3,31.8h3.7c3.7,0,6-2,6-5c0-3.5-2.5-5-6.2-5c-1.2,0-2.3,0.1-3.5,0.4L305.3,31.8z"/>
		<path class="st0" d="M337.4,33.7H327v9.4h11.3v3.3h-15.1V19.5h14.6v2.8H327v8.5h10.4L337.4,33.7z"/>
		<path class="st0" d="M347.3,37.9l-2.8,8.5H341l9.1-26.9h4.2l9.2,26.9h-3.7l-2.9-8.5H347.3z M356.1,35.1l-2.6-7.8
			c-0.6-1.8-1-3.5-1.4-5H352c-0.4,1.4-0.8,3.3-1.4,4.9l-2.6,7.8L356.1,35.1z"/>
		<path class="st0" d="M369.5,22.4H361v-2.8h20.3v2.8h-8.5v24.1h-3.3V22.4z"/>
		<path class="st0" d="M387.4,19.5v26.9h-3.3V19.5H387.4z"/>
		<path class="st0" d="M399.5,46.4l-8.8-26.9h3.7l4.2,13.1c1.2,3.6,2.2,6.7,2.9,10h0.1c0.8-3.4,1.9-6.7,3.1-9.9l4.5-13.2h3.8
			l-9.6,26.9L399.5,46.4z"/>
		<path class="st0" d="M417.9,37.9l-2.8,8.5h-3.6l9.1-26.9h4.2l9.1,26.9h-3.7l-2.9-8.5H417.9z M426.7,35.1l-2.6-7.8
			c-0.6-1.8-1-3.5-1.4-5h-0.1c-0.4,1.4-0.8,3.3-1.4,4.9l-2.6,7.8L426.7,35.1z"/>
		<path class="st0" d="M450,25.5c0.1,3.7-2.8,6.8-6.5,6.9c-3.7,0.1-6.8-2.8-6.9-6.5c-0.1-3.7,2.8-6.8,6.5-6.9c0.1,0,0.1,0,0.2,0
			C446.9,18.9,449.9,21.7,450,25.5C450,25.4,450,25.4,450,25.5z M438.2,25.5c-0.1,2.8,2.1,5.1,4.9,5.2c0.1,0,0.1,0,0.2,0
			c2.8,0,5-2.2,5-5c0-0.1,0-0.1,0-0.2c0-2.8-2.3-5-5-5C440.5,20.5,438.3,22.7,438.2,25.5L438.2,25.5z M442.2,29h-1.4v-6.6
			c0.8-0.2,1.7-0.2,2.5-0.2c0.8-0.1,1.6,0.1,2.3,0.5c0.4,0.3,0.7,0.9,0.7,1.4c0,0.7-0.8,1.3-1.3,1.5v0.1c0.6,0.4,1,1,1.1,1.6
			c0.1,0.6,0.2,1.1,0.4,1.7h-1.6c-0.2-0.6-0.4-1.1-0.5-1.7c0-0.7-0.6-1.2-1.3-1.2c0,0,0,0-0.1,0h-0.8L442.2,29z M442.2,25.2h0.8
			c0.8,0,1.5-0.3,1.5-1s-0.5-1-1.5-1c-0.3,0-0.6,0-0.9,0.1L442.2,25.2z"/>
		
			<linearGradient id="SVGID_1_" gradientUnits="userSpaceOnUse" x1="53.2" y1="74.97" x2="30.94" y2="10.33" gradientTransform="matrix(1 0 0 -1 0 68)">
			<stop  offset="0" style="stop-color:#5C91C3"/>
			<stop  offset="1" style="stop-color:#85D0D2"/>
		</linearGradient>
		<path class="st1" d="M47.6,22.3C47,13.8,41.7,5.2,27.3,0.4c17.4-2.9,33.9,8.5,37.4,25.8c-1.9,11.2-11,24.5-27.1,21.6
			c9-4.8,12.8-13.9,11.3-24.4C48.5,23,48,22.6,47.6,22.3z"/>
		
			<linearGradient id="SVGID_2_" gradientUnits="userSpaceOnUse" x1="-8.0125" y1="94.0379" x2="73.31" y2="15.5052" gradientTransform="matrix(1 0 0 -1 0 68)">
			<stop  offset="0" style="stop-color:#5DAF29"/>
			<stop  offset="0.6" style="stop-color:#6EBB3B"/>
			<stop  offset="1" style="stop-color:#7BC44A"/>
		</linearGradient>
		<path class="st2" d="M42.9,19.2C39.4,10,28.4,4,12.5,7c4.3-3.4,9.4-5.7,14.8-6.6c14,4.4,21.1,14.2,21.7,23l-0.2-0.1
			C47,21.8,45,20.4,42.9,19.2z"/>
		
			<linearGradient id="SVGID_3_" gradientUnits="userSpaceOnUse" x1="24.4203" y1="51.4236" x2="7.7303" y2="30.8136" gradientTransform="matrix(1 0 0 -1 0 68)">
			<stop  offset="0" style="stop-color:#FFB509"/>
			<stop  offset="1" style="stop-color:#FDF012"/>
		</linearGradient>
		<path class="st3" d="M16.6,23.4C10,28.4,4.9,37.2,5.8,51.3C-4,37.1-1.1,17.7,12.5,7c12.3-2.5,26,0.5,30.5,12.3
			C34,14.6,25.1,15.9,16.6,23.4L16.6,23.4z"/>
		
			<linearGradient id="SVGID_4_" gradientUnits="userSpaceOnUse" x1="26.9256" y1="43.947" x2="7.3256" y2="7.087" gradientTransform="matrix(1 0 0 -1 0 68)">
			<stop  offset="0" style="stop-color:#FF6900"/>
			<stop  offset="1" style="stop-color:#FFBF06"/>
		</linearGradient>
		<path class="st4" d="M16.1,30.5C9.8,38.3,10,50.1,19.8,63c-5.8-2.2-11.6-7.8-14.1-11.7c-0.9-14.5,4.1-23.1,10.7-28l0.4-0.3
			l-0.4,0.3C16.1,25.7,16,28.1,16.1,30.5z"/>
		
			<linearGradient id="SVGID_5_" gradientUnits="userSpaceOnUse" x1="24.8598" y1="26.4851" x2="42.5098" y2="15.025" gradientTransform="matrix(1 0 0 -1 0 68)">
			<stop  offset="0" style="stop-color:#FF2800"/>
			<stop  offset="1" style="stop-color:#FF5A0B"/>
		</linearGradient>
		<path class="st5" d="M64,42.3C59.6,50,44.1,55.4,31.9,50l0,0c-10-2.9-15.1-9.5-15.7-19.6c-8.3,10-3.7,23.1,3.7,32.5
			C34.2,69.4,57.1,64.1,64,42.3z"/>
		
			<linearGradient id="SVGID_6_" gradientUnits="userSpaceOnUse" x1="58.2611" y1="29.0782" x2="44.7411" y2="20.6282" gradientTransform="matrix(1 0 0 -1 0 68)">
			<stop  offset="0" style="stop-color:#97725B"/>
			<stop  offset="1" style="stop-color:#BE9F87"/>
		</linearGradient>
		<path class="st6" d="M37.7,47.8c16.1,2.6,25.1-11,27-21.9c1.2,5.4,1,11.1-0.7,16.4c-4.4,7.8-19.9,13.2-32.1,7.8
			C33.9,49.5,35.8,48.8,37.7,47.8L37.7,47.8z"/>
		<rect x="69.9" y="8.2" class="st7" width="1.9" height="49.1"/>
	</g>
</g>
</svg>
