<?xml version="1.0" encoding="utf-8"?>
<!-- Generator: Adobe Illustrator 22.0.1, SVG Export Plug-In . SVG Version: 6.00 Build 0)  -->
<svg version="1.1" id="Capa_1" xmlns="http://www.w3.org/2000/svg" xmlns:xlink="http://www.w3.org/1999/xlink" x="0px" y="0px"
	 viewBox="0 0 835.9 1203.3" style="enable-background:new 0 0 835.9 1203.3;" xml:space="preserve">
<style type="text/css">
	.st0{fill:#F8F4ED;}
	.st1{fill:#FEFEFE;}
	.st2{fill:#E9D9D3;}
	.st3{opacity:0.1;enable-background:new    ;}
	.st4{fill:#0F1A27;}
	.st5{fill:#D8B288;}
	.st6{fill:#B58157;}
	.st7{fill:#0B0F1F;}
	.st8{fill:#8C5D41;}
	.st9{fill:#FFFFFF;}
	.st10{fill:#EA404F;}
	.st11{opacity:0.26;fill:#F6FFFF;enable-background:new    ;}
	.st12{clip-path:url(#SVGID_2_);}
	.st13{opacity:0.25;}
	.st14{clip-path:url(#SVGID_4_);}
	.st15{fill:#272425;}
	.st16{fill:#373636;}
	.st17{fill:#9CA4AD;}
	.st18{fill:#DA4453;}
	.st19{fill:#272E40;}
	.st20{fill:#333333;}
	.st21{fill:#464755;}
	.st22{fill:#FACD4C;}
	.st23{fill:#EEEAE6;}
	.st24{fill:#92D0DC;}
	.st25{fill:#161731;}
	.st26{fill:url(#SVGID_5_);}
	.st27{fill:url(#SVGID_6_);}
	.st28{fill:none;stroke:#464755;stroke-width:0.38;stroke-miterlimit:10;}
	.st29{fill:#AAB2BD;}
	.st30{fill:url(#SVGID_7_);}
	.st31{fill:url(#SVGID_8_);}
	.st32{fill:url(#SVGID_9_);}
	.st33{fill:url(#SVGID_10_);}
	.st34{fill:url(#SVGID_11_);}
	.st35{fill:url(#SVGID_12_);}
	.st36{fill:url(#SVGID_13_);}
	.st37{fill:url(#SVGID_14_);}
	.st38{fill:none;}
</style>
<title>planet_1</title>
<g id="Capa_2_1_">
	<g id="DESIGNED_BY_FREEPIK">
		<path class="st0" d="M418,1203.3c230.2,0,418-187.8,418-418s-187.8-418-418-418S0,555.1,0,785.3S187.8,1203.3,418,1203.3
			L418,1203.3z"/>
		<path class="st1" d="M351.4,1197.9C152.3,1166,0,993.5,0,785.3c0-216.9,165.3-395.2,376.7-415.9C576,401.2,728.2,573.8,728.2,782
			C728.2,998.9,562.9,1177.2,351.4,1197.9L351.4,1197.9z"/>
		<path class="st0" d="M148.9,1019.8c7-8.5,31.9,0.8,55.6,20.5c23.7,19.7,37.2,42.6,30.3,50.9s-31.9-0.8-55.6-20.5
			S141.9,1028.1,148.9,1019.8L148.9,1019.8z"/>
		<path class="st0" d="M402.2,1136c-0.5-5.5,24-10.5,54.8-11.2s56.3,3,56.8,8.5s-24.1,10.5-54.9,11.2S402.6,1141.3,402.2,1136
			L402.2,1136z"/>
		<path class="st0" d="M287,1030.7c4.9-9.9,31.2-6.7,58.9,7.1c27.7,13.8,46.1,32.7,41.2,42.5s-31.2,6.6-58.9-7.1
			C300.7,1059.5,282.2,1040.4,287,1030.7L287,1030.7z"/>
		<path class="st0" d="M642,672.7c17.9,1.5,33,30.1,33.4,64s-13.6,59.8-31.5,58.3s-33-30.3-33.4-64S624.1,671.1,642,672.7z"/>
		<path class="st0" d="M490,485.8c3.1-10.5,29.6-11.9,59.2-3.1s51.1,24.4,47.9,34.9c-3.2,10.4-29.6,11.8-59.2,3
			S486.9,496.2,490,485.8z"/>
		<path class="st0" d="M216.5,602.6c-6.9-23.4,8.6-54.1,34.6-68.8s52.6-7.4,59.3,16s-8.6,54.1-34.6,68.7S223.2,626,216.5,602.6
			L216.5,602.6z"/>
		<path class="st0" d="M67.7,715.7c9.7-0.1,17.8,21.8,18.1,49s-7.4,49.3-17,49.4s-17.7-21.9-17.9-49S58.1,715.7,67.7,715.7
			L67.7,715.7z"/>
		<path class="st2" d="M693.1,1008.5c-6-2.7,3.6-31.2,21.4-63.5s37.1-56.4,43-53.7s-3.6,31.2-21.4,63.7S699,1011.3,693.1,1008.5
			L693.1,1008.5z"/>
		<path class="st0" d="M341.3,945.9c-0.7,0.3-1.4,0.4-2,0.7c-49.4,14.1-101.9-17.9-117.4-71.8c-13.9-48.2,7.1-97.6,47.2-117.4
			c0.7-0.2,1.4-0.4,2.1-0.5c49.4-14.2,102,17.8,117.4,71.6C402.4,876.8,381.5,926.2,341.3,945.9L341.3,945.9z"/>
		<path class="st3" d="M593,406.9c0,6.3-74.8,11.4-167.1,11.4s-167.1-5.1-167.1-11.4s74.8-32.3,167.1-32.3S593,400.6,593,406.9z"/>
		<path class="st4" d="M423.1,201.3c-3.6,0.6-7-2.6-7.1-7.2v-1.3c-0.1-4.6,2.9-8.7,6.6-9.3l44.7-14.3c3.6-0.6,6,9.9,6.1,14.5v1.3
			c0.1,4.6-2.7,8.8-6.4,9.4L423.1,201.3z"/>
		<path class="st4" d="M415.1,149.1c-1.5-3.4-5.9-4.3-9.9-1.9l-1.1,0.7c-4,2.3-5.9,6.9-4.4,10.3l17.8,40.6c1.5,3.4,5.9,4.5,9.9,2.1
			l1.1-0.7c4-2.3,5.9-7.1,4.4-10.5L415.1,149.1z"/>
		<path class="st5" d="M398.8,114.6c-0.5-1.5-2.2-2.3-3.7-1.8c0,0,0,0,0,0H395c-1.5,0.6-2.2,2.3-1.6,3.8c0,0,0,0,0,0l5.2,13.2
			c0.6,1.5,2.3,2.3,3.8,1.8h0.1c1.5-0.7,2.1-2.4,1.5-3.9L398.8,114.6z"/>
		<path class="st5" d="M402.8,132.9c-0.8-1.9-3.1-2.8-5-2h-0.1c-1.9,0.8-2.8,3.1-2,5l7.3,17.1c0.8,1.9,3.1,2.8,5,2h0.1
			c1.9-0.8,2.8-3.1,2-5L402.8,132.9z"/>
		<path class="st5" d="M404.9,129.3c-0.5-1.3-4-1.1-7.7,0.5l-0.2,0.1c-3.7,1.6-6.2,3.9-5.7,5.2l4.7,11.2c0.5,1.3,4,1.1,7.7-0.4
			l0.2-0.1c3.7-1.6,6.2-4,5.7-5.3L404.9,129.3z"/>
		<path class="st6" d="M409.7,130.6c0-0.9-1.2-1.7-2.8-1.7h-0.1c-1.6,0-2.9,0.8-2.8,1.7l0.1,8.1c0,0.9,1.2,1.7,2.9,1.7h0.1
			c1.6,0,2.8-0.9,2.8-1.8L409.7,130.6z"/>
		<path class="st7" d="M545.1,84.6c0-32.2-22.4-60.6-52.9-60.6s-53.9,27.2-53.9,59.4c0,11.4,23.5,57.2,53.9,57.2
			S545.1,96,545.1,84.6z"/>
		<path class="st4" d="M504.5,169.9c0,2-2.7,4.2-5.4,4.2h-16.8c-2.3,0-4.1-1.8-4.1-4.1c0,0,0-0.1,0-0.1v-12.3c0-2,1.4-2.8,4.1-2.8
			h16.8c2.7,0,5.4,0.8,5.4,2.8V169.9z"/>
		<path class="st5" d="M544.4,95.9c0,6.2-5,11.2-11.2,11.2c-6.2,0-11.2-5-11.2-11.2s5-11.2,11.2-11.2
			C539.4,84.7,544.4,89.7,544.4,95.9C544.4,95.9,544.4,95.9,544.4,95.9z"/>
		<path class="st8" d="M539.3,95.9c0,3.4-2.8,6.2-6.2,6.2c-3.4,0-6.2-2.8-6.2-6.2s2.8-6.2,6.2-6.2c0,0,0,0,0,0
			C536.6,89.7,539.3,92.5,539.3,95.9C539.3,95.9,539.3,95.9,539.3,95.9z"/>
		<path class="st5" d="M458.4,95.9c0,6.2-5,11.2-11.2,11.2c-6.2,0-11.2-5-11.2-11.2s5-11.2,11.2-11.2
			C453.4,84.7,458.4,89.7,458.4,95.9C458.4,95.9,458.4,95.9,458.4,95.9z"/>
		<path class="st8" d="M453.4,95.9c0,3.4-2.8,6.2-6.2,6.2s-6.2-2.8-6.2-6.2s2.8-6.2,6.2-6.2l0,0C450.6,89.7,453.4,92.5,453.4,95.9
			C453.4,95.9,453.4,95.9,453.4,95.9z"/>
		<path class="st7" d="M541.4,81.4c0-31-21.6-58.4-51-58.4s-52,26.2-52,57.2c0,11,22.6,55.2,52,55.2S541.4,92.4,541.4,81.4z"/>
		<path class="st5" d="M490.4,163c17.3,0,35.7-5.9,40.4-15.7c1.2-2.6,4.5-92.2,4.5-92.2c0-5.4-6.2-9.5-13.5-9.5H459
			c-7.4,0-12.6,4.1-12.6,9.5c0,0,0.8,88.6,3.2,91.9C456.6,157.1,474.2,163,490.4,163z"/>
		<path class="st7" d="M483.1,51.8c-0.1,6.4-5.3,11.6-11.7,11.5c-6.4-0.1-11.6-5.3-11.5-11.7c0.1-6.4,5.2-11.5,11.6-11.5
			C477.9,40.1,483.1,45.4,483.1,51.8z"/>
		<path class="st7" d="M500.4,49.9c0,5.4-4.4,9.7-9.8,9.6s-9.7-4.4-9.6-9.8c0-5.3,4.4-9.6,9.7-9.6C496.1,40.1,500.4,44.5,500.4,49.9
			C500.4,49.9,500.4,49.9,500.4,49.9z"/>
		<path class="st7" d="M524.6,45.8c-0.1,9-7.5,16.3-16.5,16.2s-16.3-7.5-16.2-16.5c0.1-9,7.4-16.2,16.3-16.2
			C517.3,29.3,524.6,36.7,524.6,45.8C524.6,45.7,524.6,45.7,524.6,45.8z"/>
		<path class="st7" d="M537.1,52.7c-0.1,6.9-5.7,12.4-12.6,12.4c-6.9-0.1-12.4-5.7-12.4-12.6c0.1-6.9,5.6-12.4,12.5-12.4
			C531.5,40.1,537.1,45.7,537.1,52.7C537.1,52.7,537.1,52.7,537.1,52.7z"/>
		<path class="st7" d="M540.4,54.5c0,7-5.1,12.6-11.5,12.6s-11.5-5.6-11.5-12.6s5.1-12.6,11.5-12.6S540.4,47.5,540.4,54.5z"/>
		<path class="st7" d="M534.3,37.2c-0.1,8.6-7.1,15.5-15.7,15.4s-15.5-7.1-15.4-15.7c0.1-8.5,7-15.4,15.5-15.4
			C527.4,21.6,534.4,28.6,534.3,37.2C534.3,37.2,534.3,37.2,534.3,37.2z"/>
		<path class="st7" d="M514.3,30.3c-0.1,8.6-7.1,15.5-15.7,15.4c-8.6-0.1-15.5-7.1-15.4-15.7c0.1-8.5,7-15.4,15.5-15.4
			C507.4,14.7,514.3,21.7,514.3,30.3C514.3,30.3,514.3,30.3,514.3,30.3z"/>
		<path class="st7" d="M492.6,33c-0.1,8.6-7.1,15.5-15.7,15.4c-8.6-0.1-15.5-7.1-15.4-15.7c0.1-8.5,7-15.4,15.5-15.4
			C485.7,17.4,492.7,24.4,492.6,33z"/>
		<path class="st7" d="M475.2,38.4c-0.1,9.4-7.8,16.9-17.2,16.8c-9.4-0.1-16.9-7.8-16.8-17.2c0.1-9.3,7.7-16.8,17-16.8
			C467.7,21.3,475.3,29,475.2,38.4z"/>
		<path class="st7" d="M461,55.3c0,7-5.1,12.6-11.5,12.6S438,62.3,438,55.3s5.1-12.6,11.5-12.6S461,48.4,461,55.3z"/>
		<path class="st9" d="M484.6,89.2c0-6.2-5.1-11.3-11.3-11.3c-6.2,0-11.3,5.1-11.3,11.3c0,6.2,5.1,11.3,11.3,11.3c0,0,0,0,0,0
			C479.6,100.5,484.6,95.5,484.6,89.2C484.6,89.2,484.6,89.2,484.6,89.2z"/>
		<path class="st7" d="M479.5,89.2c0-3.4-2.7-6.1-6.1-6.1c-3.4,0-6.1,2.7-6.1,6.1s2.7,6.1,6.1,6.1c0,0,0,0,0,0
			C476.7,95.4,479.5,92.6,479.5,89.2C479.5,89.2,479.5,89.2,479.5,89.2z"/>
		<path class="st9" d="M517.4,89.2c0-6.2-5.1-11.3-11.3-11.3c-6.2,0-11.3,5.1-11.3,11.3s5.1,11.3,11.3,11.3
			C512.4,100.5,517.4,95.5,517.4,89.2C517.4,89.2,517.4,89.2,517.4,89.2z"/>
		<path class="st7" d="M512.4,89.2c0-3.5-2.8-6.2-6.2-6.2s-6.2,2.8-6.2,6.2s2.8,6.2,6.2,6.2S512.4,92.7,512.4,89.2L512.4,89.2z"/>
		<path class="st6" d="M494.2,111.8c0,1.6-1.3,2.9-2.9,2.9h-1.9c-1.6,0-2.9-1.3-2.9-2.9l0.8-16.3c0-1.6,1.3-2.9,2.9-2.9h0.2
			c1.6,0,2.9,1.3,2.9,2.9L494.2,111.8z"/>
		<path class="st7" d="M504.7,131.4c0-0.7-0.1-1.4-0.2-2.1l-25.5-5.7c-3.1,4.7-3.1,10.8,0.1,15.5c4.7-3.2,11.1-2,14.3,2.7
			c0.6,0.9,1,1.8,1.3,2.8C500.6,143,504.7,137.5,504.7,131.4z"/>
		<path class="st10" d="M484.9,137.4c-2.1,0-4.1,0.6-5.8,1.8c3.4,5.1,9.7,7.3,15.6,5.6C493.4,140.4,489.4,137.4,484.9,137.4z"/>
		<path class="st11" d="M472.9,103.9c-8.2,0-14.8-6.6-14.8-14.8c0-8.2,6.6-14.8,14.8-14.8c8.2,0,14.8,6.6,14.8,14.8
			C487.7,97.3,481.1,103.9,472.9,103.9C472.9,103.9,472.9,103.9,472.9,103.9z"/>
		<path class="st11" d="M506.9,103.9c-8.2,0-14.8-6.6-14.8-14.8c0-8.2,6.6-14.8,14.8-14.8c8.2,0,14.8,6.6,14.8,14.8c0,0,0,0,0,0
			C521.7,97.3,515,103.9,506.9,103.9C506.9,103.9,506.9,103.9,506.9,103.9z"/>
		<g>
			<defs>
				<path id="SVGID_1_" d="M506.9,103.9c-8.2,0-14.8-6.6-14.8-14.8c0-8.2,6.6-14.8,14.8-14.8c8.2,0,14.8,6.6,14.8,14.8c0,0,0,0,0,0
					C521.7,97.3,515,103.9,506.9,103.9C506.9,103.9,506.9,103.9,506.9,103.9z"/>
			</defs>
			<clipPath id="SVGID_2_">
				<use xlink:href="#SVGID_1_"  style="overflow:visible;"/>
			</clipPath>
			<g class="st12">
				<g class="st13">
					<path class="st9" d="M515.1,70l-14.9,40c-1.7-0.4-3.4-1-5-1.8L509.4,70C511.3,69.9,513.2,69.9,515.1,70z"/>
					<path class="st9" d="M520.2,70.7l-14.9,40.1c-0.6,0-1.3-0.1-2-0.2l15-40.3C519,70.5,519.6,70.6,520.2,70.7z"/>
				</g>
			</g>
		</g>
		<g>
			<defs>
				<path id="SVGID_3_" d="M472.9,103.9c-8.2,0-14.8-6.6-14.8-14.8c0-8.2,6.6-14.8,14.8-14.8c8.2,0,14.8,6.6,14.8,14.8
					C487.7,97.3,481.1,103.9,472.9,103.9C472.9,103.9,472.9,103.9,472.9,103.9z"/>
			</defs>
			<clipPath id="SVGID_4_">
				<use xlink:href="#SVGID_3_"  style="overflow:visible;"/>
			</clipPath>
			<g class="st14">
				<g class="st13">
					<path class="st9" d="M482.3,70l-14.9,40c-1.7-0.4-3.4-1-5-1.8L476.6,70C478.5,69.9,480.4,69.9,482.3,70z"/>
					<path class="st9" d="M487.4,70.7l-14.9,40.1c-0.6,0-1.3-0.1-2-0.2l15-40.3C486.2,70.5,486.8,70.6,487.4,70.7z"/>
				</g>
			</g>
		</g>
		<path class="st15" d="M455,85.4c-1.1,0-3.2,0.9-3.2,2v4.2c0,1.1,2.1,2.1,3.2,2.1h2v-8.3H455z"/>
		<path class="st15" d="M472.9,72.6c-9.4,0-17,7.6-17,17s7.6,17,17,17s17-7.6,17-17S482.3,72.6,472.9,72.6L472.9,72.6z M472.9,103.3
			c-7.6,0-13.7-6.1-13.7-13.7c0-7.6,6.1-13.7,13.7-13.7c7.6,0,13.7,6.1,13.7,13.7v0C486.6,97.2,480.4,103.3,472.9,103.3z"/>
		<path class="st16" d="M483.7,99.3c-2.8,3-6.7,4.8-10.8,4.8c-0.5,0.1-0.8,0.5-0.7,0.9c0,0.4,0.4,0.7,0.7,0.7c4.6-0.1,8.9-2,12-5.3
			C485.6,99.7,484.5,98.5,483.7,99.3z"/>
		<path class="st16" d="M472.9,73.4c-8.9,0.1-16.1,7.3-16.2,16.2c0.1,0.5,0.5,0.8,0.9,0.7c0.4,0,0.7-0.4,0.7-0.7
			c0.1-8,6.5-14.4,14.5-14.5c0.5-0.1,0.8-0.5,0.7-0.9C473.6,73.7,473.3,73.4,472.9,73.4z"/>
		<path class="st15" d="M524.8,85.4c1.1,0,3.3,0.9,3.3,2v4.2c0,1.1-2.2,2.1-3.3,2.1h-2v-8.3H524.8z"/>
		<path class="st15" d="M489.9,89.6c0,9.4,7.6,17,17,17s17-7.6,17-17s-7.6-17-17-17C497.5,72.6,489.9,80.2,489.9,89.6z M493.2,89.6
			c0-7.6,6.1-13.7,13.7-13.7c7.6,0,13.7,6.1,13.7,13.7s-6.1,13.7-13.7,13.7c0,0,0,0,0,0C499.3,103.3,493.2,97.2,493.2,89.6z"/>
		<path class="st16" d="M496.1,99.3c2.8,3,6.7,4.8,10.8,4.8c0.5,0.1,0.8,0.5,0.7,0.9c0,0.4-0.4,0.7-0.7,0.7c-4.6-0.1-8.9-2-12-5.3
			C494.2,99.7,495.3,98.5,496.1,99.3z"/>
		<path class="st16" d="M506.9,73.4c8.9,0.1,16.1,7.3,16.2,16.2c-0.1,0.5-0.5,0.8-0.9,0.7c-0.4,0-0.7-0.4-0.7-0.7
			c-0.1-8-6.6-14.4-14.5-14.5c-0.5-0.1-0.8-0.5-0.7-0.9C506.2,73.7,506.5,73.4,506.9,73.4z"/>
		<path class="st15" d="M492.4,86.9c-0.7-1.4-2.4-1.9-3.8-1.2c-0.5,0.3-0.9,0.7-1.2,1.2l-1.1-1.7c2-2.9,5.2-2.9,7.2,0L492.4,86.9z"
			/>
		<path class="st15" d="M535.6,91.4c-1.4,0.5-2.9,0.8-4.4,1c-1.6-0.2-3.2-0.6-4.8-1v-4c1.6,0.4,3.2,0.8,4.8,1c1.5-0.2,3-0.5,4.4-1
			V91.4z"/>
		<path class="st15" d="M445.8,91.4c1.4,0.5,2.9,0.8,4.4,1c1.6-0.2,3.2-0.6,4.8-1v-4c-1.6,0.4-3.2,0.8-4.8,1c-1.5-0.2-3-0.5-4.4-1
			V91.4z"/>
		<ellipse class="st7" cx="447.6" cy="84.7" rx="3.8" ry="19.1"/>
		<path class="st7" d="M538.5,82.4c0,10.4-1.7,20.9-3.8,20.9S531,92.8,531,82.4s1.7-18.9,3.8-18.9S538.5,72,538.5,82.4z"/>
		<path class="st7" d="M484.6,53.9c-0.1,6.6-5.5,11.9-12.1,11.9c-6.6-0.1-11.9-5.5-11.9-12.1c0.1-6.6,5.4-11.9,12-11.9
			C479.3,41.8,484.7,47.2,484.6,53.9z"/>
		<path class="st7" d="M502.6,51.9c0,5.6-4.6,10-10.1,10s-10-4.6-10-10.1c0-5.5,4.5-10,10.1-10C498.1,41.8,502.6,46.3,502.6,51.9z"
			/>
		<path class="st7" d="M527.7,47.6c-0.1,9.4-7.7,17-17.1,16.9s-17-7.7-16.9-17.1c0.1-9.3,7.7-16.9,17-16.9c9.4,0,17,7.6,17,17
			C527.7,47.6,527.7,47.6,527.7,47.6z"/>
		<path class="st7" d="M540.6,54.8c-0.1,7.2-5.9,12.9-13.1,12.8c-7.2-0.1-12.9-5.9-12.8-13.1c0.1-7.1,5.8-12.8,13-12.8
			C534.9,41.8,540.7,47.6,540.6,54.8C540.6,54.8,540.6,54.8,540.6,54.8z"/>
		<path class="st7" d="M544.1,56.7c0,7.2-5.3,13.1-11.9,13.1s-11.9-5.8-11.9-13.1s5.3-13.1,11.9-13.1S544.1,49.5,544.1,56.7z"/>
		<path class="st7" d="M537.8,38.8c-0.1,8.9-7.4,16.1-16.3,16c-8.9-0.1-16.1-7.4-16-16.3c0.1-8.9,7.3-16,16.1-16
			C530.6,22.6,537.8,29.9,537.8,38.8C537.8,38.8,537.8,38.8,537.8,38.8z"/>
		<path class="st7" d="M517,31.6c-0.1,8.9-7.4,16.1-16.3,16s-16.1-7.4-16-16.3c0.1-8.9,7.3-16,16.1-16C509.8,15.4,517,22.7,517,31.6
			z"/>
		<path class="st7" d="M494.6,34.4c-0.1,8.9-7.4,16.1-16.3,16s-16.1-7.4-16-16.3c0.1-8.8,7.3-16,16.1-16
			C487.4,18.2,494.6,25.4,494.6,34.4C494.6,34.4,494.6,34.4,494.6,34.4z"/>
		<path class="st7" d="M476.5,40c-0.1,9.7-8.1,17.6-17.8,17.5c-9.7-0.1-17.6-8.1-17.5-17.8c0.1-9.7,8-17.5,17.6-17.5
			C468.6,22.2,476.5,30.2,476.5,40z"/>
		<path class="st7" d="M461.7,57.6c0,7.2-5.3,13.1-11.9,13.1s-11.9-5.8-11.9-13.1s5.3-13.1,11.9-13.1S461.7,50.4,461.7,57.6z"/>
		<ellipse class="st7" cx="448" cy="86.6" rx="3.9" ry="19.8"/>
		<path class="st17" d="M501.7,262.2c3.1-1.2,2.6-10.1,0.1-16.6l0,0c-2.5-6.5-6.3-14.3-9.5-13.1l-58,26.4c-3.1,1.2-3.7,7.4-1.1,13.9
			l0,0c2.5,6.5,7.1,10.6,10.2,9.4L501.7,262.2z"/>
		<path class="st17" d="M456.7,271.2c0-3.3-5.4-6-12.2-6l0,0c-6.9,0-12.2,2.7-12.2,6V332c0,3.3,5.4,6,12.2,6l0,0
			c6.9,0,12.2,3.8,12.2-6V271.2z"/>
		<path class="st18" d="M418,346.4c0-11.7-1.6-20.4,20.1-20.4c11.2,0,20.3,8.3,20.5,20L418,346.4z"/>
		<path class="st9" d="M435.3,328c0,0-0.5-0.3-0.4-0.2l0-0.1l0,0c0,0,0-0.1,0-0.1c0-0.1,0-0.1,0-0.1l0.1-0.1
			c0.1-0.1,0.1-0.2,0.2-0.3l0.2-0.2l0.2-0.2c1.4-1.2-0.6-3.2-2-2c-0.2,0.2-0.4,0.4-0.5,0.6c-0.3-0.8-1.2-1.1-2-0.8
			c-0.2,0.1-0.3,0.1-0.4,0.3c-0.7,0.6-1.1,1.3-1.4,2.1c-0.4,1.5,0.3,3.1,1.7,3.8c0.7,0.4,1.5,0.2,1.9-0.5c0-0.1,0.1-0.1,0.1-0.2
			c0.3,0.3,0.6,0.5,0.9,0.7C435.5,331.4,436.9,328.9,435.3,328z M432,327.8l0-0.1l0,0c0,0,0,0,0-0.1s0-0.1,0-0.1l0,0
			C431.9,327.6,431.9,327.7,432,327.8L432,327.8z"/>
		<path class="st9" d="M458.6,346.1c0-1.1-0.1-2.2-0.3-3.3l-40.5-0.1c-0.1,1.3,0,2.6,0.2,3.8L458.6,346.1z"/>
		<path class="st19" d="M466.8,373.3c0,0,19.4,14,24.8,14.2s6.5-2.2,7-3.1s9.5-7.2,9.5-7.2l2.4-17.3
			C510.4,359.8,471.3,361.8,466.8,373.3z"/>
		<path class="st20" d="M273.1,374.6c0,19.8,16.1,35.9,35.9,35.9s35.9-16.1,35.9-35.9s-16.1-35.9-35.9-35.9h0
			C289.1,338.7,273.1,354.8,273.1,374.6C273.1,374.6,273.1,374.6,273.1,374.6z"/>
		<path class="st21" d="M280.2,374.6c0,15.9,12.9,28.8,28.8,28.8s28.8-12.9,28.8-28.8c0-15.9-12.9-28.8-28.8-28.8
			C293,345.8,280.2,358.7,280.2,374.6C280.2,374.6,280.2,374.6,280.2,374.6z"/>
		<path class="st22" d="M286.1,374.6c0,12.6,10.2,22.9,22.9,22.9s22.9-10.2,22.9-22.9c0-12.6-10.2-22.9-22.9-22.9l0,0
			C296.3,351.7,286.1,362,286.1,374.6C286.1,374.6,286.1,374.6,286.1,374.6z"/>
		<path class="st23" d="M288.8,374.6c0,11.1,9,20.2,20.2,20.2s20.2-9,20.2-20.2c0-11.1-9-20.2-20.2-20.2
			C297.8,354.4,288.8,363.5,288.8,374.6C288.8,374.6,288.8,374.6,288.8,374.6z"/>
		<path class="st20" d="M503.2,374.6c0,19.8,16.1,35.9,35.9,35.9s35.9-16.1,35.9-35.9c0-19.8-16.1-35.9-35.9-35.9c0,0,0,0,0,0
			C519.3,338.8,503.2,354.8,503.2,374.6z"/>
		<path class="st21" d="M510.3,374.6c0,15.9,12.9,28.8,28.8,28.8s28.8-12.9,28.8-28.8c0-15.9-12.9-28.8-28.8-28.8
			C523.2,345.8,510.3,358.7,510.3,374.6C510.3,374.6,510.3,374.6,510.3,374.6z"/>
		<path class="st22" d="M516.2,374.6c0,12.6,10.2,22.9,22.9,22.9s22.9-10.2,22.9-22.9c0-12.6-10.2-22.9-22.9-22.9c0,0,0,0,0,0
			C526.5,351.7,516.2,362,516.2,374.6C516.2,374.6,516.2,374.6,516.2,374.6z"/>
		<path class="st23" d="M518.9,374.6c0,11.1,9,20.2,20.2,20.2c11.1,0,20.2-9,20.2-20.2c0-11.1-9-20.2-20.2-20.2c0,0,0,0,0,0
			C528,354.4,518.9,363.5,518.9,374.6C518.9,374.6,518.9,374.6,518.9,374.6z"/>
		<path class="st22" d="M563.8,309.9c0,0,14.6-0.2,16,2.9s1.7,14.2,0,16.9S563.8,309.9,563.8,309.9z"/>
		<path class="st24" d="M357.4,213.5c-1.2-0.5-2.6-0.5-3.8,0c0,0-1.4,16.2,1.9,24.1l3.6-0.1L357.4,213.5z"/>
		<path class="st25" d="M386.4,227.6c0,0,7.9,0.1,8.4,1.2s0.2,4.1-1.8,4.5s-7.1-0.8-7.1-0.8L386.4,227.6z"/>
		
			<linearGradient id="SVGID_5_" gradientUnits="userSpaceOnUse" x1="323.4699" y1="910.1972" x2="593.0099" y2="910.1972" gradientTransform="matrix(1 0 0 -1 0 1204)">
			<stop  offset="0" style="stop-color:#DFEC51"/>
			<stop  offset="1" style="stop-color:#FFF60A"/>
		</linearGradient>
		<path class="st26" d="M443.3,289.5c0,0-2.2,0.4,0,4.5s15.7,17.2,14.4,32.4s-8.1,23.9-25.3,25s-49.6,1.7-57.7-8.8
			s-17.9-37.5-17.2-44.6s19.9-48.3,22.3-53c0,0,10.8-16.9,5.4-18.6s-7.8,0-7.8,0s-7.2-13.2-20-12.8c0,0-1,16.9,1.7,24
			c0,0,10.1-0.3,9.1,2s-35.4,61.4-38.1,64.8l-2.7,3.4c0,0-3.9,6.9-3.9,9.3s40.3,41.2,43.7,46.4s9.1,10.7,24.2,10.7h76.8
			c0,0,29.3,0.2,29.8-4.5s2.9-14.2,2.9-14.2l84.2,9.8h8c0,0-9.1-48.8-44.3-65.5l-82.4-19.5L443.3,289.5z"/>
		<path class="st7" d="M441.6,285.1c0,3.8,3.1,6.8,6.9,6.8l95.3,8.8c3.7,0,6.2-3,6.2-6.8v-24.3c0-3.7-1.8-6.4-5.5-6.4h-95.8
			c-3.7,0-7,2.6-7,6.4L441.6,285.1z"/>
		<path class="st25" d="M381.1,233.4c0,0,4.2,6.8,4,8.2s-0.7,3.1-2.8,3.5s-4.6-2.8-4.6-2.8s-4.4-4.6-3.9-6.6c0.8-2.5,3.5-3.8,6-2.9
			C380.2,232.9,380.7,233.1,381.1,233.4z"/>
		
			<linearGradient id="SVGID_6_" gradientUnits="userSpaceOnUse" x1="508.14" y1="840.445" x2="551.17" y2="840.445" gradientTransform="matrix(1 0 0 -1 0 1204)">
			<stop  offset="0" style="stop-color:#DFEC51"/>
			<stop  offset="1" style="stop-color:#FFF60A"/>
		</linearGradient>
		<path class="st27" d="M508.1,363.5c0,10.7,9.6,19.4,21.5,19.4s21.5-8.7,21.5-19.4s-9.6-19.4-21.5-19.4S508.1,352.8,508.1,363.5z"
			/>
		<path class="st22" d="M500.9,364.9c0,0-24-6.1-27.2-17s-5.9-31.2,16-38.8s58.8-1.4,74,16.2s21.6,32.7,21.3,39.8L500.9,364.9z"/>
		<path class="st21" d="M563.8,365.4L563.8,365.4c0.3-0.1,0.4-0.2,0.3-0.4c0-0.1-3-10-7.2-20.2c-5.7-13.9-10.9-21.9-15.4-23.9
			c-5.2-2.2-16-4-26.8-4.3c-5.7-0.2-19.6-0.2-24.3,3.7c-7.7,6.3-0.6,31,10.3,44.9c0.1,0.1,0.3,0.2,0.5,0.1c0,0,0,0,0,0
			c0.1-0.1,0.2-0.3,0.1-0.5c-11.7-14.9-17.3-38.3-10.4-43.9c7.2-5.9,39.9-3.8,50.5,0.7s22.1,43.3,22.2,43.7
			C563.5,365.3,563.6,365.4,563.8,365.4z"/>
		<path class="st25" d="M417.5,376.3c10.5,0,22.1-0.1,33.7-0.3c7.7-0.1,14.3-0.2,15.2-0.1c0.6,0.2,1.3-0.2,1.6-0.8
			c0.3-0.7,0-1.5-0.7-1.8c0,0,0,0,0,0c-0.5-0.2-1.1-0.3-16.2,0c-20.7,0.3-69.2,1-73.7-2c-6.2-4.1-7.9-6.3-18-26.1
			c-6.7-13.3-9.3-28.4-7.5-43.2c0.4-2.4,3.5-10.3,6.5-18c3-7.9,6.2-16,7.6-20.8c3.1-10.4-0.9-16.5-1.1-16.8
			c-0.4-0.6-1.2-0.8-1.9-0.4c-0.6,0.4-0.8,1.2-0.4,1.9c0,0,0,0,0,0.1c0.1,0.2,3.4,5.4,0.7,14.5c-1.4,4.8-4.5,12.8-7.6,20.6
			c-3.3,8.5-6.1,15.8-6.6,18.4c-1.4,7.5-1.5,26.6,7.8,45c10,19.7,11.9,22.5,18.9,27.2C379.2,375.7,396,376.3,417.5,376.3z"/>
		<path class="st22" d="M332.9,318.5c-4.6-1.3-22.7-7.5-39.8,0s-20.7,18.8-19.6,21s28.1,1.1,38.7,6.6s23.8,19.4,34.6,22.2
			s21.1,2.9,17.9-6.7S352,323.8,332.9,318.5z"/>
		<line class="st28" x1="510.9" y1="343.2" x2="538.6" y2="343.2"/>
		<line class="st28" x1="512.2" y1="347" x2="539.9" y2="347"/>
		<line class="st28" x1="513.4" y1="350.8" x2="541.2" y2="350.8"/>
		<line class="st28" x1="514.7" y1="354.5" x2="542.4" y2="354.5"/>
		<path class="st4" d="M519.8,173.9c0-4.7-4.3-8.3-10.2-8.3l-35,0.9c-5.9,0-10.5,3.6-10.5,8.3v64.9h70.8L519.8,173.9z"/>
		<path class="st29" d="M474.6,265.7c0,0,16.8,5.3,25.4,3.7c6.1-1.1,24.7-3.7,24.7-3.7c1.5,0,9.8-5.9,9.8-11.1l0.3-15.2h-70.8v16.4
			C464.1,261,467.8,263,474.6,265.7z"/>
		<path class="st29" d="M529,263c1.9-2.8-6.6-10.4-12.3-14.3l0,0c-5.7-3.8-13.1-8-15-5.2l-32.6,53.7c-1.9,2.8,1.1,8,6.8,11.9l0,0
			c5.7,3.9,11.6,4.6,13.5,1.9L529,263z"/>
		<path class="st29" d="M492.9,299.4c0-3.3-5.4-6-12.2-6l0,0c-6.9,0-12.2,2.7-12.2,6v60.8c0,3.3,5.4,6,12.2,6l0,0
			c6.9,0,12.2,2.6,12.2-6V299.4z"/>
		<path class="st18" d="M454.2,374.8c0-11.7-1.6-20.4,20.1-20.4c11.2,0,20.3,8.3,20.5,20L454.2,374.8z"/>
		<path class="st9" d="M471.5,356.4c-0.1-0.1-0.3-0.2-0.4-0.2l0-0.1l0,0c0,0,0-0.1,0-0.1c0,0,0-0.1,0-0.1l0.1-0.1l0.2-0.3l0.2-0.2
			c0.1-0.1,0.2-0.2,0.2-0.2c1.4-1.2-0.6-3.2-2-2c-0.2,0.2-0.4,0.4-0.5,0.6c-0.3-0.8-1.2-1.1-2-0.8c-0.1,0.1-0.3,0.1-0.4,0.2
			c-0.7,0.6-1.1,1.3-1.4,2.1c-0.4,1.5,0.3,3.1,1.7,3.8c0.7,0.4,1.5,0.1,1.9-0.5c0-0.1,0.1-0.1,0.1-0.2c0.3,0.3,0.6,0.5,0.9,0.7
			C471.7,359.8,473.1,357.3,471.5,356.4z M468.2,356.2C468.2,356.2,468.2,356.1,468.2,356.2L468.2,356.2c-0.1-0.1-0.1-0.1-0.1-0.2
			c0,0,0-0.1,0-0.1l0,0C468.1,356,468.1,356.1,468.2,356.2L468.2,356.2z"/>
		<path class="st9" d="M494.9,374.5c0-1.1-0.1-2.2-0.3-3.3l-40.5-0.1c-0.1,1.3,0,2.5,0.2,3.8L494.9,374.5z"/>
		<path class="st21" d="M535.3,60.9h1.3c1.9,0,3.5,1.6,3.5,3.5v15.2c0,1.9-1.6,3.5-3.5,3.5h-1.3c-1.9,0-3.5-1.6-3.5-3.5V64.4
			C531.8,62.5,533.4,60.9,535.3,60.9z"/>
		<path class="st21" d="M443.5,60.9h1.3c1.9,0,3.5,1.6,3.5,3.5v15.2c0,1.9-1.6,3.5-3.5,3.5h-1.3c-1.9,0-3.5-1.6-3.5-3.5V64.4
			C439.9,62.5,441.5,60.9,443.5,60.9z"/>
		<path class="st4" d="M404,225c-3.4,1.4-4.4,5.9-2.1,9.9l0.7,1.2c2.3,4,6.9,6,10.3,4.5l40.8-17.3c3.4-1.4,4.5-5.8,2.3-9.8l-0.7-1.2
			c-2.3-4-7.1-6-10.5-4.5L404,225z"/>
		<path class="st5" d="M387.7,236.5c-2,0.8-2.9,3-2.1,5v0.1c0.8,2,3,2.9,5,2.1l17.2-7.1c2-0.8,2.9-3,2.1-5v-0.1c-0.8-2-3-2.9-5-2.1
			L387.7,236.5z"/>
		<path class="st5" d="M377.6,237c-1.9,0.8-2.2,4.5-0.7,8.2l0.1,0.2c1.5,3.7,4.4,6,6.2,5.3l16.6-6.8c1.9-0.8,2.4-4.5,0.8-8.2
			l-0.1-0.2c-1.5-3.7-4.5-6.1-6.4-5.3L377.6,237z"/>
		<path class="st6" d="M383.7,230.5c-0.9,0.2-1.4,1.5-1.1,3.1v0.1c0.4,1.6,1.4,2.6,2.3,2.4l7.9-1.7c0.9-0.2,1.4-1.6,1.1-3.2v-0.1
			c-0.4-1.6-1.4-2.6-2.3-2.4L383.7,230.5z"/>
		<path class="st4" d="M448.7,206.2c-3.4,1.7-4.2,6.3-1.6,10.1l0.8,1.1c2.6,3.8,7.6,5.2,11,3.5l56.4-29.8c3.3-1.7-1-11.6-3.6-15.3
			l-0.8-1.1c-2.6-3.8-7.4-5.4-10.8-3.7L448.7,206.2z"/>
		<path class="st19" d="M490,0c-30.7,0-55.7,29.9-55.7,66.8h111.4C545.7,29.9,520.8,0,490,0z"/>
		
			<linearGradient id="SVGID_7_" gradientUnits="userSpaceOnUse" x1="434.3" y1="1170.605" x2="545.69" y2="1170.605" gradientTransform="matrix(1 0 0 -1 0 1204)">
			<stop  offset="0" style="stop-color:#5DAF29"/>
			<stop  offset="0.6" style="stop-color:#6EBB3B"/>
			<stop  offset="1" style="stop-color:#7BC44A"/>
		</linearGradient>
		<path class="st30" d="M545.7,66.8C545.7,29.9,520.8,0,490,0c-1.6,0-3.2,0.1-4.8,0.2c28.1,3.4,50.1,31.8,50.1,66.5h-101v0.1H545.7z
			"/>
		
			<linearGradient id="SVGID_8_" gradientUnits="userSpaceOnUse" x1="434.34" y1="1170.605" x2="545.69" y2="1170.605" gradientTransform="matrix(1 0 0 -1 0 1204)">
			<stop  offset="0" style="stop-color:#5DAF29"/>
			<stop  offset="0.6" style="stop-color:#6EBB3B"/>
			<stop  offset="1" style="stop-color:#7BC44A"/>
		</linearGradient>
		<path class="st31" d="M446.5,66.7c0-34.3,21.5-62.5,49.3-66.4C493.9,0.1,491.9,0,490,0c-30.7,0-55.7,29.9-55.7,66.8h111.4v-0.1
			H446.5z"/>
		
			<linearGradient id="SVGID_9_" gradientUnits="userSpaceOnUse" x1="501.0654" y1="1179.6416" x2="490.6554" y2="1149.4116" gradientTransform="matrix(1 0 0 -1 0 1204)">
			<stop  offset="0" style="stop-color:#5C91C3"/>
			<stop  offset="1" style="stop-color:#85D0D2"/>
		</linearGradient>
		<path class="st32" d="M498.5,38c-0.3-4-2.7-8-9.5-10.2c8.1-1.3,15.8,4,17.5,12c-0.9,5.2-5.1,11.5-12.7,10.1
			c4.2-2.2,6-6.5,5.3-11.4L498.5,38z"/>
		
			<linearGradient id="SVGID_10_" gradientUnits="userSpaceOnUse" x1="472.4395" y1="1188.5798" x2="510.4795" y2="1151.8499" gradientTransform="matrix(1 0 0 -1 0 1204)">
			<stop  offset="0" style="stop-color:#5DAF29"/>
			<stop  offset="0.6" style="stop-color:#6EBB3B"/>
			<stop  offset="1" style="stop-color:#7BC44A"/>
		</linearGradient>
		<path class="st33" d="M496.2,36.6c-1.6-4.3-6.8-7.1-14.2-5.7c2-1.6,4.4-2.7,7-3.1c6.5,2.1,9.9,6.7,10.1,10.7h-0.1
			C498.2,37.8,497.2,37.2,496.2,36.6z"/>
		
			<linearGradient id="SVGID_11_" gradientUnits="userSpaceOnUse" x1="487.5474" y1="1168.6403" x2="479.7374" y2="1159.0002" gradientTransform="matrix(1 0 0 -1 0 1204)">
			<stop  offset="0" style="stop-color:#FFB509"/>
			<stop  offset="1" style="stop-color:#FDF012"/>
		</linearGradient>
		<path class="st34" d="M483.8,38.6c-3.1,2.3-5.4,6.4-5,13c-2.9-4.1-3.5-9.4-1.7-14.1c1-2.6,2.7-4.9,4.9-6.6
			c5.7-1.2,12.1,0.2,14.2,5.7C492,34.4,487.9,35,483.8,38.6L483.8,38.6z"/>
		
			<linearGradient id="SVGID_12_" gradientUnits="userSpaceOnUse" x1="488.7825" y1="1165.1287" x2="479.6125" y2="1147.8887" gradientTransform="matrix(1 0 0 -1 0 1204)">
			<stop  offset="0" style="stop-color:#FF6900"/>
			<stop  offset="1" style="stop-color:#FFBF06"/>
		</linearGradient>
		<path class="st35" d="M483.7,41.9c-3,3.7-2.9,9.2,1.7,15.2c-2.7-1.2-5-3.1-6.6-5.5c-0.4-6.8,1.9-10.8,5-13.1l0.2-0.1l-0.2,0.2
			C483.7,39.7,483.7,40.8,483.7,41.9z"/>
		
			<linearGradient id="SVGID_13_" gradientUnits="userSpaceOnUse" x1="487.8217" y1="1156.9779" x2="496.0717" y2="1151.6079" gradientTransform="matrix(1 0 0 -1 0 1204)">
			<stop  offset="0" style="stop-color:#FF2800"/>
			<stop  offset="1" style="stop-color:#FF5A0B"/>
		</linearGradient>
		<path class="st36" d="M506.1,47.4c-2,3.6-9.3,6.2-15,3.6l0,0c-4.7-1.4-7.1-4.5-7.4-9.2c-3.9,4.7-1.7,10.8,1.7,15.2
			c7.8,3.3,16.8-0.4,20.1-8.2C505.8,48.4,506,47.9,506.1,47.4z"/>
		
			<linearGradient id="SVGID_14_" gradientUnits="userSpaceOnUse" x1="503.4451" y1="1158.1459" x2="497.1251" y2="1154.1958" gradientTransform="matrix(1 0 0 -1 0 1204)">
			<stop  offset="0" style="stop-color:#97725B"/>
			<stop  offset="1" style="stop-color:#BE9F87"/>
		</linearGradient>
		<path class="st37" d="M493.8,50c7.5,1.2,11.8-5.1,12.6-10.2c0.6,2.5,0.5,5.2-0.3,7.7c-2,3.7-9.3,6.2-15,3.6
			C492.1,50.8,493,50.5,493.8,50z"/>
		<path class="st38" d="M488.6,146.9c28.4,0,51.5-25.4,51.5-56.8c0-7.1-1.2-14.2-3.6-20.9h-95.8c-2.4,6.7-3.6,13.8-3.6,20.9
			C437.1,121.5,460.2,146.9,488.6,146.9z"/>
		<path class="st38" d="M468.7,158.1c6.1,4.7,13.6,7.4,21.3,7.5c6.9-0.1,13.6-2.2,19.3-6.1c-6.1,1.5-12.3,2.3-18.5,2.3
			C483.3,161.8,475.8,160.5,468.7,158.1z"/>
		<path class="st38" d="M534.5,70.1c-0.6,15.8-1.6,41.2-2.5,58.3c3.8-10.7,5.7-21.9,5.6-33.2C537.6,86.7,536.5,78.3,534.5,70.1z"/>
		<path class="st21" d="M537.5,95.1c0,12-1.7,23.3-5.2,33.2c-0.2,3.2-0.3,6-0.5,8.5c5.5-11.9,8.3-26.2,8.3-41.7
			c0-8.7-1-17.4-3.1-25.9h-2.5v0.9C536.6,78.3,537.6,86.7,537.5,95.1z"/>
		<path class="st21" d="M442.5,95.1c0-8.7,1.1-17.5,3.3-25.9h-2.8c-2.1,8.5-3.2,17.2-3.1,25.9c0,16.3,2.4,31.4,8.4,43.7
			c-0.2-2.3-0.3-4.9-0.5-8C443.8,120.4,442.5,108.2,442.5,95.1z"/>
		<path class="st21" d="M534.5,70.1v-0.9h-0.2C534.3,69.5,534.4,69.8,534.5,70.1z"/>
		<path class="st21" d="M490,165.6c-7.7,0-14.8-1.2-21.2-6c-3.3-1.1-6.5-2.5-9.5-4.2c14.8,17,40.6,18.8,57.6,4
			c0.6-0.6,1.3-1.1,1.9-1.7c-2.9,1.2-5.8,2.2-8.9,3C504,164.5,496.9,165.6,490,165.6z"/>
	</g>
</g>
</svg>
