<svg xmlns="http://www.w3.org/2000/svg" xmlns:xlink="http://www.w3.org/1999/xlink" viewBox="0 0 1919.6 1053.68"><defs><style>.cls-1{isolation:isolate;}.cls-2{fill:url(#Degradado_sin_nombre_15);}.cls-3,.cls-7{fill:#73aa0a;}.cls-3{mix-blend-mode:multiply;}.cls-4{fill:#dfec51;}.cls-5{fill:#cd58a0;}.cls-6,.cls-8{mix-blend-mode:overlay;}.cls-6{fill:url(#Degradado_sin_nombre_32);}.cls-8{fill:url(#Degradado_sin_nombre_32-2);}.cls-9{fill:url(#Degradado_sin_nombre_33);}</style><linearGradient id="Degradado_sin_nombre_15" y1="547.44" x2="273.77" y2="547.44" gradientUnits="userSpaceOnUse"><stop offset="0" stop-color="#dfec51"/><stop offset="1" stop-color="#73aa0a"/></linearGradient><linearGradient id="Degradado_sin_nombre_32" x1="1895.13" y1="1011.63" x2="1733.51" y2="1011.63" gradientUnits="userSpaceOnUse"><stop offset="0"/><stop offset="1" stop-color="#fff"/></linearGradient><linearGradient id="Degradado_sin_nombre_32-2" x1="1894.89" y1="876.44" x2="1731.71" y2="876.44" xlink:href="#Degradado_sin_nombre_32"/><radialGradient id="Degradado_sin_nombre_33" cx="1869.25" cy="123.92" r="136.05" xlink:href="#Degradado_sin_nombre_15"/></defs><title>shapeClients_2</title><g class="cls-1"><g id="Capa_2" data-name="Capa 2"><g id="Capa_1-2" data-name="Capa 1"><path class="cls-2" d="M193.68,824.74c-118.82-66-195.19-165-24.83-370.74,146-176.34,59.74-291.69,19.72-330.55,0,0-95.77-104.61-188.29-77.88V145.9A41.32,41.32,0,0,0,0,150.64V798.26H0v99.16a156.26,156.26,0,0,0,156.26,156.26h0a117.53,117.53,0,0,0,37.42-228.94Z"/><path class="cls-3" d="M283.26,108.89S182.23-65.45.28,27.06L0,108.89V607.62C0,377.27,426,330.68,283.26,108.89Z"/><path class="cls-4" d="M1695.38,849.4c0,91.12,83.86,165,187.3,165a212.06,212.06,0,0,0,36.92-3.22V849.4Z"/><path class="cls-4" d="M1919.6,712.51C1889.08,847,1701.43,738.1,1695.38,850H1919.6Z"/><path class="cls-5" d="M1919.6,1000.24V849.4"/><path class="cls-6" d="M1905.88,1011.94h.83q6.51,0,12.89-.5v-.15Q1912.82,1011.9,1905.88,1011.94Z"/><path class="cls-7" d="M1905,682a165,165,0,1,0,0,330c4.92,0,9.79-.23,14.6-.65V682.63C1914.79,682.21,1909.92,682,1905,682Z"/><path class="cls-8" d="M1919.6,740.93c-24.33,106.2-173.34,21.11-179.5,107.86H1740c0,.34,0,.68,0,1,0,.06,0,.12,0,.19h0c.66,90.26,74.52,161.5,165.72,161.93q7,0,13.85-.64V740.93Z"/><circle class="cls-9" cx="1829.81" cy="162.29" r="81.63"/></g></g></g></svg>