<svg xmlns="http://www.w3.org/2000/svg" xmlns:xlink="http://www.w3.org/1999/xlink" viewBox="0 0 801.08 728.32"><defs><style>.cls-1{fill:url(#Degradado_sin_nombre_15);}.cls-2{fill:url(#Degradado_sin_nombre_15-2);}</style><linearGradient id="Degradado_sin_nombre_15" x1="358.54" y1="422.08" x2="493.38" y2="-166.4" gradientUnits="userSpaceOnUse"><stop offset="0" stop-color="#dfec51"/><stop offset="1" stop-color="#73aa0a"/></linearGradient><linearGradient id="Degradado_sin_nombre_15-2" x1="-263.46" y1="364.16" x2="768.26" y2="364.16" xlink:href="#Degradado_sin_nombre_15"/></defs><title>weare-shape</title><g id="Capa_2" data-name="Capa 2"><g id="DESIGNED_BY_FREEPIK" data-name="DESIGNED BY FREEPIK"><path class="cls-1" d="M739.05,329.28C695.59,311,638.9,322.76,606.31,288.1c-20.16-21.44-23.68-54-39.2-79.18-23.57-38.21-70.7-53.33-114.59-58.18-39.79-4.4-83.61-4.08-114.25-30.44-27.86-24-37.7-64.75-65.7-88.56C240.41,4.39,193.79,6.61,152.33,12.18Q98.21,19.47,44.76,31.05C32.47,33.71,16.19,35.75,0,38.83V538.25H731.63c4.18-3.3,8.32-6.67,12.37-10.15,22.45-19.34,43.29-42.35,52.49-70.87C812.32,408.19,785.71,348.92,739.05,329.28Z"/><path class="cls-2" d="M700.68,380.55C653.32,358.83,591.55,372.8,556,331.66c-22-25.44-25.8-64.12-42.71-94-25.69-45.36-77-63.31-124.86-69.07-43.35-5.21-91.11-4.83-124.48-36.12C233.63,104,222.9,55.62,192.4,27.36,157.35-5.11,106.55-2.46,61.38,4.15Q30.6,8.66,0,14.58V706.21c2.84.65,5.67,1.27,8.51,1.87,95.38,20.16,193.27,17.19,290.34,18.88,80,1.39,161.16,5.86,238.89-15.25,61.67-16.75,119.77-49.59,168.32-95.17,24.46-22.95,47.17-50.27,57.2-84.12C780.51,474.21,751.51,403.86,700.68,380.55Z"/></g></g></svg>